  0
SECTION
  2
BLOCKS
  0
ENDSEC
  0
SECTION
  2
ENTITIES
  0
LINE
  8
0
 10
-22.5
 11
-22.5
 20
-22.5
 21
22.5
  0
LINE
  8
0
 10
-22.5
 11
22.5
 20
22.5
 21
22.5
  0
LINE
  8
0
 10
22.5
 11
22.5
 20
22.5
 21
-22.5
  0
LINE
  8
0
 10
22.5
 11
-22.5
 20
-22.5
 21
-22.5
  0
LINE
  8
0
 10
-17
 11
-16.982
 20
-15.5
 21
-15.265
  0
LINE
  8
0
 10
-16.982
 11
-16.927
 20
-15.265
 21
-15.036
  0
LINE
  8
0
 10
-16.927
 11
-16.837
 20
-15.036
 21
-14.819
  0
LINE
  8
0
 10
-16.837
 11
-16.714
 20
-14.819
 21
-14.618
  0
LINE
  8
0
 10
-16.714
 11
-16.561
 20
-14.618
 21
-14.439
  0
LINE
  8
0
 10
-16.561
 11
-16.382
 20
-14.439
 21
-14.286
  0
LINE
  8
0
 10
-16.382
 11
-16.181
 20
-14.286
 21
-14.163
  0
LINE
  8
0
 10
-16.181
 11
-15.964
 20
-14.163
 21
-14.073
  0
LINE
  8
0
 10
-15.964
 11
-15.735
 20
-14.073
 21
-14.018
  0
LINE
  8
0
 10
-15.735
 11
-15.5
 20
-14.018
 21
-14
  0
LINE
  8
0
 10
-15.5
 11
-15.265
 20
-14
 21
-14.018
  0
LINE
  8
0
 10
-15.265
 11
-15.036
 20
-14.018
 21
-14.073
  0
LINE
  8
0
 10
-15.036
 11
-14.819
 20
-14.073
 21
-14.163
  0
LINE
  8
0
 10
-14.819
 11
-14.618
 20
-14.163
 21
-14.286
  0
LINE
  8
0
 10
-14.618
 11
-14.439
 20
-14.286
 21
-14.439
  0
LINE
  8
0
 10
-14.439
 11
-14.286
 20
-14.439
 21
-14.618
  0
LINE
  8
0
 10
-14.286
 11
-14.163
 20
-14.618
 21
-14.819
  0
LINE
  8
0
 10
-14.163
 11
-14.073
 20
-14.819
 21
-15.036
  0
LINE
  8
0
 10
-14.073
 11
-14.018
 20
-15.036
 21
-15.265
  0
LINE
  8
0
 10
-14.018
 11
-14
 20
-15.265
 21
-15.5
  0
LINE
  8
0
 10
-14
 11
-14.018
 20
-15.5
 21
-15.735
  0
LINE
  8
0
 10
-14.018
 11
-14.073
 20
-15.735
 21
-15.964
  0
LINE
  8
0
 10
-14.073
 11
-14.163
 20
-15.964
 21
-16.181
  0
LINE
  8
0
 10
-14.163
 11
-14.286
 20
-16.181
 21
-16.382
  0
LINE
  8
0
 10
-14.286
 11
-14.439
 20
-16.382
 21
-16.561
  0
LINE
  8
0
 10
-14.439
 11
-14.618
 20
-16.561
 21
-16.714
  0
LINE
  8
0
 10
-14.618
 11
-14.819
 20
-16.714
 21
-16.837
  0
LINE
  8
0
 10
-14.819
 11
-15.036
 20
-16.837
 21
-16.927
  0
LINE
  8
0
 10
-15.036
 11
-15.265
 20
-16.927
 21
-16.982
  0
LINE
  8
0
 10
-15.265
 11
-15.5
 20
-16.982
 21
-17
  0
LINE
  8
0
 10
-15.5
 11
-15.735
 20
-17
 21
-16.982
  0
LINE
  8
0
 10
-15.735
 11
-15.964
 20
-16.982
 21
-16.927
  0
LINE
  8
0
 10
-15.964
 11
-16.181
 20
-16.927
 21
-16.837
  0
LINE
  8
0
 10
-16.181
 11
-16.382
 20
-16.837
 21
-16.714
  0
LINE
  8
0
 10
-16.382
 11
-16.561
 20
-16.714
 21
-16.561
  0
LINE
  8
0
 10
-16.561
 11
-16.714
 20
-16.561
 21
-16.382
  0
LINE
  8
0
 10
-16.714
 11
-16.837
 20
-16.382
 21
-16.181
  0
LINE
  8
0
 10
-16.837
 11
-16.927
 20
-16.181
 21
-15.964
  0
LINE
  8
0
 10
-16.927
 11
-16.982
 20
-15.964
 21
-15.735
  0
LINE
  8
0
 10
-16.982
 11
-17
 20
-15.735
 21
-15.5
  0
LINE
  8
0
 10
-17
 11
-16.982
 20
15.5
 21
15.735
  0
LINE
  8
0
 10
-16.982
 11
-16.927
 20
15.735
 21
15.964
  0
LINE
  8
0
 10
-16.927
 11
-16.837
 20
15.964
 21
16.181
  0
LINE
  8
0
 10
-16.837
 11
-16.714
 20
16.181
 21
16.382
  0
LINE
  8
0
 10
-16.714
 11
-16.561
 20
16.382
 21
16.561
  0
LINE
  8
0
 10
-16.561
 11
-16.382
 20
16.561
 21
16.714
  0
LINE
  8
0
 10
-16.382
 11
-16.181
 20
16.714
 21
16.837
  0
LINE
  8
0
 10
-16.181
 11
-15.964
 20
16.837
 21
16.927
  0
LINE
  8
0
 10
-15.964
 11
-15.735
 20
16.927
 21
16.982
  0
LINE
  8
0
 10
-15.735
 11
-15.5
 20
16.982
 21
17
  0
LINE
  8
0
 10
-15.5
 11
-15.265
 20
17
 21
16.982
  0
LINE
  8
0
 10
-15.265
 11
-15.036
 20
16.982
 21
16.927
  0
LINE
  8
0
 10
-15.036
 11
-14.819
 20
16.927
 21
16.837
  0
LINE
  8
0
 10
-14.819
 11
-14.618
 20
16.837
 21
16.714
  0
LINE
  8
0
 10
-14.618
 11
-14.439
 20
16.714
 21
16.561
  0
LINE
  8
0
 10
-14.439
 11
-14.286
 20
16.561
 21
16.382
  0
LINE
  8
0
 10
-14.286
 11
-14.163
 20
16.382
 21
16.181
  0
LINE
  8
0
 10
-14.163
 11
-14.073
 20
16.181
 21
15.964
  0
LINE
  8
0
 10
-14.073
 11
-14.018
 20
15.964
 21
15.735
  0
LINE
  8
0
 10
-14.018
 11
-14
 20
15.735
 21
15.5
  0
LINE
  8
0
 10
-14
 11
-14.018
 20
15.5
 21
15.265
  0
LINE
  8
0
 10
-14.018
 11
-14.073
 20
15.265
 21
15.036
  0
LINE
  8
0
 10
-14.073
 11
-14.163
 20
15.036
 21
14.819
  0
LINE
  8
0
 10
-14.163
 11
-14.286
 20
14.819
 21
14.618
  0
LINE
  8
0
 10
-14.286
 11
-14.439
 20
14.618
 21
14.439
  0
LINE
  8
0
 10
-14.439
 11
-14.618
 20
14.439
 21
14.286
  0
LINE
  8
0
 10
-14.618
 11
-14.819
 20
14.286
 21
14.163
  0
LINE
  8
0
 10
-14.819
 11
-15.036
 20
14.163
 21
14.073
  0
LINE
  8
0
 10
-15.036
 11
-15.265
 20
14.073
 21
14.018
  0
LINE
  8
0
 10
-15.265
 11
-15.5
 20
14.018
 21
14
  0
LINE
  8
0
 10
-15.5
 11
-15.735
 20
14
 21
14.018
  0
LINE
  8
0
 10
-15.735
 11
-15.964
 20
14.018
 21
14.073
  0
LINE
  8
0
 10
-15.964
 11
-16.181
 20
14.073
 21
14.163
  0
LINE
  8
0
 10
-16.181
 11
-16.382
 20
14.163
 21
14.286
  0
LINE
  8
0
 10
-16.382
 11
-16.561
 20
14.286
 21
14.439
  0
LINE
  8
0
 10
-16.561
 11
-16.714
 20
14.439
 21
14.618
  0
LINE
  8
0
 10
-16.714
 11
-16.837
 20
14.618
 21
14.819
  0
LINE
  8
0
 10
-16.837
 11
-16.927
 20
14.819
 21
15.036
  0
LINE
  8
0
 10
-16.927
 11
-16.982
 20
15.036
 21
15.265
  0
LINE
  8
0
 10
-16.982
 11
-17
 20
15.265
 21
15.5
  0
LINE
  8
0
 10
-11.1
 11
-10.963
 20
0
 21
1.736
  0
LINE
  8
0
 10
-10.963
 11
-10.557
 20
1.736
 21
3.43
  0
LINE
  8
0
 10
-10.557
 11
-9.89
 20
3.43
 21
5.039
  0
LINE
  8
0
 10
-9.89
 11
-8.98
 20
5.039
 21
6.524
  0
LINE
  8
0
 10
-8.98
 11
-7.849
 20
6.524
 21
7.849
  0
LINE
  8
0
 10
-7.849
 11
-6.524
 20
7.849
 21
8.98
  0
LINE
  8
0
 10
-6.524
 11
-5.039
 20
8.98
 21
9.89
  0
LINE
  8
0
 10
-5.039
 11
-3.43
 20
9.89
 21
10.557
  0
LINE
  8
0
 10
-3.43
 11
-1.736
 20
10.557
 21
10.963
  0
LINE
  8
0
 10
-1.736
 11
0
 20
10.963
 21
11.1
  0
LINE
  8
0
 10
0
 11
1.736
 20
11.1
 21
10.963
  0
LINE
  8
0
 10
1.736
 11
3.43
 20
10.963
 21
10.557
  0
LINE
  8
0
 10
3.43
 11
5.039
 20
10.557
 21
9.89
  0
LINE
  8
0
 10
5.039
 11
6.524
 20
9.89
 21
8.98
  0
LINE
  8
0
 10
6.524
 11
7.849
 20
8.98
 21
7.849
  0
LINE
  8
0
 10
7.849
 11
8.98
 20
7.849
 21
6.524
  0
LINE
  8
0
 10
8.98
 11
9.89
 20
6.524
 21
5.039
  0
LINE
  8
0
 10
9.89
 11
10.557
 20
5.039
 21
3.43
  0
LINE
  8
0
 10
10.557
 11
10.963
 20
3.43
 21
1.736
  0
LINE
  8
0
 10
10.963
 11
11.1
 20
1.736
 21
0
  0
LINE
  8
0
 10
11.1
 11
10.963
 20
0
 21
-1.736
  0
LINE
  8
0
 10
10.963
 11
10.557
 20
-1.736
 21
-3.43
  0
LINE
  8
0
 10
10.557
 11
9.89
 20
-3.43
 21
-5.039
  0
LINE
  8
0
 10
9.89
 11
8.98
 20
-5.039
 21
-6.524
  0
LINE
  8
0
 10
8.98
 11
7.849
 20
-6.524
 21
-7.849
  0
LINE
  8
0
 10
7.849
 11
6.524
 20
-7.849
 21
-8.98
  0
LINE
  8
0
 10
6.524
 11
5.039
 20
-8.98
 21
-9.89
  0
LINE
  8
0
 10
5.039
 11
3.43
 20
-9.89
 21
-10.557
  0
LINE
  8
0
 10
3.43
 11
1.736
 20
-10.557
 21
-10.963
  0
LINE
  8
0
 10
1.736
 11
0
 20
-10.963
 21
-11.1
  0
LINE
  8
0
 10
0
 11
-1.736
 20
-11.1
 21
-10.963
  0
LINE
  8
0
 10
-1.736
 11
-3.43
 20
-10.963
 21
-10.557
  0
LINE
  8
0
 10
-3.43
 11
-5.039
 20
-10.557
 21
-9.89
  0
LINE
  8
0
 10
-5.039
 11
-6.524
 20
-9.89
 21
-8.98
  0
LINE
  8
0
 10
-6.524
 11
-7.849
 20
-8.98
 21
-7.849
  0
LINE
  8
0
 10
-7.849
 11
-8.98
 20
-7.849
 21
-6.524
  0
LINE
  8
0
 10
-8.98
 11
-9.89
 20
-6.524
 21
-5.039
  0
LINE
  8
0
 10
-9.89
 11
-10.557
 20
-5.039
 21
-3.43
  0
LINE
  8
0
 10
-10.557
 11
-10.963
 20
-3.43
 21
-1.736
  0
LINE
  8
0
 10
-10.963
 11
-11.1
 20
-1.736
 21
0
  0
LINE
  8
0
 10
14
 11
14.018
 20
-15.5
 21
-15.265
  0
LINE
  8
0
 10
14.018
 11
14.073
 20
-15.265
 21
-15.036
  0
LINE
  8
0
 10
14.073
 11
14.163
 20
-15.036
 21
-14.819
  0
LINE
  8
0
 10
14.163
 11
14.286
 20
-14.819
 21
-14.618
  0
LINE
  8
0
 10
14.286
 11
14.439
 20
-14.618
 21
-14.439
  0
LINE
  8
0
 10
14.439
 11
14.618
 20
-14.439
 21
-14.286
  0
LINE
  8
0
 10
14.618
 11
14.819
 20
-14.286
 21
-14.163
  0
LINE
  8
0
 10
14.819
 11
15.036
 20
-14.163
 21
-14.073
  0
LINE
  8
0
 10
15.036
 11
15.265
 20
-14.073
 21
-14.018
  0
LINE
  8
0
 10
15.265
 11
15.5
 20
-14.018
 21
-14
  0
LINE
  8
0
 10
15.5
 11
15.735
 20
-14
 21
-14.018
  0
LINE
  8
0
 10
15.735
 11
15.964
 20
-14.018
 21
-14.073
  0
LINE
  8
0
 10
15.964
 11
16.181
 20
-14.073
 21
-14.163
  0
LINE
  8
0
 10
16.181
 11
16.382
 20
-14.163
 21
-14.286
  0
LINE
  8
0
 10
16.382
 11
16.561
 20
-14.286
 21
-14.439
  0
LINE
  8
0
 10
16.561
 11
16.714
 20
-14.439
 21
-14.618
  0
LINE
  8
0
 10
16.714
 11
16.837
 20
-14.618
 21
-14.819
  0
LINE
  8
0
 10
16.837
 11
16.927
 20
-14.819
 21
-15.036
  0
LINE
  8
0
 10
16.927
 11
16.982
 20
-15.036
 21
-15.265
  0
LINE
  8
0
 10
16.982
 11
17
 20
-15.265
 21
-15.5
  0
LINE
  8
0
 10
17
 11
16.982
 20
-15.5
 21
-15.735
  0
LINE
  8
0
 10
16.982
 11
16.927
 20
-15.735
 21
-15.964
  0
LINE
  8
0
 10
16.927
 11
16.837
 20
-15.964
 21
-16.181
  0
LINE
  8
0
 10
16.837
 11
16.714
 20
-16.181
 21
-16.382
  0
LINE
  8
0
 10
16.714
 11
16.561
 20
-16.382
 21
-16.561
  0
LINE
  8
0
 10
16.561
 11
16.382
 20
-16.561
 21
-16.714
  0
LINE
  8
0
 10
16.382
 11
16.181
 20
-16.714
 21
-16.837
  0
LINE
  8
0
 10
16.181
 11
15.964
 20
-16.837
 21
-16.927
  0
LINE
  8
0
 10
15.964
 11
15.735
 20
-16.927
 21
-16.982
  0
LINE
  8
0
 10
15.735
 11
15.5
 20
-16.982
 21
-17
  0
LINE
  8
0
 10
15.5
 11
15.265
 20
-17
 21
-16.982
  0
LINE
  8
0
 10
15.265
 11
15.036
 20
-16.982
 21
-16.927
  0
LINE
  8
0
 10
15.036
 11
14.819
 20
-16.927
 21
-16.837
  0
LINE
  8
0
 10
14.819
 11
14.618
 20
-16.837
 21
-16.714
  0
LINE
  8
0
 10
14.618
 11
14.439
 20
-16.714
 21
-16.561
  0
LINE
  8
0
 10
14.439
 11
14.286
 20
-16.561
 21
-16.382
  0
LINE
  8
0
 10
14.286
 11
14.163
 20
-16.382
 21
-16.181
  0
LINE
  8
0
 10
14.163
 11
14.073
 20
-16.181
 21
-15.964
  0
LINE
  8
0
 10
14.073
 11
14.018
 20
-15.964
 21
-15.735
  0
LINE
  8
0
 10
14.018
 11
14
 20
-15.735
 21
-15.5
  0
LINE
  8
0
 10
14
 11
14.018
 20
15.5
 21
15.735
  0
LINE
  8
0
 10
14.018
 11
14.073
 20
15.735
 21
15.964
  0
LINE
  8
0
 10
14.073
 11
14.163
 20
15.964
 21
16.181
  0
LINE
  8
0
 10
14.163
 11
14.286
 20
16.181
 21
16.382
  0
LINE
  8
0
 10
14.286
 11
14.439
 20
16.382
 21
16.561
  0
LINE
  8
0
 10
14.439
 11
14.618
 20
16.561
 21
16.714
  0
LINE
  8
0
 10
14.618
 11
14.819
 20
16.714
 21
16.837
  0
LINE
  8
0
 10
14.819
 11
15.036
 20
16.837
 21
16.927
  0
LINE
  8
0
 10
15.036
 11
15.265
 20
16.927
 21
16.982
  0
LINE
  8
0
 10
15.265
 11
15.5
 20
16.982
 21
17
  0
LINE
  8
0
 10
15.5
 11
15.735
 20
17
 21
16.982
  0
LINE
  8
0
 10
15.735
 11
15.964
 20
16.982
 21
16.927
  0
LINE
  8
0
 10
15.964
 11
16.181
 20
16.927
 21
16.837
  0
LINE
  8
0
 10
16.181
 11
16.382
 20
16.837
 21
16.714
  0
LINE
  8
0
 10
16.382
 11
16.561
 20
16.714
 21
16.561
  0
LINE
  8
0
 10
16.561
 11
16.714
 20
16.561
 21
16.382
  0
LINE
  8
0
 10
16.714
 11
16.837
 20
16.382
 21
16.181
  0
LINE
  8
0
 10
16.837
 11
16.927
 20
16.181
 21
15.964
  0
LINE
  8
0
 10
16.927
 11
16.982
 20
15.964
 21
15.735
  0
LINE
  8
0
 10
16.982
 11
17
 20
15.735
 21
15.5
  0
LINE
  8
0
 10
17
 11
16.982
 20
15.5
 21
15.265
  0
LINE
  8
0
 10
16.982
 11
16.927
 20
15.265
 21
15.036
  0
LINE
  8
0
 10
16.927
 11
16.837
 20
15.036
 21
14.819
  0
LINE
  8
0
 10
16.837
 11
16.714
 20
14.819
 21
14.618
  0
LINE
  8
0
 10
16.714
 11
16.561
 20
14.618
 21
14.439
  0
LINE
  8
0
 10
16.561
 11
16.382
 20
14.439
 21
14.286
  0
LINE
  8
0
 10
16.382
 11
16.181
 20
14.286
 21
14.163
  0
LINE
  8
0
 10
16.181
 11
15.964
 20
14.163
 21
14.073
  0
LINE
  8
0
 10
15.964
 11
15.735
 20
14.073
 21
14.018
  0
LINE
  8
0
 10
15.735
 11
15.5
 20
14.018
 21
14
  0
LINE
  8
0
 10
15.5
 11
15.265
 20
14
 21
14.018
  0
LINE
  8
0
 10
15.265
 11
15.036
 20
14.018
 21
14.073
  0
LINE
  8
0
 10
15.036
 11
14.819
 20
14.073
 21
14.163
  0
LINE
  8
0
 10
14.819
 11
14.618
 20
14.163
 21
14.286
  0
LINE
  8
0
 10
14.618
 11
14.439
 20
14.286
 21
14.439
  0
LINE
  8
0
 10
14.439
 11
14.286
 20
14.439
 21
14.618
  0
LINE
  8
0
 10
14.286
 11
14.163
 20
14.618
 21
14.819
  0
LINE
  8
0
 10
14.163
 11
14.073
 20
14.819
 21
15.036
  0
LINE
  8
0
 10
14.073
 11
14.018
 20
15.036
 21
15.265
  0
LINE
  8
0
 10
14.018
 11
14
 20
15.265
 21
15.5
  0
ENDSEC
  0
SECTION
  2
OBJECTS
  0
DICTIONARY
  0
ENDSEC
  0
EOF
