  0
SECTION
  2
BLOCKS
  0
ENDSEC
  0
SECTION
  2
ENTITIES
  0
LINE
  8
0
 10
0
 11
0
 20
0
 21
22.8
  0
LINE
  8
0
 10
0
 11
19
 20
22.8
 21
22.8
  0
LINE
  8
0
 10
19
 11
19
 20
22.8
 21
28
  0
LINE
  8
0
 10
19
 11
0
 20
28
 21
28
  0
LINE
  8
0
 10
0
 11
0
 20
28
 21
38
  0
LINE
  8
0
 10
0
 11
26
 20
38
 21
38
  0
LINE
  8
0
 10
26
 11
26
 20
38
 21
0
  0
LINE
  8
0
 10
26
 11
0
 20
0
 21
0
  0
LINE
  8
0
 10
2.45
 11
2.615
 20
10.5
 21
12.07
  0
LINE
  8
0
 10
2.615
 11
3.103
 20
12.07
 21
13.571
  0
LINE
  8
0
 10
3.103
 11
3.892
 20
13.571
 21
14.938
  0
LINE
  8
0
 10
3.892
 11
4.948
 20
14.938
 21
16.111
  0
LINE
  8
0
 10
4.948
 11
6.225
 20
16.111
 21
17.038
  0
LINE
  8
0
 10
6.225
 11
7.667
 20
17.038
 21
17.68
  0
LINE
  8
0
 10
7.667
 11
9.211
 20
17.68
 21
18.009
  0
LINE
  8
0
 10
9.211
 11
10.789
 20
18.009
 21
18.009
  0
LINE
  8
0
 10
10.789
 11
12.333
 20
18.009
 21
17.68
  0
LINE
  8
0
 10
12.333
 11
13.775
 20
17.68
 21
17.038
  0
LINE
  8
0
 10
13.775
 11
15.052
 20
17.038
 21
16.111
  0
LINE
  8
0
 10
15.052
 11
16.108
 20
16.111
 21
14.938
  0
LINE
  8
0
 10
16.108
 11
16.897
 20
14.938
 21
13.571
  0
LINE
  8
0
 10
16.897
 11
17.385
 20
13.571
 21
12.07
  0
LINE
  8
0
 10
17.385
 11
17.55
 20
12.07
 21
10.5
  0
LINE
  8
0
 10
17.55
 11
17.385
 20
10.5
 21
8.93
  0
LINE
  8
0
 10
17.385
 11
16.897
 20
8.93
 21
7.429
  0
LINE
  8
0
 10
16.897
 11
16.108
 20
7.429
 21
6.062
  0
LINE
  8
0
 10
16.108
 11
15.052
 20
6.062
 21
4.889
  0
LINE
  8
0
 10
15.052
 11
13.775
 20
4.889
 21
3.962
  0
LINE
  8
0
 10
13.775
 11
12.333
 20
3.962
 21
3.32
  0
LINE
  8
0
 10
12.333
 11
10.789
 20
3.32
 21
2.991
  0
LINE
  8
0
 10
10.789
 11
9.211
 20
2.991
 21
2.991
  0
LINE
  8
0
 10
9.211
 11
7.667
 20
2.991
 21
3.32
  0
LINE
  8
0
 10
7.667
 11
6.225
 20
3.32
 21
3.962
  0
LINE
  8
0
 10
6.225
 11
4.948
 20
3.962
 21
4.889
  0
LINE
  8
0
 10
4.948
 11
3.892
 20
4.889
 21
6.062
  0
LINE
  8
0
 10
3.892
 11
3.103
 20
6.062
 21
7.429
  0
LINE
  8
0
 10
3.103
 11
2.615
 20
7.429
 21
8.93
  0
LINE
  8
0
 10
2.615
 11
2.45
 20
8.93
 21
10.5
  0
LINE
  8
0
 10
3.5
 11
3.533
 20
33
 21
33.312
  0
LINE
  8
0
 10
3.533
 11
3.63
 20
33.312
 21
33.61
  0
LINE
  8
0
 10
3.63
 11
3.786
 20
33.61
 21
33.882
  0
LINE
  8
0
 10
3.786
 11
3.996
 20
33.882
 21
34.115
  0
LINE
  8
0
 10
3.996
 11
4.25
 20
34.115
 21
34.299
  0
LINE
  8
0
 10
4.25
 11
4.536
 20
34.299
 21
34.427
  0
LINE
  8
0
 10
4.536
 11
4.843
 20
34.427
 21
34.492
  0
LINE
  8
0
 10
4.843
 11
5.157
 20
34.492
 21
34.492
  0
LINE
  8
0
 10
5.157
 11
5.464
 20
34.492
 21
34.427
  0
LINE
  8
0
 10
5.464
 11
5.75
 20
34.427
 21
34.299
  0
LINE
  8
0
 10
5.75
 11
6.004
 20
34.299
 21
34.115
  0
LINE
  8
0
 10
6.004
 11
6.214
 20
34.115
 21
33.882
  0
LINE
  8
0
 10
6.214
 11
6.37
 20
33.882
 21
33.61
  0
LINE
  8
0
 10
6.37
 11
6.467
 20
33.61
 21
33.312
  0
LINE
  8
0
 10
6.467
 11
6.5
 20
33.312
 21
33
  0
LINE
  8
0
 10
6.5
 11
6.467
 20
33
 21
32.688
  0
LINE
  8
0
 10
6.467
 11
6.37
 20
32.688
 21
32.39
  0
LINE
  8
0
 10
6.37
 11
6.214
 20
32.39
 21
32.118
  0
LINE
  8
0
 10
6.214
 11
6.004
 20
32.118
 21
31.885
  0
LINE
  8
0
 10
6.004
 11
5.75
 20
31.885
 21
31.701
  0
LINE
  8
0
 10
5.75
 11
5.464
 20
31.701
 21
31.573
  0
LINE
  8
0
 10
5.464
 11
5.157
 20
31.573
 21
31.508
  0
LINE
  8
0
 10
5.157
 11
4.843
 20
31.508
 21
31.508
  0
LINE
  8
0
 10
4.843
 11
4.536
 20
31.508
 21
31.573
  0
LINE
  8
0
 10
4.536
 11
4.25
 20
31.573
 21
31.701
  0
LINE
  8
0
 10
4.25
 11
3.996
 20
31.701
 21
31.885
  0
LINE
  8
0
 10
3.996
 11
3.786
 20
31.885
 21
32.118
  0
LINE
  8
0
 10
3.786
 11
3.63
 20
32.118
 21
32.39
  0
LINE
  8
0
 10
3.63
 11
3.533
 20
32.39
 21
32.688
  0
LINE
  8
0
 10
3.533
 11
3.5
 20
32.688
 21
33
  0
LINE
  8
0
 10
17.5
 11
17.533
 20
5
 21
5.312
  0
LINE
  8
0
 10
17.533
 11
17.63
 20
5.312
 21
5.61
  0
LINE
  8
0
 10
17.63
 11
17.786
 20
5.61
 21
5.882
  0
LINE
  8
0
 10
17.786
 11
17.996
 20
5.882
 21
6.115
  0
LINE
  8
0
 10
17.996
 11
18.25
 20
6.115
 21
6.299
  0
LINE
  8
0
 10
18.25
 11
18.536
 20
6.299
 21
6.427
  0
LINE
  8
0
 10
18.536
 11
18.843
 20
6.427
 21
6.492
  0
LINE
  8
0
 10
18.843
 11
19.157
 20
6.492
 21
6.492
  0
LINE
  8
0
 10
19.157
 11
19.464
 20
6.492
 21
6.427
  0
LINE
  8
0
 10
19.464
 11
19.75
 20
6.427
 21
6.299
  0
LINE
  8
0
 10
19.75
 11
20.004
 20
6.299
 21
6.115
  0
LINE
  8
0
 10
20.004
 11
20.214
 20
6.115
 21
5.882
  0
LINE
  8
0
 10
20.214
 11
20.37
 20
5.882
 21
5.61
  0
LINE
  8
0
 10
20.37
 11
20.467
 20
5.61
 21
5.312
  0
LINE
  8
0
 10
20.467
 11
20.5
 20
5.312
 21
5
  0
LINE
  8
0
 10
20.5
 11
20.467
 20
5
 21
4.688
  0
LINE
  8
0
 10
20.467
 11
20.37
 20
4.688
 21
4.39
  0
LINE
  8
0
 10
20.37
 11
20.214
 20
4.39
 21
4.118
  0
LINE
  8
0
 10
20.214
 11
20.004
 20
4.118
 21
3.885
  0
LINE
  8
0
 10
20.004
 11
19.75
 20
3.885
 21
3.701
  0
LINE
  8
0
 10
19.75
 11
19.464
 20
3.701
 21
3.573
  0
LINE
  8
0
 10
19.464
 11
19.157
 20
3.573
 21
3.508
  0
LINE
  8
0
 10
19.157
 11
18.843
 20
3.508
 21
3.508
  0
LINE
  8
0
 10
18.843
 11
18.536
 20
3.508
 21
3.573
  0
LINE
  8
0
 10
18.536
 11
18.25
 20
3.573
 21
3.701
  0
LINE
  8
0
 10
18.25
 11
17.996
 20
3.701
 21
3.885
  0
LINE
  8
0
 10
17.996
 11
17.786
 20
3.885
 21
4.118
  0
LINE
  8
0
 10
17.786
 11
17.63
 20
4.118
 21
4.39
  0
LINE
  8
0
 10
17.63
 11
17.533
 20
4.39
 21
4.688
  0
LINE
  8
0
 10
17.533
 11
17.5
 20
4.688
 21
5
  0
LINE
  8
0
 10
17.5
 11
17.533
 20
19
 21
19.312
  0
LINE
  8
0
 10
17.533
 11
17.63
 20
19.312
 21
19.61
  0
LINE
  8
0
 10
17.63
 11
17.786
 20
19.61
 21
19.882
  0
LINE
  8
0
 10
17.786
 11
17.996
 20
19.882
 21
20.115
  0
LINE
  8
0
 10
17.996
 11
18.25
 20
20.115
 21
20.299
  0
LINE
  8
0
 10
18.25
 11
18.536
 20
20.299
 21
20.427
  0
LINE
  8
0
 10
18.536
 11
18.843
 20
20.427
 21
20.492
  0
LINE
  8
0
 10
18.843
 11
19.157
 20
20.492
 21
20.492
  0
LINE
  8
0
 10
19.157
 11
19.464
 20
20.492
 21
20.427
  0
LINE
  8
0
 10
19.464
 11
19.75
 20
20.427
 21
20.299
  0
LINE
  8
0
 10
19.75
 11
20.004
 20
20.299
 21
20.115
  0
LINE
  8
0
 10
20.004
 11
20.214
 20
20.115
 21
19.882
  0
LINE
  8
0
 10
20.214
 11
20.37
 20
19.882
 21
19.61
  0
LINE
  8
0
 10
20.37
 11
20.467
 20
19.61
 21
19.312
  0
LINE
  8
0
 10
20.467
 11
20.5
 20
19.312
 21
19
  0
LINE
  8
0
 10
20.5
 11
20.467
 20
19
 21
18.688
  0
LINE
  8
0
 10
20.467
 11
20.37
 20
18.688
 21
18.39
  0
LINE
  8
0
 10
20.37
 11
20.214
 20
18.39
 21
18.118
  0
LINE
  8
0
 10
20.214
 11
20.004
 20
18.118
 21
17.885
  0
LINE
  8
0
 10
20.004
 11
19.75
 20
17.885
 21
17.701
  0
LINE
  8
0
 10
19.75
 11
19.464
 20
17.701
 21
17.573
  0
LINE
  8
0
 10
19.464
 11
19.157
 20
17.573
 21
17.508
  0
LINE
  8
0
 10
19.157
 11
18.843
 20
17.508
 21
17.508
  0
LINE
  8
0
 10
18.843
 11
18.536
 20
17.508
 21
17.573
  0
LINE
  8
0
 10
18.536
 11
18.25
 20
17.573
 21
17.701
  0
LINE
  8
0
 10
18.25
 11
17.996
 20
17.701
 21
17.885
  0
LINE
  8
0
 10
17.996
 11
17.786
 20
17.885
 21
18.118
  0
LINE
  8
0
 10
17.786
 11
17.63
 20
18.118
 21
18.39
  0
LINE
  8
0
 10
17.63
 11
17.533
 20
18.39
 21
18.688
  0
LINE
  8
0
 10
17.533
 11
17.5
 20
18.688
 21
19
  0
ENDSEC
  0
SECTION
  2
OBJECTS
  0
DICTIONARY
  0
ENDSEC
  0
EOF
