  0
SECTION
  2
BLOCKS
  0
ENDSEC
  0
SECTION
  2
ENTITIES
  0
LINE
  8
0
 10
-50
 11
-50
 20
-87.5
 21
87.5
  0
LINE
  8
0
 10
-50
 11
50
 20
87.5
 21
87.5
  0
LINE
  8
0
 10
50
 11
50
 20
87.5
 21
-87.5
  0
LINE
  8
0
 10
50
 11
-50
 20
-87.5
 21
-87.5
  0
LINE
  8
0
 10
-40
 11
-40
 20
45
 21
60
  0
LINE
  8
0
 10
-40
 11
40
 20
60
 21
60
  0
LINE
  8
0
 10
40
 11
40
 20
60
 21
45
  0
LINE
  8
0
 10
40
 11
-40
 20
45
 21
45
  0
LINE
  8
0
 10
-21
 11
-21
 20
-6
 21
6
  0
LINE
  8
0
 10
-21
 11
21
 20
6
 21
6
  0
LINE
  8
0
 10
21
 11
21
 20
6
 21
-6
  0
LINE
  8
0
 10
21
 11
-21
 20
-6
 21
-6
  0
LINE
  8
0
 10
-15
 11
-15
 20
-65
 21
-45
  0
LINE
  8
0
 10
-15
 11
15
 20
-45
 21
-45
  0
LINE
  8
0
 10
15
 11
15
 20
-45
 21
-65
  0
LINE
  8
0
 10
15
 11
-15
 20
-65
 21
-65
  0
LINE
  8
0
 10
-11.5
 11
-11.467
 20
-16.5
 21
-16.188
  0
LINE
  8
0
 10
-11.467
 11
-11.37
 20
-16.188
 21
-15.89
  0
LINE
  8
0
 10
-11.37
 11
-11.214
 20
-15.89
 21
-15.618
  0
LINE
  8
0
 10
-11.214
 11
-11.004
 20
-15.618
 21
-15.385
  0
LINE
  8
0
 10
-11.004
 11
-10.75
 20
-15.385
 21
-15.201
  0
LINE
  8
0
 10
-10.75
 11
-10.464
 20
-15.201
 21
-15.073
  0
LINE
  8
0
 10
-10.464
 11
-10.157
 20
-15.073
 21
-15.008
  0
LINE
  8
0
 10
-10.157
 11
-9.843
 20
-15.008
 21
-15.008
  0
LINE
  8
0
 10
-9.843
 11
-9.536
 20
-15.008
 21
-15.073
  0
LINE
  8
0
 10
-9.536
 11
-9.25
 20
-15.073
 21
-15.201
  0
LINE
  8
0
 10
-9.25
 11
-8.996
 20
-15.201
 21
-15.385
  0
LINE
  8
0
 10
-8.996
 11
-8.786
 20
-15.385
 21
-15.618
  0
LINE
  8
0
 10
-8.786
 11
-8.63
 20
-15.618
 21
-15.89
  0
LINE
  8
0
 10
-8.63
 11
-8.533
 20
-15.89
 21
-16.188
  0
LINE
  8
0
 10
-8.533
 11
-8.5
 20
-16.188
 21
-16.5
  0
LINE
  8
0
 10
-8.5
 11
-8.533
 20
-16.5
 21
-16.812
  0
LINE
  8
0
 10
-8.533
 11
-8.63
 20
-16.812
 21
-17.11
  0
LINE
  8
0
 10
-8.63
 11
-8.786
 20
-17.11
 21
-17.382
  0
LINE
  8
0
 10
-8.786
 11
-8.996
 20
-17.382
 21
-17.615
  0
LINE
  8
0
 10
-8.996
 11
-9.25
 20
-17.615
 21
-17.799
  0
LINE
  8
0
 10
-9.25
 11
-9.536
 20
-17.799
 21
-17.927
  0
LINE
  8
0
 10
-9.536
 11
-9.843
 20
-17.927
 21
-17.992
  0
LINE
  8
0
 10
-9.843
 11
-10.157
 20
-17.992
 21
-17.992
  0
LINE
  8
0
 10
-10.157
 11
-10.464
 20
-17.992
 21
-17.927
  0
LINE
  8
0
 10
-10.464
 11
-10.75
 20
-17.927
 21
-17.799
  0
LINE
  8
0
 10
-10.75
 11
-11.004
 20
-17.799
 21
-17.615
  0
LINE
  8
0
 10
-11.004
 11
-11.214
 20
-17.615
 21
-17.382
  0
LINE
  8
0
 10
-11.214
 11
-11.37
 20
-17.382
 21
-17.11
  0
LINE
  8
0
 10
-11.37
 11
-11.467
 20
-17.11
 21
-16.812
  0
LINE
  8
0
 10
-11.467
 11
-11.5
 20
-16.812
 21
-16.5
  0
LINE
  8
0
 10
-11.5
 11
-11.467
 20
16.5
 21
16.812
  0
LINE
  8
0
 10
-11.467
 11
-11.37
 20
16.812
 21
17.11
  0
LINE
  8
0
 10
-11.37
 11
-11.214
 20
17.11
 21
17.382
  0
LINE
  8
0
 10
-11.214
 11
-11.004
 20
17.382
 21
17.615
  0
LINE
  8
0
 10
-11.004
 11
-10.75
 20
17.615
 21
17.799
  0
LINE
  8
0
 10
-10.75
 11
-10.464
 20
17.799
 21
17.927
  0
LINE
  8
0
 10
-10.464
 11
-10.157
 20
17.927
 21
17.992
  0
LINE
  8
0
 10
-10.157
 11
-9.843
 20
17.992
 21
17.992
  0
LINE
  8
0
 10
-9.843
 11
-9.536
 20
17.992
 21
17.927
  0
LINE
  8
0
 10
-9.536
 11
-9.25
 20
17.927
 21
17.799
  0
LINE
  8
0
 10
-9.25
 11
-8.996
 20
17.799
 21
17.615
  0
LINE
  8
0
 10
-8.996
 11
-8.786
 20
17.615
 21
17.382
  0
LINE
  8
0
 10
-8.786
 11
-8.63
 20
17.382
 21
17.11
  0
LINE
  8
0
 10
-8.63
 11
-8.533
 20
17.11
 21
16.812
  0
LINE
  8
0
 10
-8.533
 11
-8.5
 20
16.812
 21
16.5
  0
LINE
  8
0
 10
-8.5
 11
-8.533
 20
16.5
 21
16.188
  0
LINE
  8
0
 10
-8.533
 11
-8.63
 20
16.188
 21
15.89
  0
LINE
  8
0
 10
-8.63
 11
-8.786
 20
15.89
 21
15.618
  0
LINE
  8
0
 10
-8.786
 11
-8.996
 20
15.618
 21
15.385
  0
LINE
  8
0
 10
-8.996
 11
-9.25
 20
15.385
 21
15.201
  0
LINE
  8
0
 10
-9.25
 11
-9.536
 20
15.201
 21
15.073
  0
LINE
  8
0
 10
-9.536
 11
-9.843
 20
15.073
 21
15.008
  0
LINE
  8
0
 10
-9.843
 11
-10.157
 20
15.008
 21
15.008
  0
LINE
  8
0
 10
-10.157
 11
-10.464
 20
15.008
 21
15.073
  0
LINE
  8
0
 10
-10.464
 11
-10.75
 20
15.073
 21
15.201
  0
LINE
  8
0
 10
-10.75
 11
-11.004
 20
15.201
 21
15.385
  0
LINE
  8
0
 10
-11.004
 11
-11.214
 20
15.385
 21
15.618
  0
LINE
  8
0
 10
-11.214
 11
-11.37
 20
15.618
 21
15.89
  0
LINE
  8
0
 10
-11.37
 11
-11.467
 20
15.89
 21
16.188
  0
LINE
  8
0
 10
-11.467
 11
-11.5
 20
16.188
 21
16.5
  0
LINE
  8
0
 10
8.5
 11
8.533
 20
-16.5
 21
-16.188
  0
LINE
  8
0
 10
8.533
 11
8.63
 20
-16.188
 21
-15.89
  0
LINE
  8
0
 10
8.63
 11
8.786
 20
-15.89
 21
-15.618
  0
LINE
  8
0
 10
8.786
 11
8.996
 20
-15.618
 21
-15.385
  0
LINE
  8
0
 10
8.996
 11
9.25
 20
-15.385
 21
-15.201
  0
LINE
  8
0
 10
9.25
 11
9.536
 20
-15.201
 21
-15.073
  0
LINE
  8
0
 10
9.536
 11
9.843
 20
-15.073
 21
-15.008
  0
LINE
  8
0
 10
9.843
 11
10.157
 20
-15.008
 21
-15.008
  0
LINE
  8
0
 10
10.157
 11
10.464
 20
-15.008
 21
-15.073
  0
LINE
  8
0
 10
10.464
 11
10.75
 20
-15.073
 21
-15.201
  0
LINE
  8
0
 10
10.75
 11
11.004
 20
-15.201
 21
-15.385
  0
LINE
  8
0
 10
11.004
 11
11.214
 20
-15.385
 21
-15.618
  0
LINE
  8
0
 10
11.214
 11
11.37
 20
-15.618
 21
-15.89
  0
LINE
  8
0
 10
11.37
 11
11.467
 20
-15.89
 21
-16.188
  0
LINE
  8
0
 10
11.467
 11
11.5
 20
-16.188
 21
-16.5
  0
LINE
  8
0
 10
11.5
 11
11.467
 20
-16.5
 21
-16.812
  0
LINE
  8
0
 10
11.467
 11
11.37
 20
-16.812
 21
-17.11
  0
LINE
  8
0
 10
11.37
 11
11.214
 20
-17.11
 21
-17.382
  0
LINE
  8
0
 10
11.214
 11
11.004
 20
-17.382
 21
-17.615
  0
LINE
  8
0
 10
11.004
 11
10.75
 20
-17.615
 21
-17.799
  0
LINE
  8
0
 10
10.75
 11
10.464
 20
-17.799
 21
-17.927
  0
LINE
  8
0
 10
10.464
 11
10.157
 20
-17.927
 21
-17.992
  0
LINE
  8
0
 10
10.157
 11
9.843
 20
-17.992
 21
-17.992
  0
LINE
  8
0
 10
9.843
 11
9.536
 20
-17.992
 21
-17.927
  0
LINE
  8
0
 10
9.536
 11
9.25
 20
-17.927
 21
-17.799
  0
LINE
  8
0
 10
9.25
 11
8.996
 20
-17.799
 21
-17.615
  0
LINE
  8
0
 10
8.996
 11
8.786
 20
-17.615
 21
-17.382
  0
LINE
  8
0
 10
8.786
 11
8.63
 20
-17.382
 21
-17.11
  0
LINE
  8
0
 10
8.63
 11
8.533
 20
-17.11
 21
-16.812
  0
LINE
  8
0
 10
8.533
 11
8.5
 20
-16.812
 21
-16.5
  0
LINE
  8
0
 10
8.5
 11
8.533
 20
16.5
 21
16.812
  0
LINE
  8
0
 10
8.533
 11
8.63
 20
16.812
 21
17.11
  0
LINE
  8
0
 10
8.63
 11
8.786
 20
17.11
 21
17.382
  0
LINE
  8
0
 10
8.786
 11
8.996
 20
17.382
 21
17.615
  0
LINE
  8
0
 10
8.996
 11
9.25
 20
17.615
 21
17.799
  0
LINE
  8
0
 10
9.25
 11
9.536
 20
17.799
 21
17.927
  0
LINE
  8
0
 10
9.536
 11
9.843
 20
17.927
 21
17.992
  0
LINE
  8
0
 10
9.843
 11
10.157
 20
17.992
 21
17.992
  0
LINE
  8
0
 10
10.157
 11
10.464
 20
17.992
 21
17.927
  0
LINE
  8
0
 10
10.464
 11
10.75
 20
17.927
 21
17.799
  0
LINE
  8
0
 10
10.75
 11
11.004
 20
17.799
 21
17.615
  0
LINE
  8
0
 10
11.004
 11
11.214
 20
17.615
 21
17.382
  0
LINE
  8
0
 10
11.214
 11
11.37
 20
17.382
 21
17.11
  0
LINE
  8
0
 10
11.37
 11
11.467
 20
17.11
 21
16.812
  0
LINE
  8
0
 10
11.467
 11
11.5
 20
16.812
 21
16.5
  0
LINE
  8
0
 10
11.5
 11
11.467
 20
16.5
 21
16.188
  0
LINE
  8
0
 10
11.467
 11
11.37
 20
16.188
 21
15.89
  0
LINE
  8
0
 10
11.37
 11
11.214
 20
15.89
 21
15.618
  0
LINE
  8
0
 10
11.214
 11
11.004
 20
15.618
 21
15.385
  0
LINE
  8
0
 10
11.004
 11
10.75
 20
15.385
 21
15.201
  0
LINE
  8
0
 10
10.75
 11
10.464
 20
15.201
 21
15.073
  0
LINE
  8
0
 10
10.464
 11
10.157
 20
15.073
 21
15.008
  0
LINE
  8
0
 10
10.157
 11
9.843
 20
15.008
 21
15.008
  0
LINE
  8
0
 10
9.843
 11
9.536
 20
15.008
 21
15.073
  0
LINE
  8
0
 10
9.536
 11
9.25
 20
15.073
 21
15.201
  0
LINE
  8
0
 10
9.25
 11
8.996
 20
15.201
 21
15.385
  0
LINE
  8
0
 10
8.996
 11
8.786
 20
15.385
 21
15.618
  0
LINE
  8
0
 10
8.786
 11
8.63
 20
15.618
 21
15.89
  0
LINE
  8
0
 10
8.63
 11
8.533
 20
15.89
 21
16.188
  0
LINE
  8
0
 10
8.533
 11
8.5
 20
16.188
 21
16.5
  0
ENDSEC
  0
SECTION
  2
OBJECTS
  0
DICTIONARY
  0
ENDSEC
  0
EOF
