  0
SECTION
  2
BLOCKS
  0
ENDSEC
  0
SECTION
  2
ENTITIES
  0
LINE
  8
0
 10
-4.05
 11
-4.018
 20
0
 21
0.508
  0
LINE
  8
0
 10
-4.018
 11
-3.923
 20
0.508
 21
1.007
  0
LINE
  8
0
 10
-3.923
 11
-3.766
 20
1.007
 21
1.491
  0
LINE
  8
0
 10
-3.766
 11
-3.549
 20
1.491
 21
1.951
  0
LINE
  8
0
 10
-3.549
 11
-3.277
 20
1.951
 21
2.381
  0
LINE
  8
0
 10
-3.277
 11
-2.952
 20
2.381
 21
2.772
  0
LINE
  8
0
 10
-2.952
 11
-2.582
 20
2.772
 21
3.121
  0
LINE
  8
0
 10
-2.582
 11
-2.17
 20
3.121
 21
3.42
  0
LINE
  8
0
 10
-2.17
 11
-1.724
 20
3.42
 21
3.665
  0
LINE
  8
0
 10
-1.724
 11
-1.252
 20
3.665
 21
3.852
  0
LINE
  8
0
 10
-1.252
 11
-0.759
 20
3.852
 21
3.978
  0
LINE
  8
0
 10
-0.759
 11
-0.254
 20
3.978
 21
4.042
  0
LINE
  8
0
 10
-0.254
 11
0
 20
4.042
 21
4.042
  0
LINE
  8
0
 10
0
 11
0.254
 20
4.042
 21
4.042
  0
LINE
  8
0
 10
0.254
 11
0.759
 20
4.042
 21
3.978
  0
LINE
  8
0
 10
0.759
 11
1.252
 20
3.978
 21
3.852
  0
LINE
  8
0
 10
1.252
 11
1.724
 20
3.852
 21
3.665
  0
LINE
  8
0
 10
1.724
 11
2.17
 20
3.665
 21
3.42
  0
LINE
  8
0
 10
2.17
 11
2.582
 20
3.42
 21
3.121
  0
LINE
  8
0
 10
2.582
 11
2.952
 20
3.121
 21
2.772
  0
LINE
  8
0
 10
2.952
 11
3.277
 20
2.772
 21
2.381
  0
LINE
  8
0
 10
3.277
 11
3.549
 20
2.381
 21
1.951
  0
LINE
  8
0
 10
3.549
 11
3.766
 20
1.951
 21
1.491
  0
LINE
  8
0
 10
3.766
 11
3.923
 20
1.491
 21
1.007
  0
LINE
  8
0
 10
3.923
 11
4.018
 20
1.007
 21
0.508
  0
LINE
  8
0
 10
4.018
 11
4.05
 20
0.508
 21
0
  0
LINE
  8
0
 10
4.05
 11
4.018
 20
0
 21
-0.508
  0
LINE
  8
0
 10
4.018
 11
3.923
 20
-0.508
 21
-1.007
  0
LINE
  8
0
 10
3.923
 11
3.766
 20
-1.007
 21
-1.491
  0
LINE
  8
0
 10
3.766
 11
3.549
 20
-1.491
 21
-1.951
  0
LINE
  8
0
 10
3.549
 11
3.277
 20
-1.951
 21
-2.381
  0
LINE
  8
0
 10
3.277
 11
2.952
 20
-2.381
 21
-2.772
  0
LINE
  8
0
 10
2.952
 11
2.582
 20
-2.772
 21
-3.121
  0
LINE
  8
0
 10
2.582
 11
2.17
 20
-3.121
 21
-3.42
  0
LINE
  8
0
 10
2.17
 11
1.724
 20
-3.42
 21
-3.665
  0
LINE
  8
0
 10
1.724
 11
1.252
 20
-3.665
 21
-3.852
  0
LINE
  8
0
 10
1.252
 11
0.759
 20
-3.852
 21
-3.978
  0
LINE
  8
0
 10
0.759
 11
0.254
 20
-3.978
 21
-4.042
  0
LINE
  8
0
 10
0.254
 11
-0.254
 20
-4.042
 21
-4.042
  0
LINE
  8
0
 10
-0.254
 11
-0.759
 20
-4.042
 21
-3.978
  0
LINE
  8
0
 10
-0.759
 11
-1.252
 20
-3.978
 21
-3.852
  0
LINE
  8
0
 10
-1.252
 11
-1.724
 20
-3.852
 21
-3.665
  0
LINE
  8
0
 10
-1.724
 11
-2.17
 20
-3.665
 21
-3.42
  0
LINE
  8
0
 10
-2.17
 11
-2.582
 20
-3.42
 21
-3.121
  0
LINE
  8
0
 10
-2.582
 11
-2.952
 20
-3.121
 21
-2.772
  0
LINE
  8
0
 10
-2.952
 11
-3.277
 20
-2.772
 21
-2.381
  0
LINE
  8
0
 10
-3.277
 11
-3.549
 20
-2.381
 21
-1.951
  0
LINE
  8
0
 10
-3.549
 11
-3.766
 20
-1.951
 21
-1.491
  0
LINE
  8
0
 10
-3.766
 11
-3.923
 20
-1.491
 21
-1.007
  0
LINE
  8
0
 10
-3.923
 11
-4.018
 20
-1.007
 21
-0.508
  0
LINE
  8
0
 10
-4.018
 11
-4.05
 20
-0.508
 21
0
  0
LINE
  8
0
 10
-50
 11
-40
 20
0
 21
0
  0
LINE
  8
0
 10
-40
 11
-39.685
 20
0
 21
5.013
  0
LINE
  8
0
 10
-39.685
 11
-38.743
 20
5.013
 21
9.948
  0
LINE
  8
0
 10
-38.743
 11
-37.191
 20
9.948
 21
14.725
  0
LINE
  8
0
 10
-37.191
 11
-35.052
 20
14.725
 21
19.27
  0
LINE
  8
0
 10
-35.052
 11
-32.361
 20
19.27
 21
23.511
  0
LINE
  8
0
 10
-32.361
 11
-29.159
 20
23.511
 21
27.382
  0
LINE
  8
0
 10
-29.159
 11
-25.497
 20
27.382
 21
30.821
  0
LINE
  8
0
 10
-25.497
 11
-21.433
 20
30.821
 21
33.773
  0
LINE
  8
0
 10
-21.433
 11
-17.031
 20
33.773
 21
36.193
  0
LINE
  8
0
 10
-17.031
 11
-12.361
 20
36.193
 21
38.042
  0
LINE
  8
0
 10
-12.361
 11
-7.495
 20
38.042
 21
39.291
  0
LINE
  8
0
 10
-7.495
 11
-2.512
 20
39.291
 21
39.921
  0
LINE
  8
0
 10
-2.512
 11
0
 20
39.921
 21
39.921
  0
LINE
  8
0
 10
0
 11
0
 20
39.921
 21
49.901
  0
LINE
  8
0
 10
0
 11
3.14
 20
49.901
 21
49.901
  0
LINE
  8
0
 10
3.14
 11
9.369
 20
49.901
 21
49.114
  0
LINE
  8
0
 10
9.369
 11
15.451
 20
49.114
 21
47.553
  0
LINE
  8
0
 10
15.451
 11
21.289
 20
47.553
 21
45.241
  0
LINE
  8
0
 10
21.289
 11
26.791
 20
45.241
 21
42.216
  0
LINE
  8
0
 10
26.791
 11
31.871
 20
42.216
 21
38.526
  0
LINE
  8
0
 10
31.871
 11
36.448
 20
38.526
 21
34.227
  0
LINE
  8
0
 10
36.448
 11
40.451
 20
34.227
 21
29.389
  0
LINE
  8
0
 10
40.451
 11
43.815
 20
29.389
 21
24.088
  0
LINE
  8
0
 10
43.815
 11
46.489
 20
24.088
 21
18.406
  0
LINE
  8
0
 10
46.489
 11
48.429
 20
18.406
 21
12.434
  0
LINE
  8
0
 10
48.429
 11
49.606
 20
12.434
 21
6.267
  0
LINE
  8
0
 10
49.606
 11
50
 20
6.267
 21
0
  0
LINE
  8
0
 10
50
 11
40
 20
0
 21
0
  0
LINE
  8
0
 10
40
 11
39.685
 20
0
 21
-5.013
  0
LINE
  8
0
 10
39.685
 11
38.743
 20
-5.013
 21
-9.948
  0
LINE
  8
0
 10
38.743
 11
37.191
 20
-9.948
 21
-14.725
  0
LINE
  8
0
 10
37.191
 11
35.052
 20
-14.725
 21
-19.27
  0
LINE
  8
0
 10
35.052
 11
32.361
 20
-19.27
 21
-23.511
  0
LINE
  8
0
 10
32.361
 11
29.159
 20
-23.511
 21
-27.382
  0
LINE
  8
0
 10
29.159
 11
25.497
 20
-27.382
 21
-30.821
  0
LINE
  8
0
 10
25.497
 11
21.433
 20
-30.821
 21
-33.773
  0
LINE
  8
0
 10
21.433
 11
17.031
 20
-33.773
 21
-36.193
  0
LINE
  8
0
 10
17.031
 11
12.361
 20
-36.193
 21
-38.042
  0
LINE
  8
0
 10
12.361
 11
7.495
 20
-38.042
 21
-39.291
  0
LINE
  8
0
 10
7.495
 11
2.512
 20
-39.291
 21
-39.921
  0
LINE
  8
0
 10
2.512
 11
0
 20
-39.921
 21
-39.921
  0
LINE
  8
0
 10
0
 11
0
 20
-39.921
 21
-49.901
  0
LINE
  8
0
 10
0
 11
-3.14
 20
-49.901
 21
-49.901
  0
LINE
  8
0
 10
-3.14
 11
-9.369
 20
-49.901
 21
-49.114
  0
LINE
  8
0
 10
-9.369
 11
-15.451
 20
-49.114
 21
-47.553
  0
LINE
  8
0
 10
-15.451
 11
-21.289
 20
-47.553
 21
-45.241
  0
LINE
  8
0
 10
-21.289
 11
-26.791
 20
-45.241
 21
-42.216
  0
LINE
  8
0
 10
-26.791
 11
-31.871
 20
-42.216
 21
-38.526
  0
LINE
  8
0
 10
-31.871
 11
-36.448
 20
-38.526
 21
-34.227
  0
LINE
  8
0
 10
-36.448
 11
-40.451
 20
-34.227
 21
-29.389
  0
LINE
  8
0
 10
-40.451
 11
-43.815
 20
-29.389
 21
-24.088
  0
LINE
  8
0
 10
-43.815
 11
-46.489
 20
-24.088
 21
-18.406
  0
LINE
  8
0
 10
-46.489
 11
-48.429
 20
-18.406
 21
-12.434
  0
LINE
  8
0
 10
-48.429
 11
-49.606
 20
-12.434
 21
-6.267
  0
LINE
  8
0
 10
-49.606
 11
-50
 20
-6.267
 21
0
  0
ENDSEC
  0
SECTION
  2
OBJECTS
  0
DICTIONARY
  0
ENDSEC
  0
EOF
