  0
SECTION
  2
BLOCKS
  0
ENDSEC
  0
SECTION
  2
ENTITIES
  0
LINE
  8
0
 10
-19
 11
-19
 20
-19
 21
19
  0
LINE
  8
0
 10
-19
 11
49
 20
19
 21
19
  0
LINE
  8
0
 10
49
 11
49
 20
19
 21
-19
  0
LINE
  8
0
 10
49
 11
-19
 20
-19
 21
-19
  0
LINE
  8
0
 10
-15.5
 11
-15.467
 20
-9.5
 21
-9.188
  0
LINE
  8
0
 10
-15.467
 11
-15.37
 20
-9.188
 21
-8.89
  0
LINE
  8
0
 10
-15.37
 11
-15.214
 20
-8.89
 21
-8.618
  0
LINE
  8
0
 10
-15.214
 11
-15.004
 20
-8.618
 21
-8.385
  0
LINE
  8
0
 10
-15.004
 11
-14.75
 20
-8.385
 21
-8.201
  0
LINE
  8
0
 10
-14.75
 11
-14.464
 20
-8.201
 21
-8.073
  0
LINE
  8
0
 10
-14.464
 11
-14.157
 20
-8.073
 21
-8.008
  0
LINE
  8
0
 10
-14.157
 11
-13.843
 20
-8.008
 21
-8.008
  0
LINE
  8
0
 10
-13.843
 11
-13.536
 20
-8.008
 21
-8.073
  0
LINE
  8
0
 10
-13.536
 11
-13.25
 20
-8.073
 21
-8.201
  0
LINE
  8
0
 10
-13.25
 11
-12.996
 20
-8.201
 21
-8.385
  0
LINE
  8
0
 10
-12.996
 11
-12.786
 20
-8.385
 21
-8.618
  0
LINE
  8
0
 10
-12.786
 11
-12.63
 20
-8.618
 21
-8.89
  0
LINE
  8
0
 10
-12.63
 11
-12.533
 20
-8.89
 21
-9.188
  0
LINE
  8
0
 10
-12.533
 11
-12.5
 20
-9.188
 21
-9.5
  0
LINE
  8
0
 10
-12.5
 11
-12.533
 20
-9.5
 21
-9.812
  0
LINE
  8
0
 10
-12.533
 11
-12.63
 20
-9.812
 21
-10.11
  0
LINE
  8
0
 10
-12.63
 11
-12.786
 20
-10.11
 21
-10.382
  0
LINE
  8
0
 10
-12.786
 11
-12.996
 20
-10.382
 21
-10.615
  0
LINE
  8
0
 10
-12.996
 11
-13.25
 20
-10.615
 21
-10.799
  0
LINE
  8
0
 10
-13.25
 11
-13.536
 20
-10.799
 21
-10.927
  0
LINE
  8
0
 10
-13.536
 11
-13.843
 20
-10.927
 21
-10.992
  0
LINE
  8
0
 10
-13.843
 11
-14.157
 20
-10.992
 21
-10.992
  0
LINE
  8
0
 10
-14.157
 11
-14.464
 20
-10.992
 21
-10.927
  0
LINE
  8
0
 10
-14.464
 11
-14.75
 20
-10.927
 21
-10.799
  0
LINE
  8
0
 10
-14.75
 11
-15.004
 20
-10.799
 21
-10.615
  0
LINE
  8
0
 10
-15.004
 11
-15.214
 20
-10.615
 21
-10.382
  0
LINE
  8
0
 10
-15.214
 11
-15.37
 20
-10.382
 21
-10.11
  0
LINE
  8
0
 10
-15.37
 11
-15.467
 20
-10.11
 21
-9.812
  0
LINE
  8
0
 10
-15.467
 11
-15.5
 20
-9.812
 21
-9.5
  0
LINE
  8
0
 10
-15.5
 11
-15.467
 20
9.5
 21
9.812
  0
LINE
  8
0
 10
-15.467
 11
-15.37
 20
9.812
 21
10.11
  0
LINE
  8
0
 10
-15.37
 11
-15.214
 20
10.11
 21
10.382
  0
LINE
  8
0
 10
-15.214
 11
-15.004
 20
10.382
 21
10.615
  0
LINE
  8
0
 10
-15.004
 11
-14.75
 20
10.615
 21
10.799
  0
LINE
  8
0
 10
-14.75
 11
-14.464
 20
10.799
 21
10.927
  0
LINE
  8
0
 10
-14.464
 11
-14.157
 20
10.927
 21
10.992
  0
LINE
  8
0
 10
-14.157
 11
-13.843
 20
10.992
 21
10.992
  0
LINE
  8
0
 10
-13.843
 11
-13.536
 20
10.992
 21
10.927
  0
LINE
  8
0
 10
-13.536
 11
-13.25
 20
10.927
 21
10.799
  0
LINE
  8
0
 10
-13.25
 11
-12.996
 20
10.799
 21
10.615
  0
LINE
  8
0
 10
-12.996
 11
-12.786
 20
10.615
 21
10.382
  0
LINE
  8
0
 10
-12.786
 11
-12.63
 20
10.382
 21
10.11
  0
LINE
  8
0
 10
-12.63
 11
-12.533
 20
10.11
 21
9.812
  0
LINE
  8
0
 10
-12.533
 11
-12.5
 20
9.812
 21
9.5
  0
LINE
  8
0
 10
-12.5
 11
-12.533
 20
9.5
 21
9.188
  0
LINE
  8
0
 10
-12.533
 11
-12.63
 20
9.188
 21
8.89
  0
LINE
  8
0
 10
-12.63
 11
-12.786
 20
8.89
 21
8.618
  0
LINE
  8
0
 10
-12.786
 11
-12.996
 20
8.618
 21
8.385
  0
LINE
  8
0
 10
-12.996
 11
-13.25
 20
8.385
 21
8.201
  0
LINE
  8
0
 10
-13.25
 11
-13.536
 20
8.201
 21
8.073
  0
LINE
  8
0
 10
-13.536
 11
-13.843
 20
8.073
 21
8.008
  0
LINE
  8
0
 10
-13.843
 11
-14.157
 20
8.008
 21
8.008
  0
LINE
  8
0
 10
-14.157
 11
-14.464
 20
8.008
 21
8.073
  0
LINE
  8
0
 10
-14.464
 11
-14.75
 20
8.073
 21
8.201
  0
LINE
  8
0
 10
-14.75
 11
-15.004
 20
8.201
 21
8.385
  0
LINE
  8
0
 10
-15.004
 11
-15.214
 20
8.385
 21
8.618
  0
LINE
  8
0
 10
-15.214
 11
-15.37
 20
8.618
 21
8.89
  0
LINE
  8
0
 10
-15.37
 11
-15.467
 20
8.89
 21
9.188
  0
LINE
  8
0
 10
-15.467
 11
-15.5
 20
9.188
 21
9.5
  0
LINE
  8
0
 10
-7.53
 11
-7.365
 20
0
 21
1.566
  0
LINE
  8
0
 10
-7.365
 11
-6.879
 20
1.566
 21
3.063
  0
LINE
  8
0
 10
-6.879
 11
-6.092
 20
3.063
 21
4.426
  0
LINE
  8
0
 10
-6.092
 11
-5.039
 20
4.426
 21
5.596
  0
LINE
  8
0
 10
-5.039
 11
-3.765
 20
5.596
 21
6.521
  0
LINE
  8
0
 10
-3.765
 11
-2.327
 20
6.521
 21
7.161
  0
LINE
  8
0
 10
-2.327
 11
-0.787
 20
7.161
 21
7.489
  0
LINE
  8
0
 10
-0.787
 11
0.787
 20
7.489
 21
7.489
  0
LINE
  8
0
 10
0.787
 11
2.327
 20
7.489
 21
7.161
  0
LINE
  8
0
 10
2.327
 11
3.765
 20
7.161
 21
6.521
  0
LINE
  8
0
 10
3.765
 11
5.039
 20
6.521
 21
5.596
  0
LINE
  8
0
 10
5.039
 11
6.092
 20
5.596
 21
4.426
  0
LINE
  8
0
 10
6.092
 11
6.879
 20
4.426
 21
3.063
  0
LINE
  8
0
 10
6.879
 11
7.365
 20
3.063
 21
1.566
  0
LINE
  8
0
 10
7.365
 11
7.53
 20
1.566
 21
0
  0
LINE
  8
0
 10
7.53
 11
7.365
 20
0
 21
-1.566
  0
LINE
  8
0
 10
7.365
 11
6.879
 20
-1.566
 21
-3.063
  0
LINE
  8
0
 10
6.879
 11
6.092
 20
-3.063
 21
-4.426
  0
LINE
  8
0
 10
6.092
 11
5.039
 20
-4.426
 21
-5.596
  0
LINE
  8
0
 10
5.039
 11
3.765
 20
-5.596
 21
-6.521
  0
LINE
  8
0
 10
3.765
 11
2.327
 20
-6.521
 21
-7.161
  0
LINE
  8
0
 10
2.327
 11
0.787
 20
-7.161
 21
-7.489
  0
LINE
  8
0
 10
0.787
 11
-0.787
 20
-7.489
 21
-7.489
  0
LINE
  8
0
 10
-0.787
 11
-2.327
 20
-7.489
 21
-7.161
  0
LINE
  8
0
 10
-2.327
 11
-3.765
 20
-7.161
 21
-6.521
  0
LINE
  8
0
 10
-3.765
 11
-5.039
 20
-6.521
 21
-5.596
  0
LINE
  8
0
 10
-5.039
 11
-6.092
 20
-5.596
 21
-4.426
  0
LINE
  8
0
 10
-6.092
 11
-6.879
 20
-4.426
 21
-3.063
  0
LINE
  8
0
 10
-6.879
 11
-7.365
 20
-3.063
 21
-1.566
  0
LINE
  8
0
 10
-7.365
 11
-7.53
 20
-1.566
 21
0
  0
LINE
  8
0
 10
12.5
 11
12.533
 20
-9.5
 21
-9.188
  0
LINE
  8
0
 10
12.533
 11
12.63
 20
-9.188
 21
-8.89
  0
LINE
  8
0
 10
12.63
 11
12.786
 20
-8.89
 21
-8.618
  0
LINE
  8
0
 10
12.786
 11
12.996
 20
-8.618
 21
-8.385
  0
LINE
  8
0
 10
12.996
 11
13.25
 20
-8.385
 21
-8.201
  0
LINE
  8
0
 10
13.25
 11
13.536
 20
-8.201
 21
-8.073
  0
LINE
  8
0
 10
13.536
 11
13.843
 20
-8.073
 21
-8.008
  0
LINE
  8
0
 10
13.843
 11
14.157
 20
-8.008
 21
-8.008
  0
LINE
  8
0
 10
14.157
 11
14.464
 20
-8.008
 21
-8.073
  0
LINE
  8
0
 10
14.464
 11
14.75
 20
-8.073
 21
-8.201
  0
LINE
  8
0
 10
14.75
 11
15.004
 20
-8.201
 21
-8.385
  0
LINE
  8
0
 10
15.004
 11
15.214
 20
-8.385
 21
-8.618
  0
LINE
  8
0
 10
15.214
 11
15.37
 20
-8.618
 21
-8.89
  0
LINE
  8
0
 10
15.37
 11
15.467
 20
-8.89
 21
-9.188
  0
LINE
  8
0
 10
15.467
 11
15.5
 20
-9.188
 21
-9.5
  0
LINE
  8
0
 10
15.5
 11
15.467
 20
-9.5
 21
-9.812
  0
LINE
  8
0
 10
15.467
 11
15.37
 20
-9.812
 21
-10.11
  0
LINE
  8
0
 10
15.37
 11
15.214
 20
-10.11
 21
-10.382
  0
LINE
  8
0
 10
15.214
 11
15.004
 20
-10.382
 21
-10.615
  0
LINE
  8
0
 10
15.004
 11
14.75
 20
-10.615
 21
-10.799
  0
LINE
  8
0
 10
14.75
 11
14.464
 20
-10.799
 21
-10.927
  0
LINE
  8
0
 10
14.464
 11
14.157
 20
-10.927
 21
-10.992
  0
LINE
  8
0
 10
14.157
 11
13.843
 20
-10.992
 21
-10.992
  0
LINE
  8
0
 10
13.843
 11
13.536
 20
-10.992
 21
-10.927
  0
LINE
  8
0
 10
13.536
 11
13.25
 20
-10.927
 21
-10.799
  0
LINE
  8
0
 10
13.25
 11
12.996
 20
-10.799
 21
-10.615
  0
LINE
  8
0
 10
12.996
 11
12.786
 20
-10.615
 21
-10.382
  0
LINE
  8
0
 10
12.786
 11
12.63
 20
-10.382
 21
-10.11
  0
LINE
  8
0
 10
12.63
 11
12.533
 20
-10.11
 21
-9.812
  0
LINE
  8
0
 10
12.533
 11
12.5
 20
-9.812
 21
-9.5
  0
LINE
  8
0
 10
12.5
 11
12.533
 20
9.5
 21
9.812
  0
LINE
  8
0
 10
12.533
 11
12.63
 20
9.812
 21
10.11
  0
LINE
  8
0
 10
12.63
 11
12.786
 20
10.11
 21
10.382
  0
LINE
  8
0
 10
12.786
 11
12.996
 20
10.382
 21
10.615
  0
LINE
  8
0
 10
12.996
 11
13.25
 20
10.615
 21
10.799
  0
LINE
  8
0
 10
13.25
 11
13.536
 20
10.799
 21
10.927
  0
LINE
  8
0
 10
13.536
 11
13.843
 20
10.927
 21
10.992
  0
LINE
  8
0
 10
13.843
 11
14.157
 20
10.992
 21
10.992
  0
LINE
  8
0
 10
14.157
 11
14.464
 20
10.992
 21
10.927
  0
LINE
  8
0
 10
14.464
 11
14.75
 20
10.927
 21
10.799
  0
LINE
  8
0
 10
14.75
 11
15.004
 20
10.799
 21
10.615
  0
LINE
  8
0
 10
15.004
 11
15.214
 20
10.615
 21
10.382
  0
LINE
  8
0
 10
15.214
 11
15.37
 20
10.382
 21
10.11
  0
LINE
  8
0
 10
15.37
 11
15.467
 20
10.11
 21
9.812
  0
LINE
  8
0
 10
15.467
 11
15.5
 20
9.812
 21
9.5
  0
LINE
  8
0
 10
15.5
 11
15.467
 20
9.5
 21
9.188
  0
LINE
  8
0
 10
15.467
 11
15.37
 20
9.188
 21
8.89
  0
LINE
  8
0
 10
15.37
 11
15.214
 20
8.89
 21
8.618
  0
LINE
  8
0
 10
15.214
 11
15.004
 20
8.618
 21
8.385
  0
LINE
  8
0
 10
15.004
 11
14.75
 20
8.385
 21
8.201
  0
LINE
  8
0
 10
14.75
 11
14.464
 20
8.201
 21
8.073
  0
LINE
  8
0
 10
14.464
 11
14.157
 20
8.073
 21
8.008
  0
LINE
  8
0
 10
14.157
 11
13.843
 20
8.008
 21
8.008
  0
LINE
  8
0
 10
13.843
 11
13.536
 20
8.008
 21
8.073
  0
LINE
  8
0
 10
13.536
 11
13.25
 20
8.073
 21
8.201
  0
LINE
  8
0
 10
13.25
 11
12.996
 20
8.201
 21
8.385
  0
LINE
  8
0
 10
12.996
 11
12.786
 20
8.385
 21
8.618
  0
LINE
  8
0
 10
12.786
 11
12.63
 20
8.618
 21
8.89
  0
LINE
  8
0
 10
12.63
 11
12.533
 20
8.89
 21
9.188
  0
LINE
  8
0
 10
12.533
 11
12.5
 20
9.188
 21
9.5
  0
LINE
  8
0
 10
30
 11
30.066
 20
0
 21
0.624
  0
LINE
  8
0
 10
30.066
 11
30.259
 20
0.624
 21
1.22
  0
LINE
  8
0
 10
30.259
 11
30.573
 20
1.22
 21
1.763
  0
LINE
  8
0
 10
30.573
 11
30.993
 20
1.763
 21
2.229
  0
LINE
  8
0
 10
30.993
 11
31.5
 20
2.229
 21
2.598
  0
LINE
  8
0
 10
31.5
 11
32.073
 20
2.598
 21
2.853
  0
LINE
  8
0
 10
32.073
 11
32.686
 20
2.853
 21
2.984
  0
LINE
  8
0
 10
32.686
 11
33.314
 20
2.984
 21
2.984
  0
LINE
  8
0
 10
33.314
 11
33.927
 20
2.984
 21
2.853
  0
LINE
  8
0
 10
33.927
 11
34.5
 20
2.853
 21
2.598
  0
LINE
  8
0
 10
34.5
 11
35.007
 20
2.598
 21
2.229
  0
LINE
  8
0
 10
35.007
 11
35.427
 20
2.229
 21
1.763
  0
LINE
  8
0
 10
35.427
 11
35.741
 20
1.763
 21
1.22
  0
LINE
  8
0
 10
35.741
 11
35.934
 20
1.22
 21
0.624
  0
LINE
  8
0
 10
35.934
 11
36
 20
0.624
 21
0
  0
LINE
  8
0
 10
36
 11
35.934
 20
0
 21
-0.624
  0
LINE
  8
0
 10
35.934
 11
35.741
 20
-0.624
 21
-1.22
  0
LINE
  8
0
 10
35.741
 11
35.427
 20
-1.22
 21
-1.763
  0
LINE
  8
0
 10
35.427
 11
35.007
 20
-1.763
 21
-2.229
  0
LINE
  8
0
 10
35.007
 11
34.5
 20
-2.229
 21
-2.598
  0
LINE
  8
0
 10
34.5
 11
33.927
 20
-2.598
 21
-2.853
  0
LINE
  8
0
 10
33.927
 11
33.314
 20
-2.853
 21
-2.984
  0
LINE
  8
0
 10
33.314
 11
32.686
 20
-2.984
 21
-2.984
  0
LINE
  8
0
 10
32.686
 11
32.073
 20
-2.984
 21
-2.853
  0
LINE
  8
0
 10
32.073
 11
31.5
 20
-2.853
 21
-2.598
  0
LINE
  8
0
 10
31.5
 11
30.993
 20
-2.598
 21
-2.229
  0
LINE
  8
0
 10
30.993
 11
30.573
 20
-2.229
 21
-1.763
  0
LINE
  8
0
 10
30.573
 11
30.259
 20
-1.763
 21
-1.22
  0
LINE
  8
0
 10
30.259
 11
30.066
 20
-1.22
 21
-0.624
  0
LINE
  8
0
 10
30.066
 11
30
 20
-0.624
 21
0
  0
ENDSEC
  0
SECTION
  2
OBJECTS
  0
DICTIONARY
  0
ENDSEC
  0
EOF
