  0
SECTION
  2
BLOCKS
  0
ENDSEC
  0
SECTION
  2
ENTITIES
  0
LINE
  8
0
 10
-14.25
 11
-14.25
 20
-14.25
 21
14.25
  0
LINE
  8
0
 10
-14.25
 11
14.25
 20
14.25
 21
14.25
  0
LINE
  8
0
 10
14.25
 11
14.25
 20
14.25
 21
-14.25
  0
LINE
  8
0
 10
14.25
 11
-14.25
 20
-14.25
 21
-14.25
  0
LINE
  8
0
 10
-11
 11
-10.967
 20
-9.5
 21
-9.188
  0
LINE
  8
0
 10
-10.967
 11
-10.87
 20
-9.188
 21
-8.89
  0
LINE
  8
0
 10
-10.87
 11
-10.714
 20
-8.89
 21
-8.618
  0
LINE
  8
0
 10
-10.714
 11
-10.504
 20
-8.618
 21
-8.385
  0
LINE
  8
0
 10
-10.504
 11
-10.25
 20
-8.385
 21
-8.201
  0
LINE
  8
0
 10
-10.25
 11
-9.964
 20
-8.201
 21
-8.073
  0
LINE
  8
0
 10
-9.964
 11
-9.657
 20
-8.073
 21
-8.008
  0
LINE
  8
0
 10
-9.657
 11
-9.343
 20
-8.008
 21
-8.008
  0
LINE
  8
0
 10
-9.343
 11
-9.036
 20
-8.008
 21
-8.073
  0
LINE
  8
0
 10
-9.036
 11
-8.75
 20
-8.073
 21
-8.201
  0
LINE
  8
0
 10
-8.75
 11
-8.496
 20
-8.201
 21
-8.385
  0
LINE
  8
0
 10
-8.496
 11
-8.286
 20
-8.385
 21
-8.618
  0
LINE
  8
0
 10
-8.286
 11
-8.13
 20
-8.618
 21
-8.89
  0
LINE
  8
0
 10
-8.13
 11
-8.033
 20
-8.89
 21
-9.188
  0
LINE
  8
0
 10
-8.033
 11
-8
 20
-9.188
 21
-9.5
  0
LINE
  8
0
 10
-8
 11
-8.033
 20
-9.5
 21
-9.812
  0
LINE
  8
0
 10
-8.033
 11
-8.13
 20
-9.812
 21
-10.11
  0
LINE
  8
0
 10
-8.13
 11
-8.286
 20
-10.11
 21
-10.382
  0
LINE
  8
0
 10
-8.286
 11
-8.496
 20
-10.382
 21
-10.615
  0
LINE
  8
0
 10
-8.496
 11
-8.75
 20
-10.615
 21
-10.799
  0
LINE
  8
0
 10
-8.75
 11
-9.036
 20
-10.799
 21
-10.927
  0
LINE
  8
0
 10
-9.036
 11
-9.343
 20
-10.927
 21
-10.992
  0
LINE
  8
0
 10
-9.343
 11
-9.657
 20
-10.992
 21
-10.992
  0
LINE
  8
0
 10
-9.657
 11
-9.964
 20
-10.992
 21
-10.927
  0
LINE
  8
0
 10
-9.964
 11
-10.25
 20
-10.927
 21
-10.799
  0
LINE
  8
0
 10
-10.25
 11
-10.504
 20
-10.799
 21
-10.615
  0
LINE
  8
0
 10
-10.504
 11
-10.714
 20
-10.615
 21
-10.382
  0
LINE
  8
0
 10
-10.714
 11
-10.87
 20
-10.382
 21
-10.11
  0
LINE
  8
0
 10
-10.87
 11
-10.967
 20
-10.11
 21
-9.812
  0
LINE
  8
0
 10
-10.967
 11
-11
 20
-9.812
 21
-9.5
  0
LINE
  8
0
 10
-11
 11
-10.967
 20
9.5
 21
9.812
  0
LINE
  8
0
 10
-10.967
 11
-10.87
 20
9.812
 21
10.11
  0
LINE
  8
0
 10
-10.87
 11
-10.714
 20
10.11
 21
10.382
  0
LINE
  8
0
 10
-10.714
 11
-10.504
 20
10.382
 21
10.615
  0
LINE
  8
0
 10
-10.504
 11
-10.25
 20
10.615
 21
10.799
  0
LINE
  8
0
 10
-10.25
 11
-9.964
 20
10.799
 21
10.927
  0
LINE
  8
0
 10
-9.964
 11
-9.657
 20
10.927
 21
10.992
  0
LINE
  8
0
 10
-9.657
 11
-9.343
 20
10.992
 21
10.992
  0
LINE
  8
0
 10
-9.343
 11
-9.036
 20
10.992
 21
10.927
  0
LINE
  8
0
 10
-9.036
 11
-8.75
 20
10.927
 21
10.799
  0
LINE
  8
0
 10
-8.75
 11
-8.496
 20
10.799
 21
10.615
  0
LINE
  8
0
 10
-8.496
 11
-8.286
 20
10.615
 21
10.382
  0
LINE
  8
0
 10
-8.286
 11
-8.13
 20
10.382
 21
10.11
  0
LINE
  8
0
 10
-8.13
 11
-8.033
 20
10.11
 21
9.812
  0
LINE
  8
0
 10
-8.033
 11
-8
 20
9.812
 21
9.5
  0
LINE
  8
0
 10
-8
 11
-8.033
 20
9.5
 21
9.188
  0
LINE
  8
0
 10
-8.033
 11
-8.13
 20
9.188
 21
8.89
  0
LINE
  8
0
 10
-8.13
 11
-8.286
 20
8.89
 21
8.618
  0
LINE
  8
0
 10
-8.286
 11
-8.496
 20
8.618
 21
8.385
  0
LINE
  8
0
 10
-8.496
 11
-8.75
 20
8.385
 21
8.201
  0
LINE
  8
0
 10
-8.75
 11
-9.036
 20
8.201
 21
8.073
  0
LINE
  8
0
 10
-9.036
 11
-9.343
 20
8.073
 21
8.008
  0
LINE
  8
0
 10
-9.343
 11
-9.657
 20
8.008
 21
8.008
  0
LINE
  8
0
 10
-9.657
 11
-9.964
 20
8.008
 21
8.073
  0
LINE
  8
0
 10
-9.964
 11
-10.25
 20
8.073
 21
8.201
  0
LINE
  8
0
 10
-10.25
 11
-10.504
 20
8.201
 21
8.385
  0
LINE
  8
0
 10
-10.504
 11
-10.714
 20
8.385
 21
8.618
  0
LINE
  8
0
 10
-10.714
 11
-10.87
 20
8.618
 21
8.89
  0
LINE
  8
0
 10
-10.87
 11
-10.967
 20
8.89
 21
9.188
  0
LINE
  8
0
 10
-10.967
 11
-11
 20
9.188
 21
9.5
  0
LINE
  8
0
 10
-7.53
 11
-7.365
 20
0
 21
1.566
  0
LINE
  8
0
 10
-7.365
 11
-6.879
 20
1.566
 21
3.063
  0
LINE
  8
0
 10
-6.879
 11
-6.092
 20
3.063
 21
4.426
  0
LINE
  8
0
 10
-6.092
 11
-5.039
 20
4.426
 21
5.596
  0
LINE
  8
0
 10
-5.039
 11
-3.765
 20
5.596
 21
6.521
  0
LINE
  8
0
 10
-3.765
 11
-2.327
 20
6.521
 21
7.161
  0
LINE
  8
0
 10
-2.327
 11
-0.787
 20
7.161
 21
7.489
  0
LINE
  8
0
 10
-0.787
 11
0.787
 20
7.489
 21
7.489
  0
LINE
  8
0
 10
0.787
 11
2.327
 20
7.489
 21
7.161
  0
LINE
  8
0
 10
2.327
 11
3.765
 20
7.161
 21
6.521
  0
LINE
  8
0
 10
3.765
 11
5.039
 20
6.521
 21
5.596
  0
LINE
  8
0
 10
5.039
 11
6.092
 20
5.596
 21
4.426
  0
LINE
  8
0
 10
6.092
 11
6.879
 20
4.426
 21
3.063
  0
LINE
  8
0
 10
6.879
 11
7.365
 20
3.063
 21
1.566
  0
LINE
  8
0
 10
7.365
 11
7.53
 20
1.566
 21
0
  0
LINE
  8
0
 10
7.53
 11
7.365
 20
0
 21
-1.566
  0
LINE
  8
0
 10
7.365
 11
6.879
 20
-1.566
 21
-3.063
  0
LINE
  8
0
 10
6.879
 11
6.092
 20
-3.063
 21
-4.426
  0
LINE
  8
0
 10
6.092
 11
5.039
 20
-4.426
 21
-5.596
  0
LINE
  8
0
 10
5.039
 11
3.765
 20
-5.596
 21
-6.521
  0
LINE
  8
0
 10
3.765
 11
2.327
 20
-6.521
 21
-7.161
  0
LINE
  8
0
 10
2.327
 11
0.787
 20
-7.161
 21
-7.489
  0
LINE
  8
0
 10
0.787
 11
-0.787
 20
-7.489
 21
-7.489
  0
LINE
  8
0
 10
-0.787
 11
-2.327
 20
-7.489
 21
-7.161
  0
LINE
  8
0
 10
-2.327
 11
-3.765
 20
-7.161
 21
-6.521
  0
LINE
  8
0
 10
-3.765
 11
-5.039
 20
-6.521
 21
-5.596
  0
LINE
  8
0
 10
-5.039
 11
-6.092
 20
-5.596
 21
-4.426
  0
LINE
  8
0
 10
-6.092
 11
-6.879
 20
-4.426
 21
-3.063
  0
LINE
  8
0
 10
-6.879
 11
-7.365
 20
-3.063
 21
-1.566
  0
LINE
  8
0
 10
-7.365
 11
-7.53
 20
-1.566
 21
0
  0
LINE
  8
0
 10
8
 11
8.033
 20
-9.5
 21
-9.188
  0
LINE
  8
0
 10
8.033
 11
8.13
 20
-9.188
 21
-8.89
  0
LINE
  8
0
 10
8.13
 11
8.286
 20
-8.89
 21
-8.618
  0
LINE
  8
0
 10
8.286
 11
8.496
 20
-8.618
 21
-8.385
  0
LINE
  8
0
 10
8.496
 11
8.75
 20
-8.385
 21
-8.201
  0
LINE
  8
0
 10
8.75
 11
9.036
 20
-8.201
 21
-8.073
  0
LINE
  8
0
 10
9.036
 11
9.343
 20
-8.073
 21
-8.008
  0
LINE
  8
0
 10
9.343
 11
9.657
 20
-8.008
 21
-8.008
  0
LINE
  8
0
 10
9.657
 11
9.964
 20
-8.008
 21
-8.073
  0
LINE
  8
0
 10
9.964
 11
10.25
 20
-8.073
 21
-8.201
  0
LINE
  8
0
 10
10.25
 11
10.504
 20
-8.201
 21
-8.385
  0
LINE
  8
0
 10
10.504
 11
10.714
 20
-8.385
 21
-8.618
  0
LINE
  8
0
 10
10.714
 11
10.87
 20
-8.618
 21
-8.89
  0
LINE
  8
0
 10
10.87
 11
10.967
 20
-8.89
 21
-9.188
  0
LINE
  8
0
 10
10.967
 11
11
 20
-9.188
 21
-9.5
  0
LINE
  8
0
 10
11
 11
10.967
 20
-9.5
 21
-9.812
  0
LINE
  8
0
 10
10.967
 11
10.87
 20
-9.812
 21
-10.11
  0
LINE
  8
0
 10
10.87
 11
10.714
 20
-10.11
 21
-10.382
  0
LINE
  8
0
 10
10.714
 11
10.504
 20
-10.382
 21
-10.615
  0
LINE
  8
0
 10
10.504
 11
10.25
 20
-10.615
 21
-10.799
  0
LINE
  8
0
 10
10.25
 11
9.964
 20
-10.799
 21
-10.927
  0
LINE
  8
0
 10
9.964
 11
9.657
 20
-10.927
 21
-10.992
  0
LINE
  8
0
 10
9.657
 11
9.343
 20
-10.992
 21
-10.992
  0
LINE
  8
0
 10
9.343
 11
9.036
 20
-10.992
 21
-10.927
  0
LINE
  8
0
 10
9.036
 11
8.75
 20
-10.927
 21
-10.799
  0
LINE
  8
0
 10
8.75
 11
8.496
 20
-10.799
 21
-10.615
  0
LINE
  8
0
 10
8.496
 11
8.286
 20
-10.615
 21
-10.382
  0
LINE
  8
0
 10
8.286
 11
8.13
 20
-10.382
 21
-10.11
  0
LINE
  8
0
 10
8.13
 11
8.033
 20
-10.11
 21
-9.812
  0
LINE
  8
0
 10
8.033
 11
8
 20
-9.812
 21
-9.5
  0
LINE
  8
0
 10
8
 11
8.033
 20
9.5
 21
9.812
  0
LINE
  8
0
 10
8.033
 11
8.13
 20
9.812
 21
10.11
  0
LINE
  8
0
 10
8.13
 11
8.286
 20
10.11
 21
10.382
  0
LINE
  8
0
 10
8.286
 11
8.496
 20
10.382
 21
10.615
  0
LINE
  8
0
 10
8.496
 11
8.75
 20
10.615
 21
10.799
  0
LINE
  8
0
 10
8.75
 11
9.036
 20
10.799
 21
10.927
  0
LINE
  8
0
 10
9.036
 11
9.343
 20
10.927
 21
10.992
  0
LINE
  8
0
 10
9.343
 11
9.657
 20
10.992
 21
10.992
  0
LINE
  8
0
 10
9.657
 11
9.964
 20
10.992
 21
10.927
  0
LINE
  8
0
 10
9.964
 11
10.25
 20
10.927
 21
10.799
  0
LINE
  8
0
 10
10.25
 11
10.504
 20
10.799
 21
10.615
  0
LINE
  8
0
 10
10.504
 11
10.714
 20
10.615
 21
10.382
  0
LINE
  8
0
 10
10.714
 11
10.87
 20
10.382
 21
10.11
  0
LINE
  8
0
 10
10.87
 11
10.967
 20
10.11
 21
9.812
  0
LINE
  8
0
 10
10.967
 11
11
 20
9.812
 21
9.5
  0
LINE
  8
0
 10
11
 11
10.967
 20
9.5
 21
9.188
  0
LINE
  8
0
 10
10.967
 11
10.87
 20
9.188
 21
8.89
  0
LINE
  8
0
 10
10.87
 11
10.714
 20
8.89
 21
8.618
  0
LINE
  8
0
 10
10.714
 11
10.504
 20
8.618
 21
8.385
  0
LINE
  8
0
 10
10.504
 11
10.25
 20
8.385
 21
8.201
  0
LINE
  8
0
 10
10.25
 11
9.964
 20
8.201
 21
8.073
  0
LINE
  8
0
 10
9.964
 11
9.657
 20
8.073
 21
8.008
  0
LINE
  8
0
 10
9.657
 11
9.343
 20
8.008
 21
8.008
  0
LINE
  8
0
 10
9.343
 11
9.036
 20
8.008
 21
8.073
  0
LINE
  8
0
 10
9.036
 11
8.75
 20
8.073
 21
8.201
  0
LINE
  8
0
 10
8.75
 11
8.496
 20
8.201
 21
8.385
  0
LINE
  8
0
 10
8.496
 11
8.286
 20
8.385
 21
8.618
  0
LINE
  8
0
 10
8.286
 11
8.13
 20
8.618
 21
8.89
  0
LINE
  8
0
 10
8.13
 11
8.033
 20
8.89
 21
9.188
  0
LINE
  8
0
 10
8.033
 11
8
 20
9.188
 21
9.5
  0
ENDSEC
  0
SECTION
  2
OBJECTS
  0
DICTIONARY
  0
ENDSEC
  0
EOF
