  0
SECTION
  2
BLOCKS
  0
ENDSEC
  0
SECTION
  2
ENTITIES
  0
LINE
  8
0
 10
-100
 11
-100
 20
-100
 21
100
  0
LINE
  8
0
 10
-100
 11
100
 20
100
 21
100
  0
LINE
  8
0
 10
100
 11
100
 20
100
 21
-100
  0
LINE
  8
0
 10
100
 11
-100
 20
-100
 21
-100
  0
LINE
  8
0
 10
-78
 11
-77.994
 20
-65
 21
-64.812
  0
LINE
  8
0
 10
-77.994
 11
-77.976
 20
-64.812
 21
-64.624
  0
LINE
  8
0
 10
-77.976
 11
-77.947
 20
-64.624
 21
-64.438
  0
LINE
  8
0
 10
-77.947
 11
-77.906
 20
-64.438
 21
-64.254
  0
LINE
  8
0
 10
-77.906
 11
-77.853
 20
-64.254
 21
-64.073
  0
LINE
  8
0
 10
-77.853
 11
-77.789
 20
-64.073
 21
-63.896
  0
LINE
  8
0
 10
-77.789
 11
-77.714
 20
-63.896
 21
-63.723
  0
LINE
  8
0
 10
-77.714
 11
-77.629
 20
-63.723
 21
-63.555
  0
LINE
  8
0
 10
-77.629
 11
-77.533
 20
-63.555
 21
-63.393
  0
LINE
  8
0
 10
-77.533
 11
-77.427
 20
-63.393
 21
-63.237
  0
LINE
  8
0
 10
-77.427
 11
-77.312
 20
-63.237
 21
-63.088
  0
LINE
  8
0
 10
-77.312
 11
-77.187
 20
-63.088
 21
-62.946
  0
LINE
  8
0
 10
-77.187
 11
-77.054
 20
-62.946
 21
-62.813
  0
LINE
  8
0
 10
-77.054
 11
-76.912
 20
-62.813
 21
-62.688
  0
LINE
  8
0
 10
-76.912
 11
-76.763
 20
-62.688
 21
-62.573
  0
LINE
  8
0
 10
-76.763
 11
-76.607
 20
-62.573
 21
-62.467
  0
LINE
  8
0
 10
-76.607
 11
-76.445
 20
-62.467
 21
-62.371
  0
LINE
  8
0
 10
-76.445
 11
-76.277
 20
-62.371
 21
-62.286
  0
LINE
  8
0
 10
-76.277
 11
-76.104
 20
-62.286
 21
-62.211
  0
LINE
  8
0
 10
-76.104
 11
-75.927
 20
-62.211
 21
-62.147
  0
LINE
  8
0
 10
-75.927
 11
-75.746
 20
-62.147
 21
-62.094
  0
LINE
  8
0
 10
-75.746
 11
-75.562
 20
-62.094
 21
-62.053
  0
LINE
  8
0
 10
-75.562
 11
-75.376
 20
-62.053
 21
-62.024
  0
LINE
  8
0
 10
-75.376
 11
-75.188
 20
-62.024
 21
-62.006
  0
LINE
  8
0
 10
-75.188
 11
-75
 20
-62.006
 21
-62
  0
LINE
  8
0
 10
-75
 11
-74.812
 20
-62
 21
-62.006
  0
LINE
  8
0
 10
-74.812
 11
-74.624
 20
-62.006
 21
-62.024
  0
LINE
  8
0
 10
-74.624
 11
-74.438
 20
-62.024
 21
-62.053
  0
LINE
  8
0
 10
-74.438
 11
-74.254
 20
-62.053
 21
-62.094
  0
LINE
  8
0
 10
-74.254
 11
-74.073
 20
-62.094
 21
-62.147
  0
LINE
  8
0
 10
-74.073
 11
-73.896
 20
-62.147
 21
-62.211
  0
LINE
  8
0
 10
-73.896
 11
-73.723
 20
-62.211
 21
-62.286
  0
LINE
  8
0
 10
-73.723
 11
-73.555
 20
-62.286
 21
-62.371
  0
LINE
  8
0
 10
-73.555
 11
-73.393
 20
-62.371
 21
-62.467
  0
LINE
  8
0
 10
-73.393
 11
-73.237
 20
-62.467
 21
-62.573
  0
LINE
  8
0
 10
-73.237
 11
-73.088
 20
-62.573
 21
-62.688
  0
LINE
  8
0
 10
-73.088
 11
-72.946
 20
-62.688
 21
-62.813
  0
LINE
  8
0
 10
-72.946
 11
-72.813
 20
-62.813
 21
-62.946
  0
LINE
  8
0
 10
-72.813
 11
-72.688
 20
-62.946
 21
-63.088
  0
LINE
  8
0
 10
-72.688
 11
-72.573
 20
-63.088
 21
-63.237
  0
LINE
  8
0
 10
-72.573
 11
-72.467
 20
-63.237
 21
-63.393
  0
LINE
  8
0
 10
-72.467
 11
-72.371
 20
-63.393
 21
-63.555
  0
LINE
  8
0
 10
-72.371
 11
-72.286
 20
-63.555
 21
-63.723
  0
LINE
  8
0
 10
-72.286
 11
-72.211
 20
-63.723
 21
-63.896
  0
LINE
  8
0
 10
-72.211
 11
-72.147
 20
-63.896
 21
-64.073
  0
LINE
  8
0
 10
-72.147
 11
-72.094
 20
-64.073
 21
-64.254
  0
LINE
  8
0
 10
-72.094
 11
-72.053
 20
-64.254
 21
-64.438
  0
LINE
  8
0
 10
-72.053
 11
-72.024
 20
-64.438
 21
-64.624
  0
LINE
  8
0
 10
-72.024
 11
-72.006
 20
-64.624
 21
-64.812
  0
LINE
  8
0
 10
-72.006
 11
-72
 20
-64.812
 21
-65
  0
LINE
  8
0
 10
-72
 11
-72.006
 20
-65
 21
-65.188
  0
LINE
  8
0
 10
-72.006
 11
-72.024
 20
-65.188
 21
-65.376
  0
LINE
  8
0
 10
-72.024
 11
-72.053
 20
-65.376
 21
-65.562
  0
LINE
  8
0
 10
-72.053
 11
-72.094
 20
-65.562
 21
-65.746
  0
LINE
  8
0
 10
-72.094
 11
-72.147
 20
-65.746
 21
-65.927
  0
LINE
  8
0
 10
-72.147
 11
-72.211
 20
-65.927
 21
-66.104
  0
LINE
  8
0
 10
-72.211
 11
-72.286
 20
-66.104
 21
-66.277
  0
LINE
  8
0
 10
-72.286
 11
-72.371
 20
-66.277
 21
-66.445
  0
LINE
  8
0
 10
-72.371
 11
-72.467
 20
-66.445
 21
-66.607
  0
LINE
  8
0
 10
-72.467
 11
-72.573
 20
-66.607
 21
-66.763
  0
LINE
  8
0
 10
-72.573
 11
-72.688
 20
-66.763
 21
-66.912
  0
LINE
  8
0
 10
-72.688
 11
-72.813
 20
-66.912
 21
-67.054
  0
LINE
  8
0
 10
-72.813
 11
-72.946
 20
-67.054
 21
-67.187
  0
LINE
  8
0
 10
-72.946
 11
-73.088
 20
-67.187
 21
-67.312
  0
LINE
  8
0
 10
-73.088
 11
-73.237
 20
-67.312
 21
-67.427
  0
LINE
  8
0
 10
-73.237
 11
-73.393
 20
-67.427
 21
-67.533
  0
LINE
  8
0
 10
-73.393
 11
-73.555
 20
-67.533
 21
-67.629
  0
LINE
  8
0
 10
-73.555
 11
-73.723
 20
-67.629
 21
-67.714
  0
LINE
  8
0
 10
-73.723
 11
-73.896
 20
-67.714
 21
-67.789
  0
LINE
  8
0
 10
-73.896
 11
-74.073
 20
-67.789
 21
-67.853
  0
LINE
  8
0
 10
-74.073
 11
-74.254
 20
-67.853
 21
-67.906
  0
LINE
  8
0
 10
-74.254
 11
-74.438
 20
-67.906
 21
-67.947
  0
LINE
  8
0
 10
-74.438
 11
-74.624
 20
-67.947
 21
-67.976
  0
LINE
  8
0
 10
-74.624
 11
-74.812
 20
-67.976
 21
-67.994
  0
LINE
  8
0
 10
-74.812
 11
-75
 20
-67.994
 21
-68
  0
LINE
  8
0
 10
-75
 11
-75.188
 20
-68
 21
-67.994
  0
LINE
  8
0
 10
-75.188
 11
-75.376
 20
-67.994
 21
-67.976
  0
LINE
  8
0
 10
-75.376
 11
-75.562
 20
-67.976
 21
-67.947
  0
LINE
  8
0
 10
-75.562
 11
-75.746
 20
-67.947
 21
-67.906
  0
LINE
  8
0
 10
-75.746
 11
-75.927
 20
-67.906
 21
-67.853
  0
LINE
  8
0
 10
-75.927
 11
-76.104
 20
-67.853
 21
-67.789
  0
LINE
  8
0
 10
-76.104
 11
-76.277
 20
-67.789
 21
-67.714
  0
LINE
  8
0
 10
-76.277
 11
-76.445
 20
-67.714
 21
-67.629
  0
LINE
  8
0
 10
-76.445
 11
-76.607
 20
-67.629
 21
-67.533
  0
LINE
  8
0
 10
-76.607
 11
-76.763
 20
-67.533
 21
-67.427
  0
LINE
  8
0
 10
-76.763
 11
-76.912
 20
-67.427
 21
-67.312
  0
LINE
  8
0
 10
-76.912
 11
-77.054
 20
-67.312
 21
-67.187
  0
LINE
  8
0
 10
-77.054
 11
-77.187
 20
-67.187
 21
-67.054
  0
LINE
  8
0
 10
-77.187
 11
-77.312
 20
-67.054
 21
-66.912
  0
LINE
  8
0
 10
-77.312
 11
-77.427
 20
-66.912
 21
-66.763
  0
LINE
  8
0
 10
-77.427
 11
-77.533
 20
-66.763
 21
-66.607
  0
LINE
  8
0
 10
-77.533
 11
-77.629
 20
-66.607
 21
-66.445
  0
LINE
  8
0
 10
-77.629
 11
-77.714
 20
-66.445
 21
-66.277
  0
LINE
  8
0
 10
-77.714
 11
-77.789
 20
-66.277
 21
-66.104
  0
LINE
  8
0
 10
-77.789
 11
-77.853
 20
-66.104
 21
-65.927
  0
LINE
  8
0
 10
-77.853
 11
-77.906
 20
-65.927
 21
-65.746
  0
LINE
  8
0
 10
-77.906
 11
-77.947
 20
-65.746
 21
-65.562
  0
LINE
  8
0
 10
-77.947
 11
-77.976
 20
-65.562
 21
-65.376
  0
LINE
  8
0
 10
-77.976
 11
-77.994
 20
-65.376
 21
-65.188
  0
LINE
  8
0
 10
-77.994
 11
-78
 20
-65.188
 21
-65
  0
LINE
  8
0
 10
-78
 11
-77.994
 20
65
 21
65.188
  0
LINE
  8
0
 10
-77.994
 11
-77.976
 20
65.188
 21
65.376
  0
LINE
  8
0
 10
-77.976
 11
-77.947
 20
65.376
 21
65.562
  0
LINE
  8
0
 10
-77.947
 11
-77.906
 20
65.562
 21
65.746
  0
LINE
  8
0
 10
-77.906
 11
-77.853
 20
65.746
 21
65.927
  0
LINE
  8
0
 10
-77.853
 11
-77.789
 20
65.927
 21
66.104
  0
LINE
  8
0
 10
-77.789
 11
-77.714
 20
66.104
 21
66.277
  0
LINE
  8
0
 10
-77.714
 11
-77.629
 20
66.277
 21
66.445
  0
LINE
  8
0
 10
-77.629
 11
-77.533
 20
66.445
 21
66.607
  0
LINE
  8
0
 10
-77.533
 11
-77.427
 20
66.607
 21
66.763
  0
LINE
  8
0
 10
-77.427
 11
-77.312
 20
66.763
 21
66.912
  0
LINE
  8
0
 10
-77.312
 11
-77.187
 20
66.912
 21
67.054
  0
LINE
  8
0
 10
-77.187
 11
-77.054
 20
67.054
 21
67.187
  0
LINE
  8
0
 10
-77.054
 11
-76.912
 20
67.187
 21
67.312
  0
LINE
  8
0
 10
-76.912
 11
-76.763
 20
67.312
 21
67.427
  0
LINE
  8
0
 10
-76.763
 11
-76.607
 20
67.427
 21
67.533
  0
LINE
  8
0
 10
-76.607
 11
-76.445
 20
67.533
 21
67.629
  0
LINE
  8
0
 10
-76.445
 11
-76.277
 20
67.629
 21
67.714
  0
LINE
  8
0
 10
-76.277
 11
-76.104
 20
67.714
 21
67.789
  0
LINE
  8
0
 10
-76.104
 11
-75.927
 20
67.789
 21
67.853
  0
LINE
  8
0
 10
-75.927
 11
-75.746
 20
67.853
 21
67.906
  0
LINE
  8
0
 10
-75.746
 11
-75.562
 20
67.906
 21
67.947
  0
LINE
  8
0
 10
-75.562
 11
-75.376
 20
67.947
 21
67.976
  0
LINE
  8
0
 10
-75.376
 11
-75.188
 20
67.976
 21
67.994
  0
LINE
  8
0
 10
-75.188
 11
-75
 20
67.994
 21
68
  0
LINE
  8
0
 10
-75
 11
-74.812
 20
68
 21
67.994
  0
LINE
  8
0
 10
-74.812
 11
-74.624
 20
67.994
 21
67.976
  0
LINE
  8
0
 10
-74.624
 11
-74.438
 20
67.976
 21
67.947
  0
LINE
  8
0
 10
-74.438
 11
-74.254
 20
67.947
 21
67.906
  0
LINE
  8
0
 10
-74.254
 11
-74.073
 20
67.906
 21
67.853
  0
LINE
  8
0
 10
-74.073
 11
-73.896
 20
67.853
 21
67.789
  0
LINE
  8
0
 10
-73.896
 11
-73.723
 20
67.789
 21
67.714
  0
LINE
  8
0
 10
-73.723
 11
-73.555
 20
67.714
 21
67.629
  0
LINE
  8
0
 10
-73.555
 11
-73.393
 20
67.629
 21
67.533
  0
LINE
  8
0
 10
-73.393
 11
-73.237
 20
67.533
 21
67.427
  0
LINE
  8
0
 10
-73.237
 11
-73.088
 20
67.427
 21
67.312
  0
LINE
  8
0
 10
-73.088
 11
-72.946
 20
67.312
 21
67.187
  0
LINE
  8
0
 10
-72.946
 11
-72.813
 20
67.187
 21
67.054
  0
LINE
  8
0
 10
-72.813
 11
-72.688
 20
67.054
 21
66.912
  0
LINE
  8
0
 10
-72.688
 11
-72.573
 20
66.912
 21
66.763
  0
LINE
  8
0
 10
-72.573
 11
-72.467
 20
66.763
 21
66.607
  0
LINE
  8
0
 10
-72.467
 11
-72.371
 20
66.607
 21
66.445
  0
LINE
  8
0
 10
-72.371
 11
-72.286
 20
66.445
 21
66.277
  0
LINE
  8
0
 10
-72.286
 11
-72.211
 20
66.277
 21
66.104
  0
LINE
  8
0
 10
-72.211
 11
-72.147
 20
66.104
 21
65.927
  0
LINE
  8
0
 10
-72.147
 11
-72.094
 20
65.927
 21
65.746
  0
LINE
  8
0
 10
-72.094
 11
-72.053
 20
65.746
 21
65.562
  0
LINE
  8
0
 10
-72.053
 11
-72.024
 20
65.562
 21
65.376
  0
LINE
  8
0
 10
-72.024
 11
-72.006
 20
65.376
 21
65.188
  0
LINE
  8
0
 10
-72.006
 11
-72
 20
65.188
 21
65
  0
LINE
  8
0
 10
-72
 11
-72.006
 20
65
 21
64.812
  0
LINE
  8
0
 10
-72.006
 11
-72.024
 20
64.812
 21
64.624
  0
LINE
  8
0
 10
-72.024
 11
-72.053
 20
64.624
 21
64.438
  0
LINE
  8
0
 10
-72.053
 11
-72.094
 20
64.438
 21
64.254
  0
LINE
  8
0
 10
-72.094
 11
-72.147
 20
64.254
 21
64.073
  0
LINE
  8
0
 10
-72.147
 11
-72.211
 20
64.073
 21
63.896
  0
LINE
  8
0
 10
-72.211
 11
-72.286
 20
63.896
 21
63.723
  0
LINE
  8
0
 10
-72.286
 11
-72.371
 20
63.723
 21
63.555
  0
LINE
  8
0
 10
-72.371
 11
-72.467
 20
63.555
 21
63.393
  0
LINE
  8
0
 10
-72.467
 11
-72.573
 20
63.393
 21
63.237
  0
LINE
  8
0
 10
-72.573
 11
-72.688
 20
63.237
 21
63.088
  0
LINE
  8
0
 10
-72.688
 11
-72.813
 20
63.088
 21
62.946
  0
LINE
  8
0
 10
-72.813
 11
-72.946
 20
62.946
 21
62.813
  0
LINE
  8
0
 10
-72.946
 11
-73.088
 20
62.813
 21
62.688
  0
LINE
  8
0
 10
-73.088
 11
-73.237
 20
62.688
 21
62.573
  0
LINE
  8
0
 10
-73.237
 11
-73.393
 20
62.573
 21
62.467
  0
LINE
  8
0
 10
-73.393
 11
-73.555
 20
62.467
 21
62.371
  0
LINE
  8
0
 10
-73.555
 11
-73.723
 20
62.371
 21
62.286
  0
LINE
  8
0
 10
-73.723
 11
-73.896
 20
62.286
 21
62.211
  0
LINE
  8
0
 10
-73.896
 11
-74.073
 20
62.211
 21
62.147
  0
LINE
  8
0
 10
-74.073
 11
-74.254
 20
62.147
 21
62.094
  0
LINE
  8
0
 10
-74.254
 11
-74.438
 20
62.094
 21
62.053
  0
LINE
  8
0
 10
-74.438
 11
-74.624
 20
62.053
 21
62.024
  0
LINE
  8
0
 10
-74.624
 11
-74.812
 20
62.024
 21
62.006
  0
LINE
  8
0
 10
-74.812
 11
-75
 20
62.006
 21
62
  0
LINE
  8
0
 10
-75
 11
-75.188
 20
62
 21
62.006
  0
LINE
  8
0
 10
-75.188
 11
-75.376
 20
62.006
 21
62.024
  0
LINE
  8
0
 10
-75.376
 11
-75.562
 20
62.024
 21
62.053
  0
LINE
  8
0
 10
-75.562
 11
-75.746
 20
62.053
 21
62.094
  0
LINE
  8
0
 10
-75.746
 11
-75.927
 20
62.094
 21
62.147
  0
LINE
  8
0
 10
-75.927
 11
-76.104
 20
62.147
 21
62.211
  0
LINE
  8
0
 10
-76.104
 11
-76.277
 20
62.211
 21
62.286
  0
LINE
  8
0
 10
-76.277
 11
-76.445
 20
62.286
 21
62.371
  0
LINE
  8
0
 10
-76.445
 11
-76.607
 20
62.371
 21
62.467
  0
LINE
  8
0
 10
-76.607
 11
-76.763
 20
62.467
 21
62.573
  0
LINE
  8
0
 10
-76.763
 11
-76.912
 20
62.573
 21
62.688
  0
LINE
  8
0
 10
-76.912
 11
-77.054
 20
62.688
 21
62.813
  0
LINE
  8
0
 10
-77.054
 11
-77.187
 20
62.813
 21
62.946
  0
LINE
  8
0
 10
-77.187
 11
-77.312
 20
62.946
 21
63.088
  0
LINE
  8
0
 10
-77.312
 11
-77.427
 20
63.088
 21
63.237
  0
LINE
  8
0
 10
-77.427
 11
-77.533
 20
63.237
 21
63.393
  0
LINE
  8
0
 10
-77.533
 11
-77.629
 20
63.393
 21
63.555
  0
LINE
  8
0
 10
-77.629
 11
-77.714
 20
63.555
 21
63.723
  0
LINE
  8
0
 10
-77.714
 11
-77.789
 20
63.723
 21
63.896
  0
LINE
  8
0
 10
-77.789
 11
-77.853
 20
63.896
 21
64.073
  0
LINE
  8
0
 10
-77.853
 11
-77.906
 20
64.073
 21
64.254
  0
LINE
  8
0
 10
-77.906
 11
-77.947
 20
64.254
 21
64.438
  0
LINE
  8
0
 10
-77.947
 11
-77.976
 20
64.438
 21
64.624
  0
LINE
  8
0
 10
-77.976
 11
-77.994
 20
64.624
 21
64.812
  0
LINE
  8
0
 10
-77.994
 11
-78
 20
64.812
 21
65
  0
LINE
  8
0
 10
-60
 11
-60
 20
-40
 21
40
  0
LINE
  8
0
 10
-60
 11
-30
 20
40
 21
40
  0
LINE
  8
0
 10
-30
 11
-30
 20
40
 21
12.5
  0
LINE
  8
0
 10
-30
 11
60
 20
12.5
 21
12.5
  0
LINE
  8
0
 10
60
 11
60
 20
12.5
 21
-12.5
  0
LINE
  8
0
 10
60
 11
-30
 20
-12.5
 21
-12.5
  0
LINE
  8
0
 10
-30
 11
-30
 20
-12.5
 21
-40
  0
LINE
  8
0
 10
-30
 11
-60
 20
-40
 21
-40
  0
LINE
  8
0
 10
-18.5
 11
-18.497
 20
-30
 21
-29.906
  0
LINE
  8
0
 10
-18.497
 11
-18.488
 20
-29.906
 21
-29.812
  0
LINE
  8
0
 10
-18.488
 11
-18.473
 20
-29.812
 21
-29.719
  0
LINE
  8
0
 10
-18.473
 11
-18.453
 20
-29.719
 21
-29.627
  0
LINE
  8
0
 10
-18.453
 11
-18.427
 20
-29.627
 21
-29.536
  0
LINE
  8
0
 10
-18.427
 11
-18.395
 20
-29.536
 21
-29.448
  0
LINE
  8
0
 10
-18.395
 11
-18.357
 20
-29.448
 21
-29.361
  0
LINE
  8
0
 10
-18.357
 11
-18.314
 20
-29.361
 21
-29.277
  0
LINE
  8
0
 10
-18.314
 11
-18.266
 20
-29.277
 21
-29.196
  0
LINE
  8
0
 10
-18.266
 11
-18.214
 20
-29.196
 21
-29.118
  0
LINE
  8
0
 10
-18.214
 11
-18.156
 20
-29.118
 21
-29.044
  0
LINE
  8
0
 10
-18.156
 11
-18.093
 20
-29.044
 21
-28.973
  0
LINE
  8
0
 10
-18.093
 11
-18.027
 20
-28.973
 21
-28.907
  0
LINE
  8
0
 10
-18.027
 11
-17.956
 20
-28.907
 21
-28.844
  0
LINE
  8
0
 10
-17.956
 11
-17.882
 20
-28.844
 21
-28.786
  0
LINE
  8
0
 10
-17.882
 11
-17.804
 20
-28.786
 21
-28.734
  0
LINE
  8
0
 10
-17.804
 11
-17.723
 20
-28.734
 21
-28.686
  0
LINE
  8
0
 10
-17.723
 11
-17.639
 20
-28.686
 21
-28.643
  0
LINE
  8
0
 10
-17.639
 11
-17.552
 20
-28.643
 21
-28.605
  0
LINE
  8
0
 10
-17.552
 11
-17.464
 20
-28.605
 21
-28.573
  0
LINE
  8
0
 10
-17.464
 11
-17.373
 20
-28.573
 21
-28.547
  0
LINE
  8
0
 10
-17.373
 11
-17.281
 20
-28.547
 21
-28.527
  0
LINE
  8
0
 10
-17.281
 11
-17.188
 20
-28.527
 21
-28.512
  0
LINE
  8
0
 10
-17.188
 11
-17.094
 20
-28.512
 21
-28.503
  0
LINE
  8
0
 10
-17.094
 11
-17
 20
-28.503
 21
-28.5
  0
LINE
  8
0
 10
-17
 11
-16.906
 20
-28.5
 21
-28.503
  0
LINE
  8
0
 10
-16.906
 11
-16.812
 20
-28.503
 21
-28.512
  0
LINE
  8
0
 10
-16.812
 11
-16.719
 20
-28.512
 21
-28.527
  0
LINE
  8
0
 10
-16.719
 11
-16.627
 20
-28.527
 21
-28.547
  0
LINE
  8
0
 10
-16.627
 11
-16.536
 20
-28.547
 21
-28.573
  0
LINE
  8
0
 10
-16.536
 11
-16.448
 20
-28.573
 21
-28.605
  0
LINE
  8
0
 10
-16.448
 11
-16.361
 20
-28.605
 21
-28.643
  0
LINE
  8
0
 10
-16.361
 11
-16.277
 20
-28.643
 21
-28.686
  0
LINE
  8
0
 10
-16.277
 11
-16.196
 20
-28.686
 21
-28.734
  0
LINE
  8
0
 10
-16.196
 11
-16.118
 20
-28.734
 21
-28.786
  0
LINE
  8
0
 10
-16.118
 11
-16.044
 20
-28.786
 21
-28.844
  0
LINE
  8
0
 10
-16.044
 11
-15.973
 20
-28.844
 21
-28.907
  0
LINE
  8
0
 10
-15.973
 11
-15.907
 20
-28.907
 21
-28.973
  0
LINE
  8
0
 10
-15.907
 11
-15.844
 20
-28.973
 21
-29.044
  0
LINE
  8
0
 10
-15.844
 11
-15.786
 20
-29.044
 21
-29.118
  0
LINE
  8
0
 10
-15.786
 11
-15.734
 20
-29.118
 21
-29.196
  0
LINE
  8
0
 10
-15.734
 11
-15.686
 20
-29.196
 21
-29.277
  0
LINE
  8
0
 10
-15.686
 11
-15.643
 20
-29.277
 21
-29.361
  0
LINE
  8
0
 10
-15.643
 11
-15.605
 20
-29.361
 21
-29.448
  0
LINE
  8
0
 10
-15.605
 11
-15.573
 20
-29.448
 21
-29.536
  0
LINE
  8
0
 10
-15.573
 11
-15.547
 20
-29.536
 21
-29.627
  0
LINE
  8
0
 10
-15.547
 11
-15.527
 20
-29.627
 21
-29.719
  0
LINE
  8
0
 10
-15.527
 11
-15.512
 20
-29.719
 21
-29.812
  0
LINE
  8
0
 10
-15.512
 11
-15.503
 20
-29.812
 21
-29.906
  0
LINE
  8
0
 10
-15.503
 11
-15.5
 20
-29.906
 21
-30
  0
LINE
  8
0
 10
-15.5
 11
-15.503
 20
-30
 21
-30.094
  0
LINE
  8
0
 10
-15.503
 11
-15.512
 20
-30.094
 21
-30.188
  0
LINE
  8
0
 10
-15.512
 11
-15.527
 20
-30.188
 21
-30.281
  0
LINE
  8
0
 10
-15.527
 11
-15.547
 20
-30.281
 21
-30.373
  0
LINE
  8
0
 10
-15.547
 11
-15.573
 20
-30.373
 21
-30.464
  0
LINE
  8
0
 10
-15.573
 11
-15.605
 20
-30.464
 21
-30.552
  0
LINE
  8
0
 10
-15.605
 11
-15.643
 20
-30.552
 21
-30.639
  0
LINE
  8
0
 10
-15.643
 11
-15.686
 20
-30.639
 21
-30.723
  0
LINE
  8
0
 10
-15.686
 11
-15.734
 20
-30.723
 21
-30.804
  0
LINE
  8
0
 10
-15.734
 11
-15.786
 20
-30.804
 21
-30.882
  0
LINE
  8
0
 10
-15.786
 11
-15.844
 20
-30.882
 21
-30.956
  0
LINE
  8
0
 10
-15.844
 11
-15.907
 20
-30.956
 21
-31.027
  0
LINE
  8
0
 10
-15.907
 11
-15.973
 20
-31.027
 21
-31.093
  0
LINE
  8
0
 10
-15.973
 11
-16.044
 20
-31.093
 21
-31.156
  0
LINE
  8
0
 10
-16.044
 11
-16.118
 20
-31.156
 21
-31.214
  0
LINE
  8
0
 10
-16.118
 11
-16.196
 20
-31.214
 21
-31.266
  0
LINE
  8
0
 10
-16.196
 11
-16.277
 20
-31.266
 21
-31.314
  0
LINE
  8
0
 10
-16.277
 11
-16.361
 20
-31.314
 21
-31.357
  0
LINE
  8
0
 10
-16.361
 11
-16.448
 20
-31.357
 21
-31.395
  0
LINE
  8
0
 10
-16.448
 11
-16.536
 20
-31.395
 21
-31.427
  0
LINE
  8
0
 10
-16.536
 11
-16.627
 20
-31.427
 21
-31.453
  0
LINE
  8
0
 10
-16.627
 11
-16.719
 20
-31.453
 21
-31.473
  0
LINE
  8
0
 10
-16.719
 11
-16.812
 20
-31.473
 21
-31.488
  0
LINE
  8
0
 10
-16.812
 11
-16.906
 20
-31.488
 21
-31.497
  0
LINE
  8
0
 10
-16.906
 11
-17
 20
-31.497
 21
-31.5
  0
LINE
  8
0
 10
-17
 11
-17.094
 20
-31.5
 21
-31.497
  0
LINE
  8
0
 10
-17.094
 11
-17.188
 20
-31.497
 21
-31.488
  0
LINE
  8
0
 10
-17.188
 11
-17.281
 20
-31.488
 21
-31.473
  0
LINE
  8
0
 10
-17.281
 11
-17.373
 20
-31.473
 21
-31.453
  0
LINE
  8
0
 10
-17.373
 11
-17.464
 20
-31.453
 21
-31.427
  0
LINE
  8
0
 10
-17.464
 11
-17.552
 20
-31.427
 21
-31.395
  0
LINE
  8
0
 10
-17.552
 11
-17.639
 20
-31.395
 21
-31.357
  0
LINE
  8
0
 10
-17.639
 11
-17.723
 20
-31.357
 21
-31.314
  0
LINE
  8
0
 10
-17.723
 11
-17.804
 20
-31.314
 21
-31.266
  0
LINE
  8
0
 10
-17.804
 11
-17.882
 20
-31.266
 21
-31.214
  0
LINE
  8
0
 10
-17.882
 11
-17.956
 20
-31.214
 21
-31.156
  0
LINE
  8
0
 10
-17.956
 11
-18.027
 20
-31.156
 21
-31.093
  0
LINE
  8
0
 10
-18.027
 11
-18.093
 20
-31.093
 21
-31.027
  0
LINE
  8
0
 10
-18.093
 11
-18.156
 20
-31.027
 21
-30.956
  0
LINE
  8
0
 10
-18.156
 11
-18.214
 20
-30.956
 21
-30.882
  0
LINE
  8
0
 10
-18.214
 11
-18.266
 20
-30.882
 21
-30.804
  0
LINE
  8
0
 10
-18.266
 11
-18.314
 20
-30.804
 21
-30.723
  0
LINE
  8
0
 10
-18.314
 11
-18.357
 20
-30.723
 21
-30.639
  0
LINE
  8
0
 10
-18.357
 11
-18.395
 20
-30.639
 21
-30.552
  0
LINE
  8
0
 10
-18.395
 11
-18.427
 20
-30.552
 21
-30.464
  0
LINE
  8
0
 10
-18.427
 11
-18.453
 20
-30.464
 21
-30.373
  0
LINE
  8
0
 10
-18.453
 11
-18.473
 20
-30.373
 21
-30.281
  0
LINE
  8
0
 10
-18.473
 11
-18.488
 20
-30.281
 21
-30.188
  0
LINE
  8
0
 10
-18.488
 11
-18.497
 20
-30.188
 21
-30.094
  0
LINE
  8
0
 10
-18.497
 11
-18.5
 20
-30.094
 21
-30
  0
LINE
  8
0
 10
-18.5
 11
-18.497
 20
30
 21
30.094
  0
LINE
  8
0
 10
-18.497
 11
-18.488
 20
30.094
 21
30.188
  0
LINE
  8
0
 10
-18.488
 11
-18.473
 20
30.188
 21
30.281
  0
LINE
  8
0
 10
-18.473
 11
-18.453
 20
30.281
 21
30.373
  0
LINE
  8
0
 10
-18.453
 11
-18.427
 20
30.373
 21
30.464
  0
LINE
  8
0
 10
-18.427
 11
-18.395
 20
30.464
 21
30.552
  0
LINE
  8
0
 10
-18.395
 11
-18.357
 20
30.552
 21
30.639
  0
LINE
  8
0
 10
-18.357
 11
-18.314
 20
30.639
 21
30.723
  0
LINE
  8
0
 10
-18.314
 11
-18.266
 20
30.723
 21
30.804
  0
LINE
  8
0
 10
-18.266
 11
-18.214
 20
30.804
 21
30.882
  0
LINE
  8
0
 10
-18.214
 11
-18.156
 20
30.882
 21
30.956
  0
LINE
  8
0
 10
-18.156
 11
-18.093
 20
30.956
 21
31.027
  0
LINE
  8
0
 10
-18.093
 11
-18.027
 20
31.027
 21
31.093
  0
LINE
  8
0
 10
-18.027
 11
-17.956
 20
31.093
 21
31.156
  0
LINE
  8
0
 10
-17.956
 11
-17.882
 20
31.156
 21
31.214
  0
LINE
  8
0
 10
-17.882
 11
-17.804
 20
31.214
 21
31.266
  0
LINE
  8
0
 10
-17.804
 11
-17.723
 20
31.266
 21
31.314
  0
LINE
  8
0
 10
-17.723
 11
-17.639
 20
31.314
 21
31.357
  0
LINE
  8
0
 10
-17.639
 11
-17.552
 20
31.357
 21
31.395
  0
LINE
  8
0
 10
-17.552
 11
-17.464
 20
31.395
 21
31.427
  0
LINE
  8
0
 10
-17.464
 11
-17.373
 20
31.427
 21
31.453
  0
LINE
  8
0
 10
-17.373
 11
-17.281
 20
31.453
 21
31.473
  0
LINE
  8
0
 10
-17.281
 11
-17.188
 20
31.473
 21
31.488
  0
LINE
  8
0
 10
-17.188
 11
-17.094
 20
31.488
 21
31.497
  0
LINE
  8
0
 10
-17.094
 11
-17
 20
31.497
 21
31.5
  0
LINE
  8
0
 10
-17
 11
-16.906
 20
31.5
 21
31.497
  0
LINE
  8
0
 10
-16.906
 11
-16.812
 20
31.497
 21
31.488
  0
LINE
  8
0
 10
-16.812
 11
-16.719
 20
31.488
 21
31.473
  0
LINE
  8
0
 10
-16.719
 11
-16.627
 20
31.473
 21
31.453
  0
LINE
  8
0
 10
-16.627
 11
-16.536
 20
31.453
 21
31.427
  0
LINE
  8
0
 10
-16.536
 11
-16.448
 20
31.427
 21
31.395
  0
LINE
  8
0
 10
-16.448
 11
-16.361
 20
31.395
 21
31.357
  0
LINE
  8
0
 10
-16.361
 11
-16.277
 20
31.357
 21
31.314
  0
LINE
  8
0
 10
-16.277
 11
-16.196
 20
31.314
 21
31.266
  0
LINE
  8
0
 10
-16.196
 11
-16.118
 20
31.266
 21
31.214
  0
LINE
  8
0
 10
-16.118
 11
-16.044
 20
31.214
 21
31.156
  0
LINE
  8
0
 10
-16.044
 11
-15.973
 20
31.156
 21
31.093
  0
LINE
  8
0
 10
-15.973
 11
-15.907
 20
31.093
 21
31.027
  0
LINE
  8
0
 10
-15.907
 11
-15.844
 20
31.027
 21
30.956
  0
LINE
  8
0
 10
-15.844
 11
-15.786
 20
30.956
 21
30.882
  0
LINE
  8
0
 10
-15.786
 11
-15.734
 20
30.882
 21
30.804
  0
LINE
  8
0
 10
-15.734
 11
-15.686
 20
30.804
 21
30.723
  0
LINE
  8
0
 10
-15.686
 11
-15.643
 20
30.723
 21
30.639
  0
LINE
  8
0
 10
-15.643
 11
-15.605
 20
30.639
 21
30.552
  0
LINE
  8
0
 10
-15.605
 11
-15.573
 20
30.552
 21
30.464
  0
LINE
  8
0
 10
-15.573
 11
-15.547
 20
30.464
 21
30.373
  0
LINE
  8
0
 10
-15.547
 11
-15.527
 20
30.373
 21
30.281
  0
LINE
  8
0
 10
-15.527
 11
-15.512
 20
30.281
 21
30.188
  0
LINE
  8
0
 10
-15.512
 11
-15.503
 20
30.188
 21
30.094
  0
LINE
  8
0
 10
-15.503
 11
-15.5
 20
30.094
 21
30
  0
LINE
  8
0
 10
-15.5
 11
-15.503
 20
30
 21
29.906
  0
LINE
  8
0
 10
-15.503
 11
-15.512
 20
29.906
 21
29.812
  0
LINE
  8
0
 10
-15.512
 11
-15.527
 20
29.812
 21
29.719
  0
LINE
  8
0
 10
-15.527
 11
-15.547
 20
29.719
 21
29.627
  0
LINE
  8
0
 10
-15.547
 11
-15.573
 20
29.627
 21
29.536
  0
LINE
  8
0
 10
-15.573
 11
-15.605
 20
29.536
 21
29.448
  0
LINE
  8
0
 10
-15.605
 11
-15.643
 20
29.448
 21
29.361
  0
LINE
  8
0
 10
-15.643
 11
-15.686
 20
29.361
 21
29.277
  0
LINE
  8
0
 10
-15.686
 11
-15.734
 20
29.277
 21
29.196
  0
LINE
  8
0
 10
-15.734
 11
-15.786
 20
29.196
 21
29.118
  0
LINE
  8
0
 10
-15.786
 11
-15.844
 20
29.118
 21
29.044
  0
LINE
  8
0
 10
-15.844
 11
-15.907
 20
29.044
 21
28.973
  0
LINE
  8
0
 10
-15.907
 11
-15.973
 20
28.973
 21
28.907
  0
LINE
  8
0
 10
-15.973
 11
-16.044
 20
28.907
 21
28.844
  0
LINE
  8
0
 10
-16.044
 11
-16.118
 20
28.844
 21
28.786
  0
LINE
  8
0
 10
-16.118
 11
-16.196
 20
28.786
 21
28.734
  0
LINE
  8
0
 10
-16.196
 11
-16.277
 20
28.734
 21
28.686
  0
LINE
  8
0
 10
-16.277
 11
-16.361
 20
28.686
 21
28.643
  0
LINE
  8
0
 10
-16.361
 11
-16.448
 20
28.643
 21
28.605
  0
LINE
  8
0
 10
-16.448
 11
-16.536
 20
28.605
 21
28.573
  0
LINE
  8
0
 10
-16.536
 11
-16.627
 20
28.573
 21
28.547
  0
LINE
  8
0
 10
-16.627
 11
-16.719
 20
28.547
 21
28.527
  0
LINE
  8
0
 10
-16.719
 11
-16.812
 20
28.527
 21
28.512
  0
LINE
  8
0
 10
-16.812
 11
-16.906
 20
28.512
 21
28.503
  0
LINE
  8
0
 10
-16.906
 11
-17
 20
28.503
 21
28.5
  0
LINE
  8
0
 10
-17
 11
-17.094
 20
28.5
 21
28.503
  0
LINE
  8
0
 10
-17.094
 11
-17.188
 20
28.503
 21
28.512
  0
LINE
  8
0
 10
-17.188
 11
-17.281
 20
28.512
 21
28.527
  0
LINE
  8
0
 10
-17.281
 11
-17.373
 20
28.527
 21
28.547
  0
LINE
  8
0
 10
-17.373
 11
-17.464
 20
28.547
 21
28.573
  0
LINE
  8
0
 10
-17.464
 11
-17.552
 20
28.573
 21
28.605
  0
LINE
  8
0
 10
-17.552
 11
-17.639
 20
28.605
 21
28.643
  0
LINE
  8
0
 10
-17.639
 11
-17.723
 20
28.643
 21
28.686
  0
LINE
  8
0
 10
-17.723
 11
-17.804
 20
28.686
 21
28.734
  0
LINE
  8
0
 10
-17.804
 11
-17.882
 20
28.734
 21
28.786
  0
LINE
  8
0
 10
-17.882
 11
-17.956
 20
28.786
 21
28.844
  0
LINE
  8
0
 10
-17.956
 11
-18.027
 20
28.844
 21
28.907
  0
LINE
  8
0
 10
-18.027
 11
-18.093
 20
28.907
 21
28.973
  0
LINE
  8
0
 10
-18.093
 11
-18.156
 20
28.973
 21
29.044
  0
LINE
  8
0
 10
-18.156
 11
-18.214
 20
29.044
 21
29.118
  0
LINE
  8
0
 10
-18.214
 11
-18.266
 20
29.118
 21
29.196
  0
LINE
  8
0
 10
-18.266
 11
-18.314
 20
29.196
 21
29.277
  0
LINE
  8
0
 10
-18.314
 11
-18.357
 20
29.277
 21
29.361
  0
LINE
  8
0
 10
-18.357
 11
-18.395
 20
29.361
 21
29.448
  0
LINE
  8
0
 10
-18.395
 11
-18.427
 20
29.448
 21
29.536
  0
LINE
  8
0
 10
-18.427
 11
-18.453
 20
29.536
 21
29.627
  0
LINE
  8
0
 10
-18.453
 11
-18.473
 20
29.627
 21
29.719
  0
LINE
  8
0
 10
-18.473
 11
-18.488
 20
29.719
 21
29.812
  0
LINE
  8
0
 10
-18.488
 11
-18.497
 20
29.812
 21
29.906
  0
LINE
  8
0
 10
-18.497
 11
-18.5
 20
29.906
 21
30
  0
LINE
  8
0
 10
15.5
 11
15.503
 20
-30
 21
-29.906
  0
LINE
  8
0
 10
15.503
 11
15.512
 20
-29.906
 21
-29.812
  0
LINE
  8
0
 10
15.512
 11
15.527
 20
-29.812
 21
-29.719
  0
LINE
  8
0
 10
15.527
 11
15.547
 20
-29.719
 21
-29.627
  0
LINE
  8
0
 10
15.547
 11
15.573
 20
-29.627
 21
-29.536
  0
LINE
  8
0
 10
15.573
 11
15.605
 20
-29.536
 21
-29.448
  0
LINE
  8
0
 10
15.605
 11
15.643
 20
-29.448
 21
-29.361
  0
LINE
  8
0
 10
15.643
 11
15.686
 20
-29.361
 21
-29.277
  0
LINE
  8
0
 10
15.686
 11
15.734
 20
-29.277
 21
-29.196
  0
LINE
  8
0
 10
15.734
 11
15.786
 20
-29.196
 21
-29.118
  0
LINE
  8
0
 10
15.786
 11
15.844
 20
-29.118
 21
-29.044
  0
LINE
  8
0
 10
15.844
 11
15.907
 20
-29.044
 21
-28.973
  0
LINE
  8
0
 10
15.907
 11
15.973
 20
-28.973
 21
-28.907
  0
LINE
  8
0
 10
15.973
 11
16.044
 20
-28.907
 21
-28.844
  0
LINE
  8
0
 10
16.044
 11
16.118
 20
-28.844
 21
-28.786
  0
LINE
  8
0
 10
16.118
 11
16.196
 20
-28.786
 21
-28.734
  0
LINE
  8
0
 10
16.196
 11
16.277
 20
-28.734
 21
-28.686
  0
LINE
  8
0
 10
16.277
 11
16.361
 20
-28.686
 21
-28.643
  0
LINE
  8
0
 10
16.361
 11
16.448
 20
-28.643
 21
-28.605
  0
LINE
  8
0
 10
16.448
 11
16.536
 20
-28.605
 21
-28.573
  0
LINE
  8
0
 10
16.536
 11
16.627
 20
-28.573
 21
-28.547
  0
LINE
  8
0
 10
16.627
 11
16.719
 20
-28.547
 21
-28.527
  0
LINE
  8
0
 10
16.719
 11
16.812
 20
-28.527
 21
-28.512
  0
LINE
  8
0
 10
16.812
 11
16.906
 20
-28.512
 21
-28.503
  0
LINE
  8
0
 10
16.906
 11
17
 20
-28.503
 21
-28.5
  0
LINE
  8
0
 10
17
 11
17.094
 20
-28.5
 21
-28.503
  0
LINE
  8
0
 10
17.094
 11
17.188
 20
-28.503
 21
-28.512
  0
LINE
  8
0
 10
17.188
 11
17.281
 20
-28.512
 21
-28.527
  0
LINE
  8
0
 10
17.281
 11
17.373
 20
-28.527
 21
-28.547
  0
LINE
  8
0
 10
17.373
 11
17.464
 20
-28.547
 21
-28.573
  0
LINE
  8
0
 10
17.464
 11
17.552
 20
-28.573
 21
-28.605
  0
LINE
  8
0
 10
17.552
 11
17.639
 20
-28.605
 21
-28.643
  0
LINE
  8
0
 10
17.639
 11
17.723
 20
-28.643
 21
-28.686
  0
LINE
  8
0
 10
17.723
 11
17.804
 20
-28.686
 21
-28.734
  0
LINE
  8
0
 10
17.804
 11
17.882
 20
-28.734
 21
-28.786
  0
LINE
  8
0
 10
17.882
 11
17.956
 20
-28.786
 21
-28.844
  0
LINE
  8
0
 10
17.956
 11
18.027
 20
-28.844
 21
-28.907
  0
LINE
  8
0
 10
18.027
 11
18.093
 20
-28.907
 21
-28.973
  0
LINE
  8
0
 10
18.093
 11
18.156
 20
-28.973
 21
-29.044
  0
LINE
  8
0
 10
18.156
 11
18.214
 20
-29.044
 21
-29.118
  0
LINE
  8
0
 10
18.214
 11
18.266
 20
-29.118
 21
-29.196
  0
LINE
  8
0
 10
18.266
 11
18.314
 20
-29.196
 21
-29.277
  0
LINE
  8
0
 10
18.314
 11
18.357
 20
-29.277
 21
-29.361
  0
LINE
  8
0
 10
18.357
 11
18.395
 20
-29.361
 21
-29.448
  0
LINE
  8
0
 10
18.395
 11
18.427
 20
-29.448
 21
-29.536
  0
LINE
  8
0
 10
18.427
 11
18.453
 20
-29.536
 21
-29.627
  0
LINE
  8
0
 10
18.453
 11
18.473
 20
-29.627
 21
-29.719
  0
LINE
  8
0
 10
18.473
 11
18.488
 20
-29.719
 21
-29.812
  0
LINE
  8
0
 10
18.488
 11
18.497
 20
-29.812
 21
-29.906
  0
LINE
  8
0
 10
18.497
 11
18.5
 20
-29.906
 21
-30
  0
LINE
  8
0
 10
18.5
 11
18.497
 20
-30
 21
-30.094
  0
LINE
  8
0
 10
18.497
 11
18.488
 20
-30.094
 21
-30.188
  0
LINE
  8
0
 10
18.488
 11
18.473
 20
-30.188
 21
-30.281
  0
LINE
  8
0
 10
18.473
 11
18.453
 20
-30.281
 21
-30.373
  0
LINE
  8
0
 10
18.453
 11
18.427
 20
-30.373
 21
-30.464
  0
LINE
  8
0
 10
18.427
 11
18.395
 20
-30.464
 21
-30.552
  0
LINE
  8
0
 10
18.395
 11
18.357
 20
-30.552
 21
-30.639
  0
LINE
  8
0
 10
18.357
 11
18.314
 20
-30.639
 21
-30.723
  0
LINE
  8
0
 10
18.314
 11
18.266
 20
-30.723
 21
-30.804
  0
LINE
  8
0
 10
18.266
 11
18.214
 20
-30.804
 21
-30.882
  0
LINE
  8
0
 10
18.214
 11
18.156
 20
-30.882
 21
-30.956
  0
LINE
  8
0
 10
18.156
 11
18.093
 20
-30.956
 21
-31.027
  0
LINE
  8
0
 10
18.093
 11
18.027
 20
-31.027
 21
-31.093
  0
LINE
  8
0
 10
18.027
 11
17.956
 20
-31.093
 21
-31.156
  0
LINE
  8
0
 10
17.956
 11
17.882
 20
-31.156
 21
-31.214
  0
LINE
  8
0
 10
17.882
 11
17.804
 20
-31.214
 21
-31.266
  0
LINE
  8
0
 10
17.804
 11
17.723
 20
-31.266
 21
-31.314
  0
LINE
  8
0
 10
17.723
 11
17.639
 20
-31.314
 21
-31.357
  0
LINE
  8
0
 10
17.639
 11
17.552
 20
-31.357
 21
-31.395
  0
LINE
  8
0
 10
17.552
 11
17.464
 20
-31.395
 21
-31.427
  0
LINE
  8
0
 10
17.464
 11
17.373
 20
-31.427
 21
-31.453
  0
LINE
  8
0
 10
17.373
 11
17.281
 20
-31.453
 21
-31.473
  0
LINE
  8
0
 10
17.281
 11
17.188
 20
-31.473
 21
-31.488
  0
LINE
  8
0
 10
17.188
 11
17.094
 20
-31.488
 21
-31.497
  0
LINE
  8
0
 10
17.094
 11
17
 20
-31.497
 21
-31.5
  0
LINE
  8
0
 10
17
 11
16.906
 20
-31.5
 21
-31.497
  0
LINE
  8
0
 10
16.906
 11
16.812
 20
-31.497
 21
-31.488
  0
LINE
  8
0
 10
16.812
 11
16.719
 20
-31.488
 21
-31.473
  0
LINE
  8
0
 10
16.719
 11
16.627
 20
-31.473
 21
-31.453
  0
LINE
  8
0
 10
16.627
 11
16.536
 20
-31.453
 21
-31.427
  0
LINE
  8
0
 10
16.536
 11
16.448
 20
-31.427
 21
-31.395
  0
LINE
  8
0
 10
16.448
 11
16.361
 20
-31.395
 21
-31.357
  0
LINE
  8
0
 10
16.361
 11
16.277
 20
-31.357
 21
-31.314
  0
LINE
  8
0
 10
16.277
 11
16.196
 20
-31.314
 21
-31.266
  0
LINE
  8
0
 10
16.196
 11
16.118
 20
-31.266
 21
-31.214
  0
LINE
  8
0
 10
16.118
 11
16.044
 20
-31.214
 21
-31.156
  0
LINE
  8
0
 10
16.044
 11
15.973
 20
-31.156
 21
-31.093
  0
LINE
  8
0
 10
15.973
 11
15.907
 20
-31.093
 21
-31.027
  0
LINE
  8
0
 10
15.907
 11
15.844
 20
-31.027
 21
-30.956
  0
LINE
  8
0
 10
15.844
 11
15.786
 20
-30.956
 21
-30.882
  0
LINE
  8
0
 10
15.786
 11
15.734
 20
-30.882
 21
-30.804
  0
LINE
  8
0
 10
15.734
 11
15.686
 20
-30.804
 21
-30.723
  0
LINE
  8
0
 10
15.686
 11
15.643
 20
-30.723
 21
-30.639
  0
LINE
  8
0
 10
15.643
 11
15.605
 20
-30.639
 21
-30.552
  0
LINE
  8
0
 10
15.605
 11
15.573
 20
-30.552
 21
-30.464
  0
LINE
  8
0
 10
15.573
 11
15.547
 20
-30.464
 21
-30.373
  0
LINE
  8
0
 10
15.547
 11
15.527
 20
-30.373
 21
-30.281
  0
LINE
  8
0
 10
15.527
 11
15.512
 20
-30.281
 21
-30.188
  0
LINE
  8
0
 10
15.512
 11
15.503
 20
-30.188
 21
-30.094
  0
LINE
  8
0
 10
15.503
 11
15.5
 20
-30.094
 21
-30
  0
LINE
  8
0
 10
15.5
 11
15.503
 20
30
 21
30.094
  0
LINE
  8
0
 10
15.503
 11
15.512
 20
30.094
 21
30.188
  0
LINE
  8
0
 10
15.512
 11
15.527
 20
30.188
 21
30.281
  0
LINE
  8
0
 10
15.527
 11
15.547
 20
30.281
 21
30.373
  0
LINE
  8
0
 10
15.547
 11
15.573
 20
30.373
 21
30.464
  0
LINE
  8
0
 10
15.573
 11
15.605
 20
30.464
 21
30.552
  0
LINE
  8
0
 10
15.605
 11
15.643
 20
30.552
 21
30.639
  0
LINE
  8
0
 10
15.643
 11
15.686
 20
30.639
 21
30.723
  0
LINE
  8
0
 10
15.686
 11
15.734
 20
30.723
 21
30.804
  0
LINE
  8
0
 10
15.734
 11
15.786
 20
30.804
 21
30.882
  0
LINE
  8
0
 10
15.786
 11
15.844
 20
30.882
 21
30.956
  0
LINE
  8
0
 10
15.844
 11
15.907
 20
30.956
 21
31.027
  0
LINE
  8
0
 10
15.907
 11
15.973
 20
31.027
 21
31.093
  0
LINE
  8
0
 10
15.973
 11
16.044
 20
31.093
 21
31.156
  0
LINE
  8
0
 10
16.044
 11
16.118
 20
31.156
 21
31.214
  0
LINE
  8
0
 10
16.118
 11
16.196
 20
31.214
 21
31.266
  0
LINE
  8
0
 10
16.196
 11
16.277
 20
31.266
 21
31.314
  0
LINE
  8
0
 10
16.277
 11
16.361
 20
31.314
 21
31.357
  0
LINE
  8
0
 10
16.361
 11
16.448
 20
31.357
 21
31.395
  0
LINE
  8
0
 10
16.448
 11
16.536
 20
31.395
 21
31.427
  0
LINE
  8
0
 10
16.536
 11
16.627
 20
31.427
 21
31.453
  0
LINE
  8
0
 10
16.627
 11
16.719
 20
31.453
 21
31.473
  0
LINE
  8
0
 10
16.719
 11
16.812
 20
31.473
 21
31.488
  0
LINE
  8
0
 10
16.812
 11
16.906
 20
31.488
 21
31.497
  0
LINE
  8
0
 10
16.906
 11
17
 20
31.497
 21
31.5
  0
LINE
  8
0
 10
17
 11
17.094
 20
31.5
 21
31.497
  0
LINE
  8
0
 10
17.094
 11
17.188
 20
31.497
 21
31.488
  0
LINE
  8
0
 10
17.188
 11
17.281
 20
31.488
 21
31.473
  0
LINE
  8
0
 10
17.281
 11
17.373
 20
31.473
 21
31.453
  0
LINE
  8
0
 10
17.373
 11
17.464
 20
31.453
 21
31.427
  0
LINE
  8
0
 10
17.464
 11
17.552
 20
31.427
 21
31.395
  0
LINE
  8
0
 10
17.552
 11
17.639
 20
31.395
 21
31.357
  0
LINE
  8
0
 10
17.639
 11
17.723
 20
31.357
 21
31.314
  0
LINE
  8
0
 10
17.723
 11
17.804
 20
31.314
 21
31.266
  0
LINE
  8
0
 10
17.804
 11
17.882
 20
31.266
 21
31.214
  0
LINE
  8
0
 10
17.882
 11
17.956
 20
31.214
 21
31.156
  0
LINE
  8
0
 10
17.956
 11
18.027
 20
31.156
 21
31.093
  0
LINE
  8
0
 10
18.027
 11
18.093
 20
31.093
 21
31.027
  0
LINE
  8
0
 10
18.093
 11
18.156
 20
31.027
 21
30.956
  0
LINE
  8
0
 10
18.156
 11
18.214
 20
30.956
 21
30.882
  0
LINE
  8
0
 10
18.214
 11
18.266
 20
30.882
 21
30.804
  0
LINE
  8
0
 10
18.266
 11
18.314
 20
30.804
 21
30.723
  0
LINE
  8
0
 10
18.314
 11
18.357
 20
30.723
 21
30.639
  0
LINE
  8
0
 10
18.357
 11
18.395
 20
30.639
 21
30.552
  0
LINE
  8
0
 10
18.395
 11
18.427
 20
30.552
 21
30.464
  0
LINE
  8
0
 10
18.427
 11
18.453
 20
30.464
 21
30.373
  0
LINE
  8
0
 10
18.453
 11
18.473
 20
30.373
 21
30.281
  0
LINE
  8
0
 10
18.473
 11
18.488
 20
30.281
 21
30.188
  0
LINE
  8
0
 10
18.488
 11
18.497
 20
30.188
 21
30.094
  0
LINE
  8
0
 10
18.497
 11
18.5
 20
30.094
 21
30
  0
LINE
  8
0
 10
18.5
 11
18.497
 20
30
 21
29.906
  0
LINE
  8
0
 10
18.497
 11
18.488
 20
29.906
 21
29.812
  0
LINE
  8
0
 10
18.488
 11
18.473
 20
29.812
 21
29.719
  0
LINE
  8
0
 10
18.473
 11
18.453
 20
29.719
 21
29.627
  0
LINE
  8
0
 10
18.453
 11
18.427
 20
29.627
 21
29.536
  0
LINE
  8
0
 10
18.427
 11
18.395
 20
29.536
 21
29.448
  0
LINE
  8
0
 10
18.395
 11
18.357
 20
29.448
 21
29.361
  0
LINE
  8
0
 10
18.357
 11
18.314
 20
29.361
 21
29.277
  0
LINE
  8
0
 10
18.314
 11
18.266
 20
29.277
 21
29.196
  0
LINE
  8
0
 10
18.266
 11
18.214
 20
29.196
 21
29.118
  0
LINE
  8
0
 10
18.214
 11
18.156
 20
29.118
 21
29.044
  0
LINE
  8
0
 10
18.156
 11
18.093
 20
29.044
 21
28.973
  0
LINE
  8
0
 10
18.093
 11
18.027
 20
28.973
 21
28.907
  0
LINE
  8
0
 10
18.027
 11
17.956
 20
28.907
 21
28.844
  0
LINE
  8
0
 10
17.956
 11
17.882
 20
28.844
 21
28.786
  0
LINE
  8
0
 10
17.882
 11
17.804
 20
28.786
 21
28.734
  0
LINE
  8
0
 10
17.804
 11
17.723
 20
28.734
 21
28.686
  0
LINE
  8
0
 10
17.723
 11
17.639
 20
28.686
 21
28.643
  0
LINE
  8
0
 10
17.639
 11
17.552
 20
28.643
 21
28.605
  0
LINE
  8
0
 10
17.552
 11
17.464
 20
28.605
 21
28.573
  0
LINE
  8
0
 10
17.464
 11
17.373
 20
28.573
 21
28.547
  0
LINE
  8
0
 10
17.373
 11
17.281
 20
28.547
 21
28.527
  0
LINE
  8
0
 10
17.281
 11
17.188
 20
28.527
 21
28.512
  0
LINE
  8
0
 10
17.188
 11
17.094
 20
28.512
 21
28.503
  0
LINE
  8
0
 10
17.094
 11
17
 20
28.503
 21
28.5
  0
LINE
  8
0
 10
17
 11
16.906
 20
28.5
 21
28.503
  0
LINE
  8
0
 10
16.906
 11
16.812
 20
28.503
 21
28.512
  0
LINE
  8
0
 10
16.812
 11
16.719
 20
28.512
 21
28.527
  0
LINE
  8
0
 10
16.719
 11
16.627
 20
28.527
 21
28.547
  0
LINE
  8
0
 10
16.627
 11
16.536
 20
28.547
 21
28.573
  0
LINE
  8
0
 10
16.536
 11
16.448
 20
28.573
 21
28.605
  0
LINE
  8
0
 10
16.448
 11
16.361
 20
28.605
 21
28.643
  0
LINE
  8
0
 10
16.361
 11
16.277
 20
28.643
 21
28.686
  0
LINE
  8
0
 10
16.277
 11
16.196
 20
28.686
 21
28.734
  0
LINE
  8
0
 10
16.196
 11
16.118
 20
28.734
 21
28.786
  0
LINE
  8
0
 10
16.118
 11
16.044
 20
28.786
 21
28.844
  0
LINE
  8
0
 10
16.044
 11
15.973
 20
28.844
 21
28.907
  0
LINE
  8
0
 10
15.973
 11
15.907
 20
28.907
 21
28.973
  0
LINE
  8
0
 10
15.907
 11
15.844
 20
28.973
 21
29.044
  0
LINE
  8
0
 10
15.844
 11
15.786
 20
29.044
 21
29.118
  0
LINE
  8
0
 10
15.786
 11
15.734
 20
29.118
 21
29.196
  0
LINE
  8
0
 10
15.734
 11
15.686
 20
29.196
 21
29.277
  0
LINE
  8
0
 10
15.686
 11
15.643
 20
29.277
 21
29.361
  0
LINE
  8
0
 10
15.643
 11
15.605
 20
29.361
 21
29.448
  0
LINE
  8
0
 10
15.605
 11
15.573
 20
29.448
 21
29.536
  0
LINE
  8
0
 10
15.573
 11
15.547
 20
29.536
 21
29.627
  0
LINE
  8
0
 10
15.547
 11
15.527
 20
29.627
 21
29.719
  0
LINE
  8
0
 10
15.527
 11
15.512
 20
29.719
 21
29.812
  0
LINE
  8
0
 10
15.512
 11
15.503
 20
29.812
 21
29.906
  0
LINE
  8
0
 10
15.503
 11
15.5
 20
29.906
 21
30
  0
LINE
  8
0
 10
72
 11
72.006
 20
-65
 21
-64.812
  0
LINE
  8
0
 10
72.006
 11
72.024
 20
-64.812
 21
-64.624
  0
LINE
  8
0
 10
72.024
 11
72.053
 20
-64.624
 21
-64.438
  0
LINE
  8
0
 10
72.053
 11
72.094
 20
-64.438
 21
-64.254
  0
LINE
  8
0
 10
72.094
 11
72.147
 20
-64.254
 21
-64.073
  0
LINE
  8
0
 10
72.147
 11
72.211
 20
-64.073
 21
-63.896
  0
LINE
  8
0
 10
72.211
 11
72.286
 20
-63.896
 21
-63.723
  0
LINE
  8
0
 10
72.286
 11
72.371
 20
-63.723
 21
-63.555
  0
LINE
  8
0
 10
72.371
 11
72.467
 20
-63.555
 21
-63.393
  0
LINE
  8
0
 10
72.467
 11
72.573
 20
-63.393
 21
-63.237
  0
LINE
  8
0
 10
72.573
 11
72.688
 20
-63.237
 21
-63.088
  0
LINE
  8
0
 10
72.688
 11
72.813
 20
-63.088
 21
-62.946
  0
LINE
  8
0
 10
72.813
 11
72.946
 20
-62.946
 21
-62.813
  0
LINE
  8
0
 10
72.946
 11
73.088
 20
-62.813
 21
-62.688
  0
LINE
  8
0
 10
73.088
 11
73.237
 20
-62.688
 21
-62.573
  0
LINE
  8
0
 10
73.237
 11
73.393
 20
-62.573
 21
-62.467
  0
LINE
  8
0
 10
73.393
 11
73.555
 20
-62.467
 21
-62.371
  0
LINE
  8
0
 10
73.555
 11
73.723
 20
-62.371
 21
-62.286
  0
LINE
  8
0
 10
73.723
 11
73.896
 20
-62.286
 21
-62.211
  0
LINE
  8
0
 10
73.896
 11
74.073
 20
-62.211
 21
-62.147
  0
LINE
  8
0
 10
74.073
 11
74.254
 20
-62.147
 21
-62.094
  0
LINE
  8
0
 10
74.254
 11
74.438
 20
-62.094
 21
-62.053
  0
LINE
  8
0
 10
74.438
 11
74.624
 20
-62.053
 21
-62.024
  0
LINE
  8
0
 10
74.624
 11
74.812
 20
-62.024
 21
-62.006
  0
LINE
  8
0
 10
74.812
 11
75
 20
-62.006
 21
-62
  0
LINE
  8
0
 10
75
 11
75.188
 20
-62
 21
-62.006
  0
LINE
  8
0
 10
75.188
 11
75.376
 20
-62.006
 21
-62.024
  0
LINE
  8
0
 10
75.376
 11
75.562
 20
-62.024
 21
-62.053
  0
LINE
  8
0
 10
75.562
 11
75.746
 20
-62.053
 21
-62.094
  0
LINE
  8
0
 10
75.746
 11
75.927
 20
-62.094
 21
-62.147
  0
LINE
  8
0
 10
75.927
 11
76.104
 20
-62.147
 21
-62.211
  0
LINE
  8
0
 10
76.104
 11
76.277
 20
-62.211
 21
-62.286
  0
LINE
  8
0
 10
76.277
 11
76.445
 20
-62.286
 21
-62.371
  0
LINE
  8
0
 10
76.445
 11
76.607
 20
-62.371
 21
-62.467
  0
LINE
  8
0
 10
76.607
 11
76.763
 20
-62.467
 21
-62.573
  0
LINE
  8
0
 10
76.763
 11
76.912
 20
-62.573
 21
-62.688
  0
LINE
  8
0
 10
76.912
 11
77.054
 20
-62.688
 21
-62.813
  0
LINE
  8
0
 10
77.054
 11
77.187
 20
-62.813
 21
-62.946
  0
LINE
  8
0
 10
77.187
 11
77.312
 20
-62.946
 21
-63.088
  0
LINE
  8
0
 10
77.312
 11
77.427
 20
-63.088
 21
-63.237
  0
LINE
  8
0
 10
77.427
 11
77.533
 20
-63.237
 21
-63.393
  0
LINE
  8
0
 10
77.533
 11
77.629
 20
-63.393
 21
-63.555
  0
LINE
  8
0
 10
77.629
 11
77.714
 20
-63.555
 21
-63.723
  0
LINE
  8
0
 10
77.714
 11
77.789
 20
-63.723
 21
-63.896
  0
LINE
  8
0
 10
77.789
 11
77.853
 20
-63.896
 21
-64.073
  0
LINE
  8
0
 10
77.853
 11
77.906
 20
-64.073
 21
-64.254
  0
LINE
  8
0
 10
77.906
 11
77.947
 20
-64.254
 21
-64.438
  0
LINE
  8
0
 10
77.947
 11
77.976
 20
-64.438
 21
-64.624
  0
LINE
  8
0
 10
77.976
 11
77.994
 20
-64.624
 21
-64.812
  0
LINE
  8
0
 10
77.994
 11
78
 20
-64.812
 21
-65
  0
LINE
  8
0
 10
78
 11
77.994
 20
-65
 21
-65.188
  0
LINE
  8
0
 10
77.994
 11
77.976
 20
-65.188
 21
-65.376
  0
LINE
  8
0
 10
77.976
 11
77.947
 20
-65.376
 21
-65.562
  0
LINE
  8
0
 10
77.947
 11
77.906
 20
-65.562
 21
-65.746
  0
LINE
  8
0
 10
77.906
 11
77.853
 20
-65.746
 21
-65.927
  0
LINE
  8
0
 10
77.853
 11
77.789
 20
-65.927
 21
-66.104
  0
LINE
  8
0
 10
77.789
 11
77.714
 20
-66.104
 21
-66.277
  0
LINE
  8
0
 10
77.714
 11
77.629
 20
-66.277
 21
-66.445
  0
LINE
  8
0
 10
77.629
 11
77.533
 20
-66.445
 21
-66.607
  0
LINE
  8
0
 10
77.533
 11
77.427
 20
-66.607
 21
-66.763
  0
LINE
  8
0
 10
77.427
 11
77.312
 20
-66.763
 21
-66.912
  0
LINE
  8
0
 10
77.312
 11
77.187
 20
-66.912
 21
-67.054
  0
LINE
  8
0
 10
77.187
 11
77.054
 20
-67.054
 21
-67.187
  0
LINE
  8
0
 10
77.054
 11
76.912
 20
-67.187
 21
-67.312
  0
LINE
  8
0
 10
76.912
 11
76.763
 20
-67.312
 21
-67.427
  0
LINE
  8
0
 10
76.763
 11
76.607
 20
-67.427
 21
-67.533
  0
LINE
  8
0
 10
76.607
 11
76.445
 20
-67.533
 21
-67.629
  0
LINE
  8
0
 10
76.445
 11
76.277
 20
-67.629
 21
-67.714
  0
LINE
  8
0
 10
76.277
 11
76.104
 20
-67.714
 21
-67.789
  0
LINE
  8
0
 10
76.104
 11
75.927
 20
-67.789
 21
-67.853
  0
LINE
  8
0
 10
75.927
 11
75.746
 20
-67.853
 21
-67.906
  0
LINE
  8
0
 10
75.746
 11
75.562
 20
-67.906
 21
-67.947
  0
LINE
  8
0
 10
75.562
 11
75.376
 20
-67.947
 21
-67.976
  0
LINE
  8
0
 10
75.376
 11
75.188
 20
-67.976
 21
-67.994
  0
LINE
  8
0
 10
75.188
 11
75
 20
-67.994
 21
-68
  0
LINE
  8
0
 10
75
 11
74.812
 20
-68
 21
-67.994
  0
LINE
  8
0
 10
74.812
 11
74.624
 20
-67.994
 21
-67.976
  0
LINE
  8
0
 10
74.624
 11
74.438
 20
-67.976
 21
-67.947
  0
LINE
  8
0
 10
74.438
 11
74.254
 20
-67.947
 21
-67.906
  0
LINE
  8
0
 10
74.254
 11
74.073
 20
-67.906
 21
-67.853
  0
LINE
  8
0
 10
74.073
 11
73.896
 20
-67.853
 21
-67.789
  0
LINE
  8
0
 10
73.896
 11
73.723
 20
-67.789
 21
-67.714
  0
LINE
  8
0
 10
73.723
 11
73.555
 20
-67.714
 21
-67.629
  0
LINE
  8
0
 10
73.555
 11
73.393
 20
-67.629
 21
-67.533
  0
LINE
  8
0
 10
73.393
 11
73.237
 20
-67.533
 21
-67.427
  0
LINE
  8
0
 10
73.237
 11
73.088
 20
-67.427
 21
-67.312
  0
LINE
  8
0
 10
73.088
 11
72.946
 20
-67.312
 21
-67.187
  0
LINE
  8
0
 10
72.946
 11
72.813
 20
-67.187
 21
-67.054
  0
LINE
  8
0
 10
72.813
 11
72.688
 20
-67.054
 21
-66.912
  0
LINE
  8
0
 10
72.688
 11
72.573
 20
-66.912
 21
-66.763
  0
LINE
  8
0
 10
72.573
 11
72.467
 20
-66.763
 21
-66.607
  0
LINE
  8
0
 10
72.467
 11
72.371
 20
-66.607
 21
-66.445
  0
LINE
  8
0
 10
72.371
 11
72.286
 20
-66.445
 21
-66.277
  0
LINE
  8
0
 10
72.286
 11
72.211
 20
-66.277
 21
-66.104
  0
LINE
  8
0
 10
72.211
 11
72.147
 20
-66.104
 21
-65.927
  0
LINE
  8
0
 10
72.147
 11
72.094
 20
-65.927
 21
-65.746
  0
LINE
  8
0
 10
72.094
 11
72.053
 20
-65.746
 21
-65.562
  0
LINE
  8
0
 10
72.053
 11
72.024
 20
-65.562
 21
-65.376
  0
LINE
  8
0
 10
72.024
 11
72.006
 20
-65.376
 21
-65.188
  0
LINE
  8
0
 10
72.006
 11
72
 20
-65.188
 21
-65
  0
LINE
  8
0
 10
72
 11
72.006
 20
65
 21
65.188
  0
LINE
  8
0
 10
72.006
 11
72.024
 20
65.188
 21
65.376
  0
LINE
  8
0
 10
72.024
 11
72.053
 20
65.376
 21
65.562
  0
LINE
  8
0
 10
72.053
 11
72.094
 20
65.562
 21
65.746
  0
LINE
  8
0
 10
72.094
 11
72.147
 20
65.746
 21
65.927
  0
LINE
  8
0
 10
72.147
 11
72.211
 20
65.927
 21
66.104
  0
LINE
  8
0
 10
72.211
 11
72.286
 20
66.104
 21
66.277
  0
LINE
  8
0
 10
72.286
 11
72.371
 20
66.277
 21
66.445
  0
LINE
  8
0
 10
72.371
 11
72.467
 20
66.445
 21
66.607
  0
LINE
  8
0
 10
72.467
 11
72.573
 20
66.607
 21
66.763
  0
LINE
  8
0
 10
72.573
 11
72.688
 20
66.763
 21
66.912
  0
LINE
  8
0
 10
72.688
 11
72.813
 20
66.912
 21
67.054
  0
LINE
  8
0
 10
72.813
 11
72.946
 20
67.054
 21
67.187
  0
LINE
  8
0
 10
72.946
 11
73.088
 20
67.187
 21
67.312
  0
LINE
  8
0
 10
73.088
 11
73.237
 20
67.312
 21
67.427
  0
LINE
  8
0
 10
73.237
 11
73.393
 20
67.427
 21
67.533
  0
LINE
  8
0
 10
73.393
 11
73.555
 20
67.533
 21
67.629
  0
LINE
  8
0
 10
73.555
 11
73.723
 20
67.629
 21
67.714
  0
LINE
  8
0
 10
73.723
 11
73.896
 20
67.714
 21
67.789
  0
LINE
  8
0
 10
73.896
 11
74.073
 20
67.789
 21
67.853
  0
LINE
  8
0
 10
74.073
 11
74.254
 20
67.853
 21
67.906
  0
LINE
  8
0
 10
74.254
 11
74.438
 20
67.906
 21
67.947
  0
LINE
  8
0
 10
74.438
 11
74.624
 20
67.947
 21
67.976
  0
LINE
  8
0
 10
74.624
 11
74.812
 20
67.976
 21
67.994
  0
LINE
  8
0
 10
74.812
 11
75
 20
67.994
 21
68
  0
LINE
  8
0
 10
75
 11
75.188
 20
68
 21
67.994
  0
LINE
  8
0
 10
75.188
 11
75.376
 20
67.994
 21
67.976
  0
LINE
  8
0
 10
75.376
 11
75.562
 20
67.976
 21
67.947
  0
LINE
  8
0
 10
75.562
 11
75.746
 20
67.947
 21
67.906
  0
LINE
  8
0
 10
75.746
 11
75.927
 20
67.906
 21
67.853
  0
LINE
  8
0
 10
75.927
 11
76.104
 20
67.853
 21
67.789
  0
LINE
  8
0
 10
76.104
 11
76.277
 20
67.789
 21
67.714
  0
LINE
  8
0
 10
76.277
 11
76.445
 20
67.714
 21
67.629
  0
LINE
  8
0
 10
76.445
 11
76.607
 20
67.629
 21
67.533
  0
LINE
  8
0
 10
76.607
 11
76.763
 20
67.533
 21
67.427
  0
LINE
  8
0
 10
76.763
 11
76.912
 20
67.427
 21
67.312
  0
LINE
  8
0
 10
76.912
 11
77.054
 20
67.312
 21
67.187
  0
LINE
  8
0
 10
77.054
 11
77.187
 20
67.187
 21
67.054
  0
LINE
  8
0
 10
77.187
 11
77.312
 20
67.054
 21
66.912
  0
LINE
  8
0
 10
77.312
 11
77.427
 20
66.912
 21
66.763
  0
LINE
  8
0
 10
77.427
 11
77.533
 20
66.763
 21
66.607
  0
LINE
  8
0
 10
77.533
 11
77.629
 20
66.607
 21
66.445
  0
LINE
  8
0
 10
77.629
 11
77.714
 20
66.445
 21
66.277
  0
LINE
  8
0
 10
77.714
 11
77.789
 20
66.277
 21
66.104
  0
LINE
  8
0
 10
77.789
 11
77.853
 20
66.104
 21
65.927
  0
LINE
  8
0
 10
77.853
 11
77.906
 20
65.927
 21
65.746
  0
LINE
  8
0
 10
77.906
 11
77.947
 20
65.746
 21
65.562
  0
LINE
  8
0
 10
77.947
 11
77.976
 20
65.562
 21
65.376
  0
LINE
  8
0
 10
77.976
 11
77.994
 20
65.376
 21
65.188
  0
LINE
  8
0
 10
77.994
 11
78
 20
65.188
 21
65
  0
LINE
  8
0
 10
78
 11
77.994
 20
65
 21
64.812
  0
LINE
  8
0
 10
77.994
 11
77.976
 20
64.812
 21
64.624
  0
LINE
  8
0
 10
77.976
 11
77.947
 20
64.624
 21
64.438
  0
LINE
  8
0
 10
77.947
 11
77.906
 20
64.438
 21
64.254
  0
LINE
  8
0
 10
77.906
 11
77.853
 20
64.254
 21
64.073
  0
LINE
  8
0
 10
77.853
 11
77.789
 20
64.073
 21
63.896
  0
LINE
  8
0
 10
77.789
 11
77.714
 20
63.896
 21
63.723
  0
LINE
  8
0
 10
77.714
 11
77.629
 20
63.723
 21
63.555
  0
LINE
  8
0
 10
77.629
 11
77.533
 20
63.555
 21
63.393
  0
LINE
  8
0
 10
77.533
 11
77.427
 20
63.393
 21
63.237
  0
LINE
  8
0
 10
77.427
 11
77.312
 20
63.237
 21
63.088
  0
LINE
  8
0
 10
77.312
 11
77.187
 20
63.088
 21
62.946
  0
LINE
  8
0
 10
77.187
 11
77.054
 20
62.946
 21
62.813
  0
LINE
  8
0
 10
77.054
 11
76.912
 20
62.813
 21
62.688
  0
LINE
  8
0
 10
76.912
 11
76.763
 20
62.688
 21
62.573
  0
LINE
  8
0
 10
76.763
 11
76.607
 20
62.573
 21
62.467
  0
LINE
  8
0
 10
76.607
 11
76.445
 20
62.467
 21
62.371
  0
LINE
  8
0
 10
76.445
 11
76.277
 20
62.371
 21
62.286
  0
LINE
  8
0
 10
76.277
 11
76.104
 20
62.286
 21
62.211
  0
LINE
  8
0
 10
76.104
 11
75.927
 20
62.211
 21
62.147
  0
LINE
  8
0
 10
75.927
 11
75.746
 20
62.147
 21
62.094
  0
LINE
  8
0
 10
75.746
 11
75.562
 20
62.094
 21
62.053
  0
LINE
  8
0
 10
75.562
 11
75.376
 20
62.053
 21
62.024
  0
LINE
  8
0
 10
75.376
 11
75.188
 20
62.024
 21
62.006
  0
LINE
  8
0
 10
75.188
 11
75
 20
62.006
 21
62
  0
LINE
  8
0
 10
75
 11
74.812
 20
62
 21
62.006
  0
LINE
  8
0
 10
74.812
 11
74.624
 20
62.006
 21
62.024
  0
LINE
  8
0
 10
74.624
 11
74.438
 20
62.024
 21
62.053
  0
LINE
  8
0
 10
74.438
 11
74.254
 20
62.053
 21
62.094
  0
LINE
  8
0
 10
74.254
 11
74.073
 20
62.094
 21
62.147
  0
LINE
  8
0
 10
74.073
 11
73.896
 20
62.147
 21
62.211
  0
LINE
  8
0
 10
73.896
 11
73.723
 20
62.211
 21
62.286
  0
LINE
  8
0
 10
73.723
 11
73.555
 20
62.286
 21
62.371
  0
LINE
  8
0
 10
73.555
 11
73.393
 20
62.371
 21
62.467
  0
LINE
  8
0
 10
73.393
 11
73.237
 20
62.467
 21
62.573
  0
LINE
  8
0
 10
73.237
 11
73.088
 20
62.573
 21
62.688
  0
LINE
  8
0
 10
73.088
 11
72.946
 20
62.688
 21
62.813
  0
LINE
  8
0
 10
72.946
 11
72.813
 20
62.813
 21
62.946
  0
LINE
  8
0
 10
72.813
 11
72.688
 20
62.946
 21
63.088
  0
LINE
  8
0
 10
72.688
 11
72.573
 20
63.088
 21
63.237
  0
LINE
  8
0
 10
72.573
 11
72.467
 20
63.237
 21
63.393
  0
LINE
  8
0
 10
72.467
 11
72.371
 20
63.393
 21
63.555
  0
LINE
  8
0
 10
72.371
 11
72.286
 20
63.555
 21
63.723
  0
LINE
  8
0
 10
72.286
 11
72.211
 20
63.723
 21
63.896
  0
LINE
  8
0
 10
72.211
 11
72.147
 20
63.896
 21
64.073
  0
LINE
  8
0
 10
72.147
 11
72.094
 20
64.073
 21
64.254
  0
LINE
  8
0
 10
72.094
 11
72.053
 20
64.254
 21
64.438
  0
LINE
  8
0
 10
72.053
 11
72.024
 20
64.438
 21
64.624
  0
LINE
  8
0
 10
72.024
 11
72.006
 20
64.624
 21
64.812
  0
LINE
  8
0
 10
72.006
 11
72
 20
64.812
 21
65
  0
ENDSEC
  0
SECTION
  2
OBJECTS
  0
DICTIONARY
  0
ENDSEC
  0
EOF
