  0
SECTION
  2
BLOCKS
  0
ENDSEC
  0
SECTION
  2
ENTITIES
  0
LINE
  8
0
 10
-30
 11
-30
 20
-30
 21
30
  0
LINE
  8
0
 10
-30
 11
30
 20
30
 21
30
  0
LINE
  8
0
 10
30
 11
30
 20
30
 21
-30
  0
LINE
  8
0
 10
30
 11
-30
 20
-30
 21
-30
  0
LINE
  8
0
 10
-21.5
 11
-21.427
 20
-20
 21
-19.536
  0
LINE
  8
0
 10
-21.427
 11
-21.214
 20
-19.536
 21
-19.118
  0
LINE
  8
0
 10
-21.214
 11
-20.882
 20
-19.118
 21
-18.786
  0
LINE
  8
0
 10
-20.882
 11
-20.464
 20
-18.786
 21
-18.573
  0
LINE
  8
0
 10
-20.464
 11
-20
 20
-18.573
 21
-18.5
  0
LINE
  8
0
 10
-20
 11
-19.536
 20
-18.5
 21
-18.573
  0
LINE
  8
0
 10
-19.536
 11
-19.118
 20
-18.573
 21
-18.786
  0
LINE
  8
0
 10
-19.118
 11
-18.786
 20
-18.786
 21
-19.118
  0
LINE
  8
0
 10
-18.786
 11
-18.573
 20
-19.118
 21
-19.536
  0
LINE
  8
0
 10
-18.573
 11
-18.5
 20
-19.536
 21
-20
  0
LINE
  8
0
 10
-18.5
 11
-18.573
 20
-20
 21
-20.464
  0
LINE
  8
0
 10
-18.573
 11
-18.786
 20
-20.464
 21
-20.882
  0
LINE
  8
0
 10
-18.786
 11
-19.118
 20
-20.882
 21
-21.214
  0
LINE
  8
0
 10
-19.118
 11
-19.536
 20
-21.214
 21
-21.427
  0
LINE
  8
0
 10
-19.536
 11
-20
 20
-21.427
 21
-21.5
  0
LINE
  8
0
 10
-20
 11
-20.464
 20
-21.5
 21
-21.427
  0
LINE
  8
0
 10
-20.464
 11
-20.882
 20
-21.427
 21
-21.214
  0
LINE
  8
0
 10
-20.882
 11
-21.214
 20
-21.214
 21
-20.882
  0
LINE
  8
0
 10
-21.214
 11
-21.427
 20
-20.882
 21
-20.464
  0
LINE
  8
0
 10
-21.427
 11
-21.5
 20
-20.464
 21
-20
  0
LINE
  8
0
 10
-21.5
 11
-21.427
 20
20
 21
20.464
  0
LINE
  8
0
 10
-21.427
 11
-21.214
 20
20.464
 21
20.882
  0
LINE
  8
0
 10
-21.214
 11
-20.882
 20
20.882
 21
21.214
  0
LINE
  8
0
 10
-20.882
 11
-20.464
 20
21.214
 21
21.427
  0
LINE
  8
0
 10
-20.464
 11
-20
 20
21.427
 21
21.5
  0
LINE
  8
0
 10
-20
 11
-19.536
 20
21.5
 21
21.427
  0
LINE
  8
0
 10
-19.536
 11
-19.118
 20
21.427
 21
21.214
  0
LINE
  8
0
 10
-19.118
 11
-18.786
 20
21.214
 21
20.882
  0
LINE
  8
0
 10
-18.786
 11
-18.573
 20
20.882
 21
20.464
  0
LINE
  8
0
 10
-18.573
 11
-18.5
 20
20.464
 21
20
  0
LINE
  8
0
 10
-18.5
 11
-18.573
 20
20
 21
19.536
  0
LINE
  8
0
 10
-18.573
 11
-18.786
 20
19.536
 21
19.118
  0
LINE
  8
0
 10
-18.786
 11
-19.118
 20
19.118
 21
18.786
  0
LINE
  8
0
 10
-19.118
 11
-19.536
 20
18.786
 21
18.573
  0
LINE
  8
0
 10
-19.536
 11
-20
 20
18.573
 21
18.5
  0
LINE
  8
0
 10
-20
 11
-20.464
 20
18.5
 21
18.573
  0
LINE
  8
0
 10
-20.464
 11
-20.882
 20
18.573
 21
18.786
  0
LINE
  8
0
 10
-20.882
 11
-21.214
 20
18.786
 21
19.118
  0
LINE
  8
0
 10
-21.214
 11
-21.427
 20
19.118
 21
19.536
  0
LINE
  8
0
 10
-21.427
 11
-21.5
 20
19.536
 21
20
  0
LINE
  8
0
 10
18.5
 11
18.573
 20
-20
 21
-19.536
  0
LINE
  8
0
 10
18.573
 11
18.786
 20
-19.536
 21
-19.118
  0
LINE
  8
0
 10
18.786
 11
19.118
 20
-19.118
 21
-18.786
  0
LINE
  8
0
 10
19.118
 11
19.536
 20
-18.786
 21
-18.573
  0
LINE
  8
0
 10
19.536
 11
20
 20
-18.573
 21
-18.5
  0
LINE
  8
0
 10
20
 11
20.464
 20
-18.5
 21
-18.573
  0
LINE
  8
0
 10
20.464
 11
20.882
 20
-18.573
 21
-18.786
  0
LINE
  8
0
 10
20.882
 11
21.214
 20
-18.786
 21
-19.118
  0
LINE
  8
0
 10
21.214
 11
21.427
 20
-19.118
 21
-19.536
  0
LINE
  8
0
 10
21.427
 11
21.5
 20
-19.536
 21
-20
  0
LINE
  8
0
 10
21.5
 11
21.427
 20
-20
 21
-20.464
  0
LINE
  8
0
 10
21.427
 11
21.214
 20
-20.464
 21
-20.882
  0
LINE
  8
0
 10
21.214
 11
20.882
 20
-20.882
 21
-21.214
  0
LINE
  8
0
 10
20.882
 11
20.464
 20
-21.214
 21
-21.427
  0
LINE
  8
0
 10
20.464
 11
20
 20
-21.427
 21
-21.5
  0
LINE
  8
0
 10
20
 11
19.536
 20
-21.5
 21
-21.427
  0
LINE
  8
0
 10
19.536
 11
19.118
 20
-21.427
 21
-21.214
  0
LINE
  8
0
 10
19.118
 11
18.786
 20
-21.214
 21
-20.882
  0
LINE
  8
0
 10
18.786
 11
18.573
 20
-20.882
 21
-20.464
  0
LINE
  8
0
 10
18.573
 11
18.5
 20
-20.464
 21
-20
  0
LINE
  8
0
 10
18.5
 11
18.573
 20
20
 21
20.464
  0
LINE
  8
0
 10
18.573
 11
18.786
 20
20.464
 21
20.882
  0
LINE
  8
0
 10
18.786
 11
19.118
 20
20.882
 21
21.214
  0
LINE
  8
0
 10
19.118
 11
19.536
 20
21.214
 21
21.427
  0
LINE
  8
0
 10
19.536
 11
20
 20
21.427
 21
21.5
  0
LINE
  8
0
 10
20
 11
20.464
 20
21.5
 21
21.427
  0
LINE
  8
0
 10
20.464
 11
20.882
 20
21.427
 21
21.214
  0
LINE
  8
0
 10
20.882
 11
21.214
 20
21.214
 21
20.882
  0
LINE
  8
0
 10
21.214
 11
21.427
 20
20.882
 21
20.464
  0
LINE
  8
0
 10
21.427
 11
21.5
 20
20.464
 21
20
  0
LINE
  8
0
 10
21.5
 11
21.427
 20
20
 21
19.536
  0
LINE
  8
0
 10
21.427
 11
21.214
 20
19.536
 21
19.118
  0
LINE
  8
0
 10
21.214
 11
20.882
 20
19.118
 21
18.786
  0
LINE
  8
0
 10
20.882
 11
20.464
 20
18.786
 21
18.573
  0
LINE
  8
0
 10
20.464
 11
20
 20
18.573
 21
18.5
  0
LINE
  8
0
 10
20
 11
19.536
 20
18.5
 21
18.573
  0
LINE
  8
0
 10
19.536
 11
19.118
 20
18.573
 21
18.786
  0
LINE
  8
0
 10
19.118
 11
18.786
 20
18.786
 21
19.118
  0
LINE
  8
0
 10
18.786
 11
18.573
 20
19.118
 21
19.536
  0
LINE
  8
0
 10
18.573
 11
18.5
 20
19.536
 21
20
  0
ENDSEC
  0
SECTION
  2
OBJECTS
  0
DICTIONARY
  0
ENDSEC
  0
EOF
