  0
SECTION
  2
BLOCKS
  0
ENDSEC
  0
SECTION
  2
ENTITIES
  0
LINE
  8
0
 10
-85
 11
-85
 20
-130
 21
130
  0
LINE
  8
0
 10
-85
 11
85
 20
130
 21
130
  0
LINE
  8
0
 10
85
 11
85
 20
130
 21
-130
  0
LINE
  8
0
 10
85
 11
-85
 20
-130
 21
-130
  0
LINE
  8
0
 10
-58.167
 11
-58.164
 20
-20
 21
-19.906
  0
LINE
  8
0
 10
-58.164
 11
-58.155
 20
-19.906
 21
-19.812
  0
LINE
  8
0
 10
-58.155
 11
-58.14
 20
-19.812
 21
-19.719
  0
LINE
  8
0
 10
-58.14
 11
-58.12
 20
-19.719
 21
-19.627
  0
LINE
  8
0
 10
-58.12
 11
-58.094
 20
-19.627
 21
-19.536
  0
LINE
  8
0
 10
-58.094
 11
-58.062
 20
-19.536
 21
-19.448
  0
LINE
  8
0
 10
-58.062
 11
-58.024
 20
-19.448
 21
-19.361
  0
LINE
  8
0
 10
-58.024
 11
-57.981
 20
-19.361
 21
-19.277
  0
LINE
  8
0
 10
-57.981
 11
-57.933
 20
-19.277
 21
-19.196
  0
LINE
  8
0
 10
-57.933
 11
-57.881
 20
-19.196
 21
-19.118
  0
LINE
  8
0
 10
-57.881
 11
-57.823
 20
-19.118
 21
-19.044
  0
LINE
  8
0
 10
-57.823
 11
-57.76
 20
-19.044
 21
-18.973
  0
LINE
  8
0
 10
-57.76
 11
-57.694
 20
-18.973
 21
-18.907
  0
LINE
  8
0
 10
-57.694
 11
-57.623
 20
-18.907
 21
-18.844
  0
LINE
  8
0
 10
-57.623
 11
-57.549
 20
-18.844
 21
-18.786
  0
LINE
  8
0
 10
-57.549
 11
-57.471
 20
-18.786
 21
-18.734
  0
LINE
  8
0
 10
-57.471
 11
-57.39
 20
-18.734
 21
-18.686
  0
LINE
  8
0
 10
-57.39
 11
-57.306
 20
-18.686
 21
-18.643
  0
LINE
  8
0
 10
-57.306
 11
-57.219
 20
-18.643
 21
-18.605
  0
LINE
  8
0
 10
-57.219
 11
-57.131
 20
-18.605
 21
-18.573
  0
LINE
  8
0
 10
-57.131
 11
-57.04
 20
-18.573
 21
-18.547
  0
LINE
  8
0
 10
-57.04
 11
-56.948
 20
-18.547
 21
-18.527
  0
LINE
  8
0
 10
-56.948
 11
-56.855
 20
-18.527
 21
-18.512
  0
LINE
  8
0
 10
-56.855
 11
-56.761
 20
-18.512
 21
-18.503
  0
LINE
  8
0
 10
-56.761
 11
-56.667
 20
-18.503
 21
-18.5
  0
LINE
  8
0
 10
-56.667
 11
-56.573
 20
-18.5
 21
-18.503
  0
LINE
  8
0
 10
-56.573
 11
-56.479
 20
-18.503
 21
-18.512
  0
LINE
  8
0
 10
-56.479
 11
-56.386
 20
-18.512
 21
-18.527
  0
LINE
  8
0
 10
-56.386
 11
-56.294
 20
-18.527
 21
-18.547
  0
LINE
  8
0
 10
-56.294
 11
-56.203
 20
-18.547
 21
-18.573
  0
LINE
  8
0
 10
-56.203
 11
-56.115
 20
-18.573
 21
-18.605
  0
LINE
  8
0
 10
-56.115
 11
-56.028
 20
-18.605
 21
-18.643
  0
LINE
  8
0
 10
-56.028
 11
-55.944
 20
-18.643
 21
-18.686
  0
LINE
  8
0
 10
-55.944
 11
-55.863
 20
-18.686
 21
-18.734
  0
LINE
  8
0
 10
-55.863
 11
-55.785
 20
-18.734
 21
-18.786
  0
LINE
  8
0
 10
-55.785
 11
-55.711
 20
-18.786
 21
-18.844
  0
LINE
  8
0
 10
-55.711
 11
-55.64
 20
-18.844
 21
-18.907
  0
LINE
  8
0
 10
-55.64
 11
-55.574
 20
-18.907
 21
-18.973
  0
LINE
  8
0
 10
-55.574
 11
-55.511
 20
-18.973
 21
-19.044
  0
LINE
  8
0
 10
-55.511
 11
-55.453
 20
-19.044
 21
-19.118
  0
LINE
  8
0
 10
-55.453
 11
-55.401
 20
-19.118
 21
-19.196
  0
LINE
  8
0
 10
-55.401
 11
-55.353
 20
-19.196
 21
-19.277
  0
LINE
  8
0
 10
-55.353
 11
-55.31
 20
-19.277
 21
-19.361
  0
LINE
  8
0
 10
-55.31
 11
-55.272
 20
-19.361
 21
-19.448
  0
LINE
  8
0
 10
-55.272
 11
-55.24
 20
-19.448
 21
-19.536
  0
LINE
  8
0
 10
-55.24
 11
-55.214
 20
-19.536
 21
-19.627
  0
LINE
  8
0
 10
-55.214
 11
-55.194
 20
-19.627
 21
-19.719
  0
LINE
  8
0
 10
-55.194
 11
-55.179
 20
-19.719
 21
-19.812
  0
LINE
  8
0
 10
-55.179
 11
-55.17
 20
-19.812
 21
-19.906
  0
LINE
  8
0
 10
-55.17
 11
-55.167
 20
-19.906
 21
-20
  0
LINE
  8
0
 10
-55.167
 11
-55.17
 20
-20
 21
-20.094
  0
LINE
  8
0
 10
-55.17
 11
-55.179
 20
-20.094
 21
-20.188
  0
LINE
  8
0
 10
-55.179
 11
-55.194
 20
-20.188
 21
-20.281
  0
LINE
  8
0
 10
-55.194
 11
-55.214
 20
-20.281
 21
-20.373
  0
LINE
  8
0
 10
-55.214
 11
-55.24
 20
-20.373
 21
-20.464
  0
LINE
  8
0
 10
-55.24
 11
-55.272
 20
-20.464
 21
-20.552
  0
LINE
  8
0
 10
-55.272
 11
-55.31
 20
-20.552
 21
-20.639
  0
LINE
  8
0
 10
-55.31
 11
-55.353
 20
-20.639
 21
-20.723
  0
LINE
  8
0
 10
-55.353
 11
-55.401
 20
-20.723
 21
-20.804
  0
LINE
  8
0
 10
-55.401
 11
-55.453
 20
-20.804
 21
-20.882
  0
LINE
  8
0
 10
-55.453
 11
-55.511
 20
-20.882
 21
-20.956
  0
LINE
  8
0
 10
-55.511
 11
-55.574
 20
-20.956
 21
-21.027
  0
LINE
  8
0
 10
-55.574
 11
-55.64
 20
-21.027
 21
-21.093
  0
LINE
  8
0
 10
-55.64
 11
-55.711
 20
-21.093
 21
-21.156
  0
LINE
  8
0
 10
-55.711
 11
-55.785
 20
-21.156
 21
-21.214
  0
LINE
  8
0
 10
-55.785
 11
-55.863
 20
-21.214
 21
-21.266
  0
LINE
  8
0
 10
-55.863
 11
-55.944
 20
-21.266
 21
-21.314
  0
LINE
  8
0
 10
-55.944
 11
-56.028
 20
-21.314
 21
-21.357
  0
LINE
  8
0
 10
-56.028
 11
-56.115
 20
-21.357
 21
-21.395
  0
LINE
  8
0
 10
-56.115
 11
-56.203
 20
-21.395
 21
-21.427
  0
LINE
  8
0
 10
-56.203
 11
-56.294
 20
-21.427
 21
-21.453
  0
LINE
  8
0
 10
-56.294
 11
-56.386
 20
-21.453
 21
-21.473
  0
LINE
  8
0
 10
-56.386
 11
-56.479
 20
-21.473
 21
-21.488
  0
LINE
  8
0
 10
-56.479
 11
-56.573
 20
-21.488
 21
-21.497
  0
LINE
  8
0
 10
-56.573
 11
-56.667
 20
-21.497
 21
-21.5
  0
LINE
  8
0
 10
-56.667
 11
-56.761
 20
-21.5
 21
-21.497
  0
LINE
  8
0
 10
-56.761
 11
-56.855
 20
-21.497
 21
-21.488
  0
LINE
  8
0
 10
-56.855
 11
-56.948
 20
-21.488
 21
-21.473
  0
LINE
  8
0
 10
-56.948
 11
-57.04
 20
-21.473
 21
-21.453
  0
LINE
  8
0
 10
-57.04
 11
-57.131
 20
-21.453
 21
-21.427
  0
LINE
  8
0
 10
-57.131
 11
-57.219
 20
-21.427
 21
-21.395
  0
LINE
  8
0
 10
-57.219
 11
-57.306
 20
-21.395
 21
-21.357
  0
LINE
  8
0
 10
-57.306
 11
-57.39
 20
-21.357
 21
-21.314
  0
LINE
  8
0
 10
-57.39
 11
-57.471
 20
-21.314
 21
-21.266
  0
LINE
  8
0
 10
-57.471
 11
-57.549
 20
-21.266
 21
-21.214
  0
LINE
  8
0
 10
-57.549
 11
-57.623
 20
-21.214
 21
-21.156
  0
LINE
  8
0
 10
-57.623
 11
-57.694
 20
-21.156
 21
-21.093
  0
LINE
  8
0
 10
-57.694
 11
-57.76
 20
-21.093
 21
-21.027
  0
LINE
  8
0
 10
-57.76
 11
-57.823
 20
-21.027
 21
-20.956
  0
LINE
  8
0
 10
-57.823
 11
-57.881
 20
-20.956
 21
-20.882
  0
LINE
  8
0
 10
-57.881
 11
-57.933
 20
-20.882
 21
-20.804
  0
LINE
  8
0
 10
-57.933
 11
-57.981
 20
-20.804
 21
-20.723
  0
LINE
  8
0
 10
-57.981
 11
-58.024
 20
-20.723
 21
-20.639
  0
LINE
  8
0
 10
-58.024
 11
-58.062
 20
-20.639
 21
-20.552
  0
LINE
  8
0
 10
-58.062
 11
-58.094
 20
-20.552
 21
-20.464
  0
LINE
  8
0
 10
-58.094
 11
-58.12
 20
-20.464
 21
-20.373
  0
LINE
  8
0
 10
-58.12
 11
-58.14
 20
-20.373
 21
-20.281
  0
LINE
  8
0
 10
-58.14
 11
-58.155
 20
-20.281
 21
-20.188
  0
LINE
  8
0
 10
-58.155
 11
-58.164
 20
-20.188
 21
-20.094
  0
LINE
  8
0
 10
-58.164
 11
-58.167
 20
-20.094
 21
-20
  0
LINE
  8
0
 10
-58.167
 11
-58.164
 20
20
 21
20.094
  0
LINE
  8
0
 10
-58.164
 11
-58.155
 20
20.094
 21
20.188
  0
LINE
  8
0
 10
-58.155
 11
-58.14
 20
20.188
 21
20.281
  0
LINE
  8
0
 10
-58.14
 11
-58.12
 20
20.281
 21
20.373
  0
LINE
  8
0
 10
-58.12
 11
-58.094
 20
20.373
 21
20.464
  0
LINE
  8
0
 10
-58.094
 11
-58.062
 20
20.464
 21
20.552
  0
LINE
  8
0
 10
-58.062
 11
-58.024
 20
20.552
 21
20.639
  0
LINE
  8
0
 10
-58.024
 11
-57.981
 20
20.639
 21
20.723
  0
LINE
  8
0
 10
-57.981
 11
-57.933
 20
20.723
 21
20.804
  0
LINE
  8
0
 10
-57.933
 11
-57.881
 20
20.804
 21
20.882
  0
LINE
  8
0
 10
-57.881
 11
-57.823
 20
20.882
 21
20.956
  0
LINE
  8
0
 10
-57.823
 11
-57.76
 20
20.956
 21
21.027
  0
LINE
  8
0
 10
-57.76
 11
-57.694
 20
21.027
 21
21.093
  0
LINE
  8
0
 10
-57.694
 11
-57.623
 20
21.093
 21
21.156
  0
LINE
  8
0
 10
-57.623
 11
-57.549
 20
21.156
 21
21.214
  0
LINE
  8
0
 10
-57.549
 11
-57.471
 20
21.214
 21
21.266
  0
LINE
  8
0
 10
-57.471
 11
-57.39
 20
21.266
 21
21.314
  0
LINE
  8
0
 10
-57.39
 11
-57.306
 20
21.314
 21
21.357
  0
LINE
  8
0
 10
-57.306
 11
-57.219
 20
21.357
 21
21.395
  0
LINE
  8
0
 10
-57.219
 11
-57.131
 20
21.395
 21
21.427
  0
LINE
  8
0
 10
-57.131
 11
-57.04
 20
21.427
 21
21.453
  0
LINE
  8
0
 10
-57.04
 11
-56.948
 20
21.453
 21
21.473
  0
LINE
  8
0
 10
-56.948
 11
-56.855
 20
21.473
 21
21.488
  0
LINE
  8
0
 10
-56.855
 11
-56.761
 20
21.488
 21
21.497
  0
LINE
  8
0
 10
-56.761
 11
-56.667
 20
21.497
 21
21.5
  0
LINE
  8
0
 10
-56.667
 11
-56.573
 20
21.5
 21
21.497
  0
LINE
  8
0
 10
-56.573
 11
-56.479
 20
21.497
 21
21.488
  0
LINE
  8
0
 10
-56.479
 11
-56.386
 20
21.488
 21
21.473
  0
LINE
  8
0
 10
-56.386
 11
-56.294
 20
21.473
 21
21.453
  0
LINE
  8
0
 10
-56.294
 11
-56.203
 20
21.453
 21
21.427
  0
LINE
  8
0
 10
-56.203
 11
-56.115
 20
21.427
 21
21.395
  0
LINE
  8
0
 10
-56.115
 11
-56.028
 20
21.395
 21
21.357
  0
LINE
  8
0
 10
-56.028
 11
-55.944
 20
21.357
 21
21.314
  0
LINE
  8
0
 10
-55.944
 11
-55.863
 20
21.314
 21
21.266
  0
LINE
  8
0
 10
-55.863
 11
-55.785
 20
21.266
 21
21.214
  0
LINE
  8
0
 10
-55.785
 11
-55.711
 20
21.214
 21
21.156
  0
LINE
  8
0
 10
-55.711
 11
-55.64
 20
21.156
 21
21.093
  0
LINE
  8
0
 10
-55.64
 11
-55.574
 20
21.093
 21
21.027
  0
LINE
  8
0
 10
-55.574
 11
-55.511
 20
21.027
 21
20.956
  0
LINE
  8
0
 10
-55.511
 11
-55.453
 20
20.956
 21
20.882
  0
LINE
  8
0
 10
-55.453
 11
-55.401
 20
20.882
 21
20.804
  0
LINE
  8
0
 10
-55.401
 11
-55.353
 20
20.804
 21
20.723
  0
LINE
  8
0
 10
-55.353
 11
-55.31
 20
20.723
 21
20.639
  0
LINE
  8
0
 10
-55.31
 11
-55.272
 20
20.639
 21
20.552
  0
LINE
  8
0
 10
-55.272
 11
-55.24
 20
20.552
 21
20.464
  0
LINE
  8
0
 10
-55.24
 11
-55.214
 20
20.464
 21
20.373
  0
LINE
  8
0
 10
-55.214
 11
-55.194
 20
20.373
 21
20.281
  0
LINE
  8
0
 10
-55.194
 11
-55.179
 20
20.281
 21
20.188
  0
LINE
  8
0
 10
-55.179
 11
-55.17
 20
20.188
 21
20.094
  0
LINE
  8
0
 10
-55.17
 11
-55.167
 20
20.094
 21
20
  0
LINE
  8
0
 10
-55.167
 11
-55.17
 20
20
 21
19.906
  0
LINE
  8
0
 10
-55.17
 11
-55.179
 20
19.906
 21
19.812
  0
LINE
  8
0
 10
-55.179
 11
-55.194
 20
19.812
 21
19.719
  0
LINE
  8
0
 10
-55.194
 11
-55.214
 20
19.719
 21
19.627
  0
LINE
  8
0
 10
-55.214
 11
-55.24
 20
19.627
 21
19.536
  0
LINE
  8
0
 10
-55.24
 11
-55.272
 20
19.536
 21
19.448
  0
LINE
  8
0
 10
-55.272
 11
-55.31
 20
19.448
 21
19.361
  0
LINE
  8
0
 10
-55.31
 11
-55.353
 20
19.361
 21
19.277
  0
LINE
  8
0
 10
-55.353
 11
-55.401
 20
19.277
 21
19.196
  0
LINE
  8
0
 10
-55.401
 11
-55.453
 20
19.196
 21
19.118
  0
LINE
  8
0
 10
-55.453
 11
-55.511
 20
19.118
 21
19.044
  0
LINE
  8
0
 10
-55.511
 11
-55.574
 20
19.044
 21
18.973
  0
LINE
  8
0
 10
-55.574
 11
-55.64
 20
18.973
 21
18.907
  0
LINE
  8
0
 10
-55.64
 11
-55.711
 20
18.907
 21
18.844
  0
LINE
  8
0
 10
-55.711
 11
-55.785
 20
18.844
 21
18.786
  0
LINE
  8
0
 10
-55.785
 11
-55.863
 20
18.786
 21
18.734
  0
LINE
  8
0
 10
-55.863
 11
-55.944
 20
18.734
 21
18.686
  0
LINE
  8
0
 10
-55.944
 11
-56.028
 20
18.686
 21
18.643
  0
LINE
  8
0
 10
-56.028
 11
-56.115
 20
18.643
 21
18.605
  0
LINE
  8
0
 10
-56.115
 11
-56.203
 20
18.605
 21
18.573
  0
LINE
  8
0
 10
-56.203
 11
-56.294
 20
18.573
 21
18.547
  0
LINE
  8
0
 10
-56.294
 11
-56.386
 20
18.547
 21
18.527
  0
LINE
  8
0
 10
-56.386
 11
-56.479
 20
18.527
 21
18.512
  0
LINE
  8
0
 10
-56.479
 11
-56.573
 20
18.512
 21
18.503
  0
LINE
  8
0
 10
-56.573
 11
-56.667
 20
18.503
 21
18.5
  0
LINE
  8
0
 10
-56.667
 11
-56.761
 20
18.5
 21
18.503
  0
LINE
  8
0
 10
-56.761
 11
-56.855
 20
18.503
 21
18.512
  0
LINE
  8
0
 10
-56.855
 11
-56.948
 20
18.512
 21
18.527
  0
LINE
  8
0
 10
-56.948
 11
-57.04
 20
18.527
 21
18.547
  0
LINE
  8
0
 10
-57.04
 11
-57.131
 20
18.547
 21
18.573
  0
LINE
  8
0
 10
-57.131
 11
-57.219
 20
18.573
 21
18.605
  0
LINE
  8
0
 10
-57.219
 11
-57.306
 20
18.605
 21
18.643
  0
LINE
  8
0
 10
-57.306
 11
-57.39
 20
18.643
 21
18.686
  0
LINE
  8
0
 10
-57.39
 11
-57.471
 20
18.686
 21
18.734
  0
LINE
  8
0
 10
-57.471
 11
-57.549
 20
18.734
 21
18.786
  0
LINE
  8
0
 10
-57.549
 11
-57.623
 20
18.786
 21
18.844
  0
LINE
  8
0
 10
-57.623
 11
-57.694
 20
18.844
 21
18.907
  0
LINE
  8
0
 10
-57.694
 11
-57.76
 20
18.907
 21
18.973
  0
LINE
  8
0
 10
-57.76
 11
-57.823
 20
18.973
 21
19.044
  0
LINE
  8
0
 10
-57.823
 11
-57.881
 20
19.044
 21
19.118
  0
LINE
  8
0
 10
-57.881
 11
-57.933
 20
19.118
 21
19.196
  0
LINE
  8
0
 10
-57.933
 11
-57.981
 20
19.196
 21
19.277
  0
LINE
  8
0
 10
-57.981
 11
-58.024
 20
19.277
 21
19.361
  0
LINE
  8
0
 10
-58.024
 11
-58.062
 20
19.361
 21
19.448
  0
LINE
  8
0
 10
-58.062
 11
-58.094
 20
19.448
 21
19.536
  0
LINE
  8
0
 10
-58.094
 11
-58.12
 20
19.536
 21
19.627
  0
LINE
  8
0
 10
-58.12
 11
-58.14
 20
19.627
 21
19.719
  0
LINE
  8
0
 10
-58.14
 11
-58.155
 20
19.719
 21
19.812
  0
LINE
  8
0
 10
-58.155
 11
-58.164
 20
19.812
 21
19.906
  0
LINE
  8
0
 10
-58.164
 11
-58.167
 20
19.906
 21
20
  0
LINE
  8
0
 10
-18.167
 11
-18.164
 20
-20
 21
-19.906
  0
LINE
  8
0
 10
-18.164
 11
-18.155
 20
-19.906
 21
-19.812
  0
LINE
  8
0
 10
-18.155
 11
-18.14
 20
-19.812
 21
-19.719
  0
LINE
  8
0
 10
-18.14
 11
-18.12
 20
-19.719
 21
-19.627
  0
LINE
  8
0
 10
-18.12
 11
-18.094
 20
-19.627
 21
-19.536
  0
LINE
  8
0
 10
-18.094
 11
-18.062
 20
-19.536
 21
-19.448
  0
LINE
  8
0
 10
-18.062
 11
-18.024
 20
-19.448
 21
-19.361
  0
LINE
  8
0
 10
-18.024
 11
-17.981
 20
-19.361
 21
-19.277
  0
LINE
  8
0
 10
-17.981
 11
-17.933
 20
-19.277
 21
-19.196
  0
LINE
  8
0
 10
-17.933
 11
-17.881
 20
-19.196
 21
-19.118
  0
LINE
  8
0
 10
-17.881
 11
-17.823
 20
-19.118
 21
-19.044
  0
LINE
  8
0
 10
-17.823
 11
-17.76
 20
-19.044
 21
-18.973
  0
LINE
  8
0
 10
-17.76
 11
-17.694
 20
-18.973
 21
-18.907
  0
LINE
  8
0
 10
-17.694
 11
-17.623
 20
-18.907
 21
-18.844
  0
LINE
  8
0
 10
-17.623
 11
-17.549
 20
-18.844
 21
-18.786
  0
LINE
  8
0
 10
-17.549
 11
-17.471
 20
-18.786
 21
-18.734
  0
LINE
  8
0
 10
-17.471
 11
-17.39
 20
-18.734
 21
-18.686
  0
LINE
  8
0
 10
-17.39
 11
-17.306
 20
-18.686
 21
-18.643
  0
LINE
  8
0
 10
-17.306
 11
-17.219
 20
-18.643
 21
-18.605
  0
LINE
  8
0
 10
-17.219
 11
-17.131
 20
-18.605
 21
-18.573
  0
LINE
  8
0
 10
-17.131
 11
-17.04
 20
-18.573
 21
-18.547
  0
LINE
  8
0
 10
-17.04
 11
-16.948
 20
-18.547
 21
-18.527
  0
LINE
  8
0
 10
-16.948
 11
-16.855
 20
-18.527
 21
-18.512
  0
LINE
  8
0
 10
-16.855
 11
-16.761
 20
-18.512
 21
-18.503
  0
LINE
  8
0
 10
-16.761
 11
-16.667
 20
-18.503
 21
-18.5
  0
LINE
  8
0
 10
-16.667
 11
-16.573
 20
-18.5
 21
-18.503
  0
LINE
  8
0
 10
-16.573
 11
-16.479
 20
-18.503
 21
-18.512
  0
LINE
  8
0
 10
-16.479
 11
-16.386
 20
-18.512
 21
-18.527
  0
LINE
  8
0
 10
-16.386
 11
-16.294
 20
-18.527
 21
-18.547
  0
LINE
  8
0
 10
-16.294
 11
-16.203
 20
-18.547
 21
-18.573
  0
LINE
  8
0
 10
-16.203
 11
-16.115
 20
-18.573
 21
-18.605
  0
LINE
  8
0
 10
-16.115
 11
-16.028
 20
-18.605
 21
-18.643
  0
LINE
  8
0
 10
-16.028
 11
-15.944
 20
-18.643
 21
-18.686
  0
LINE
  8
0
 10
-15.944
 11
-15.863
 20
-18.686
 21
-18.734
  0
LINE
  8
0
 10
-15.863
 11
-15.785
 20
-18.734
 21
-18.786
  0
LINE
  8
0
 10
-15.785
 11
-15.711
 20
-18.786
 21
-18.844
  0
LINE
  8
0
 10
-15.711
 11
-15.64
 20
-18.844
 21
-18.907
  0
LINE
  8
0
 10
-15.64
 11
-15.574
 20
-18.907
 21
-18.973
  0
LINE
  8
0
 10
-15.574
 11
-15.511
 20
-18.973
 21
-19.044
  0
LINE
  8
0
 10
-15.511
 11
-15.453
 20
-19.044
 21
-19.118
  0
LINE
  8
0
 10
-15.453
 11
-15.401
 20
-19.118
 21
-19.196
  0
LINE
  8
0
 10
-15.401
 11
-15.353
 20
-19.196
 21
-19.277
  0
LINE
  8
0
 10
-15.353
 11
-15.31
 20
-19.277
 21
-19.361
  0
LINE
  8
0
 10
-15.31
 11
-15.272
 20
-19.361
 21
-19.448
  0
LINE
  8
0
 10
-15.272
 11
-15.24
 20
-19.448
 21
-19.536
  0
LINE
  8
0
 10
-15.24
 11
-15.214
 20
-19.536
 21
-19.627
  0
LINE
  8
0
 10
-15.214
 11
-15.194
 20
-19.627
 21
-19.719
  0
LINE
  8
0
 10
-15.194
 11
-15.179
 20
-19.719
 21
-19.812
  0
LINE
  8
0
 10
-15.179
 11
-15.17
 20
-19.812
 21
-19.906
  0
LINE
  8
0
 10
-15.17
 11
-15.167
 20
-19.906
 21
-20
  0
LINE
  8
0
 10
-15.167
 11
-15.17
 20
-20
 21
-20.094
  0
LINE
  8
0
 10
-15.17
 11
-15.179
 20
-20.094
 21
-20.188
  0
LINE
  8
0
 10
-15.179
 11
-15.194
 20
-20.188
 21
-20.281
  0
LINE
  8
0
 10
-15.194
 11
-15.214
 20
-20.281
 21
-20.373
  0
LINE
  8
0
 10
-15.214
 11
-15.24
 20
-20.373
 21
-20.464
  0
LINE
  8
0
 10
-15.24
 11
-15.272
 20
-20.464
 21
-20.552
  0
LINE
  8
0
 10
-15.272
 11
-15.31
 20
-20.552
 21
-20.639
  0
LINE
  8
0
 10
-15.31
 11
-15.353
 20
-20.639
 21
-20.723
  0
LINE
  8
0
 10
-15.353
 11
-15.401
 20
-20.723
 21
-20.804
  0
LINE
  8
0
 10
-15.401
 11
-15.453
 20
-20.804
 21
-20.882
  0
LINE
  8
0
 10
-15.453
 11
-15.511
 20
-20.882
 21
-20.956
  0
LINE
  8
0
 10
-15.511
 11
-15.574
 20
-20.956
 21
-21.027
  0
LINE
  8
0
 10
-15.574
 11
-15.64
 20
-21.027
 21
-21.093
  0
LINE
  8
0
 10
-15.64
 11
-15.711
 20
-21.093
 21
-21.156
  0
LINE
  8
0
 10
-15.711
 11
-15.785
 20
-21.156
 21
-21.214
  0
LINE
  8
0
 10
-15.785
 11
-15.863
 20
-21.214
 21
-21.266
  0
LINE
  8
0
 10
-15.863
 11
-15.944
 20
-21.266
 21
-21.314
  0
LINE
  8
0
 10
-15.944
 11
-16.028
 20
-21.314
 21
-21.357
  0
LINE
  8
0
 10
-16.028
 11
-16.115
 20
-21.357
 21
-21.395
  0
LINE
  8
0
 10
-16.115
 11
-16.203
 20
-21.395
 21
-21.427
  0
LINE
  8
0
 10
-16.203
 11
-16.294
 20
-21.427
 21
-21.453
  0
LINE
  8
0
 10
-16.294
 11
-16.386
 20
-21.453
 21
-21.473
  0
LINE
  8
0
 10
-16.386
 11
-16.479
 20
-21.473
 21
-21.488
  0
LINE
  8
0
 10
-16.479
 11
-16.573
 20
-21.488
 21
-21.497
  0
LINE
  8
0
 10
-16.573
 11
-16.667
 20
-21.497
 21
-21.5
  0
LINE
  8
0
 10
-16.667
 11
-16.761
 20
-21.5
 21
-21.497
  0
LINE
  8
0
 10
-16.761
 11
-16.855
 20
-21.497
 21
-21.488
  0
LINE
  8
0
 10
-16.855
 11
-16.948
 20
-21.488
 21
-21.473
  0
LINE
  8
0
 10
-16.948
 11
-17.04
 20
-21.473
 21
-21.453
  0
LINE
  8
0
 10
-17.04
 11
-17.131
 20
-21.453
 21
-21.427
  0
LINE
  8
0
 10
-17.131
 11
-17.219
 20
-21.427
 21
-21.395
  0
LINE
  8
0
 10
-17.219
 11
-17.306
 20
-21.395
 21
-21.357
  0
LINE
  8
0
 10
-17.306
 11
-17.39
 20
-21.357
 21
-21.314
  0
LINE
  8
0
 10
-17.39
 11
-17.471
 20
-21.314
 21
-21.266
  0
LINE
  8
0
 10
-17.471
 11
-17.549
 20
-21.266
 21
-21.214
  0
LINE
  8
0
 10
-17.549
 11
-17.623
 20
-21.214
 21
-21.156
  0
LINE
  8
0
 10
-17.623
 11
-17.694
 20
-21.156
 21
-21.093
  0
LINE
  8
0
 10
-17.694
 11
-17.76
 20
-21.093
 21
-21.027
  0
LINE
  8
0
 10
-17.76
 11
-17.823
 20
-21.027
 21
-20.956
  0
LINE
  8
0
 10
-17.823
 11
-17.881
 20
-20.956
 21
-20.882
  0
LINE
  8
0
 10
-17.881
 11
-17.933
 20
-20.882
 21
-20.804
  0
LINE
  8
0
 10
-17.933
 11
-17.981
 20
-20.804
 21
-20.723
  0
LINE
  8
0
 10
-17.981
 11
-18.024
 20
-20.723
 21
-20.639
  0
LINE
  8
0
 10
-18.024
 11
-18.062
 20
-20.639
 21
-20.552
  0
LINE
  8
0
 10
-18.062
 11
-18.094
 20
-20.552
 21
-20.464
  0
LINE
  8
0
 10
-18.094
 11
-18.12
 20
-20.464
 21
-20.373
  0
LINE
  8
0
 10
-18.12
 11
-18.14
 20
-20.373
 21
-20.281
  0
LINE
  8
0
 10
-18.14
 11
-18.155
 20
-20.281
 21
-20.188
  0
LINE
  8
0
 10
-18.155
 11
-18.164
 20
-20.188
 21
-20.094
  0
LINE
  8
0
 10
-18.164
 11
-18.167
 20
-20.094
 21
-20
  0
LINE
  8
0
 10
-18.167
 11
-18.164
 20
20
 21
20.094
  0
LINE
  8
0
 10
-18.164
 11
-18.155
 20
20.094
 21
20.188
  0
LINE
  8
0
 10
-18.155
 11
-18.14
 20
20.188
 21
20.281
  0
LINE
  8
0
 10
-18.14
 11
-18.12
 20
20.281
 21
20.373
  0
LINE
  8
0
 10
-18.12
 11
-18.094
 20
20.373
 21
20.464
  0
LINE
  8
0
 10
-18.094
 11
-18.062
 20
20.464
 21
20.552
  0
LINE
  8
0
 10
-18.062
 11
-18.024
 20
20.552
 21
20.639
  0
LINE
  8
0
 10
-18.024
 11
-17.981
 20
20.639
 21
20.723
  0
LINE
  8
0
 10
-17.981
 11
-17.933
 20
20.723
 21
20.804
  0
LINE
  8
0
 10
-17.933
 11
-17.881
 20
20.804
 21
20.882
  0
LINE
  8
0
 10
-17.881
 11
-17.823
 20
20.882
 21
20.956
  0
LINE
  8
0
 10
-17.823
 11
-17.76
 20
20.956
 21
21.027
  0
LINE
  8
0
 10
-17.76
 11
-17.694
 20
21.027
 21
21.093
  0
LINE
  8
0
 10
-17.694
 11
-17.623
 20
21.093
 21
21.156
  0
LINE
  8
0
 10
-17.623
 11
-17.549
 20
21.156
 21
21.214
  0
LINE
  8
0
 10
-17.549
 11
-17.471
 20
21.214
 21
21.266
  0
LINE
  8
0
 10
-17.471
 11
-17.39
 20
21.266
 21
21.314
  0
LINE
  8
0
 10
-17.39
 11
-17.306
 20
21.314
 21
21.357
  0
LINE
  8
0
 10
-17.306
 11
-17.219
 20
21.357
 21
21.395
  0
LINE
  8
0
 10
-17.219
 11
-17.131
 20
21.395
 21
21.427
  0
LINE
  8
0
 10
-17.131
 11
-17.04
 20
21.427
 21
21.453
  0
LINE
  8
0
 10
-17.04
 11
-16.948
 20
21.453
 21
21.473
  0
LINE
  8
0
 10
-16.948
 11
-16.855
 20
21.473
 21
21.488
  0
LINE
  8
0
 10
-16.855
 11
-16.761
 20
21.488
 21
21.497
  0
LINE
  8
0
 10
-16.761
 11
-16.667
 20
21.497
 21
21.5
  0
LINE
  8
0
 10
-16.667
 11
-16.573
 20
21.5
 21
21.497
  0
LINE
  8
0
 10
-16.573
 11
-16.479
 20
21.497
 21
21.488
  0
LINE
  8
0
 10
-16.479
 11
-16.386
 20
21.488
 21
21.473
  0
LINE
  8
0
 10
-16.386
 11
-16.294
 20
21.473
 21
21.453
  0
LINE
  8
0
 10
-16.294
 11
-16.203
 20
21.453
 21
21.427
  0
LINE
  8
0
 10
-16.203
 11
-16.115
 20
21.427
 21
21.395
  0
LINE
  8
0
 10
-16.115
 11
-16.028
 20
21.395
 21
21.357
  0
LINE
  8
0
 10
-16.028
 11
-15.944
 20
21.357
 21
21.314
  0
LINE
  8
0
 10
-15.944
 11
-15.863
 20
21.314
 21
21.266
  0
LINE
  8
0
 10
-15.863
 11
-15.785
 20
21.266
 21
21.214
  0
LINE
  8
0
 10
-15.785
 11
-15.711
 20
21.214
 21
21.156
  0
LINE
  8
0
 10
-15.711
 11
-15.64
 20
21.156
 21
21.093
  0
LINE
  8
0
 10
-15.64
 11
-15.574
 20
21.093
 21
21.027
  0
LINE
  8
0
 10
-15.574
 11
-15.511
 20
21.027
 21
20.956
  0
LINE
  8
0
 10
-15.511
 11
-15.453
 20
20.956
 21
20.882
  0
LINE
  8
0
 10
-15.453
 11
-15.401
 20
20.882
 21
20.804
  0
LINE
  8
0
 10
-15.401
 11
-15.353
 20
20.804
 21
20.723
  0
LINE
  8
0
 10
-15.353
 11
-15.31
 20
20.723
 21
20.639
  0
LINE
  8
0
 10
-15.31
 11
-15.272
 20
20.639
 21
20.552
  0
LINE
  8
0
 10
-15.272
 11
-15.24
 20
20.552
 21
20.464
  0
LINE
  8
0
 10
-15.24
 11
-15.214
 20
20.464
 21
20.373
  0
LINE
  8
0
 10
-15.214
 11
-15.194
 20
20.373
 21
20.281
  0
LINE
  8
0
 10
-15.194
 11
-15.179
 20
20.281
 21
20.188
  0
LINE
  8
0
 10
-15.179
 11
-15.17
 20
20.188
 21
20.094
  0
LINE
  8
0
 10
-15.17
 11
-15.167
 20
20.094
 21
20
  0
LINE
  8
0
 10
-15.167
 11
-15.17
 20
20
 21
19.906
  0
LINE
  8
0
 10
-15.17
 11
-15.179
 20
19.906
 21
19.812
  0
LINE
  8
0
 10
-15.179
 11
-15.194
 20
19.812
 21
19.719
  0
LINE
  8
0
 10
-15.194
 11
-15.214
 20
19.719
 21
19.627
  0
LINE
  8
0
 10
-15.214
 11
-15.24
 20
19.627
 21
19.536
  0
LINE
  8
0
 10
-15.24
 11
-15.272
 20
19.536
 21
19.448
  0
LINE
  8
0
 10
-15.272
 11
-15.31
 20
19.448
 21
19.361
  0
LINE
  8
0
 10
-15.31
 11
-15.353
 20
19.361
 21
19.277
  0
LINE
  8
0
 10
-15.353
 11
-15.401
 20
19.277
 21
19.196
  0
LINE
  8
0
 10
-15.401
 11
-15.453
 20
19.196
 21
19.118
  0
LINE
  8
0
 10
-15.453
 11
-15.511
 20
19.118
 21
19.044
  0
LINE
  8
0
 10
-15.511
 11
-15.574
 20
19.044
 21
18.973
  0
LINE
  8
0
 10
-15.574
 11
-15.64
 20
18.973
 21
18.907
  0
LINE
  8
0
 10
-15.64
 11
-15.711
 20
18.907
 21
18.844
  0
LINE
  8
0
 10
-15.711
 11
-15.785
 20
18.844
 21
18.786
  0
LINE
  8
0
 10
-15.785
 11
-15.863
 20
18.786
 21
18.734
  0
LINE
  8
0
 10
-15.863
 11
-15.944
 20
18.734
 21
18.686
  0
LINE
  8
0
 10
-15.944
 11
-16.028
 20
18.686
 21
18.643
  0
LINE
  8
0
 10
-16.028
 11
-16.115
 20
18.643
 21
18.605
  0
LINE
  8
0
 10
-16.115
 11
-16.203
 20
18.605
 21
18.573
  0
LINE
  8
0
 10
-16.203
 11
-16.294
 20
18.573
 21
18.547
  0
LINE
  8
0
 10
-16.294
 11
-16.386
 20
18.547
 21
18.527
  0
LINE
  8
0
 10
-16.386
 11
-16.479
 20
18.527
 21
18.512
  0
LINE
  8
0
 10
-16.479
 11
-16.573
 20
18.512
 21
18.503
  0
LINE
  8
0
 10
-16.573
 11
-16.667
 20
18.503
 21
18.5
  0
LINE
  8
0
 10
-16.667
 11
-16.761
 20
18.5
 21
18.503
  0
LINE
  8
0
 10
-16.761
 11
-16.855
 20
18.503
 21
18.512
  0
LINE
  8
0
 10
-16.855
 11
-16.948
 20
18.512
 21
18.527
  0
LINE
  8
0
 10
-16.948
 11
-17.04
 20
18.527
 21
18.547
  0
LINE
  8
0
 10
-17.04
 11
-17.131
 20
18.547
 21
18.573
  0
LINE
  8
0
 10
-17.131
 11
-17.219
 20
18.573
 21
18.605
  0
LINE
  8
0
 10
-17.219
 11
-17.306
 20
18.605
 21
18.643
  0
LINE
  8
0
 10
-17.306
 11
-17.39
 20
18.643
 21
18.686
  0
LINE
  8
0
 10
-17.39
 11
-17.471
 20
18.686
 21
18.734
  0
LINE
  8
0
 10
-17.471
 11
-17.549
 20
18.734
 21
18.786
  0
LINE
  8
0
 10
-17.549
 11
-17.623
 20
18.786
 21
18.844
  0
LINE
  8
0
 10
-17.623
 11
-17.694
 20
18.844
 21
18.907
  0
LINE
  8
0
 10
-17.694
 11
-17.76
 20
18.907
 21
18.973
  0
LINE
  8
0
 10
-17.76
 11
-17.823
 20
18.973
 21
19.044
  0
LINE
  8
0
 10
-17.823
 11
-17.881
 20
19.044
 21
19.118
  0
LINE
  8
0
 10
-17.881
 11
-17.933
 20
19.118
 21
19.196
  0
LINE
  8
0
 10
-17.933
 11
-17.981
 20
19.196
 21
19.277
  0
LINE
  8
0
 10
-17.981
 11
-18.024
 20
19.277
 21
19.361
  0
LINE
  8
0
 10
-18.024
 11
-18.062
 20
19.361
 21
19.448
  0
LINE
  8
0
 10
-18.062
 11
-18.094
 20
19.448
 21
19.536
  0
LINE
  8
0
 10
-18.094
 11
-18.12
 20
19.536
 21
19.627
  0
LINE
  8
0
 10
-18.12
 11
-18.14
 20
19.627
 21
19.719
  0
LINE
  8
0
 10
-18.14
 11
-18.155
 20
19.719
 21
19.812
  0
LINE
  8
0
 10
-18.155
 11
-18.164
 20
19.812
 21
19.906
  0
LINE
  8
0
 10
-18.164
 11
-18.167
 20
19.906
 21
20
  0
LINE
  8
0
 10
14.5
 11
14.506
 20
-110
 21
-109.812
  0
LINE
  8
0
 10
14.506
 11
14.524
 20
-109.812
 21
-109.624
  0
LINE
  8
0
 10
14.524
 11
14.553
 20
-109.624
 21
-109.438
  0
LINE
  8
0
 10
14.553
 11
14.594
 20
-109.438
 21
-109.254
  0
LINE
  8
0
 10
14.594
 11
14.647
 20
-109.254
 21
-109.073
  0
LINE
  8
0
 10
14.647
 11
14.711
 20
-109.073
 21
-108.896
  0
LINE
  8
0
 10
14.711
 11
14.786
 20
-108.896
 21
-108.723
  0
LINE
  8
0
 10
14.786
 11
14.871
 20
-108.723
 21
-108.555
  0
LINE
  8
0
 10
14.871
 11
14.967
 20
-108.555
 21
-108.393
  0
LINE
  8
0
 10
14.967
 11
15.073
 20
-108.393
 21
-108.237
  0
LINE
  8
0
 10
15.073
 11
15.188
 20
-108.237
 21
-108.088
  0
LINE
  8
0
 10
15.188
 11
15.313
 20
-108.088
 21
-107.946
  0
LINE
  8
0
 10
15.313
 11
15.446
 20
-107.946
 21
-107.813
  0
LINE
  8
0
 10
15.446
 11
15.588
 20
-107.813
 21
-107.688
  0
LINE
  8
0
 10
15.588
 11
15.737
 20
-107.688
 21
-107.573
  0
LINE
  8
0
 10
15.737
 11
15.893
 20
-107.573
 21
-107.467
  0
LINE
  8
0
 10
15.893
 11
16.055
 20
-107.467
 21
-107.371
  0
LINE
  8
0
 10
16.055
 11
16.223
 20
-107.371
 21
-107.286
  0
LINE
  8
0
 10
16.223
 11
16.396
 20
-107.286
 21
-107.211
  0
LINE
  8
0
 10
16.396
 11
16.573
 20
-107.211
 21
-107.147
  0
LINE
  8
0
 10
16.573
 11
16.754
 20
-107.147
 21
-107.094
  0
LINE
  8
0
 10
16.754
 11
16.938
 20
-107.094
 21
-107.053
  0
LINE
  8
0
 10
16.938
 11
17.124
 20
-107.053
 21
-107.024
  0
LINE
  8
0
 10
17.124
 11
17.312
 20
-107.024
 21
-107.006
  0
LINE
  8
0
 10
17.312
 11
17.5
 20
-107.006
 21
-107
  0
LINE
  8
0
 10
17.5
 11
17.688
 20
-107
 21
-107.006
  0
LINE
  8
0
 10
17.688
 11
17.876
 20
-107.006
 21
-107.024
  0
LINE
  8
0
 10
17.876
 11
18.062
 20
-107.024
 21
-107.053
  0
LINE
  8
0
 10
18.062
 11
18.246
 20
-107.053
 21
-107.094
  0
LINE
  8
0
 10
18.246
 11
18.427
 20
-107.094
 21
-107.147
  0
LINE
  8
0
 10
18.427
 11
18.604
 20
-107.147
 21
-107.211
  0
LINE
  8
0
 10
18.604
 11
18.777
 20
-107.211
 21
-107.286
  0
LINE
  8
0
 10
18.777
 11
18.945
 20
-107.286
 21
-107.371
  0
LINE
  8
0
 10
18.945
 11
19.107
 20
-107.371
 21
-107.467
  0
LINE
  8
0
 10
19.107
 11
19.263
 20
-107.467
 21
-107.573
  0
LINE
  8
0
 10
19.263
 11
19.412
 20
-107.573
 21
-107.688
  0
LINE
  8
0
 10
19.412
 11
19.554
 20
-107.688
 21
-107.813
  0
LINE
  8
0
 10
19.554
 11
19.687
 20
-107.813
 21
-107.946
  0
LINE
  8
0
 10
19.687
 11
19.812
 20
-107.946
 21
-108.088
  0
LINE
  8
0
 10
19.812
 11
19.927
 20
-108.088
 21
-108.237
  0
LINE
  8
0
 10
19.927
 11
20.033
 20
-108.237
 21
-108.393
  0
LINE
  8
0
 10
20.033
 11
20.129
 20
-108.393
 21
-108.555
  0
LINE
  8
0
 10
20.129
 11
20.214
 20
-108.555
 21
-108.723
  0
LINE
  8
0
 10
20.214
 11
20.289
 20
-108.723
 21
-108.896
  0
LINE
  8
0
 10
20.289
 11
20.353
 20
-108.896
 21
-109.073
  0
LINE
  8
0
 10
20.353
 11
20.406
 20
-109.073
 21
-109.254
  0
LINE
  8
0
 10
20.406
 11
20.447
 20
-109.254
 21
-109.438
  0
LINE
  8
0
 10
20.447
 11
20.476
 20
-109.438
 21
-109.624
  0
LINE
  8
0
 10
20.476
 11
20.494
 20
-109.624
 21
-109.812
  0
LINE
  8
0
 10
20.494
 11
20.5
 20
-109.812
 21
-110
  0
LINE
  8
0
 10
20.5
 11
20.494
 20
-110
 21
-110.188
  0
LINE
  8
0
 10
20.494
 11
20.476
 20
-110.188
 21
-110.376
  0
LINE
  8
0
 10
20.476
 11
20.447
 20
-110.376
 21
-110.562
  0
LINE
  8
0
 10
20.447
 11
20.406
 20
-110.562
 21
-110.746
  0
LINE
  8
0
 10
20.406
 11
20.353
 20
-110.746
 21
-110.927
  0
LINE
  8
0
 10
20.353
 11
20.289
 20
-110.927
 21
-111.104
  0
LINE
  8
0
 10
20.289
 11
20.214
 20
-111.104
 21
-111.277
  0
LINE
  8
0
 10
20.214
 11
20.129
 20
-111.277
 21
-111.445
  0
LINE
  8
0
 10
20.129
 11
20.033
 20
-111.445
 21
-111.607
  0
LINE
  8
0
 10
20.033
 11
19.927
 20
-111.607
 21
-111.763
  0
LINE
  8
0
 10
19.927
 11
19.812
 20
-111.763
 21
-111.912
  0
LINE
  8
0
 10
19.812
 11
19.687
 20
-111.912
 21
-112.054
  0
LINE
  8
0
 10
19.687
 11
19.554
 20
-112.054
 21
-112.187
  0
LINE
  8
0
 10
19.554
 11
19.412
 20
-112.187
 21
-112.312
  0
LINE
  8
0
 10
19.412
 11
19.263
 20
-112.312
 21
-112.427
  0
LINE
  8
0
 10
19.263
 11
19.107
 20
-112.427
 21
-112.533
  0
LINE
  8
0
 10
19.107
 11
18.945
 20
-112.533
 21
-112.629
  0
LINE
  8
0
 10
18.945
 11
18.777
 20
-112.629
 21
-112.714
  0
LINE
  8
0
 10
18.777
 11
18.604
 20
-112.714
 21
-112.789
  0
LINE
  8
0
 10
18.604
 11
18.427
 20
-112.789
 21
-112.853
  0
LINE
  8
0
 10
18.427
 11
18.246
 20
-112.853
 21
-112.906
  0
LINE
  8
0
 10
18.246
 11
18.062
 20
-112.906
 21
-112.947
  0
LINE
  8
0
 10
18.062
 11
17.876
 20
-112.947
 21
-112.976
  0
LINE
  8
0
 10
17.876
 11
17.688
 20
-112.976
 21
-112.994
  0
LINE
  8
0
 10
17.688
 11
17.5
 20
-112.994
 21
-113
  0
LINE
  8
0
 10
17.5
 11
17.312
 20
-113
 21
-112.994
  0
LINE
  8
0
 10
17.312
 11
17.124
 20
-112.994
 21
-112.976
  0
LINE
  8
0
 10
17.124
 11
16.938
 20
-112.976
 21
-112.947
  0
LINE
  8
0
 10
16.938
 11
16.754
 20
-112.947
 21
-112.906
  0
LINE
  8
0
 10
16.754
 11
16.573
 20
-112.906
 21
-112.853
  0
LINE
  8
0
 10
16.573
 11
16.396
 20
-112.853
 21
-112.789
  0
LINE
  8
0
 10
16.396
 11
16.223
 20
-112.789
 21
-112.714
  0
LINE
  8
0
 10
16.223
 11
16.055
 20
-112.714
 21
-112.629
  0
LINE
  8
0
 10
16.055
 11
15.893
 20
-112.629
 21
-112.533
  0
LINE
  8
0
 10
15.893
 11
15.737
 20
-112.533
 21
-112.427
  0
LINE
  8
0
 10
15.737
 11
15.588
 20
-112.427
 21
-112.312
  0
LINE
  8
0
 10
15.588
 11
15.446
 20
-112.312
 21
-112.187
  0
LINE
  8
0
 10
15.446
 11
15.313
 20
-112.187
 21
-112.054
  0
LINE
  8
0
 10
15.313
 11
15.188
 20
-112.054
 21
-111.912
  0
LINE
  8
0
 10
15.188
 11
15.073
 20
-111.912
 21
-111.763
  0
LINE
  8
0
 10
15.073
 11
14.967
 20
-111.763
 21
-111.607
  0
LINE
  8
0
 10
14.967
 11
14.871
 20
-111.607
 21
-111.445
  0
LINE
  8
0
 10
14.871
 11
14.786
 20
-111.445
 21
-111.277
  0
LINE
  8
0
 10
14.786
 11
14.711
 20
-111.277
 21
-111.104
  0
LINE
  8
0
 10
14.711
 11
14.647
 20
-111.104
 21
-110.927
  0
LINE
  8
0
 10
14.647
 11
14.594
 20
-110.927
 21
-110.746
  0
LINE
  8
0
 10
14.594
 11
14.553
 20
-110.746
 21
-110.562
  0
LINE
  8
0
 10
14.553
 11
14.524
 20
-110.562
 21
-110.376
  0
LINE
  8
0
 10
14.524
 11
14.506
 20
-110.376
 21
-110.188
  0
LINE
  8
0
 10
14.506
 11
14.5
 20
-110.188
 21
-110
  0
LINE
  8
0
 10
14.5
 11
14.506
 20
110
 21
110.188
  0
LINE
  8
0
 10
14.506
 11
14.524
 20
110.188
 21
110.376
  0
LINE
  8
0
 10
14.524
 11
14.553
 20
110.376
 21
110.562
  0
LINE
  8
0
 10
14.553
 11
14.594
 20
110.562
 21
110.746
  0
LINE
  8
0
 10
14.594
 11
14.647
 20
110.746
 21
110.927
  0
LINE
  8
0
 10
14.647
 11
14.711
 20
110.927
 21
111.104
  0
LINE
  8
0
 10
14.711
 11
14.786
 20
111.104
 21
111.277
  0
LINE
  8
0
 10
14.786
 11
14.871
 20
111.277
 21
111.445
  0
LINE
  8
0
 10
14.871
 11
14.967
 20
111.445
 21
111.607
  0
LINE
  8
0
 10
14.967
 11
15.073
 20
111.607
 21
111.763
  0
LINE
  8
0
 10
15.073
 11
15.188
 20
111.763
 21
111.912
  0
LINE
  8
0
 10
15.188
 11
15.313
 20
111.912
 21
112.054
  0
LINE
  8
0
 10
15.313
 11
15.446
 20
112.054
 21
112.187
  0
LINE
  8
0
 10
15.446
 11
15.588
 20
112.187
 21
112.312
  0
LINE
  8
0
 10
15.588
 11
15.737
 20
112.312
 21
112.427
  0
LINE
  8
0
 10
15.737
 11
15.893
 20
112.427
 21
112.533
  0
LINE
  8
0
 10
15.893
 11
16.055
 20
112.533
 21
112.629
  0
LINE
  8
0
 10
16.055
 11
16.223
 20
112.629
 21
112.714
  0
LINE
  8
0
 10
16.223
 11
16.396
 20
112.714
 21
112.789
  0
LINE
  8
0
 10
16.396
 11
16.573
 20
112.789
 21
112.853
  0
LINE
  8
0
 10
16.573
 11
16.754
 20
112.853
 21
112.906
  0
LINE
  8
0
 10
16.754
 11
16.938
 20
112.906
 21
112.947
  0
LINE
  8
0
 10
16.938
 11
17.124
 20
112.947
 21
112.976
  0
LINE
  8
0
 10
17.124
 11
17.312
 20
112.976
 21
112.994
  0
LINE
  8
0
 10
17.312
 11
17.5
 20
112.994
 21
113
  0
LINE
  8
0
 10
17.5
 11
17.688
 20
113
 21
112.994
  0
LINE
  8
0
 10
17.688
 11
17.876
 20
112.994
 21
112.976
  0
LINE
  8
0
 10
17.876
 11
18.062
 20
112.976
 21
112.947
  0
LINE
  8
0
 10
18.062
 11
18.246
 20
112.947
 21
112.906
  0
LINE
  8
0
 10
18.246
 11
18.427
 20
112.906
 21
112.853
  0
LINE
  8
0
 10
18.427
 11
18.604
 20
112.853
 21
112.789
  0
LINE
  8
0
 10
18.604
 11
18.777
 20
112.789
 21
112.714
  0
LINE
  8
0
 10
18.777
 11
18.945
 20
112.714
 21
112.629
  0
LINE
  8
0
 10
18.945
 11
19.107
 20
112.629
 21
112.533
  0
LINE
  8
0
 10
19.107
 11
19.263
 20
112.533
 21
112.427
  0
LINE
  8
0
 10
19.263
 11
19.412
 20
112.427
 21
112.312
  0
LINE
  8
0
 10
19.412
 11
19.554
 20
112.312
 21
112.187
  0
LINE
  8
0
 10
19.554
 11
19.687
 20
112.187
 21
112.054
  0
LINE
  8
0
 10
19.687
 11
19.812
 20
112.054
 21
111.912
  0
LINE
  8
0
 10
19.812
 11
19.927
 20
111.912
 21
111.763
  0
LINE
  8
0
 10
19.927
 11
20.033
 20
111.763
 21
111.607
  0
LINE
  8
0
 10
20.033
 11
20.129
 20
111.607
 21
111.445
  0
LINE
  8
0
 10
20.129
 11
20.214
 20
111.445
 21
111.277
  0
LINE
  8
0
 10
20.214
 11
20.289
 20
111.277
 21
111.104
  0
LINE
  8
0
 10
20.289
 11
20.353
 20
111.104
 21
110.927
  0
LINE
  8
0
 10
20.353
 11
20.406
 20
110.927
 21
110.746
  0
LINE
  8
0
 10
20.406
 11
20.447
 20
110.746
 21
110.562
  0
LINE
  8
0
 10
20.447
 11
20.476
 20
110.562
 21
110.376
  0
LINE
  8
0
 10
20.476
 11
20.494
 20
110.376
 21
110.188
  0
LINE
  8
0
 10
20.494
 11
20.5
 20
110.188
 21
110
  0
LINE
  8
0
 10
20.5
 11
20.494
 20
110
 21
109.812
  0
LINE
  8
0
 10
20.494
 11
20.476
 20
109.812
 21
109.624
  0
LINE
  8
0
 10
20.476
 11
20.447
 20
109.624
 21
109.438
  0
LINE
  8
0
 10
20.447
 11
20.406
 20
109.438
 21
109.254
  0
LINE
  8
0
 10
20.406
 11
20.353
 20
109.254
 21
109.073
  0
LINE
  8
0
 10
20.353
 11
20.289
 20
109.073
 21
108.896
  0
LINE
  8
0
 10
20.289
 11
20.214
 20
108.896
 21
108.723
  0
LINE
  8
0
 10
20.214
 11
20.129
 20
108.723
 21
108.555
  0
LINE
  8
0
 10
20.129
 11
20.033
 20
108.555
 21
108.393
  0
LINE
  8
0
 10
20.033
 11
19.927
 20
108.393
 21
108.237
  0
LINE
  8
0
 10
19.927
 11
19.812
 20
108.237
 21
108.088
  0
LINE
  8
0
 10
19.812
 11
19.687
 20
108.088
 21
107.946
  0
LINE
  8
0
 10
19.687
 11
19.554
 20
107.946
 21
107.813
  0
LINE
  8
0
 10
19.554
 11
19.412
 20
107.813
 21
107.688
  0
LINE
  8
0
 10
19.412
 11
19.263
 20
107.688
 21
107.573
  0
LINE
  8
0
 10
19.263
 11
19.107
 20
107.573
 21
107.467
  0
LINE
  8
0
 10
19.107
 11
18.945
 20
107.467
 21
107.371
  0
LINE
  8
0
 10
18.945
 11
18.777
 20
107.371
 21
107.286
  0
LINE
  8
0
 10
18.777
 11
18.604
 20
107.286
 21
107.211
  0
LINE
  8
0
 10
18.604
 11
18.427
 20
107.211
 21
107.147
  0
LINE
  8
0
 10
18.427
 11
18.246
 20
107.147
 21
107.094
  0
LINE
  8
0
 10
18.246
 11
18.062
 20
107.094
 21
107.053
  0
LINE
  8
0
 10
18.062
 11
17.876
 20
107.053
 21
107.024
  0
LINE
  8
0
 10
17.876
 11
17.688
 20
107.024
 21
107.006
  0
LINE
  8
0
 10
17.688
 11
17.5
 20
107.006
 21
107
  0
LINE
  8
0
 10
17.5
 11
17.312
 20
107
 21
107.006
  0
LINE
  8
0
 10
17.312
 11
17.124
 20
107.006
 21
107.024
  0
LINE
  8
0
 10
17.124
 11
16.938
 20
107.024
 21
107.053
  0
LINE
  8
0
 10
16.938
 11
16.754
 20
107.053
 21
107.094
  0
LINE
  8
0
 10
16.754
 11
16.573
 20
107.094
 21
107.147
  0
LINE
  8
0
 10
16.573
 11
16.396
 20
107.147
 21
107.211
  0
LINE
  8
0
 10
16.396
 11
16.223
 20
107.211
 21
107.286
  0
LINE
  8
0
 10
16.223
 11
16.055
 20
107.286
 21
107.371
  0
LINE
  8
0
 10
16.055
 11
15.893
 20
107.371
 21
107.467
  0
LINE
  8
0
 10
15.893
 11
15.737
 20
107.467
 21
107.573
  0
LINE
  8
0
 10
15.737
 11
15.588
 20
107.573
 21
107.688
  0
LINE
  8
0
 10
15.588
 11
15.446
 20
107.688
 21
107.813
  0
LINE
  8
0
 10
15.446
 11
15.313
 20
107.813
 21
107.946
  0
LINE
  8
0
 10
15.313
 11
15.188
 20
107.946
 21
108.088
  0
LINE
  8
0
 10
15.188
 11
15.073
 20
108.088
 21
108.237
  0
LINE
  8
0
 10
15.073
 11
14.967
 20
108.237
 21
108.393
  0
LINE
  8
0
 10
14.967
 11
14.871
 20
108.393
 21
108.555
  0
LINE
  8
0
 10
14.871
 11
14.786
 20
108.555
 21
108.723
  0
LINE
  8
0
 10
14.786
 11
14.711
 20
108.723
 21
108.896
  0
LINE
  8
0
 10
14.711
 11
14.647
 20
108.896
 21
109.073
  0
LINE
  8
0
 10
14.647
 11
14.594
 20
109.073
 21
109.254
  0
LINE
  8
0
 10
14.594
 11
14.553
 20
109.254
 21
109.438
  0
LINE
  8
0
 10
14.553
 11
14.524
 20
109.438
 21
109.624
  0
LINE
  8
0
 10
14.524
 11
14.506
 20
109.624
 21
109.812
  0
LINE
  8
0
 10
14.506
 11
14.5
 20
109.812
 21
110
  0
LINE
  8
0
 10
62
 11
62.006
 20
-52
 21
-51.812
  0
LINE
  8
0
 10
62.006
 11
62.024
 20
-51.812
 21
-51.624
  0
LINE
  8
0
 10
62.024
 11
62.053
 20
-51.624
 21
-51.438
  0
LINE
  8
0
 10
62.053
 11
62.094
 20
-51.438
 21
-51.254
  0
LINE
  8
0
 10
62.094
 11
62.147
 20
-51.254
 21
-51.073
  0
LINE
  8
0
 10
62.147
 11
62.211
 20
-51.073
 21
-50.896
  0
LINE
  8
0
 10
62.211
 11
62.286
 20
-50.896
 21
-50.723
  0
LINE
  8
0
 10
62.286
 11
62.371
 20
-50.723
 21
-50.555
  0
LINE
  8
0
 10
62.371
 11
62.467
 20
-50.555
 21
-50.393
  0
LINE
  8
0
 10
62.467
 11
62.573
 20
-50.393
 21
-50.237
  0
LINE
  8
0
 10
62.573
 11
62.688
 20
-50.237
 21
-50.088
  0
LINE
  8
0
 10
62.688
 11
62.813
 20
-50.088
 21
-49.946
  0
LINE
  8
0
 10
62.813
 11
62.946
 20
-49.946
 21
-49.813
  0
LINE
  8
0
 10
62.946
 11
63.088
 20
-49.813
 21
-49.688
  0
LINE
  8
0
 10
63.088
 11
63.237
 20
-49.688
 21
-49.573
  0
LINE
  8
0
 10
63.237
 11
63.393
 20
-49.573
 21
-49.467
  0
LINE
  8
0
 10
63.393
 11
63.555
 20
-49.467
 21
-49.371
  0
LINE
  8
0
 10
63.555
 11
63.723
 20
-49.371
 21
-49.286
  0
LINE
  8
0
 10
63.723
 11
63.896
 20
-49.286
 21
-49.211
  0
LINE
  8
0
 10
63.896
 11
64.073
 20
-49.211
 21
-49.147
  0
LINE
  8
0
 10
64.073
 11
64.254
 20
-49.147
 21
-49.094
  0
LINE
  8
0
 10
64.254
 11
64.438
 20
-49.094
 21
-49.053
  0
LINE
  8
0
 10
64.438
 11
64.624
 20
-49.053
 21
-49.024
  0
LINE
  8
0
 10
64.624
 11
64.812
 20
-49.024
 21
-49.006
  0
LINE
  8
0
 10
64.812
 11
65
 20
-49.006
 21
-49
  0
LINE
  8
0
 10
65
 11
65.188
 20
-49
 21
-49.006
  0
LINE
  8
0
 10
65.188
 11
65.376
 20
-49.006
 21
-49.024
  0
LINE
  8
0
 10
65.376
 11
65.562
 20
-49.024
 21
-49.053
  0
LINE
  8
0
 10
65.562
 11
65.746
 20
-49.053
 21
-49.094
  0
LINE
  8
0
 10
65.746
 11
65.927
 20
-49.094
 21
-49.147
  0
LINE
  8
0
 10
65.927
 11
66.104
 20
-49.147
 21
-49.211
  0
LINE
  8
0
 10
66.104
 11
66.277
 20
-49.211
 21
-49.286
  0
LINE
  8
0
 10
66.277
 11
66.445
 20
-49.286
 21
-49.371
  0
LINE
  8
0
 10
66.445
 11
66.607
 20
-49.371
 21
-49.467
  0
LINE
  8
0
 10
66.607
 11
66.763
 20
-49.467
 21
-49.573
  0
LINE
  8
0
 10
66.763
 11
66.912
 20
-49.573
 21
-49.688
  0
LINE
  8
0
 10
66.912
 11
67.054
 20
-49.688
 21
-49.813
  0
LINE
  8
0
 10
67.054
 11
67.187
 20
-49.813
 21
-49.946
  0
LINE
  8
0
 10
67.187
 11
67.312
 20
-49.946
 21
-50.088
  0
LINE
  8
0
 10
67.312
 11
67.427
 20
-50.088
 21
-50.237
  0
LINE
  8
0
 10
67.427
 11
67.533
 20
-50.237
 21
-50.393
  0
LINE
  8
0
 10
67.533
 11
67.629
 20
-50.393
 21
-50.555
  0
LINE
  8
0
 10
67.629
 11
67.714
 20
-50.555
 21
-50.723
  0
LINE
  8
0
 10
67.714
 11
67.789
 20
-50.723
 21
-50.896
  0
LINE
  8
0
 10
67.789
 11
67.853
 20
-50.896
 21
-51.073
  0
LINE
  8
0
 10
67.853
 11
67.906
 20
-51.073
 21
-51.254
  0
LINE
  8
0
 10
67.906
 11
67.947
 20
-51.254
 21
-51.438
  0
LINE
  8
0
 10
67.947
 11
67.976
 20
-51.438
 21
-51.624
  0
LINE
  8
0
 10
67.976
 11
67.994
 20
-51.624
 21
-51.812
  0
LINE
  8
0
 10
67.994
 11
68
 20
-51.812
 21
-52
  0
LINE
  8
0
 10
68
 11
67.994
 20
-52
 21
-52.188
  0
LINE
  8
0
 10
67.994
 11
67.976
 20
-52.188
 21
-52.376
  0
LINE
  8
0
 10
67.976
 11
67.947
 20
-52.376
 21
-52.562
  0
LINE
  8
0
 10
67.947
 11
67.906
 20
-52.562
 21
-52.746
  0
LINE
  8
0
 10
67.906
 11
67.853
 20
-52.746
 21
-52.927
  0
LINE
  8
0
 10
67.853
 11
67.789
 20
-52.927
 21
-53.104
  0
LINE
  8
0
 10
67.789
 11
67.714
 20
-53.104
 21
-53.277
  0
LINE
  8
0
 10
67.714
 11
67.629
 20
-53.277
 21
-53.445
  0
LINE
  8
0
 10
67.629
 11
67.533
 20
-53.445
 21
-53.607
  0
LINE
  8
0
 10
67.533
 11
67.427
 20
-53.607
 21
-53.763
  0
LINE
  8
0
 10
67.427
 11
67.312
 20
-53.763
 21
-53.912
  0
LINE
  8
0
 10
67.312
 11
67.187
 20
-53.912
 21
-54.054
  0
LINE
  8
0
 10
67.187
 11
67.054
 20
-54.054
 21
-54.187
  0
LINE
  8
0
 10
67.054
 11
66.912
 20
-54.187
 21
-54.312
  0
LINE
  8
0
 10
66.912
 11
66.763
 20
-54.312
 21
-54.427
  0
LINE
  8
0
 10
66.763
 11
66.607
 20
-54.427
 21
-54.533
  0
LINE
  8
0
 10
66.607
 11
66.445
 20
-54.533
 21
-54.629
  0
LINE
  8
0
 10
66.445
 11
66.277
 20
-54.629
 21
-54.714
  0
LINE
  8
0
 10
66.277
 11
66.104
 20
-54.714
 21
-54.789
  0
LINE
  8
0
 10
66.104
 11
65.927
 20
-54.789
 21
-54.853
  0
LINE
  8
0
 10
65.927
 11
65.746
 20
-54.853
 21
-54.906
  0
LINE
  8
0
 10
65.746
 11
65.562
 20
-54.906
 21
-54.947
  0
LINE
  8
0
 10
65.562
 11
65.376
 20
-54.947
 21
-54.976
  0
LINE
  8
0
 10
65.376
 11
65.188
 20
-54.976
 21
-54.994
  0
LINE
  8
0
 10
65.188
 11
65
 20
-54.994
 21
-55
  0
LINE
  8
0
 10
65
 11
64.812
 20
-55
 21
-54.994
  0
LINE
  8
0
 10
64.812
 11
64.624
 20
-54.994
 21
-54.976
  0
LINE
  8
0
 10
64.624
 11
64.438
 20
-54.976
 21
-54.947
  0
LINE
  8
0
 10
64.438
 11
64.254
 20
-54.947
 21
-54.906
  0
LINE
  8
0
 10
64.254
 11
64.073
 20
-54.906
 21
-54.853
  0
LINE
  8
0
 10
64.073
 11
63.896
 20
-54.853
 21
-54.789
  0
LINE
  8
0
 10
63.896
 11
63.723
 20
-54.789
 21
-54.714
  0
LINE
  8
0
 10
63.723
 11
63.555
 20
-54.714
 21
-54.629
  0
LINE
  8
0
 10
63.555
 11
63.393
 20
-54.629
 21
-54.533
  0
LINE
  8
0
 10
63.393
 11
63.237
 20
-54.533
 21
-54.427
  0
LINE
  8
0
 10
63.237
 11
63.088
 20
-54.427
 21
-54.312
  0
LINE
  8
0
 10
63.088
 11
62.946
 20
-54.312
 21
-54.187
  0
LINE
  8
0
 10
62.946
 11
62.813
 20
-54.187
 21
-54.054
  0
LINE
  8
0
 10
62.813
 11
62.688
 20
-54.054
 21
-53.912
  0
LINE
  8
0
 10
62.688
 11
62.573
 20
-53.912
 21
-53.763
  0
LINE
  8
0
 10
62.573
 11
62.467
 20
-53.763
 21
-53.607
  0
LINE
  8
0
 10
62.467
 11
62.371
 20
-53.607
 21
-53.445
  0
LINE
  8
0
 10
62.371
 11
62.286
 20
-53.445
 21
-53.277
  0
LINE
  8
0
 10
62.286
 11
62.211
 20
-53.277
 21
-53.104
  0
LINE
  8
0
 10
62.211
 11
62.147
 20
-53.104
 21
-52.927
  0
LINE
  8
0
 10
62.147
 11
62.094
 20
-52.927
 21
-52.746
  0
LINE
  8
0
 10
62.094
 11
62.053
 20
-52.746
 21
-52.562
  0
LINE
  8
0
 10
62.053
 11
62.024
 20
-52.562
 21
-52.376
  0
LINE
  8
0
 10
62.024
 11
62.006
 20
-52.376
 21
-52.188
  0
LINE
  8
0
 10
62.006
 11
62
 20
-52.188
 21
-52
  0
LINE
  8
0
 10
62
 11
62.006
 20
52
 21
52.188
  0
LINE
  8
0
 10
62.006
 11
62.024
 20
52.188
 21
52.376
  0
LINE
  8
0
 10
62.024
 11
62.053
 20
52.376
 21
52.562
  0
LINE
  8
0
 10
62.053
 11
62.094
 20
52.562
 21
52.746
  0
LINE
  8
0
 10
62.094
 11
62.147
 20
52.746
 21
52.927
  0
LINE
  8
0
 10
62.147
 11
62.211
 20
52.927
 21
53.104
  0
LINE
  8
0
 10
62.211
 11
62.286
 20
53.104
 21
53.277
  0
LINE
  8
0
 10
62.286
 11
62.371
 20
53.277
 21
53.445
  0
LINE
  8
0
 10
62.371
 11
62.467
 20
53.445
 21
53.607
  0
LINE
  8
0
 10
62.467
 11
62.573
 20
53.607
 21
53.763
  0
LINE
  8
0
 10
62.573
 11
62.688
 20
53.763
 21
53.912
  0
LINE
  8
0
 10
62.688
 11
62.813
 20
53.912
 21
54.054
  0
LINE
  8
0
 10
62.813
 11
62.946
 20
54.054
 21
54.187
  0
LINE
  8
0
 10
62.946
 11
63.088
 20
54.187
 21
54.312
  0
LINE
  8
0
 10
63.088
 11
63.237
 20
54.312
 21
54.427
  0
LINE
  8
0
 10
63.237
 11
63.393
 20
54.427
 21
54.533
  0
LINE
  8
0
 10
63.393
 11
63.555
 20
54.533
 21
54.629
  0
LINE
  8
0
 10
63.555
 11
63.723
 20
54.629
 21
54.714
  0
LINE
  8
0
 10
63.723
 11
63.896
 20
54.714
 21
54.789
  0
LINE
  8
0
 10
63.896
 11
64.073
 20
54.789
 21
54.853
  0
LINE
  8
0
 10
64.073
 11
64.254
 20
54.853
 21
54.906
  0
LINE
  8
0
 10
64.254
 11
64.438
 20
54.906
 21
54.947
  0
LINE
  8
0
 10
64.438
 11
64.624
 20
54.947
 21
54.976
  0
LINE
  8
0
 10
64.624
 11
64.812
 20
54.976
 21
54.994
  0
LINE
  8
0
 10
64.812
 11
65
 20
54.994
 21
55
  0
LINE
  8
0
 10
65
 11
65.188
 20
55
 21
54.994
  0
LINE
  8
0
 10
65.188
 11
65.376
 20
54.994
 21
54.976
  0
LINE
  8
0
 10
65.376
 11
65.562
 20
54.976
 21
54.947
  0
LINE
  8
0
 10
65.562
 11
65.746
 20
54.947
 21
54.906
  0
LINE
  8
0
 10
65.746
 11
65.927
 20
54.906
 21
54.853
  0
LINE
  8
0
 10
65.927
 11
66.104
 20
54.853
 21
54.789
  0
LINE
  8
0
 10
66.104
 11
66.277
 20
54.789
 21
54.714
  0
LINE
  8
0
 10
66.277
 11
66.445
 20
54.714
 21
54.629
  0
LINE
  8
0
 10
66.445
 11
66.607
 20
54.629
 21
54.533
  0
LINE
  8
0
 10
66.607
 11
66.763
 20
54.533
 21
54.427
  0
LINE
  8
0
 10
66.763
 11
66.912
 20
54.427
 21
54.312
  0
LINE
  8
0
 10
66.912
 11
67.054
 20
54.312
 21
54.187
  0
LINE
  8
0
 10
67.054
 11
67.187
 20
54.187
 21
54.054
  0
LINE
  8
0
 10
67.187
 11
67.312
 20
54.054
 21
53.912
  0
LINE
  8
0
 10
67.312
 11
67.427
 20
53.912
 21
53.763
  0
LINE
  8
0
 10
67.427
 11
67.533
 20
53.763
 21
53.607
  0
LINE
  8
0
 10
67.533
 11
67.629
 20
53.607
 21
53.445
  0
LINE
  8
0
 10
67.629
 11
67.714
 20
53.445
 21
53.277
  0
LINE
  8
0
 10
67.714
 11
67.789
 20
53.277
 21
53.104
  0
LINE
  8
0
 10
67.789
 11
67.853
 20
53.104
 21
52.927
  0
LINE
  8
0
 10
67.853
 11
67.906
 20
52.927
 21
52.746
  0
LINE
  8
0
 10
67.906
 11
67.947
 20
52.746
 21
52.562
  0
LINE
  8
0
 10
67.947
 11
67.976
 20
52.562
 21
52.376
  0
LINE
  8
0
 10
67.976
 11
67.994
 20
52.376
 21
52.188
  0
LINE
  8
0
 10
67.994
 11
68
 20
52.188
 21
52
  0
LINE
  8
0
 10
68
 11
67.994
 20
52
 21
51.812
  0
LINE
  8
0
 10
67.994
 11
67.976
 20
51.812
 21
51.624
  0
LINE
  8
0
 10
67.976
 11
67.947
 20
51.624
 21
51.438
  0
LINE
  8
0
 10
67.947
 11
67.906
 20
51.438
 21
51.254
  0
LINE
  8
0
 10
67.906
 11
67.853
 20
51.254
 21
51.073
  0
LINE
  8
0
 10
67.853
 11
67.789
 20
51.073
 21
50.896
  0
LINE
  8
0
 10
67.789
 11
67.714
 20
50.896
 21
50.723
  0
LINE
  8
0
 10
67.714
 11
67.629
 20
50.723
 21
50.555
  0
LINE
  8
0
 10
67.629
 11
67.533
 20
50.555
 21
50.393
  0
LINE
  8
0
 10
67.533
 11
67.427
 20
50.393
 21
50.237
  0
LINE
  8
0
 10
67.427
 11
67.312
 20
50.237
 21
50.088
  0
LINE
  8
0
 10
67.312
 11
67.187
 20
50.088
 21
49.946
  0
LINE
  8
0
 10
67.187
 11
67.054
 20
49.946
 21
49.813
  0
LINE
  8
0
 10
67.054
 11
66.912
 20
49.813
 21
49.688
  0
LINE
  8
0
 10
66.912
 11
66.763
 20
49.688
 21
49.573
  0
LINE
  8
0
 10
66.763
 11
66.607
 20
49.573
 21
49.467
  0
LINE
  8
0
 10
66.607
 11
66.445
 20
49.467
 21
49.371
  0
LINE
  8
0
 10
66.445
 11
66.277
 20
49.371
 21
49.286
  0
LINE
  8
0
 10
66.277
 11
66.104
 20
49.286
 21
49.211
  0
LINE
  8
0
 10
66.104
 11
65.927
 20
49.211
 21
49.147
  0
LINE
  8
0
 10
65.927
 11
65.746
 20
49.147
 21
49.094
  0
LINE
  8
0
 10
65.746
 11
65.562
 20
49.094
 21
49.053
  0
LINE
  8
0
 10
65.562
 11
65.376
 20
49.053
 21
49.024
  0
LINE
  8
0
 10
65.376
 11
65.188
 20
49.024
 21
49.006
  0
LINE
  8
0
 10
65.188
 11
65
 20
49.006
 21
49
  0
LINE
  8
0
 10
65
 11
64.812
 20
49
 21
49.006
  0
LINE
  8
0
 10
64.812
 11
64.624
 20
49.006
 21
49.024
  0
LINE
  8
0
 10
64.624
 11
64.438
 20
49.024
 21
49.053
  0
LINE
  8
0
 10
64.438
 11
64.254
 20
49.053
 21
49.094
  0
LINE
  8
0
 10
64.254
 11
64.073
 20
49.094
 21
49.147
  0
LINE
  8
0
 10
64.073
 11
63.896
 20
49.147
 21
49.211
  0
LINE
  8
0
 10
63.896
 11
63.723
 20
49.211
 21
49.286
  0
LINE
  8
0
 10
63.723
 11
63.555
 20
49.286
 21
49.371
  0
LINE
  8
0
 10
63.555
 11
63.393
 20
49.371
 21
49.467
  0
LINE
  8
0
 10
63.393
 11
63.237
 20
49.467
 21
49.573
  0
LINE
  8
0
 10
63.237
 11
63.088
 20
49.573
 21
49.688
  0
LINE
  8
0
 10
63.088
 11
62.946
 20
49.688
 21
49.813
  0
LINE
  8
0
 10
62.946
 11
62.813
 20
49.813
 21
49.946
  0
LINE
  8
0
 10
62.813
 11
62.688
 20
49.946
 21
50.088
  0
LINE
  8
0
 10
62.688
 11
62.573
 20
50.088
 21
50.237
  0
LINE
  8
0
 10
62.573
 11
62.467
 20
50.237
 21
50.393
  0
LINE
  8
0
 10
62.467
 11
62.371
 20
50.393
 21
50.555
  0
LINE
  8
0
 10
62.371
 11
62.286
 20
50.555
 21
50.723
  0
LINE
  8
0
 10
62.286
 11
62.211
 20
50.723
 21
50.896
  0
LINE
  8
0
 10
62.211
 11
62.147
 20
50.896
 21
51.073
  0
LINE
  8
0
 10
62.147
 11
62.094
 20
51.073
 21
51.254
  0
LINE
  8
0
 10
62.094
 11
62.053
 20
51.254
 21
51.438
  0
LINE
  8
0
 10
62.053
 11
62.024
 20
51.438
 21
51.624
  0
LINE
  8
0
 10
62.024
 11
62.006
 20
51.624
 21
51.812
  0
LINE
  8
0
 10
62.006
 11
62
 20
51.812
 21
52
  0
ENDSEC
  0
SECTION
  2
OBJECTS
  0
DICTIONARY
  0
ENDSEC
  0
EOF
