<svg xmlns="http://www.w3.org/2000/svg" version="1.1" width="636.7mm" height="272.7mm" viewBox = " 0 0 2256.025477 966.260637" >
<!-- Front--> 
<g transform="translate(22.5000185, 22.5000185) " > 
 <rect x="839.410139" y="230.31515" width="29.055141999999996" height="77.95282" rx="10.62993" ry="10.62993" style="stroke:#000000;stroke-width:0.90000074;fill:none" /> 
 <rect x="59.881938999999996" y="230.31515" width="29.055141999999996" height="77.95282" rx="10.62993" ry="10.62993" style="stroke:#000000;stroke-width:0.90000074;fill:none" /> 
 <rect x="704.764359" y="230.31515" width="21.968522" height="77.95282" rx="10.62993" ry="10.62993" style="stroke:#000000;stroke-width:0.90000074;fill:none" /> 
 <rect x="201.614339" y="230.31515" width="21.968522" height="77.95282" rx="10.62993" ry="10.62993" style="stroke:#000000;stroke-width:0.90000074;fill:none" /> 
<polygon style="stroke:#000000; fill:none; stroke-width:0.90000074" points="0, 0 46.06303, 0 46.06303, 17.716549999999998 92.12606, 17.716549999999998 92.12606, 0 127.55915999999999, 0 127.55915999999999, 17.716549999999998 162.99226, 17.716549999999998 162.99226, 0 198.42535999999998, 0 198.42535999999998, 17.716549999999998 233.85845999999998, 17.716549999999998 233.85845999999998, 0 269.29156, 0 269.29156, 17.716549999999998 304.72466, 17.716549999999998 304.72466, 0 340.15775999999994, 0 340.15775999999994, 17.716549999999998 375.59085999999996, 17.716549999999998 375.59085999999996, 0 411.02395999999993, 0 411.02395999999993, 17.716549999999998 446.45705999999996, 17.716549999999998 446.45705999999996, 0 481.89016, 0 481.89016, 17.716549999999998 517.3232599999999, 17.716549999999998 517.3232599999999, 0 552.7563599999999, 0 552.7563599999999, 17.716549999999998 588.1894599999999, 17.716549999999998 588.1894599999999, 0 623.62256, 0 623.62256, 17.716549999999998 659.05566, 17.716549999999998 659.05566, 0 694.48876, 0 694.48876, 17.716549999999998 729.9218599999999, 17.716549999999998 729.9218599999999, 0 765.3549599999999, 0 765.3549599999999, 17.716549999999998 800.7880599999999, 17.716549999999998 800.7880599999999, 0 836.2211599999998, 0 836.2211599999998, 17.716549999999998 882.2841899999999, 17.716549999999998 882.2841899999999, 0 928.34722, 0 928.34722, 53.14965 910.63067, 53.14965 910.63067, 106.2993 928.34722, 106.2993 928.34722, 141.73239999999998 910.63067, 141.73239999999998 910.63067, 177.1655 928.34722, 177.1655 928.34722, 212.59859999999998 910.63067, 212.59859999999998 910.63067, 248.0317 928.34722, 248.0317 928.34722, 283.46479999999997 910.63067, 283.46479999999997 910.63067, 318.8979 928.34722, 318.8979 928.34722, 354.33099999999996 910.63067, 354.33099999999996 910.63067, 407.48064999999997 928.34722, 407.48064999999997 928.3472199999999, 460.6303 882.2841899999999, 460.6303 882.2841899999999, 442.91375 836.2211599999998, 442.91375 836.2211599999998, 460.6303 800.7880599999999, 460.6303 800.7880599999999, 442.91375 765.3549599999999, 442.91375 765.3549599999999, 460.6303 729.9218599999999, 460.6303 729.9218599999999, 442.91375 694.48876, 442.91375 694.48876, 460.6303 659.05566, 460.6303 659.05566, 442.91375 623.62256, 442.91375 623.62256, 460.6303 588.1894599999999, 460.6303 588.1894599999999, 442.91375 552.7563599999999, 442.91375 552.7563599999999, 460.6303 517.3232599999999, 460.6303 517.3232599999999, 442.91375 481.89016, 442.91375 481.89016, 460.6303 446.45705999999996, 460.6303 446.45705999999996, 442.91375 411.02395999999993, 442.91375 411.02395999999993, 460.6303 375.59085999999996, 460.6303 375.59085999999996, 442.91375 340.15775999999994, 442.91375 340.15775999999994, 460.6303 304.72466, 460.6303 304.72466, 442.91375 269.29156, 442.91375 269.29156, 460.6303 233.85845999999998, 460.6303 233.85845999999998, 442.91375 198.42535999999998, 442.91375 198.42535999999998, 460.6303 162.99226, 460.6303 162.99226, 442.91375 127.55915999999999, 442.91375 127.55915999999999, 460.6303 92.12606, 460.6303 92.12606, 442.91375 46.06303, 442.91375 46.06303, 460.6303 0, 460.6303 0, 407.48064999999997 17.716549999999998, 407.48064999999997 17.716549999999998, 354.33099999999996 0, 354.33099999999996 0, 318.8979 17.716549999999998, 318.8979 17.716549999999998, 283.46479999999997 0, 283.46479999999997 0, 248.0317 17.716549999999998, 248.0317 17.716549999999998, 212.59859999999998 0, 212.59859999999998 0, 177.1655 17.716549999999998, 177.1655 17.716549999999998, 141.73239999999998 0, 141.73239999999998 0, 106.2993 17.716549999999998, 106.2993 17.716549999999998, 53.14965 0, 53.14965 "/> 
 <rect x="446.4216269" y="230.31515" width="36.141762" height="77.95282" rx="10.62993" ry="10.62993" style="stroke:#000000;stroke-width:0.90000074;fill:none" /> 
</g>
<!-- Back--> 
<g transform="translate(950.8472385000001, 22.5000185) " > 
<polygon style="stroke:#000000; fill:none; stroke-width:0.90000074" points="0, 0 46.06303, 0 46.06303, 17.716549999999998 92.12606, 17.716549999999998 92.12606, 0 127.55915999999999, 0 127.55915999999999, 17.716549999999998 162.99226, 17.716549999999998 162.99226, 0 198.42535999999998, 0 198.42535999999998, 17.716549999999998 233.85845999999998, 17.716549999999998 233.85845999999998, 0 269.29156, 0 269.29156, 17.716549999999998 304.72466, 17.716549999999998 304.72466, 0 340.15775999999994, 0 340.15775999999994, 17.716549999999998 375.59085999999996, 17.716549999999998 375.59085999999996, 0 411.02395999999993, 0 411.02395999999993, 17.716549999999998 446.45705999999996, 17.716549999999998 446.45705999999996, 0 481.89016, 0 481.89016, 17.716549999999998 517.3232599999999, 17.716549999999998 517.3232599999999, 0 552.7563599999999, 0 552.7563599999999, 17.716549999999998 588.1894599999999, 17.716549999999998 588.1894599999999, 0 623.62256, 0 623.62256, 17.716549999999998 659.05566, 17.716549999999998 659.05566, 0 694.48876, 0 694.48876, 17.716549999999998 729.9218599999999, 17.716549999999998 729.9218599999999, 0 765.3549599999999, 0 765.3549599999999, 17.716549999999998 800.7880599999999, 17.716549999999998 800.7880599999999, 0 836.2211599999998, 0 836.2211599999998, 17.716549999999998 882.2841899999999, 17.716549999999998 882.2841899999999, 0 928.34722, 0 928.34722, 53.14965 910.63067, 53.14965 910.63067, 106.2993 928.34722, 106.2993 928.34722, 141.73239999999998 910.63067, 141.73239999999998 910.63067, 177.1655 928.34722, 177.1655 928.34722, 212.59859999999998 910.63067, 212.59859999999998 910.63067, 248.0317 928.34722, 248.0317 928.34722, 283.46479999999997 910.63067, 283.46479999999997 910.63067, 318.8979 928.34722, 318.8979 928.34722, 354.33099999999996 910.63067, 354.33099999999996 910.63067, 407.48064999999997 928.34722, 407.48064999999997 928.3472199999999, 460.6303 882.2841899999999, 460.6303 882.2841899999999, 442.91375 836.2211599999998, 442.91375 836.2211599999998, 460.6303 800.7880599999999, 460.6303 800.7880599999999, 442.91375 765.3549599999999, 442.91375 765.3549599999999, 460.6303 729.9218599999999, 460.6303 729.9218599999999, 442.91375 694.48876, 442.91375 694.48876, 460.6303 659.05566, 460.6303 659.05566, 442.91375 623.62256, 442.91375 623.62256, 460.6303 588.1894599999999, 460.6303 588.1894599999999, 442.91375 552.7563599999999, 442.91375 552.7563599999999, 460.6303 517.3232599999999, 460.6303 517.3232599999999, 442.91375 481.89016, 442.91375 481.89016, 460.6303 446.45705999999996, 460.6303 446.45705999999996, 442.91375 411.02395999999993, 442.91375 411.02395999999993, 460.6303 375.59085999999996, 460.6303 375.59085999999996, 442.91375 340.15775999999994, 442.91375 340.15775999999994, 460.6303 304.72466, 460.6303 304.72466, 442.91375 269.29156, 442.91375 269.29156, 460.6303 233.85845999999998, 460.6303 233.85845999999998, 442.91375 198.42535999999998, 442.91375 198.42535999999998, 460.6303 162.99226, 460.6303 162.99226, 442.91375 127.55915999999999, 442.91375 127.55915999999999, 460.6303 92.12606, 460.6303 92.12606, 442.91375 46.06303, 442.91375 46.06303, 460.6303 0, 460.6303 0, 407.48064999999997 17.716549999999998, 407.48064999999997 17.716549999999998, 354.33099999999996 0, 354.33099999999996 0, 318.8979 17.716549999999998, 318.8979 17.716549999999998, 283.46479999999997 0, 283.46479999999997 0, 248.0317 17.716549999999998, 248.0317 17.716549999999998, 212.59859999999998 0, 212.59859999999998 0, 177.1655 17.716549999999998, 177.1655 17.716549999999998, 141.73239999999998 0, 141.73239999999998 0, 106.2993 17.716549999999998, 106.2993 17.716549999999998, 53.14965 0, 53.14965 "/> 
</g>
<!-- Left--> 
<g transform="translate(1879.1944585, 22.5000185) " > 
<polygon style="stroke:#000000; fill:none; stroke-width:0.90000074" points="17.716549999999998, 0 44.291375, 0 44.291375, 17.716549999999998 88.58275, 17.716549999999998 88.58275, 0 124.01585, 0 124.01585, 17.716549999999998 159.44895, 17.716549999999998 159.44895, 0 194.88205, 0 194.88205, 17.716549999999998 230.31515, 17.716549999999998 230.31515, 0 265.74825, 0 265.74825, 17.716549999999998 310.039625, 17.716549999999998 310.039625, 0 336.61445000000003, 0 336.61445000000003, 53.14965 354.331, 53.14965 354.331, 106.2993 336.61445000000003, 106.2993 336.61445000000003, 141.73239999999998 354.331, 141.73239999999998 354.331, 177.1655 336.61445000000003, 177.1655 336.61445000000003, 212.59859999999998 354.331, 212.59859999999998 354.331, 248.0317 336.61445000000003, 248.0317 336.61445000000003, 283.46479999999997 354.331, 283.46479999999997 354.331, 318.8979 336.61445000000003, 318.8979 336.61445000000003, 354.33099999999996 354.331, 354.33099999999996 354.331, 407.48064999999997 336.61445000000003, 407.48064999999997 336.61445000000003, 460.6303 310.039625, 460.6303 310.039625, 442.91375 265.74825, 442.91375 265.74825, 460.6303 230.31515, 460.6303 230.31515, 442.91375 194.88205, 442.91375 194.88205, 460.6303 159.44895, 460.6303 159.44895, 442.91375 124.01585, 442.91375 124.01585, 460.6303 88.58275, 460.6303 88.58275, 442.91375 44.291375, 442.91375 44.291375, 460.6303 17.716549999999998, 460.6303 17.716549999999998, 407.48064999999997 0, 407.48064999999997 0, 354.33099999999996 17.716549999999998, 354.33099999999996 17.716549999999998, 318.8979 0, 318.8979 0, 283.46479999999997 17.716549999999998, 283.46479999999997 17.716549999999998, 248.0317 0, 248.0317 0, 212.59859999999998 17.716549999999998, 212.59859999999998 17.716549999999998, 177.1655 0, 177.1655 0, 141.73239999999998 17.716549999999998, 141.73239999999998 17.716549999999998, 106.2993 0, 106.2993 0, 53.14965 17.716549999999998, 53.14965 "/> 
</g>
<!-- Right--> 
<g transform="translate(1879.1944585, 483.1303185) " > 
<polygon style="stroke:#000000; fill:none; stroke-width:0.90000074" points="17.716549999999998, 0 44.291375, 0 44.291375, 17.716549999999998 88.58275, 17.716549999999998 88.58275, 0 124.01585, 0 124.01585, 17.716549999999998 159.44895, 17.716549999999998 159.44895, 0 194.88205, 0 194.88205, 17.716549999999998 230.31515, 17.716549999999998 230.31515, 0 265.74825, 0 265.74825, 17.716549999999998 310.039625, 17.716549999999998 310.039625, 0 336.61445000000003, 0 336.61445000000003, 53.14965 354.331, 53.14965 354.331, 106.2993 336.61445000000003, 106.2993 336.61445000000003, 141.73239999999998 354.331, 141.73239999999998 354.331, 177.1655 336.61445000000003, 177.1655 336.61445000000003, 212.59859999999998 354.331, 212.59859999999998 354.331, 248.0317 336.61445000000003, 248.0317 336.61445000000003, 283.46479999999997 354.331, 283.46479999999997 354.331, 318.8979 336.61445000000003, 318.8979 336.61445000000003, 354.33099999999996 354.331, 354.33099999999996 354.331, 407.48064999999997 336.61445000000003, 407.48064999999997 336.61445000000003, 460.6303 310.039625, 460.6303 310.039625, 442.91375 265.74825, 442.91375 265.74825, 460.6303 230.31515, 460.6303 230.31515, 442.91375 194.88205, 442.91375 194.88205, 460.6303 159.44895, 460.6303 159.44895, 442.91375 124.01585, 442.91375 124.01585, 460.6303 88.58275, 460.6303 88.58275, 442.91375 44.291375, 442.91375 44.291375, 460.6303 17.716549999999998, 460.6303 17.716549999999998, 407.48064999999997 0, 407.48064999999997 0, 354.33099999999996 17.716549999999998, 354.33099999999996 17.716549999999998, 318.8979 0, 318.8979 0, 283.46479999999997 17.716549999999998, 283.46479999999997 17.716549999999998, 248.0317 0, 248.0317 0, 212.59859999999998 17.716549999999998, 212.59859999999998 17.716549999999998, 177.1655 0, 177.1655 0, 141.73239999999998 17.716549999999998, 141.73239999999998 17.716549999999998, 106.2993 0, 106.2993 0, 53.14965 17.716549999999998, 53.14965 "/> 
</g>
<!-- Top--> 
<g transform="translate(22.5000185, 483.1303185) " > 
 <circle cx="475.28064082150036" cy="143.97566605167935" r="5.314965" style="stroke:#000000;stroke-width:0.90000074;fill:none" /> 
 <circle cx="474.80354" cy="212.5986" r="5.314965" style="stroke:#000000;stroke-width:0.90000074;fill:none" /> 
 <circle cx="453.54368" cy="212.5986" r="5.314965" style="stroke:#000000;stroke-width:0.90000074;fill:none" /> 
 <circle cx="453.54368" cy="141.73239999999998" r="5.314965" style="stroke:#000000;stroke-width:0.90000074;fill:none" /> 
 <rect x="446.45706" y="155.90564" width="15.944894999999999" height="15.944894999999999" rx="15.413398499999998" ry="15.413398499999998" style="stroke:#000000;stroke-width:0.90000074;fill:none" /> 
 <rect x="446.45706" y="184.25212" width="15.944894999999999" height="15.944894999999999" rx="15.413398499999998" ry="15.413398499999998" style="stroke:#000000;stroke-width:0.90000074;fill:none" /> 
 <rect x="467.71692" y="155.90564" width="15.944894999999999" height="15.944894999999999" rx="15.413398499999998" ry="15.413398499999998" style="stroke:#000000;stroke-width:0.90000074;fill:none" /> 
 <circle cx="850.3944" cy="177.1655" r="10.62993" style="stroke:#000000;stroke-width:0.90000074;fill:none" /> 
 <rect x="467.71692" y="155.90564" width="15.944894999999999" height="15.944894999999999" rx="15.413398499999998" ry="15.413398499999998" style="stroke:#000000;stroke-width:0.90000074;fill:none" /> 
 <rect x="467.71692" y="184.25212" width="15.944894999999999" height="15.944894999999999" rx="15.413398499999998" ry="15.413398499999998" style="stroke:#000000;stroke-width:0.90000074;fill:none" /> 
 <rect x="446.45706" y="155.90564" width="15.944894999999999" height="15.944894999999999" rx="15.413398499999998" ry="15.413398499999998" style="stroke:#000000;stroke-width:0.90000074;fill:none" /> 
<polygon style="stroke:#000000; fill:none; stroke-width:0.90000074" points="17.716549999999998, 17.716549999999998 46.06303, 17.716549999999998 46.06303, 0 92.12606, 0 92.12606, 17.716549999999998 127.55915999999999, 17.716549999999998 127.55915999999999, 0 162.99226, 0 162.99226, 17.716549999999998 198.42535999999998, 17.716549999999998 198.42535999999998, 0 233.85845999999998, 0 233.85845999999998, 17.716549999999998 269.29156, 17.716549999999998 269.29156, 0 304.72466, 0 304.72466, 17.716549999999998 340.15775999999994, 17.716549999999998 340.15775999999994, 0 375.59085999999996, 0 375.59085999999996, 17.716549999999998 411.02395999999993, 17.716549999999998 411.02395999999993, 0 446.45705999999996, 0 446.45705999999996, 17.716549999999998 481.89016, 17.716549999999998 481.89016, 0 517.3232599999999, 0 517.3232599999999, 17.716549999999998 552.7563599999999, 17.716549999999998 552.7563599999999, 0 588.1894599999999, 0 588.1894599999999, 17.716549999999998 623.62256, 17.716549999999998 623.62256, 0 659.05566, 0 659.05566, 17.716549999999998 694.48876, 17.716549999999998 694.48876, 0 729.9218599999999, 0 729.9218599999999, 17.716549999999998 765.3549599999999, 17.716549999999998 765.3549599999999, 0 800.7880599999999, 0 800.7880599999999, 17.716549999999998 836.2211599999998, 17.716549999999998 836.2211599999998, 0 882.2841899999999, 0 882.2841899999999, 17.716549999999998 910.63067, 17.716549999999998 910.63067, 44.291375 928.34722, 44.291375 928.34722, 88.58275 910.63067, 88.58275 910.63067, 124.01585 928.34722, 124.01585 928.34722, 159.44895 910.63067, 159.44895 910.63067, 194.88205 928.34722, 194.88205 928.34722, 230.31515 910.63067, 230.31515 910.63067, 265.74825 928.34722, 265.74825 928.34722, 310.039625 910.63067, 310.039625 910.6306699999999, 336.61445000000003 882.2841899999999, 336.61445000000003 882.2841899999999, 354.331 836.2211599999998, 354.331 836.2211599999998, 336.61445000000003 800.7880599999999, 336.61445000000003 800.7880599999999, 354.331 765.3549599999999, 354.331 765.3549599999999, 336.61445000000003 729.9218599999999, 336.61445000000003 729.9218599999999, 354.331 694.48876, 354.331 694.48876, 336.61445000000003 659.05566, 336.61445000000003 659.05566, 354.331 623.62256, 354.331 623.62256, 336.61445000000003 588.1894599999999, 336.61445000000003 588.1894599999999, 354.331 552.7563599999999, 354.331 552.7563599999999, 336.61445000000003 517.3232599999999, 336.61445000000003 517.3232599999999, 354.331 481.89016, 354.331 481.89016, 336.61445000000003 446.45705999999996, 336.61445000000003 446.45705999999996, 354.331 411.02395999999993, 354.331 411.02395999999993, 336.61445000000003 375.59085999999996, 336.61445000000003 375.59085999999996, 354.331 340.15775999999994, 354.331 340.15775999999994, 336.61445000000003 304.72466, 336.61445000000003 304.72466, 354.331 269.29156, 354.331 269.29156, 336.61445000000003 233.85845999999998, 336.61445000000003 233.85845999999998, 354.331 198.42535999999998, 354.331 198.42535999999998, 336.61445000000003 162.99226, 336.61445000000003 162.99226, 354.331 127.55915999999999, 354.331 127.55915999999999, 336.61445000000003 92.12606, 336.61445000000003 92.12606, 354.331 46.06303, 354.331 46.06303, 336.61445000000003 17.716549999999998, 336.61445000000003 17.716549999999998, 310.039625 0, 310.039625 0, 265.74825 17.716549999999998, 265.74825 17.716549999999998, 230.31515 0, 230.31515 0, 194.88205 17.716549999999998, 194.88205 17.716549999999998, 159.44895 0, 159.44895 0, 124.01585 17.716549999999998, 124.01585 17.716549999999998, 88.58275 0, 88.58275 0, 44.291375 17.716549999999998, 44.291375 "/> 
</g>
<!-- Bottom--> 
<g transform="translate(950.8472385000001, 483.1303185) " > 
<polygon style="stroke:#000000; fill:none; stroke-width:0.90000074" points="17.716549999999998, 17.716549999999998 46.06303, 17.716549999999998 46.06303, 0 92.12606, 0 92.12606, 17.716549999999998 127.55915999999999, 17.716549999999998 127.55915999999999, 0 162.99226, 0 162.99226, 17.716549999999998 198.42535999999998, 17.716549999999998 198.42535999999998, 0 233.85845999999998, 0 233.85845999999998, 17.716549999999998 269.29156, 17.716549999999998 269.29156, 0 304.72466, 0 304.72466, 17.716549999999998 340.15775999999994, 17.716549999999998 340.15775999999994, 0 375.59085999999996, 0 375.59085999999996, 17.716549999999998 411.02395999999993, 17.716549999999998 411.02395999999993, 0 446.45705999999996, 0 446.45705999999996, 17.716549999999998 481.89016, 17.716549999999998 481.89016, 0 517.3232599999999, 0 517.3232599999999, 17.716549999999998 552.7563599999999, 17.716549999999998 552.7563599999999, 0 588.1894599999999, 0 588.1894599999999, 17.716549999999998 623.62256, 17.716549999999998 623.62256, 0 659.05566, 0 659.05566, 17.716549999999998 694.48876, 17.716549999999998 694.48876, 0 729.9218599999999, 0 729.9218599999999, 17.716549999999998 765.3549599999999, 17.716549999999998 765.3549599999999, 0 800.7880599999999, 0 800.7880599999999, 17.716549999999998 836.2211599999998, 17.716549999999998 836.2211599999998, 0 882.2841899999999, 0 882.2841899999999, 17.716549999999998 910.63067, 17.716549999999998 910.63067, 44.291375 928.34722, 44.291375 928.34722, 88.58275 910.63067, 88.58275 910.63067, 124.01585 928.34722, 124.01585 928.34722, 159.44895 910.63067, 159.44895 910.63067, 194.88205 928.34722, 194.88205 928.34722, 230.31515 910.63067, 230.31515 910.63067, 265.74825 928.34722, 265.74825 928.34722, 310.039625 910.63067, 310.039625 910.6306699999999, 336.61445000000003 882.2841899999999, 336.61445000000003 882.2841899999999, 354.331 836.2211599999998, 354.331 836.2211599999998, 336.61445000000003 800.7880599999999, 336.61445000000003 800.7880599999999, 354.331 765.3549599999999, 354.331 765.3549599999999, 336.61445000000003 729.9218599999999, 336.61445000000003 729.9218599999999, 354.331 694.48876, 354.331 694.48876, 336.61445000000003 659.05566, 336.61445000000003 659.05566, 354.331 623.62256, 354.331 623.62256, 336.61445000000003 588.1894599999999, 336.61445000000003 588.1894599999999, 354.331 552.7563599999999, 354.331 552.7563599999999, 336.61445000000003 517.3232599999999, 336.61445000000003 517.3232599999999, 354.331 481.89016, 354.331 481.89016, 336.61445000000003 446.45705999999996, 336.61445000000003 446.45705999999996, 354.331 411.02395999999993, 354.331 411.02395999999993, 336.61445000000003 375.59085999999996, 336.61445000000003 375.59085999999996, 354.331 340.15775999999994, 354.331 340.15775999999994, 336.61445000000003 304.72466, 336.61445000000003 304.72466, 354.331 269.29156, 354.331 269.29156, 336.61445000000003 233.85845999999998, 336.61445000000003 233.85845999999998, 354.331 198.42535999999998, 354.331 198.42535999999998, 336.61445000000003 162.99226, 336.61445000000003 162.99226, 354.331 127.55915999999999, 354.331 127.55915999999999, 336.61445000000003 92.12606, 336.61445000000003 92.12606, 354.331 46.06303, 354.331 46.06303, 336.61445000000003 17.716549999999998, 336.61445000000003 17.716549999999998, 310.039625 0, 310.039625 0, 265.74825 17.716549999999998, 265.74825 17.716549999999998, 230.31515 0, 230.31515 0, 194.88205 17.716549999999998, 194.88205 17.716549999999998, 159.44895 0, 159.44895 0, 124.01585 17.716549999999998, 124.01585 17.716549999999998, 88.58275 0, 88.58275 0, 44.291375 17.716549999999998, 44.291375 "/> 
</g></svg>