<?xml version="1.0" encoding="UTF-8" standalone="no"?>
<svg
   xmlns:dc="http://purl.org/dc/elements/1.1/"
   xmlns:cc="http://creativecommons.org/ns#"
   xmlns:rdf="http://www.w3.org/1999/02/22-rdf-syntax-ns#"
   xmlns:svg="http://www.w3.org/2000/svg"
   xmlns="http://www.w3.org/2000/svg"
   xmlns:sodipodi="http://sodipodi.sourceforge.net/DTD/sodipodi-0.dtd"
   xmlns:inkscape="http://www.inkscape.org/namespaces/inkscape"
   version="1.1"
   width="636.7mm"
   height="272.7mm"
   viewBox=" 0 0 2256.025477 966.260637"
   id="svg7173"
   inkscape:version="0.91 r13725"
   sodipodi:docname="hochkant.svg">
  <metadata
     id="metadata7235">
    <rdf:RDF>
      <cc:Work
         rdf:about="">
        <dc:format>image/svg+xml</dc:format>
        <dc:type
           rdf:resource="http://purl.org/dc/dcmitype/StillImage" />
        <dc:title></dc:title>
      </cc:Work>
    </rdf:RDF>
  </metadata>
  <defs
     id="defs7233" />
  <sodipodi:namedview
     pagecolor="#ffffff"
     bordercolor="#666666"
     borderopacity="1"
     objecttolerance="10"
     gridtolerance="10"
     guidetolerance="10"
     inkscape:pageopacity="0"
     inkscape:pageshadow="2"
     inkscape:window-width="1920"
     inkscape:window-height="1073"
     id="namedview7231"
     showgrid="false"
     inkscape:zoom="0.32"
     inkscape:cx="893.92991"
     inkscape:cy="802.06326"
     inkscape:window-x="0"
     inkscape:window-y="1"
     inkscape:window-maximized="1"
     inkscape:current-layer="svg7173" />
  <!-- Front-->
  <g
     transform="matrix(0,1,-1,0,464.83622,2.1993377)"
     id="g7175">
    <rect
       x="839.41016"
       y="230.31516"
       width="29.055141"
       height="77.95282"
       rx="10.62993"
       ry="10.62993"
       style="fill:none;stroke:#000000;stroke-width:0.90000075"
       id="rect7177" />
    <rect
       x="59.881939"
       y="230.31516"
       width="29.055141"
       height="77.95282"
       rx="10.62993"
       ry="10.62993"
       style="fill:none;stroke:#000000;stroke-width:0.90000075"
       id="rect7179" />
    <rect
       x="704.76434"
       y="230.31516"
       width="21.968521"
       height="77.95282"
       rx="10.62993"
       ry="10.62993"
       style="fill:none;stroke:#000000;stroke-width:0.90000075"
       id="rect7181" />
    <rect
       x="201.61433"
       y="230.31516"
       width="21.968521"
       height="77.95282"
       rx="10.62993"
       ry="10.62993"
       style="fill:none;stroke:#000000;stroke-width:0.90000075"
       id="rect7183" />
    <polygon
       style="fill:none;stroke:#000000;stroke-width:0.90000075"
       points="46.06303,17.71655 92.12606,17.71655 92.12606,0 127.55916,0 127.55916,17.71655 162.99226,17.71655 162.99226,0 198.42536,0 198.42536,17.71655 233.85846,17.71655 233.85846,0 269.29156,0 269.29156,17.71655 304.72466,17.71655 304.72466,0 340.15776,0 340.15776,17.71655 375.59086,17.71655 375.59086,0 411.02396,0 411.02396,17.71655 446.45706,17.71655 446.45706,0 481.89016,0 481.89016,17.71655 517.32326,17.71655 517.32326,0 552.75636,0 552.75636,17.71655 588.18946,17.71655 588.18946,0 623.62256,0 623.62256,17.71655 659.05566,17.71655 659.05566,0 694.48876,0 694.48876,17.71655 729.92186,17.71655 729.92186,0 765.35496,0 765.35496,17.71655 800.78806,17.71655 800.78806,0 836.22116,0 836.22116,17.71655 882.28419,17.71655 882.28419,0 928.34722,0 928.34722,53.14965 910.63067,53.14965 910.63067,106.2993 928.34722,106.2993 928.34722,141.7324 910.63067,141.7324 910.63067,177.1655 928.34722,177.1655 928.34722,212.5986 910.63067,212.5986 910.63067,248.0317 928.34722,248.0317 928.34722,283.4648 910.63067,283.4648 910.63067,318.8979 928.34722,318.8979 928.34722,354.331 910.63067,354.331 910.63067,407.48065 928.34722,407.48065 928.34722,460.6303 882.28419,460.6303 882.28419,442.91375 836.22116,442.91375 836.22116,460.6303 800.78806,460.6303 800.78806,442.91375 765.35496,442.91375 765.35496,460.6303 729.92186,460.6303 729.92186,442.91375 694.48876,442.91375 694.48876,460.6303 659.05566,460.6303 659.05566,442.91375 623.62256,442.91375 623.62256,460.6303 588.18946,460.6303 588.18946,442.91375 552.75636,442.91375 552.75636,460.6303 517.32326,460.6303 517.32326,442.91375 481.89016,442.91375 481.89016,460.6303 446.45706,460.6303 446.45706,442.91375 411.02396,442.91375 411.02396,460.6303 375.59086,460.6303 375.59086,442.91375 340.15776,442.91375 340.15776,460.6303 304.72466,460.6303 304.72466,442.91375 269.29156,442.91375 269.29156,460.6303 233.85846,460.6303 233.85846,442.91375 198.42536,442.91375 198.42536,460.6303 162.99226,460.6303 162.99226,442.91375 127.55916,442.91375 127.55916,460.6303 92.12606,460.6303 92.12606,442.91375 46.06303,442.91375 46.06303,460.6303 0,460.6303 0,407.48065 17.71655,407.48065 17.71655,354.331 0,354.331 0,318.8979 17.71655,318.8979 17.71655,283.4648 0,283.4648 0,248.0317 17.71655,248.0317 17.71655,212.5986 0,212.5986 0,177.1655 17.71655,177.1655 17.71655,141.7324 0,141.7324 0,106.2993 17.71655,106.2993 17.71655,53.14965 0,53.14965 0,0 46.06303,0 "
       id="polygon7185" />
    <rect
       x="446.42163"
       y="230.31516"
       width="36.141762"
       height="77.95282"
       rx="10.62993"
       ry="10.62993"
       style="fill:none;stroke:#000000;stroke-width:0.90000075"
       id="rect7187" />
  </g>
  <!-- Back-->
  <g
     transform="matrix(0,-1,1,0,784.75587,930.02037)"
     id="g7189">
    <polygon
       style="fill:none;stroke:#000000;stroke-width:0.90000075"
       points="92.12606,17.71655 92.12606,0 127.55916,0 127.55916,17.71655 162.99226,17.71655 162.99226,0 198.42536,0 198.42536,17.71655 233.85846,17.71655 233.85846,0 269.29156,0 269.29156,17.71655 304.72466,17.71655 304.72466,0 340.15776,0 340.15776,17.71655 375.59086,17.71655 375.59086,0 411.02396,0 411.02396,17.71655 446.45706,17.71655 446.45706,0 481.89016,0 481.89016,17.71655 517.32326,17.71655 517.32326,0 552.75636,0 552.75636,17.71655 588.18946,17.71655 588.18946,0 623.62256,0 623.62256,17.71655 659.05566,17.71655 659.05566,0 694.48876,0 694.48876,17.71655 729.92186,17.71655 729.92186,0 765.35496,0 765.35496,17.71655 800.78806,17.71655 800.78806,0 836.22116,0 836.22116,17.71655 882.28419,17.71655 882.28419,0 928.34722,0 928.34722,53.14965 910.63067,53.14965 910.63067,106.2993 928.34722,106.2993 928.34722,141.7324 910.63067,141.7324 910.63067,177.1655 928.34722,177.1655 928.34722,212.5986 910.63067,212.5986 910.63067,248.0317 928.34722,248.0317 928.34722,283.4648 910.63067,283.4648 910.63067,318.8979 928.34722,318.8979 928.34722,354.331 910.63067,354.331 910.63067,407.48065 928.34722,407.48065 928.34722,460.6303 882.28419,460.6303 882.28419,442.91375 836.22116,442.91375 836.22116,460.6303 800.78806,460.6303 800.78806,442.91375 765.35496,442.91375 765.35496,460.6303 729.92186,460.6303 729.92186,442.91375 694.48876,442.91375 694.48876,460.6303 659.05566,460.6303 659.05566,442.91375 623.62256,442.91375 623.62256,460.6303 588.18946,460.6303 588.18946,442.91375 552.75636,442.91375 552.75636,460.6303 517.32326,460.6303 517.32326,442.91375 481.89016,442.91375 481.89016,460.6303 446.45706,460.6303 446.45706,442.91375 411.02396,442.91375 411.02396,460.6303 375.59086,460.6303 375.59086,442.91375 340.15776,442.91375 340.15776,460.6303 304.72466,460.6303 304.72466,442.91375 269.29156,442.91375 269.29156,460.6303 233.85846,460.6303 233.85846,442.91375 198.42536,442.91375 198.42536,460.6303 162.99226,460.6303 162.99226,442.91375 127.55916,442.91375 127.55916,460.6303 92.12606,460.6303 92.12606,442.91375 46.06303,442.91375 46.06303,460.6303 0,460.6303 0,407.48065 17.71655,407.48065 17.71655,354.331 0,354.331 0,318.8979 17.71655,318.8979 17.71655,283.4648 0,283.4648 0,248.0317 17.71655,248.0317 17.71655,212.5986 0,212.5986 0,177.1655 17.71655,177.1655 17.71655,141.7324 0,141.7324 0,106.2993 17.71655,106.2993 17.71655,53.14965 0,53.14965 0,0 46.06303,0 46.06303,17.71655 "
       id="polygon7191" />
  </g>
  <!-- Left-->
  <g
     transform="translate(1588.5692,3.7500039)"
     id="g7193">
    <polygon
       style="fill:none;stroke:#000000;stroke-width:0.90000075"
       points="44.291375,0 44.291375,17.71655 88.58275,17.71655 88.58275,0 124.01585,0 124.01585,17.71655 159.44895,17.71655 159.44895,0 194.88205,0 194.88205,17.71655 230.31515,17.71655 230.31515,0 265.74825,0 265.74825,17.71655 310.03963,17.71655 310.03963,0 336.61445,0 336.61445,53.14965 354.331,53.14965 354.331,106.2993 336.61445,106.2993 336.61445,141.7324 354.331,141.7324 354.331,177.1655 336.61445,177.1655 336.61445,212.5986 354.331,212.5986 354.331,248.0317 336.61445,248.0317 336.61445,283.4648 354.331,283.4648 354.331,318.8979 336.61445,318.8979 336.61445,354.331 354.331,354.331 354.331,407.48065 336.61445,407.48065 336.61445,460.6303 310.03963,460.6303 310.03963,442.91375 265.74825,442.91375 265.74825,460.6303 230.31515,460.6303 230.31515,442.91375 194.88205,442.91375 194.88205,460.6303 159.44895,460.6303 159.44895,442.91375 124.01585,442.91375 124.01585,460.6303 88.58275,460.6303 88.58275,442.91375 44.291375,442.91375 44.291375,460.6303 17.71655,460.6303 17.71655,407.48065 0,407.48065 0,354.331 17.71655,354.331 17.71655,318.8979 0,318.8979 0,283.4648 17.71655,283.4648 17.71655,248.0317 0,248.0317 0,212.5986 17.71655,212.5986 17.71655,177.1655 0,177.1655 0,141.7324 17.71655,141.7324 17.71655,106.2993 0,106.2993 0,53.14965 17.71655,53.14965 17.71655,0 "
       id="polygon7195" />
  </g>
  <!-- Right-->
  <g
     transform="translate(1597.9442,473.75531)"
     id="g7197">
    <polygon
       style="fill:none;stroke:#000000;stroke-width:0.90000075"
       points="44.291375,0 44.291375,17.71655 88.58275,17.71655 88.58275,0 124.01585,0 124.01585,17.71655 159.44895,17.71655 159.44895,0 194.88205,0 194.88205,17.71655 230.31515,17.71655 230.31515,0 265.74825,0 265.74825,17.71655 310.03963,17.71655 310.03963,0 336.61445,0 336.61445,53.14965 354.331,53.14965 354.331,106.2993 336.61445,106.2993 336.61445,141.7324 354.331,141.7324 354.331,177.1655 336.61445,177.1655 336.61445,212.5986 354.331,212.5986 354.331,248.0317 336.61445,248.0317 336.61445,283.4648 354.331,283.4648 354.331,318.8979 336.61445,318.8979 336.61445,354.331 354.331,354.331 354.331,407.48065 336.61445,407.48065 336.61445,460.6303 310.03963,460.6303 310.03963,442.91375 265.74825,442.91375 265.74825,460.6303 230.31515,460.6303 230.31515,442.91375 194.88205,442.91375 194.88205,460.6303 159.44895,460.6303 159.44895,442.91375 124.01585,442.91375 124.01585,460.6303 88.58275,460.6303 88.58275,442.91375 44.291375,442.91375 44.291375,460.6303 17.71655,460.6303 17.71655,407.48065 0,407.48065 0,354.331 17.71655,354.331 17.71655,318.8979 0,318.8979 0,283.4648 17.71655,283.4648 17.71655,248.0317 0,248.0317 0,212.5986 17.71655,212.5986 17.71655,177.1655 0,177.1655 0,141.7324 17.71655,141.7324 17.71655,106.2993 0,106.2993 0,53.14965 17.71655,53.14965 17.71655,0 "
       id="polygon7199" />
  </g>
  <!-- Top-->
  <g
     transform="matrix(0,-1,1,0,447.80608,930.53067)"
     id="g7201">
    <circle
       cx="475.28064"
       cy="143.97566"
       r="5.3149648"
       style="fill:none;stroke:#000000;stroke-width:0.90000075"
       id="circle7203" />
    <circle
       cx="474.80353"
       cy="212.5986"
       r="5.3149648"
       style="fill:none;stroke:#000000;stroke-width:0.90000075"
       id="circle7205" />
    <circle
       cx="453.54367"
       cy="212.5986"
       r="5.3149648"
       style="fill:none;stroke:#000000;stroke-width:0.90000075"
       id="circle7207" />
    <circle
       cx="453.54367"
       cy="141.73241"
       r="5.3149648"
       style="fill:none;stroke:#000000;stroke-width:0.90000075"
       id="circle7209" />
    <rect
       x="446.45706"
       y="155.90564"
       width="15.944895"
       height="15.944895"
       rx="15.413399"
       ry="15.413399"
       style="fill:none;stroke:#000000;stroke-width:0.90000075"
       id="rect7211" />
    <rect
       x="446.45706"
       y="184.25212"
       width="15.944895"
       height="15.944895"
       rx="15.413399"
       ry="15.413399"
       style="fill:none;stroke:#000000;stroke-width:0.90000075"
       id="rect7213" />
    <rect
       x="467.71692"
       y="155.90564"
       width="15.944895"
       height="15.944895"
       rx="15.413399"
       ry="15.413399"
       style="fill:none;stroke:#000000;stroke-width:0.90000075"
       id="rect7215" />
    <circle
       cx="850.39441"
       cy="177.1655"
       r="10.62993"
       style="fill:none;stroke:#000000;stroke-width:0.90000075"
       id="circle7217" />
    <rect
       x="467.71692"
       y="155.90564"
       width="15.944895"
       height="15.944895"
       rx="15.413399"
       ry="15.413399"
       style="fill:none;stroke:#000000;stroke-width:0.90000075"
       id="rect7219" />
    <rect
       x="467.71692"
       y="184.25212"
       width="15.944895"
       height="15.944895"
       rx="15.413399"
       ry="15.413399"
       style="fill:none;stroke:#000000;stroke-width:0.90000075"
       id="rect7221" />
    <rect
       x="446.45706"
       y="155.90564"
       width="15.944895"
       height="15.944895"
       rx="15.413399"
       ry="15.413399"
       style="fill:none;stroke:#000000;stroke-width:0.90000075"
       id="rect7223" />
    <polygon
       style="fill:none;stroke:#000000;stroke-width:0.90000075"
       points="127.55916,17.71655 127.55916,0 162.99226,0 162.99226,17.71655 198.42536,17.71655 198.42536,0 233.85846,0 233.85846,17.71655 269.29156,17.71655 269.29156,0 304.72466,0 304.72466,17.71655 340.15776,17.71655 340.15776,0 375.59086,0 375.59086,17.71655 411.02396,17.71655 411.02396,0 446.45706,0 446.45706,17.71655 481.89016,17.71655 481.89016,0 517.32326,0 517.32326,17.71655 552.75636,17.71655 552.75636,0 588.18946,0 588.18946,17.71655 623.62256,17.71655 623.62256,0 659.05566,0 659.05566,17.71655 694.48876,17.71655 694.48876,0 729.92186,0 729.92186,17.71655 765.35496,17.71655 765.35496,0 800.78806,0 800.78806,17.71655 836.22116,17.71655 836.22116,0 882.28419,0 882.28419,17.71655 910.63067,17.71655 910.63067,44.291375 928.34722,44.291375 928.34722,88.58275 910.63067,88.58275 910.63067,124.01585 928.34722,124.01585 928.34722,159.44895 910.63067,159.44895 910.63067,194.88205 928.34722,194.88205 928.34722,230.31515 910.63067,230.31515 910.63067,265.74825 928.34722,265.74825 928.34722,310.03963 910.63067,310.03963 910.63067,336.61445 882.28419,336.61445 882.28419,354.331 836.22116,354.331 836.22116,336.61445 800.78806,336.61445 800.78806,354.331 765.35496,354.331 765.35496,336.61445 729.92186,336.61445 729.92186,354.331 694.48876,354.331 694.48876,336.61445 659.05566,336.61445 659.05566,354.331 623.62256,354.331 623.62256,336.61445 588.18946,336.61445 588.18946,354.331 552.75636,354.331 552.75636,336.61445 517.32326,336.61445 517.32326,354.331 481.89016,354.331 481.89016,336.61445 446.45706,336.61445 446.45706,354.331 411.02396,354.331 411.02396,336.61445 375.59086,336.61445 375.59086,354.331 340.15776,354.331 340.15776,336.61445 304.72466,336.61445 304.72466,354.331 269.29156,354.331 269.29156,336.61445 233.85846,336.61445 233.85846,354.331 198.42536,354.331 198.42536,336.61445 162.99226,336.61445 162.99226,354.331 127.55916,354.331 127.55916,336.61445 92.12606,336.61445 92.12606,354.331 46.06303,354.331 46.06303,336.61445 17.71655,336.61445 17.71655,310.03963 0,310.03963 0,265.74825 17.71655,265.74825 17.71655,230.31515 0,230.31515 0,194.88205 17.71655,194.88205 17.71655,159.44895 0,159.44895 0,124.01585 17.71655,124.01585 17.71655,88.58275 0,88.58275 0,44.291375 17.71655,44.291375 17.71655,17.71655 46.06303,17.71655 46.06303,0 92.12606,0 92.12606,17.71655 "
       id="polygon7225" />
  </g>
  <!-- Bottom-->
  <g
     transform="matrix(0,-1,1,0,1227.8442,929.45045)"
     id="g7227">
    <polygon
       style="fill:none;stroke:#000000;stroke-width:0.90000075"
       points="162.99226,0 162.99226,17.71655 198.42536,17.71655 198.42536,0 233.85846,0 233.85846,17.71655 269.29156,17.71655 269.29156,0 304.72466,0 304.72466,17.71655 340.15776,17.71655 340.15776,0 375.59086,0 375.59086,17.71655 411.02396,17.71655 411.02396,0 446.45706,0 446.45706,17.71655 481.89016,17.71655 481.89016,0 517.32326,0 517.32326,17.71655 552.75636,17.71655 552.75636,0 588.18946,0 588.18946,17.71655 623.62256,17.71655 623.62256,0 659.05566,0 659.05566,17.71655 694.48876,17.71655 694.48876,0 729.92186,0 729.92186,17.71655 765.35496,17.71655 765.35496,0 800.78806,0 800.78806,17.71655 836.22116,17.71655 836.22116,0 882.28419,0 882.28419,17.71655 910.63067,17.71655 910.63067,44.291375 928.34722,44.291375 928.34722,88.58275 910.63067,88.58275 910.63067,124.01585 928.34722,124.01585 928.34722,159.44895 910.63067,159.44895 910.63067,194.88205 928.34722,194.88205 928.34722,230.31515 910.63067,230.31515 910.63067,265.74825 928.34722,265.74825 928.34722,310.03963 910.63067,310.03963 910.63067,336.61445 882.28419,336.61445 882.28419,354.331 836.22116,354.331 836.22116,336.61445 800.78806,336.61445 800.78806,354.331 765.35496,354.331 765.35496,336.61445 729.92186,336.61445 729.92186,354.331 694.48876,354.331 694.48876,336.61445 659.05566,336.61445 659.05566,354.331 623.62256,354.331 623.62256,336.61445 588.18946,336.61445 588.18946,354.331 552.75636,354.331 552.75636,336.61445 517.32326,336.61445 517.32326,354.331 481.89016,354.331 481.89016,336.61445 446.45706,336.61445 446.45706,354.331 411.02396,354.331 411.02396,336.61445 375.59086,336.61445 375.59086,354.331 340.15776,354.331 340.15776,336.61445 304.72466,336.61445 304.72466,354.331 269.29156,354.331 269.29156,336.61445 233.85846,336.61445 233.85846,354.331 198.42536,354.331 198.42536,336.61445 162.99226,336.61445 162.99226,354.331 127.55916,354.331 127.55916,336.61445 92.12606,336.61445 92.12606,354.331 46.06303,354.331 46.06303,336.61445 17.71655,336.61445 17.71655,310.03963 0,310.03963 0,265.74825 17.71655,265.74825 17.71655,230.31515 0,230.31515 0,194.88205 17.71655,194.88205 17.71655,159.44895 0,159.44895 0,124.01585 17.71655,124.01585 17.71655,88.58275 0,88.58275 0,44.291375 17.71655,44.291375 17.71655,17.71655 46.06303,17.71655 46.06303,0 92.12606,0 92.12606,17.71655 127.55916,17.71655 127.55916,0 "
       id="polygon7229" />
  </g>
</svg>
