  0
SECTION
  2
BLOCKS
  0
ENDSEC
  0
SECTION
  2
ENTITIES
  0
LINE
  8
0
 10
-35
 11
-35
 20
-22.5
 21
22.5
  0
LINE
  8
0
 10
-35
 11
35
 20
22.5
 21
22.5
  0
LINE
  8
0
 10
35
 11
35
 20
22.5
 21
-22.5
  0
LINE
  8
0
 10
35
 11
-35
 20
-22.5
 21
-22.5
  0
LINE
  8
0
 10
-30
 11
-30
 20
-10
 21
10
  0
LINE
  8
0
 10
-30
 11
-29.951
 20
10
 21
10.626
  0
LINE
  8
0
 10
-29.951
 11
-29.804
 20
10.626
 21
11.236
  0
LINE
  8
0
 10
-29.804
 11
-29.564
 20
11.236
 21
11.816
  0
LINE
  8
0
 10
-29.564
 11
-29.236
 20
11.816
 21
12.351
  0
LINE
  8
0
 10
-29.236
 11
-28.828
 20
12.351
 21
12.828
  0
LINE
  8
0
 10
-28.828
 11
-28.351
 20
12.828
 21
13.236
  0
LINE
  8
0
 10
-28.351
 11
-27.816
 20
13.236
 21
13.564
  0
LINE
  8
0
 10
-27.816
 11
-27.236
 20
13.564
 21
13.804
  0
LINE
  8
0
 10
-27.236
 11
-26.626
 20
13.804
 21
13.951
  0
LINE
  8
0
 10
-26.626
 11
-26
 20
13.951
 21
14
  0
LINE
  8
0
 10
-26
 11
-25.374
 20
14
 21
13.951
  0
LINE
  8
0
 10
-25.374
 11
-24.764
 20
13.951
 21
13.804
  0
LINE
  8
0
 10
-24.764
 11
-24.184
 20
13.804
 21
13.564
  0
LINE
  8
0
 10
-24.184
 11
-23.649
 20
13.564
 21
13.236
  0
LINE
  8
0
 10
-23.649
 11
-23.172
 20
13.236
 21
12.828
  0
LINE
  8
0
 10
-23.172
 11
-22.764
 20
12.828
 21
12.351
  0
LINE
  8
0
 10
-22.764
 11
-22.436
 20
12.351
 21
11.816
  0
LINE
  8
0
 10
-22.436
 11
-22.196
 20
11.816
 21
11.236
  0
LINE
  8
0
 10
-22.196
 11
-22.049
 20
11.236
 21
10.626
  0
LINE
  8
0
 10
-22.049
 11
-22
 20
10.626
 21
10
  0
LINE
  8
0
 10
-22
 11
-22
 20
10
 21
-10
  0
LINE
  8
0
 10
-22
 11
-22.049
 20
-10
 21
-10.626
  0
LINE
  8
0
 10
-22.049
 11
-22.196
 20
-10.626
 21
-11.236
  0
LINE
  8
0
 10
-22.196
 11
-22.436
 20
-11.236
 21
-11.816
  0
LINE
  8
0
 10
-22.436
 11
-22.764
 20
-11.816
 21
-12.351
  0
LINE
  8
0
 10
-22.764
 11
-23.172
 20
-12.351
 21
-12.828
  0
LINE
  8
0
 10
-23.172
 11
-23.649
 20
-12.828
 21
-13.236
  0
LINE
  8
0
 10
-23.649
 11
-24.184
 20
-13.236
 21
-13.564
  0
LINE
  8
0
 10
-24.184
 11
-24.764
 20
-13.564
 21
-13.804
  0
LINE
  8
0
 10
-24.764
 11
-25.374
 20
-13.804
 21
-13.951
  0
LINE
  8
0
 10
-25.374
 11
-26
 20
-13.951
 21
-14
  0
LINE
  8
0
 10
-26
 11
-26.626
 20
-14
 21
-13.951
  0
LINE
  8
0
 10
-26.626
 11
-27.236
 20
-13.951
 21
-13.804
  0
LINE
  8
0
 10
-27.236
 11
-27.816
 20
-13.804
 21
-13.564
  0
LINE
  8
0
 10
-27.816
 11
-28.351
 20
-13.564
 21
-13.236
  0
LINE
  8
0
 10
-28.351
 11
-28.828
 20
-13.236
 21
-12.828
  0
LINE
  8
0
 10
-28.828
 11
-29.236
 20
-12.828
 21
-12.351
  0
LINE
  8
0
 10
-29.236
 11
-29.564
 20
-12.351
 21
-11.816
  0
LINE
  8
0
 10
-29.564
 11
-29.804
 20
-11.816
 21
-11.236
  0
LINE
  8
0
 10
-29.804
 11
-29.951
 20
-11.236
 21
-10.626
  0
LINE
  8
0
 10
-29.951
 11
-30
 20
-10.626
 21
-10
  0
LINE
  8
0
 10
-11.1
 11
-10.963
 20
0
 21
1.736
  0
LINE
  8
0
 10
-10.963
 11
-10.557
 20
1.736
 21
3.43
  0
LINE
  8
0
 10
-10.557
 11
-9.89
 20
3.43
 21
5.039
  0
LINE
  8
0
 10
-9.89
 11
-8.98
 20
5.039
 21
6.524
  0
LINE
  8
0
 10
-8.98
 11
-7.849
 20
6.524
 21
7.849
  0
LINE
  8
0
 10
-7.849
 11
-6.524
 20
7.849
 21
8.98
  0
LINE
  8
0
 10
-6.524
 11
-5.039
 20
8.98
 21
9.89
  0
LINE
  8
0
 10
-5.039
 11
-3.43
 20
9.89
 21
10.557
  0
LINE
  8
0
 10
-3.43
 11
-1.736
 20
10.557
 21
10.963
  0
LINE
  8
0
 10
-1.736
 11
0
 20
10.963
 21
11.1
  0
LINE
  8
0
 10
0
 11
1.736
 20
11.1
 21
10.963
  0
LINE
  8
0
 10
1.736
 11
3.43
 20
10.963
 21
10.557
  0
LINE
  8
0
 10
3.43
 11
5.039
 20
10.557
 21
9.89
  0
LINE
  8
0
 10
5.039
 11
6.524
 20
9.89
 21
8.98
  0
LINE
  8
0
 10
6.524
 11
7.849
 20
8.98
 21
7.849
  0
LINE
  8
0
 10
7.849
 11
8.98
 20
7.849
 21
6.524
  0
LINE
  8
0
 10
8.98
 11
9.89
 20
6.524
 21
5.039
  0
LINE
  8
0
 10
9.89
 11
10.557
 20
5.039
 21
3.43
  0
LINE
  8
0
 10
10.557
 11
10.963
 20
3.43
 21
1.736
  0
LINE
  8
0
 10
10.963
 11
11.1
 20
1.736
 21
0
  0
LINE
  8
0
 10
11.1
 11
10.963
 20
0
 21
-1.736
  0
LINE
  8
0
 10
10.963
 11
10.557
 20
-1.736
 21
-3.43
  0
LINE
  8
0
 10
10.557
 11
9.89
 20
-3.43
 21
-5.039
  0
LINE
  8
0
 10
9.89
 11
8.98
 20
-5.039
 21
-6.524
  0
LINE
  8
0
 10
8.98
 11
7.849
 20
-6.524
 21
-7.849
  0
LINE
  8
0
 10
7.849
 11
6.524
 20
-7.849
 21
-8.98
  0
LINE
  8
0
 10
6.524
 11
5.039
 20
-8.98
 21
-9.89
  0
LINE
  8
0
 10
5.039
 11
3.43
 20
-9.89
 21
-10.557
  0
LINE
  8
0
 10
3.43
 11
1.736
 20
-10.557
 21
-10.963
  0
LINE
  8
0
 10
1.736
 11
0
 20
-10.963
 21
-11.1
  0
LINE
  8
0
 10
0
 11
-1.736
 20
-11.1
 21
-10.963
  0
LINE
  8
0
 10
-1.736
 11
-3.43
 20
-10.963
 21
-10.557
  0
LINE
  8
0
 10
-3.43
 11
-5.039
 20
-10.557
 21
-9.89
  0
LINE
  8
0
 10
-5.039
 11
-6.524
 20
-9.89
 21
-8.98
  0
LINE
  8
0
 10
-6.524
 11
-7.849
 20
-8.98
 21
-7.849
  0
LINE
  8
0
 10
-7.849
 11
-8.98
 20
-7.849
 21
-6.524
  0
LINE
  8
0
 10
-8.98
 11
-9.89
 20
-6.524
 21
-5.039
  0
LINE
  8
0
 10
-9.89
 11
-10.557
 20
-5.039
 21
-3.43
  0
LINE
  8
0
 10
-10.557
 11
-10.963
 20
-3.43
 21
-1.736
  0
LINE
  8
0
 10
-10.963
 11
-11.1
 20
-1.736
 21
0
  0
LINE
  8
0
 10
22
 11
22
 20
-10
 21
10
  0
LINE
  8
0
 10
22
 11
22.049
 20
10
 21
10.626
  0
LINE
  8
0
 10
22.049
 11
22.196
 20
10.626
 21
11.236
  0
LINE
  8
0
 10
22.196
 11
22.436
 20
11.236
 21
11.816
  0
LINE
  8
0
 10
22.436
 11
22.764
 20
11.816
 21
12.351
  0
LINE
  8
0
 10
22.764
 11
23.172
 20
12.351
 21
12.828
  0
LINE
  8
0
 10
23.172
 11
23.649
 20
12.828
 21
13.236
  0
LINE
  8
0
 10
23.649
 11
24.184
 20
13.236
 21
13.564
  0
LINE
  8
0
 10
24.184
 11
24.764
 20
13.564
 21
13.804
  0
LINE
  8
0
 10
24.764
 11
25.374
 20
13.804
 21
13.951
  0
LINE
  8
0
 10
25.374
 11
26
 20
13.951
 21
14
  0
LINE
  8
0
 10
26
 11
26.626
 20
14
 21
13.951
  0
LINE
  8
0
 10
26.626
 11
27.236
 20
13.951
 21
13.804
  0
LINE
  8
0
 10
27.236
 11
27.816
 20
13.804
 21
13.564
  0
LINE
  8
0
 10
27.816
 11
28.351
 20
13.564
 21
13.236
  0
LINE
  8
0
 10
28.351
 11
28.828
 20
13.236
 21
12.828
  0
LINE
  8
0
 10
28.828
 11
29.236
 20
12.828
 21
12.351
  0
LINE
  8
0
 10
29.236
 11
29.564
 20
12.351
 21
11.816
  0
LINE
  8
0
 10
29.564
 11
29.804
 20
11.816
 21
11.236
  0
LINE
  8
0
 10
29.804
 11
29.951
 20
11.236
 21
10.626
  0
LINE
  8
0
 10
29.951
 11
30
 20
10.626
 21
10
  0
LINE
  8
0
 10
30
 11
30
 20
10
 21
-10
  0
LINE
  8
0
 10
30
 11
29.951
 20
-10
 21
-10.626
  0
LINE
  8
0
 10
29.951
 11
29.804
 20
-10.626
 21
-11.236
  0
LINE
  8
0
 10
29.804
 11
29.564
 20
-11.236
 21
-11.816
  0
LINE
  8
0
 10
29.564
 11
29.236
 20
-11.816
 21
-12.351
  0
LINE
  8
0
 10
29.236
 11
28.828
 20
-12.351
 21
-12.828
  0
LINE
  8
0
 10
28.828
 11
28.351
 20
-12.828
 21
-13.236
  0
LINE
  8
0
 10
28.351
 11
27.816
 20
-13.236
 21
-13.564
  0
LINE
  8
0
 10
27.816
 11
27.236
 20
-13.564
 21
-13.804
  0
LINE
  8
0
 10
27.236
 11
26.626
 20
-13.804
 21
-13.951
  0
LINE
  8
0
 10
26.626
 11
26
 20
-13.951
 21
-14
  0
LINE
  8
0
 10
26
 11
25.374
 20
-14
 21
-13.951
  0
LINE
  8
0
 10
25.374
 11
24.764
 20
-13.951
 21
-13.804
  0
LINE
  8
0
 10
24.764
 11
24.184
 20
-13.804
 21
-13.564
  0
LINE
  8
0
 10
24.184
 11
23.649
 20
-13.564
 21
-13.236
  0
LINE
  8
0
 10
23.649
 11
23.172
 20
-13.236
 21
-12.828
  0
LINE
  8
0
 10
23.172
 11
22.764
 20
-12.828
 21
-12.351
  0
LINE
  8
0
 10
22.764
 11
22.436
 20
-12.351
 21
-11.816
  0
LINE
  8
0
 10
22.436
 11
22.196
 20
-11.816
 21
-11.236
  0
LINE
  8
0
 10
22.196
 11
22.049
 20
-11.236
 21
-10.626
  0
LINE
  8
0
 10
22.049
 11
22
 20
-10.626
 21
-10
  0
ENDSEC
  0
SECTION
  2
OBJECTS
  0
DICTIONARY
  0
ENDSEC
  0
EOF
