  0
SECTION
  2
BLOCKS
  0
ENDSEC
  0
SECTION
  2
ENTITIES
  0
LINE
  8
0
 10
-33
 11
-33
 20
-130
 21
130
  0
LINE
  8
0
 10
-33
 11
33
 20
130
 21
130
  0
LINE
  8
0
 10
33
 11
33
 20
130
 21
-130
  0
LINE
  8
0
 10
33
 11
-33
 20
-130
 21
-130
  0
LINE
  8
0
 10
-18
 11
-17.988
 20
-16.5
 21
-16.312
  0
LINE
  8
0
 10
-17.988
 11
-17.953
 20
-16.312
 21
-16.127
  0
LINE
  8
0
 10
-17.953
 11
-17.895
 20
-16.127
 21
-15.948
  0
LINE
  8
0
 10
-17.895
 11
-17.814
 20
-15.948
 21
-15.777
  0
LINE
  8
0
 10
-17.814
 11
-17.714
 20
-15.777
 21
-15.618
  0
LINE
  8
0
 10
-17.714
 11
-17.593
 20
-15.618
 21
-15.473
  0
LINE
  8
0
 10
-17.593
 11
-17.456
 20
-15.473
 21
-15.344
  0
LINE
  8
0
 10
-17.456
 11
-17.304
 20
-15.344
 21
-15.234
  0
LINE
  8
0
 10
-17.304
 11
-17.139
 20
-15.234
 21
-15.143
  0
LINE
  8
0
 10
-17.139
 11
-16.964
 20
-15.143
 21
-15.073
  0
LINE
  8
0
 10
-16.964
 11
-16.781
 20
-15.073
 21
-15.027
  0
LINE
  8
0
 10
-16.781
 11
-16.594
 20
-15.027
 21
-15.003
  0
LINE
  8
0
 10
-16.594
 11
-16.406
 20
-15.003
 21
-15.003
  0
LINE
  8
0
 10
-16.406
 11
-16.219
 20
-15.003
 21
-15.027
  0
LINE
  8
0
 10
-16.219
 11
-16.036
 20
-15.027
 21
-15.073
  0
LINE
  8
0
 10
-16.036
 11
-15.861
 20
-15.073
 21
-15.143
  0
LINE
  8
0
 10
-15.861
 11
-15.696
 20
-15.143
 21
-15.234
  0
LINE
  8
0
 10
-15.696
 11
-15.544
 20
-15.234
 21
-15.344
  0
LINE
  8
0
 10
-15.544
 11
-15.407
 20
-15.344
 21
-15.473
  0
LINE
  8
0
 10
-15.407
 11
-15.286
 20
-15.473
 21
-15.618
  0
LINE
  8
0
 10
-15.286
 11
-15.186
 20
-15.618
 21
-15.777
  0
LINE
  8
0
 10
-15.186
 11
-15.105
 20
-15.777
 21
-15.948
  0
LINE
  8
0
 10
-15.105
 11
-15.047
 20
-15.948
 21
-16.127
  0
LINE
  8
0
 10
-15.047
 11
-15.012
 20
-16.127
 21
-16.312
  0
LINE
  8
0
 10
-15.012
 11
-15
 20
-16.312
 21
-16.5
  0
LINE
  8
0
 10
-15
 11
-15.012
 20
-16.5
 21
-16.688
  0
LINE
  8
0
 10
-15.012
 11
-15.047
 20
-16.688
 21
-16.873
  0
LINE
  8
0
 10
-15.047
 11
-15.105
 20
-16.873
 21
-17.052
  0
LINE
  8
0
 10
-15.105
 11
-15.186
 20
-17.052
 21
-17.223
  0
LINE
  8
0
 10
-15.186
 11
-15.286
 20
-17.223
 21
-17.382
  0
LINE
  8
0
 10
-15.286
 11
-15.407
 20
-17.382
 21
-17.527
  0
LINE
  8
0
 10
-15.407
 11
-15.544
 20
-17.527
 21
-17.656
  0
LINE
  8
0
 10
-15.544
 11
-15.696
 20
-17.656
 21
-17.766
  0
LINE
  8
0
 10
-15.696
 11
-15.861
 20
-17.766
 21
-17.857
  0
LINE
  8
0
 10
-15.861
 11
-16.036
 20
-17.857
 21
-17.927
  0
LINE
  8
0
 10
-16.036
 11
-16.219
 20
-17.927
 21
-17.973
  0
LINE
  8
0
 10
-16.219
 11
-16.406
 20
-17.973
 21
-17.997
  0
LINE
  8
0
 10
-16.406
 11
-16.594
 20
-17.997
 21
-17.997
  0
LINE
  8
0
 10
-16.594
 11
-16.781
 20
-17.997
 21
-17.973
  0
LINE
  8
0
 10
-16.781
 11
-16.964
 20
-17.973
 21
-17.927
  0
LINE
  8
0
 10
-16.964
 11
-17.139
 20
-17.927
 21
-17.857
  0
LINE
  8
0
 10
-17.139
 11
-17.304
 20
-17.857
 21
-17.766
  0
LINE
  8
0
 10
-17.304
 11
-17.456
 20
-17.766
 21
-17.656
  0
LINE
  8
0
 10
-17.456
 11
-17.593
 20
-17.656
 21
-17.527
  0
LINE
  8
0
 10
-17.593
 11
-17.714
 20
-17.527
 21
-17.382
  0
LINE
  8
0
 10
-17.714
 11
-17.814
 20
-17.382
 21
-17.223
  0
LINE
  8
0
 10
-17.814
 11
-17.895
 20
-17.223
 21
-17.052
  0
LINE
  8
0
 10
-17.895
 11
-17.953
 20
-17.052
 21
-16.873
  0
LINE
  8
0
 10
-17.953
 11
-17.988
 20
-16.873
 21
-16.688
  0
LINE
  8
0
 10
-17.988
 11
-18
 20
-16.688
 21
-16.5
  0
LINE
  8
0
 10
-18
 11
-17.988
 20
16.5
 21
16.688
  0
LINE
  8
0
 10
-17.988
 11
-17.953
 20
16.688
 21
16.873
  0
LINE
  8
0
 10
-17.953
 11
-17.895
 20
16.873
 21
17.052
  0
LINE
  8
0
 10
-17.895
 11
-17.814
 20
17.052
 21
17.223
  0
LINE
  8
0
 10
-17.814
 11
-17.714
 20
17.223
 21
17.382
  0
LINE
  8
0
 10
-17.714
 11
-17.593
 20
17.382
 21
17.527
  0
LINE
  8
0
 10
-17.593
 11
-17.456
 20
17.527
 21
17.656
  0
LINE
  8
0
 10
-17.456
 11
-17.304
 20
17.656
 21
17.766
  0
LINE
  8
0
 10
-17.304
 11
-17.139
 20
17.766
 21
17.857
  0
LINE
  8
0
 10
-17.139
 11
-16.964
 20
17.857
 21
17.927
  0
LINE
  8
0
 10
-16.964
 11
-16.781
 20
17.927
 21
17.973
  0
LINE
  8
0
 10
-16.781
 11
-16.594
 20
17.973
 21
17.997
  0
LINE
  8
0
 10
-16.594
 11
-16.406
 20
17.997
 21
17.997
  0
LINE
  8
0
 10
-16.406
 11
-16.219
 20
17.997
 21
17.973
  0
LINE
  8
0
 10
-16.219
 11
-16.036
 20
17.973
 21
17.927
  0
LINE
  8
0
 10
-16.036
 11
-15.861
 20
17.927
 21
17.857
  0
LINE
  8
0
 10
-15.861
 11
-15.696
 20
17.857
 21
17.766
  0
LINE
  8
0
 10
-15.696
 11
-15.544
 20
17.766
 21
17.656
  0
LINE
  8
0
 10
-15.544
 11
-15.407
 20
17.656
 21
17.527
  0
LINE
  8
0
 10
-15.407
 11
-15.286
 20
17.527
 21
17.382
  0
LINE
  8
0
 10
-15.286
 11
-15.186
 20
17.382
 21
17.223
  0
LINE
  8
0
 10
-15.186
 11
-15.105
 20
17.223
 21
17.052
  0
LINE
  8
0
 10
-15.105
 11
-15.047
 20
17.052
 21
16.873
  0
LINE
  8
0
 10
-15.047
 11
-15.012
 20
16.873
 21
16.688
  0
LINE
  8
0
 10
-15.012
 11
-15
 20
16.688
 21
16.5
  0
LINE
  8
0
 10
-15
 11
-15.012
 20
16.5
 21
16.312
  0
LINE
  8
0
 10
-15.012
 11
-15.047
 20
16.312
 21
16.127
  0
LINE
  8
0
 10
-15.047
 11
-15.105
 20
16.127
 21
15.948
  0
LINE
  8
0
 10
-15.105
 11
-15.186
 20
15.948
 21
15.777
  0
LINE
  8
0
 10
-15.186
 11
-15.286
 20
15.777
 21
15.618
  0
LINE
  8
0
 10
-15.286
 11
-15.407
 20
15.618
 21
15.473
  0
LINE
  8
0
 10
-15.407
 11
-15.544
 20
15.473
 21
15.344
  0
LINE
  8
0
 10
-15.544
 11
-15.696
 20
15.344
 21
15.234
  0
LINE
  8
0
 10
-15.696
 11
-15.861
 20
15.234
 21
15.143
  0
LINE
  8
0
 10
-15.861
 11
-16.036
 20
15.143
 21
15.073
  0
LINE
  8
0
 10
-16.036
 11
-16.219
 20
15.073
 21
15.027
  0
LINE
  8
0
 10
-16.219
 11
-16.406
 20
15.027
 21
15.003
  0
LINE
  8
0
 10
-16.406
 11
-16.594
 20
15.003
 21
15.003
  0
LINE
  8
0
 10
-16.594
 11
-16.781
 20
15.003
 21
15.027
  0
LINE
  8
0
 10
-16.781
 11
-16.964
 20
15.027
 21
15.073
  0
LINE
  8
0
 10
-16.964
 11
-17.139
 20
15.073
 21
15.143
  0
LINE
  8
0
 10
-17.139
 11
-17.304
 20
15.143
 21
15.234
  0
LINE
  8
0
 10
-17.304
 11
-17.456
 20
15.234
 21
15.344
  0
LINE
  8
0
 10
-17.456
 11
-17.593
 20
15.344
 21
15.473
  0
LINE
  8
0
 10
-17.593
 11
-17.714
 20
15.473
 21
15.618
  0
LINE
  8
0
 10
-17.714
 11
-17.814
 20
15.618
 21
15.777
  0
LINE
  8
0
 10
-17.814
 11
-17.895
 20
15.777
 21
15.948
  0
LINE
  8
0
 10
-17.895
 11
-17.953
 20
15.948
 21
16.127
  0
LINE
  8
0
 10
-17.953
 11
-17.988
 20
16.127
 21
16.312
  0
LINE
  8
0
 10
-17.988
 11
-18
 20
16.312
 21
16.5
  0
LINE
  8
0
 10
-3
 11
-2.976
 20
-110
 21
-109.624
  0
LINE
  8
0
 10
-2.976
 11
-2.906
 20
-109.624
 21
-109.254
  0
LINE
  8
0
 10
-2.906
 11
-2.789
 20
-109.254
 21
-108.896
  0
LINE
  8
0
 10
-2.789
 11
-2.629
 20
-108.896
 21
-108.555
  0
LINE
  8
0
 10
-2.629
 11
-2.427
 20
-108.555
 21
-108.237
  0
LINE
  8
0
 10
-2.427
 11
-2.187
 20
-108.237
 21
-107.946
  0
LINE
  8
0
 10
-2.187
 11
-1.912
 20
-107.946
 21
-107.688
  0
LINE
  8
0
 10
-1.912
 11
-1.607
 20
-107.688
 21
-107.467
  0
LINE
  8
0
 10
-1.607
 11
-1.277
 20
-107.467
 21
-107.286
  0
LINE
  8
0
 10
-1.277
 11
-0.927
 20
-107.286
 21
-107.147
  0
LINE
  8
0
 10
-0.927
 11
-0.562
 20
-107.147
 21
-107.053
  0
LINE
  8
0
 10
-0.562
 11
-0.188
 20
-107.053
 21
-107.006
  0
LINE
  8
0
 10
-0.188
 11
0.188
 20
-107.006
 21
-107.006
  0
LINE
  8
0
 10
0.188
 11
0.562
 20
-107.006
 21
-107.053
  0
LINE
  8
0
 10
0.562
 11
0.927
 20
-107.053
 21
-107.147
  0
LINE
  8
0
 10
0.927
 11
1.277
 20
-107.147
 21
-107.286
  0
LINE
  8
0
 10
1.277
 11
1.607
 20
-107.286
 21
-107.467
  0
LINE
  8
0
 10
1.607
 11
1.912
 20
-107.467
 21
-107.688
  0
LINE
  8
0
 10
1.912
 11
2.187
 20
-107.688
 21
-107.946
  0
LINE
  8
0
 10
2.187
 11
2.427
 20
-107.946
 21
-108.237
  0
LINE
  8
0
 10
2.427
 11
2.629
 20
-108.237
 21
-108.555
  0
LINE
  8
0
 10
2.629
 11
2.789
 20
-108.555
 21
-108.896
  0
LINE
  8
0
 10
2.789
 11
2.906
 20
-108.896
 21
-109.254
  0
LINE
  8
0
 10
2.906
 11
2.976
 20
-109.254
 21
-109.624
  0
LINE
  8
0
 10
2.976
 11
3
 20
-109.624
 21
-110
  0
LINE
  8
0
 10
3
 11
2.976
 20
-110
 21
-110.376
  0
LINE
  8
0
 10
2.976
 11
2.906
 20
-110.376
 21
-110.746
  0
LINE
  8
0
 10
2.906
 11
2.789
 20
-110.746
 21
-111.104
  0
LINE
  8
0
 10
2.789
 11
2.629
 20
-111.104
 21
-111.445
  0
LINE
  8
0
 10
2.629
 11
2.427
 20
-111.445
 21
-111.763
  0
LINE
  8
0
 10
2.427
 11
2.187
 20
-111.763
 21
-112.054
  0
LINE
  8
0
 10
2.187
 11
1.912
 20
-112.054
 21
-112.312
  0
LINE
  8
0
 10
1.912
 11
1.607
 20
-112.312
 21
-112.533
  0
LINE
  8
0
 10
1.607
 11
1.277
 20
-112.533
 21
-112.714
  0
LINE
  8
0
 10
1.277
 11
0.927
 20
-112.714
 21
-112.853
  0
LINE
  8
0
 10
0.927
 11
0.562
 20
-112.853
 21
-112.947
  0
LINE
  8
0
 10
0.562
 11
0.188
 20
-112.947
 21
-112.994
  0
LINE
  8
0
 10
0.188
 11
-0.188
 20
-112.994
 21
-112.994
  0
LINE
  8
0
 10
-0.188
 11
-0.562
 20
-112.994
 21
-112.947
  0
LINE
  8
0
 10
-0.562
 11
-0.927
 20
-112.947
 21
-112.853
  0
LINE
  8
0
 10
-0.927
 11
-1.277
 20
-112.853
 21
-112.714
  0
LINE
  8
0
 10
-1.277
 11
-1.607
 20
-112.714
 21
-112.533
  0
LINE
  8
0
 10
-1.607
 11
-1.912
 20
-112.533
 21
-112.312
  0
LINE
  8
0
 10
-1.912
 11
-2.187
 20
-112.312
 21
-112.054
  0
LINE
  8
0
 10
-2.187
 11
-2.427
 20
-112.054
 21
-111.763
  0
LINE
  8
0
 10
-2.427
 11
-2.629
 20
-111.763
 21
-111.445
  0
LINE
  8
0
 10
-2.629
 11
-2.789
 20
-111.445
 21
-111.104
  0
LINE
  8
0
 10
-2.789
 11
-2.906
 20
-111.104
 21
-110.746
  0
LINE
  8
0
 10
-2.906
 11
-2.976
 20
-110.746
 21
-110.376
  0
LINE
  8
0
 10
-2.976
 11
-3
 20
-110.376
 21
-110
  0
LINE
  8
0
 10
-3
 11
-2.976
 20
110
 21
110.376
  0
LINE
  8
0
 10
-2.976
 11
-2.906
 20
110.376
 21
110.746
  0
LINE
  8
0
 10
-2.906
 11
-2.789
 20
110.746
 21
111.104
  0
LINE
  8
0
 10
-2.789
 11
-2.629
 20
111.104
 21
111.445
  0
LINE
  8
0
 10
-2.629
 11
-2.427
 20
111.445
 21
111.763
  0
LINE
  8
0
 10
-2.427
 11
-2.187
 20
111.763
 21
112.054
  0
LINE
  8
0
 10
-2.187
 11
-1.912
 20
112.054
 21
112.312
  0
LINE
  8
0
 10
-1.912
 11
-1.607
 20
112.312
 21
112.533
  0
LINE
  8
0
 10
-1.607
 11
-1.277
 20
112.533
 21
112.714
  0
LINE
  8
0
 10
-1.277
 11
-0.927
 20
112.714
 21
112.853
  0
LINE
  8
0
 10
-0.927
 11
-0.562
 20
112.853
 21
112.947
  0
LINE
  8
0
 10
-0.562
 11
-0.188
 20
112.947
 21
112.994
  0
LINE
  8
0
 10
-0.188
 11
0.188
 20
112.994
 21
112.994
  0
LINE
  8
0
 10
0.188
 11
0.562
 20
112.994
 21
112.947
  0
LINE
  8
0
 10
0.562
 11
0.927
 20
112.947
 21
112.853
  0
LINE
  8
0
 10
0.927
 11
1.277
 20
112.853
 21
112.714
  0
LINE
  8
0
 10
1.277
 11
1.607
 20
112.714
 21
112.533
  0
LINE
  8
0
 10
1.607
 11
1.912
 20
112.533
 21
112.312
  0
LINE
  8
0
 10
1.912
 11
2.187
 20
112.312
 21
112.054
  0
LINE
  8
0
 10
2.187
 11
2.427
 20
112.054
 21
111.763
  0
LINE
  8
0
 10
2.427
 11
2.629
 20
111.763
 21
111.445
  0
LINE
  8
0
 10
2.629
 11
2.789
 20
111.445
 21
111.104
  0
LINE
  8
0
 10
2.789
 11
2.906
 20
111.104
 21
110.746
  0
LINE
  8
0
 10
2.906
 11
2.976
 20
110.746
 21
110.376
  0
LINE
  8
0
 10
2.976
 11
3
 20
110.376
 21
110
  0
LINE
  8
0
 10
3
 11
2.976
 20
110
 21
109.624
  0
LINE
  8
0
 10
2.976
 11
2.906
 20
109.624
 21
109.254
  0
LINE
  8
0
 10
2.906
 11
2.789
 20
109.254
 21
108.896
  0
LINE
  8
0
 10
2.789
 11
2.629
 20
108.896
 21
108.555
  0
LINE
  8
0
 10
2.629
 11
2.427
 20
108.555
 21
108.237
  0
LINE
  8
0
 10
2.427
 11
2.187
 20
108.237
 21
107.946
  0
LINE
  8
0
 10
2.187
 11
1.912
 20
107.946
 21
107.688
  0
LINE
  8
0
 10
1.912
 11
1.607
 20
107.688
 21
107.467
  0
LINE
  8
0
 10
1.607
 11
1.277
 20
107.467
 21
107.286
  0
LINE
  8
0
 10
1.277
 11
0.927
 20
107.286
 21
107.147
  0
LINE
  8
0
 10
0.927
 11
0.562
 20
107.147
 21
107.053
  0
LINE
  8
0
 10
0.562
 11
0.188
 20
107.053
 21
107.006
  0
LINE
  8
0
 10
0.188
 11
-0.188
 20
107.006
 21
107.006
  0
LINE
  8
0
 10
-0.188
 11
-0.562
 20
107.006
 21
107.053
  0
LINE
  8
0
 10
-0.562
 11
-0.927
 20
107.053
 21
107.147
  0
LINE
  8
0
 10
-0.927
 11
-1.277
 20
107.147
 21
107.286
  0
LINE
  8
0
 10
-1.277
 11
-1.607
 20
107.286
 21
107.467
  0
LINE
  8
0
 10
-1.607
 11
-1.912
 20
107.467
 21
107.688
  0
LINE
  8
0
 10
-1.912
 11
-2.187
 20
107.688
 21
107.946
  0
LINE
  8
0
 10
-2.187
 11
-2.427
 20
107.946
 21
108.237
  0
LINE
  8
0
 10
-2.427
 11
-2.629
 20
108.237
 21
108.555
  0
LINE
  8
0
 10
-2.629
 11
-2.789
 20
108.555
 21
108.896
  0
LINE
  8
0
 10
-2.789
 11
-2.906
 20
108.896
 21
109.254
  0
LINE
  8
0
 10
-2.906
 11
-2.976
 20
109.254
 21
109.624
  0
LINE
  8
0
 10
-2.976
 11
-3
 20
109.624
 21
110
  0
LINE
  8
0
 10
15
 11
15.012
 20
-16.5
 21
-16.312
  0
LINE
  8
0
 10
15.012
 11
15.047
 20
-16.312
 21
-16.127
  0
LINE
  8
0
 10
15.047
 11
15.105
 20
-16.127
 21
-15.948
  0
LINE
  8
0
 10
15.105
 11
15.186
 20
-15.948
 21
-15.777
  0
LINE
  8
0
 10
15.186
 11
15.286
 20
-15.777
 21
-15.618
  0
LINE
  8
0
 10
15.286
 11
15.407
 20
-15.618
 21
-15.473
  0
LINE
  8
0
 10
15.407
 11
15.544
 20
-15.473
 21
-15.344
  0
LINE
  8
0
 10
15.544
 11
15.696
 20
-15.344
 21
-15.234
  0
LINE
  8
0
 10
15.696
 11
15.861
 20
-15.234
 21
-15.143
  0
LINE
  8
0
 10
15.861
 11
16.036
 20
-15.143
 21
-15.073
  0
LINE
  8
0
 10
16.036
 11
16.219
 20
-15.073
 21
-15.027
  0
LINE
  8
0
 10
16.219
 11
16.406
 20
-15.027
 21
-15.003
  0
LINE
  8
0
 10
16.406
 11
16.594
 20
-15.003
 21
-15.003
  0
LINE
  8
0
 10
16.594
 11
16.781
 20
-15.003
 21
-15.027
  0
LINE
  8
0
 10
16.781
 11
16.964
 20
-15.027
 21
-15.073
  0
LINE
  8
0
 10
16.964
 11
17.139
 20
-15.073
 21
-15.143
  0
LINE
  8
0
 10
17.139
 11
17.304
 20
-15.143
 21
-15.234
  0
LINE
  8
0
 10
17.304
 11
17.456
 20
-15.234
 21
-15.344
  0
LINE
  8
0
 10
17.456
 11
17.593
 20
-15.344
 21
-15.473
  0
LINE
  8
0
 10
17.593
 11
17.714
 20
-15.473
 21
-15.618
  0
LINE
  8
0
 10
17.714
 11
17.814
 20
-15.618
 21
-15.777
  0
LINE
  8
0
 10
17.814
 11
17.895
 20
-15.777
 21
-15.948
  0
LINE
  8
0
 10
17.895
 11
17.953
 20
-15.948
 21
-16.127
  0
LINE
  8
0
 10
17.953
 11
17.988
 20
-16.127
 21
-16.312
  0
LINE
  8
0
 10
17.988
 11
18
 20
-16.312
 21
-16.5
  0
LINE
  8
0
 10
18
 11
17.988
 20
-16.5
 21
-16.688
  0
LINE
  8
0
 10
17.988
 11
17.953
 20
-16.688
 21
-16.873
  0
LINE
  8
0
 10
17.953
 11
17.895
 20
-16.873
 21
-17.052
  0
LINE
  8
0
 10
17.895
 11
17.814
 20
-17.052
 21
-17.223
  0
LINE
  8
0
 10
17.814
 11
17.714
 20
-17.223
 21
-17.382
  0
LINE
  8
0
 10
17.714
 11
17.593
 20
-17.382
 21
-17.527
  0
LINE
  8
0
 10
17.593
 11
17.456
 20
-17.527
 21
-17.656
  0
LINE
  8
0
 10
17.456
 11
17.304
 20
-17.656
 21
-17.766
  0
LINE
  8
0
 10
17.304
 11
17.139
 20
-17.766
 21
-17.857
  0
LINE
  8
0
 10
17.139
 11
16.964
 20
-17.857
 21
-17.927
  0
LINE
  8
0
 10
16.964
 11
16.781
 20
-17.927
 21
-17.973
  0
LINE
  8
0
 10
16.781
 11
16.594
 20
-17.973
 21
-17.997
  0
LINE
  8
0
 10
16.594
 11
16.406
 20
-17.997
 21
-17.997
  0
LINE
  8
0
 10
16.406
 11
16.219
 20
-17.997
 21
-17.973
  0
LINE
  8
0
 10
16.219
 11
16.036
 20
-17.973
 21
-17.927
  0
LINE
  8
0
 10
16.036
 11
15.861
 20
-17.927
 21
-17.857
  0
LINE
  8
0
 10
15.861
 11
15.696
 20
-17.857
 21
-17.766
  0
LINE
  8
0
 10
15.696
 11
15.544
 20
-17.766
 21
-17.656
  0
LINE
  8
0
 10
15.544
 11
15.407
 20
-17.656
 21
-17.527
  0
LINE
  8
0
 10
15.407
 11
15.286
 20
-17.527
 21
-17.382
  0
LINE
  8
0
 10
15.286
 11
15.186
 20
-17.382
 21
-17.223
  0
LINE
  8
0
 10
15.186
 11
15.105
 20
-17.223
 21
-17.052
  0
LINE
  8
0
 10
15.105
 11
15.047
 20
-17.052
 21
-16.873
  0
LINE
  8
0
 10
15.047
 11
15.012
 20
-16.873
 21
-16.688
  0
LINE
  8
0
 10
15.012
 11
15
 20
-16.688
 21
-16.5
  0
LINE
  8
0
 10
15
 11
15.012
 20
16.5
 21
16.688
  0
LINE
  8
0
 10
15.012
 11
15.047
 20
16.688
 21
16.873
  0
LINE
  8
0
 10
15.047
 11
15.105
 20
16.873
 21
17.052
  0
LINE
  8
0
 10
15.105
 11
15.186
 20
17.052
 21
17.223
  0
LINE
  8
0
 10
15.186
 11
15.286
 20
17.223
 21
17.382
  0
LINE
  8
0
 10
15.286
 11
15.407
 20
17.382
 21
17.527
  0
LINE
  8
0
 10
15.407
 11
15.544
 20
17.527
 21
17.656
  0
LINE
  8
0
 10
15.544
 11
15.696
 20
17.656
 21
17.766
  0
LINE
  8
0
 10
15.696
 11
15.861
 20
17.766
 21
17.857
  0
LINE
  8
0
 10
15.861
 11
16.036
 20
17.857
 21
17.927
  0
LINE
  8
0
 10
16.036
 11
16.219
 20
17.927
 21
17.973
  0
LINE
  8
0
 10
16.219
 11
16.406
 20
17.973
 21
17.997
  0
LINE
  8
0
 10
16.406
 11
16.594
 20
17.997
 21
17.997
  0
LINE
  8
0
 10
16.594
 11
16.781
 20
17.997
 21
17.973
  0
LINE
  8
0
 10
16.781
 11
16.964
 20
17.973
 21
17.927
  0
LINE
  8
0
 10
16.964
 11
17.139
 20
17.927
 21
17.857
  0
LINE
  8
0
 10
17.139
 11
17.304
 20
17.857
 21
17.766
  0
LINE
  8
0
 10
17.304
 11
17.456
 20
17.766
 21
17.656
  0
LINE
  8
0
 10
17.456
 11
17.593
 20
17.656
 21
17.527
  0
LINE
  8
0
 10
17.593
 11
17.714
 20
17.527
 21
17.382
  0
LINE
  8
0
 10
17.714
 11
17.814
 20
17.382
 21
17.223
  0
LINE
  8
0
 10
17.814
 11
17.895
 20
17.223
 21
17.052
  0
LINE
  8
0
 10
17.895
 11
17.953
 20
17.052
 21
16.873
  0
LINE
  8
0
 10
17.953
 11
17.988
 20
16.873
 21
16.688
  0
LINE
  8
0
 10
17.988
 11
18
 20
16.688
 21
16.5
  0
LINE
  8
0
 10
18
 11
17.988
 20
16.5
 21
16.312
  0
LINE
  8
0
 10
17.988
 11
17.953
 20
16.312
 21
16.127
  0
LINE
  8
0
 10
17.953
 11
17.895
 20
16.127
 21
15.948
  0
LINE
  8
0
 10
17.895
 11
17.814
 20
15.948
 21
15.777
  0
LINE
  8
0
 10
17.814
 11
17.714
 20
15.777
 21
15.618
  0
LINE
  8
0
 10
17.714
 11
17.593
 20
15.618
 21
15.473
  0
LINE
  8
0
 10
17.593
 11
17.456
 20
15.473
 21
15.344
  0
LINE
  8
0
 10
17.456
 11
17.304
 20
15.344
 21
15.234
  0
LINE
  8
0
 10
17.304
 11
17.139
 20
15.234
 21
15.143
  0
LINE
  8
0
 10
17.139
 11
16.964
 20
15.143
 21
15.073
  0
LINE
  8
0
 10
16.964
 11
16.781
 20
15.073
 21
15.027
  0
LINE
  8
0
 10
16.781
 11
16.594
 20
15.027
 21
15.003
  0
LINE
  8
0
 10
16.594
 11
16.406
 20
15.003
 21
15.003
  0
LINE
  8
0
 10
16.406
 11
16.219
 20
15.003
 21
15.027
  0
LINE
  8
0
 10
16.219
 11
16.036
 20
15.027
 21
15.073
  0
LINE
  8
0
 10
16.036
 11
15.861
 20
15.073
 21
15.143
  0
LINE
  8
0
 10
15.861
 11
15.696
 20
15.143
 21
15.234
  0
LINE
  8
0
 10
15.696
 11
15.544
 20
15.234
 21
15.344
  0
LINE
  8
0
 10
15.544
 11
15.407
 20
15.344
 21
15.473
  0
LINE
  8
0
 10
15.407
 11
15.286
 20
15.473
 21
15.618
  0
LINE
  8
0
 10
15.286
 11
15.186
 20
15.618
 21
15.777
  0
LINE
  8
0
 10
15.186
 11
15.105
 20
15.777
 21
15.948
  0
LINE
  8
0
 10
15.105
 11
15.047
 20
15.948
 21
16.127
  0
LINE
  8
0
 10
15.047
 11
15.012
 20
16.127
 21
16.312
  0
LINE
  8
0
 10
15.012
 11
15
 20
16.312
 21
16.5
  0
ENDSEC
  0
SECTION
  2
OBJECTS
  0
DICTIONARY
  0
ENDSEC
  0
EOF
