  0
SECTION
  2
BLOCKS
  0
ENDSEC
  0
SECTION
  2
ENTITIES
  0
LINE
  8
0
 10
-33
 11
-33
 20
-33
 21
33
  0
LINE
  8
0
 10
-33
 11
33
 20
33
 21
33
  0
LINE
  8
0
 10
33
 11
33
 20
33
 21
-33
  0
LINE
  8
0
 10
33
 11
-33
 20
-33
 21
-33
  0
LINE
  8
0
 10
-18
 11
-17.927
 20
-16.5
 21
-16.036
  0
LINE
  8
0
 10
-17.927
 11
-17.714
 20
-16.036
 21
-15.618
  0
LINE
  8
0
 10
-17.714
 11
-17.382
 20
-15.618
 21
-15.286
  0
LINE
  8
0
 10
-17.382
 11
-16.964
 20
-15.286
 21
-15.073
  0
LINE
  8
0
 10
-16.964
 11
-16.5
 20
-15.073
 21
-15
  0
LINE
  8
0
 10
-16.5
 11
-16.036
 20
-15
 21
-15.073
  0
LINE
  8
0
 10
-16.036
 11
-15.618
 20
-15.073
 21
-15.286
  0
LINE
  8
0
 10
-15.618
 11
-15.286
 20
-15.286
 21
-15.618
  0
LINE
  8
0
 10
-15.286
 11
-15.073
 20
-15.618
 21
-16.036
  0
LINE
  8
0
 10
-15.073
 11
-15
 20
-16.036
 21
-16.5
  0
LINE
  8
0
 10
-15
 11
-15.073
 20
-16.5
 21
-16.964
  0
LINE
  8
0
 10
-15.073
 11
-15.286
 20
-16.964
 21
-17.382
  0
LINE
  8
0
 10
-15.286
 11
-15.618
 20
-17.382
 21
-17.714
  0
LINE
  8
0
 10
-15.618
 11
-16.036
 20
-17.714
 21
-17.927
  0
LINE
  8
0
 10
-16.036
 11
-16.5
 20
-17.927
 21
-18
  0
LINE
  8
0
 10
-16.5
 11
-16.964
 20
-18
 21
-17.927
  0
LINE
  8
0
 10
-16.964
 11
-17.382
 20
-17.927
 21
-17.714
  0
LINE
  8
0
 10
-17.382
 11
-17.714
 20
-17.714
 21
-17.382
  0
LINE
  8
0
 10
-17.714
 11
-17.927
 20
-17.382
 21
-16.964
  0
LINE
  8
0
 10
-17.927
 11
-18
 20
-16.964
 21
-16.5
  0
LINE
  8
0
 10
-18
 11
-17.927
 20
16.5
 21
16.964
  0
LINE
  8
0
 10
-17.927
 11
-17.714
 20
16.964
 21
17.382
  0
LINE
  8
0
 10
-17.714
 11
-17.382
 20
17.382
 21
17.714
  0
LINE
  8
0
 10
-17.382
 11
-16.964
 20
17.714
 21
17.927
  0
LINE
  8
0
 10
-16.964
 11
-16.5
 20
17.927
 21
18
  0
LINE
  8
0
 10
-16.5
 11
-16.036
 20
18
 21
17.927
  0
LINE
  8
0
 10
-16.036
 11
-15.618
 20
17.927
 21
17.714
  0
LINE
  8
0
 10
-15.618
 11
-15.286
 20
17.714
 21
17.382
  0
LINE
  8
0
 10
-15.286
 11
-15.073
 20
17.382
 21
16.964
  0
LINE
  8
0
 10
-15.073
 11
-15
 20
16.964
 21
16.5
  0
LINE
  8
0
 10
-15
 11
-15.073
 20
16.5
 21
16.036
  0
LINE
  8
0
 10
-15.073
 11
-15.286
 20
16.036
 21
15.618
  0
LINE
  8
0
 10
-15.286
 11
-15.618
 20
15.618
 21
15.286
  0
LINE
  8
0
 10
-15.618
 11
-16.036
 20
15.286
 21
15.073
  0
LINE
  8
0
 10
-16.036
 11
-16.5
 20
15.073
 21
15
  0
LINE
  8
0
 10
-16.5
 11
-16.964
 20
15
 21
15.073
  0
LINE
  8
0
 10
-16.964
 11
-17.382
 20
15.073
 21
15.286
  0
LINE
  8
0
 10
-17.382
 11
-17.714
 20
15.286
 21
15.618
  0
LINE
  8
0
 10
-17.714
 11
-17.927
 20
15.618
 21
16.036
  0
LINE
  8
0
 10
-17.927
 11
-18
 20
16.036
 21
16.5
  0
LINE
  8
0
 10
15
 11
15.073
 20
-16.5
 21
-16.036
  0
LINE
  8
0
 10
15.073
 11
15.286
 20
-16.036
 21
-15.618
  0
LINE
  8
0
 10
15.286
 11
15.618
 20
-15.618
 21
-15.286
  0
LINE
  8
0
 10
15.618
 11
16.036
 20
-15.286
 21
-15.073
  0
LINE
  8
0
 10
16.036
 11
16.5
 20
-15.073
 21
-15
  0
LINE
  8
0
 10
16.5
 11
16.964
 20
-15
 21
-15.073
  0
LINE
  8
0
 10
16.964
 11
17.382
 20
-15.073
 21
-15.286
  0
LINE
  8
0
 10
17.382
 11
17.714
 20
-15.286
 21
-15.618
  0
LINE
  8
0
 10
17.714
 11
17.927
 20
-15.618
 21
-16.036
  0
LINE
  8
0
 10
17.927
 11
18
 20
-16.036
 21
-16.5
  0
LINE
  8
0
 10
18
 11
17.927
 20
-16.5
 21
-16.964
  0
LINE
  8
0
 10
17.927
 11
17.714
 20
-16.964
 21
-17.382
  0
LINE
  8
0
 10
17.714
 11
17.382
 20
-17.382
 21
-17.714
  0
LINE
  8
0
 10
17.382
 11
16.964
 20
-17.714
 21
-17.927
  0
LINE
  8
0
 10
16.964
 11
16.5
 20
-17.927
 21
-18
  0
LINE
  8
0
 10
16.5
 11
16.036
 20
-18
 21
-17.927
  0
LINE
  8
0
 10
16.036
 11
15.618
 20
-17.927
 21
-17.714
  0
LINE
  8
0
 10
15.618
 11
15.286
 20
-17.714
 21
-17.382
  0
LINE
  8
0
 10
15.286
 11
15.073
 20
-17.382
 21
-16.964
  0
LINE
  8
0
 10
15.073
 11
15
 20
-16.964
 21
-16.5
  0
LINE
  8
0
 10
15
 11
15.073
 20
16.5
 21
16.964
  0
LINE
  8
0
 10
15.073
 11
15.286
 20
16.964
 21
17.382
  0
LINE
  8
0
 10
15.286
 11
15.618
 20
17.382
 21
17.714
  0
LINE
  8
0
 10
15.618
 11
16.036
 20
17.714
 21
17.927
  0
LINE
  8
0
 10
16.036
 11
16.5
 20
17.927
 21
18
  0
LINE
  8
0
 10
16.5
 11
16.964
 20
18
 21
17.927
  0
LINE
  8
0
 10
16.964
 11
17.382
 20
17.927
 21
17.714
  0
LINE
  8
0
 10
17.382
 11
17.714
 20
17.714
 21
17.382
  0
LINE
  8
0
 10
17.714
 11
17.927
 20
17.382
 21
16.964
  0
LINE
  8
0
 10
17.927
 11
18
 20
16.964
 21
16.5
  0
LINE
  8
0
 10
18
 11
17.927
 20
16.5
 21
16.036
  0
LINE
  8
0
 10
17.927
 11
17.714
 20
16.036
 21
15.618
  0
LINE
  8
0
 10
17.714
 11
17.382
 20
15.618
 21
15.286
  0
LINE
  8
0
 10
17.382
 11
16.964
 20
15.286
 21
15.073
  0
LINE
  8
0
 10
16.964
 11
16.5
 20
15.073
 21
15
  0
LINE
  8
0
 10
16.5
 11
16.036
 20
15
 21
15.073
  0
LINE
  8
0
 10
16.036
 11
15.618
 20
15.073
 21
15.286
  0
LINE
  8
0
 10
15.618
 11
15.286
 20
15.286
 21
15.618
  0
LINE
  8
0
 10
15.286
 11
15.073
 20
15.618
 21
16.036
  0
LINE
  8
0
 10
15.073
 11
15
 20
16.036
 21
16.5
  0
ENDSEC
  0
SECTION
  2
OBJECTS
  0
DICTIONARY
  0
ENDSEC
  0
EOF
