  0
SECTION
  2
BLOCKS
  0
ENDSEC
  0
SECTION
  2
ENTITIES
  0
LINE
  8
0
 10
-100
 11
-100
 20
-100
 21
100
  0
LINE
  8
0
 10
-100
 11
100
 20
100
 21
100
  0
LINE
  8
0
 10
100
 11
100
 20
100
 21
-100
  0
LINE
  8
0
 10
100
 11
-100
 20
-100
 21
-100
  0
LINE
  8
0
 10
-60
 11
-60
 20
-40
 21
40
  0
LINE
  8
0
 10
-60
 11
-30
 20
40
 21
40
  0
LINE
  8
0
 10
-30
 11
-30
 20
40
 21
12.5
  0
LINE
  8
0
 10
-30
 11
60
 20
12.5
 21
12.5
  0
LINE
  8
0
 10
60
 11
60
 20
12.5
 21
-12.5
  0
LINE
  8
0
 10
60
 11
-30
 20
-12.5
 21
-12.5
  0
LINE
  8
0
 10
-30
 11
-30
 20
-12.5
 21
-40
  0
LINE
  8
0
 10
-30
 11
-60
 20
-40
 21
-40
  0
LINE
  8
0
 10
-18.5
 11
-18.497
 20
-30
 21
-29.906
  0
LINE
  8
0
 10
-18.497
 11
-18.488
 20
-29.906
 21
-29.812
  0
LINE
  8
0
 10
-18.488
 11
-18.473
 20
-29.812
 21
-29.719
  0
LINE
  8
0
 10
-18.473
 11
-18.453
 20
-29.719
 21
-29.627
  0
LINE
  8
0
 10
-18.453
 11
-18.427
 20
-29.627
 21
-29.536
  0
LINE
  8
0
 10
-18.427
 11
-18.395
 20
-29.536
 21
-29.448
  0
LINE
  8
0
 10
-18.395
 11
-18.357
 20
-29.448
 21
-29.361
  0
LINE
  8
0
 10
-18.357
 11
-18.314
 20
-29.361
 21
-29.277
  0
LINE
  8
0
 10
-18.314
 11
-18.266
 20
-29.277
 21
-29.196
  0
LINE
  8
0
 10
-18.266
 11
-18.214
 20
-29.196
 21
-29.118
  0
LINE
  8
0
 10
-18.214
 11
-18.156
 20
-29.118
 21
-29.044
  0
LINE
  8
0
 10
-18.156
 11
-18.093
 20
-29.044
 21
-28.973
  0
LINE
  8
0
 10
-18.093
 11
-18.027
 20
-28.973
 21
-28.907
  0
LINE
  8
0
 10
-18.027
 11
-17.956
 20
-28.907
 21
-28.844
  0
LINE
  8
0
 10
-17.956
 11
-17.882
 20
-28.844
 21
-28.786
  0
LINE
  8
0
 10
-17.882
 11
-17.804
 20
-28.786
 21
-28.734
  0
LINE
  8
0
 10
-17.804
 11
-17.723
 20
-28.734
 21
-28.686
  0
LINE
  8
0
 10
-17.723
 11
-17.639
 20
-28.686
 21
-28.643
  0
LINE
  8
0
 10
-17.639
 11
-17.552
 20
-28.643
 21
-28.605
  0
LINE
  8
0
 10
-17.552
 11
-17.464
 20
-28.605
 21
-28.573
  0
LINE
  8
0
 10
-17.464
 11
-17.373
 20
-28.573
 21
-28.547
  0
LINE
  8
0
 10
-17.373
 11
-17.281
 20
-28.547
 21
-28.527
  0
LINE
  8
0
 10
-17.281
 11
-17.188
 20
-28.527
 21
-28.512
  0
LINE
  8
0
 10
-17.188
 11
-17.094
 20
-28.512
 21
-28.503
  0
LINE
  8
0
 10
-17.094
 11
-17
 20
-28.503
 21
-28.5
  0
LINE
  8
0
 10
-17
 11
-16.906
 20
-28.5
 21
-28.503
  0
LINE
  8
0
 10
-16.906
 11
-16.812
 20
-28.503
 21
-28.512
  0
LINE
  8
0
 10
-16.812
 11
-16.719
 20
-28.512
 21
-28.527
  0
LINE
  8
0
 10
-16.719
 11
-16.627
 20
-28.527
 21
-28.547
  0
LINE
  8
0
 10
-16.627
 11
-16.536
 20
-28.547
 21
-28.573
  0
LINE
  8
0
 10
-16.536
 11
-16.448
 20
-28.573
 21
-28.605
  0
LINE
  8
0
 10
-16.448
 11
-16.361
 20
-28.605
 21
-28.643
  0
LINE
  8
0
 10
-16.361
 11
-16.277
 20
-28.643
 21
-28.686
  0
LINE
  8
0
 10
-16.277
 11
-16.196
 20
-28.686
 21
-28.734
  0
LINE
  8
0
 10
-16.196
 11
-16.118
 20
-28.734
 21
-28.786
  0
LINE
  8
0
 10
-16.118
 11
-16.044
 20
-28.786
 21
-28.844
  0
LINE
  8
0
 10
-16.044
 11
-15.973
 20
-28.844
 21
-28.907
  0
LINE
  8
0
 10
-15.973
 11
-15.907
 20
-28.907
 21
-28.973
  0
LINE
  8
0
 10
-15.907
 11
-15.844
 20
-28.973
 21
-29.044
  0
LINE
  8
0
 10
-15.844
 11
-15.786
 20
-29.044
 21
-29.118
  0
LINE
  8
0
 10
-15.786
 11
-15.734
 20
-29.118
 21
-29.196
  0
LINE
  8
0
 10
-15.734
 11
-15.686
 20
-29.196
 21
-29.277
  0
LINE
  8
0
 10
-15.686
 11
-15.643
 20
-29.277
 21
-29.361
  0
LINE
  8
0
 10
-15.643
 11
-15.605
 20
-29.361
 21
-29.448
  0
LINE
  8
0
 10
-15.605
 11
-15.573
 20
-29.448
 21
-29.536
  0
LINE
  8
0
 10
-15.573
 11
-15.547
 20
-29.536
 21
-29.627
  0
LINE
  8
0
 10
-15.547
 11
-15.527
 20
-29.627
 21
-29.719
  0
LINE
  8
0
 10
-15.527
 11
-15.512
 20
-29.719
 21
-29.812
  0
LINE
  8
0
 10
-15.512
 11
-15.503
 20
-29.812
 21
-29.906
  0
LINE
  8
0
 10
-15.503
 11
-15.5
 20
-29.906
 21
-30
  0
LINE
  8
0
 10
-15.5
 11
-15.503
 20
-30
 21
-30.094
  0
LINE
  8
0
 10
-15.503
 11
-15.512
 20
-30.094
 21
-30.188
  0
LINE
  8
0
 10
-15.512
 11
-15.527
 20
-30.188
 21
-30.281
  0
LINE
  8
0
 10
-15.527
 11
-15.547
 20
-30.281
 21
-30.373
  0
LINE
  8
0
 10
-15.547
 11
-15.573
 20
-30.373
 21
-30.464
  0
LINE
  8
0
 10
-15.573
 11
-15.605
 20
-30.464
 21
-30.552
  0
LINE
  8
0
 10
-15.605
 11
-15.643
 20
-30.552
 21
-30.639
  0
LINE
  8
0
 10
-15.643
 11
-15.686
 20
-30.639
 21
-30.723
  0
LINE
  8
0
 10
-15.686
 11
-15.734
 20
-30.723
 21
-30.804
  0
LINE
  8
0
 10
-15.734
 11
-15.786
 20
-30.804
 21
-30.882
  0
LINE
  8
0
 10
-15.786
 11
-15.844
 20
-30.882
 21
-30.956
  0
LINE
  8
0
 10
-15.844
 11
-15.907
 20
-30.956
 21
-31.027
  0
LINE
  8
0
 10
-15.907
 11
-15.973
 20
-31.027
 21
-31.093
  0
LINE
  8
0
 10
-15.973
 11
-16.044
 20
-31.093
 21
-31.156
  0
LINE
  8
0
 10
-16.044
 11
-16.118
 20
-31.156
 21
-31.214
  0
LINE
  8
0
 10
-16.118
 11
-16.196
 20
-31.214
 21
-31.266
  0
LINE
  8
0
 10
-16.196
 11
-16.277
 20
-31.266
 21
-31.314
  0
LINE
  8
0
 10
-16.277
 11
-16.361
 20
-31.314
 21
-31.357
  0
LINE
  8
0
 10
-16.361
 11
-16.448
 20
-31.357
 21
-31.395
  0
LINE
  8
0
 10
-16.448
 11
-16.536
 20
-31.395
 21
-31.427
  0
LINE
  8
0
 10
-16.536
 11
-16.627
 20
-31.427
 21
-31.453
  0
LINE
  8
0
 10
-16.627
 11
-16.719
 20
-31.453
 21
-31.473
  0
LINE
  8
0
 10
-16.719
 11
-16.812
 20
-31.473
 21
-31.488
  0
LINE
  8
0
 10
-16.812
 11
-16.906
 20
-31.488
 21
-31.497
  0
LINE
  8
0
 10
-16.906
 11
-17
 20
-31.497
 21
-31.5
  0
LINE
  8
0
 10
-17
 11
-17.094
 20
-31.5
 21
-31.497
  0
LINE
  8
0
 10
-17.094
 11
-17.188
 20
-31.497
 21
-31.488
  0
LINE
  8
0
 10
-17.188
 11
-17.281
 20
-31.488
 21
-31.473
  0
LINE
  8
0
 10
-17.281
 11
-17.373
 20
-31.473
 21
-31.453
  0
LINE
  8
0
 10
-17.373
 11
-17.464
 20
-31.453
 21
-31.427
  0
LINE
  8
0
 10
-17.464
 11
-17.552
 20
-31.427
 21
-31.395
  0
LINE
  8
0
 10
-17.552
 11
-17.639
 20
-31.395
 21
-31.357
  0
LINE
  8
0
 10
-17.639
 11
-17.723
 20
-31.357
 21
-31.314
  0
LINE
  8
0
 10
-17.723
 11
-17.804
 20
-31.314
 21
-31.266
  0
LINE
  8
0
 10
-17.804
 11
-17.882
 20
-31.266
 21
-31.214
  0
LINE
  8
0
 10
-17.882
 11
-17.956
 20
-31.214
 21
-31.156
  0
LINE
  8
0
 10
-17.956
 11
-18.027
 20
-31.156
 21
-31.093
  0
LINE
  8
0
 10
-18.027
 11
-18.093
 20
-31.093
 21
-31.027
  0
LINE
  8
0
 10
-18.093
 11
-18.156
 20
-31.027
 21
-30.956
  0
LINE
  8
0
 10
-18.156
 11
-18.214
 20
-30.956
 21
-30.882
  0
LINE
  8
0
 10
-18.214
 11
-18.266
 20
-30.882
 21
-30.804
  0
LINE
  8
0
 10
-18.266
 11
-18.314
 20
-30.804
 21
-30.723
  0
LINE
  8
0
 10
-18.314
 11
-18.357
 20
-30.723
 21
-30.639
  0
LINE
  8
0
 10
-18.357
 11
-18.395
 20
-30.639
 21
-30.552
  0
LINE
  8
0
 10
-18.395
 11
-18.427
 20
-30.552
 21
-30.464
  0
LINE
  8
0
 10
-18.427
 11
-18.453
 20
-30.464
 21
-30.373
  0
LINE
  8
0
 10
-18.453
 11
-18.473
 20
-30.373
 21
-30.281
  0
LINE
  8
0
 10
-18.473
 11
-18.488
 20
-30.281
 21
-30.188
  0
LINE
  8
0
 10
-18.488
 11
-18.497
 20
-30.188
 21
-30.094
  0
LINE
  8
0
 10
-18.497
 11
-18.5
 20
-30.094
 21
-30
  0
LINE
  8
0
 10
-18.5
 11
-18.497
 20
30
 21
30.094
  0
LINE
  8
0
 10
-18.497
 11
-18.488
 20
30.094
 21
30.188
  0
LINE
  8
0
 10
-18.488
 11
-18.473
 20
30.188
 21
30.281
  0
LINE
  8
0
 10
-18.473
 11
-18.453
 20
30.281
 21
30.373
  0
LINE
  8
0
 10
-18.453
 11
-18.427
 20
30.373
 21
30.464
  0
LINE
  8
0
 10
-18.427
 11
-18.395
 20
30.464
 21
30.552
  0
LINE
  8
0
 10
-18.395
 11
-18.357
 20
30.552
 21
30.639
  0
LINE
  8
0
 10
-18.357
 11
-18.314
 20
30.639
 21
30.723
  0
LINE
  8
0
 10
-18.314
 11
-18.266
 20
30.723
 21
30.804
  0
LINE
  8
0
 10
-18.266
 11
-18.214
 20
30.804
 21
30.882
  0
LINE
  8
0
 10
-18.214
 11
-18.156
 20
30.882
 21
30.956
  0
LINE
  8
0
 10
-18.156
 11
-18.093
 20
30.956
 21
31.027
  0
LINE
  8
0
 10
-18.093
 11
-18.027
 20
31.027
 21
31.093
  0
LINE
  8
0
 10
-18.027
 11
-17.956
 20
31.093
 21
31.156
  0
LINE
  8
0
 10
-17.956
 11
-17.882
 20
31.156
 21
31.214
  0
LINE
  8
0
 10
-17.882
 11
-17.804
 20
31.214
 21
31.266
  0
LINE
  8
0
 10
-17.804
 11
-17.723
 20
31.266
 21
31.314
  0
LINE
  8
0
 10
-17.723
 11
-17.639
 20
31.314
 21
31.357
  0
LINE
  8
0
 10
-17.639
 11
-17.552
 20
31.357
 21
31.395
  0
LINE
  8
0
 10
-17.552
 11
-17.464
 20
31.395
 21
31.427
  0
LINE
  8
0
 10
-17.464
 11
-17.373
 20
31.427
 21
31.453
  0
LINE
  8
0
 10
-17.373
 11
-17.281
 20
31.453
 21
31.473
  0
LINE
  8
0
 10
-17.281
 11
-17.188
 20
31.473
 21
31.488
  0
LINE
  8
0
 10
-17.188
 11
-17.094
 20
31.488
 21
31.497
  0
LINE
  8
0
 10
-17.094
 11
-17
 20
31.497
 21
31.5
  0
LINE
  8
0
 10
-17
 11
-16.906
 20
31.5
 21
31.497
  0
LINE
  8
0
 10
-16.906
 11
-16.812
 20
31.497
 21
31.488
  0
LINE
  8
0
 10
-16.812
 11
-16.719
 20
31.488
 21
31.473
  0
LINE
  8
0
 10
-16.719
 11
-16.627
 20
31.473
 21
31.453
  0
LINE
  8
0
 10
-16.627
 11
-16.536
 20
31.453
 21
31.427
  0
LINE
  8
0
 10
-16.536
 11
-16.448
 20
31.427
 21
31.395
  0
LINE
  8
0
 10
-16.448
 11
-16.361
 20
31.395
 21
31.357
  0
LINE
  8
0
 10
-16.361
 11
-16.277
 20
31.357
 21
31.314
  0
LINE
  8
0
 10
-16.277
 11
-16.196
 20
31.314
 21
31.266
  0
LINE
  8
0
 10
-16.196
 11
-16.118
 20
31.266
 21
31.214
  0
LINE
  8
0
 10
-16.118
 11
-16.044
 20
31.214
 21
31.156
  0
LINE
  8
0
 10
-16.044
 11
-15.973
 20
31.156
 21
31.093
  0
LINE
  8
0
 10
-15.973
 11
-15.907
 20
31.093
 21
31.027
  0
LINE
  8
0
 10
-15.907
 11
-15.844
 20
31.027
 21
30.956
  0
LINE
  8
0
 10
-15.844
 11
-15.786
 20
30.956
 21
30.882
  0
LINE
  8
0
 10
-15.786
 11
-15.734
 20
30.882
 21
30.804
  0
LINE
  8
0
 10
-15.734
 11
-15.686
 20
30.804
 21
30.723
  0
LINE
  8
0
 10
-15.686
 11
-15.643
 20
30.723
 21
30.639
  0
LINE
  8
0
 10
-15.643
 11
-15.605
 20
30.639
 21
30.552
  0
LINE
  8
0
 10
-15.605
 11
-15.573
 20
30.552
 21
30.464
  0
LINE
  8
0
 10
-15.573
 11
-15.547
 20
30.464
 21
30.373
  0
LINE
  8
0
 10
-15.547
 11
-15.527
 20
30.373
 21
30.281
  0
LINE
  8
0
 10
-15.527
 11
-15.512
 20
30.281
 21
30.188
  0
LINE
  8
0
 10
-15.512
 11
-15.503
 20
30.188
 21
30.094
  0
LINE
  8
0
 10
-15.503
 11
-15.5
 20
30.094
 21
30
  0
LINE
  8
0
 10
-15.5
 11
-15.503
 20
30
 21
29.906
  0
LINE
  8
0
 10
-15.503
 11
-15.512
 20
29.906
 21
29.812
  0
LINE
  8
0
 10
-15.512
 11
-15.527
 20
29.812
 21
29.719
  0
LINE
  8
0
 10
-15.527
 11
-15.547
 20
29.719
 21
29.627
  0
LINE
  8
0
 10
-15.547
 11
-15.573
 20
29.627
 21
29.536
  0
LINE
  8
0
 10
-15.573
 11
-15.605
 20
29.536
 21
29.448
  0
LINE
  8
0
 10
-15.605
 11
-15.643
 20
29.448
 21
29.361
  0
LINE
  8
0
 10
-15.643
 11
-15.686
 20
29.361
 21
29.277
  0
LINE
  8
0
 10
-15.686
 11
-15.734
 20
29.277
 21
29.196
  0
LINE
  8
0
 10
-15.734
 11
-15.786
 20
29.196
 21
29.118
  0
LINE
  8
0
 10
-15.786
 11
-15.844
 20
29.118
 21
29.044
  0
LINE
  8
0
 10
-15.844
 11
-15.907
 20
29.044
 21
28.973
  0
LINE
  8
0
 10
-15.907
 11
-15.973
 20
28.973
 21
28.907
  0
LINE
  8
0
 10
-15.973
 11
-16.044
 20
28.907
 21
28.844
  0
LINE
  8
0
 10
-16.044
 11
-16.118
 20
28.844
 21
28.786
  0
LINE
  8
0
 10
-16.118
 11
-16.196
 20
28.786
 21
28.734
  0
LINE
  8
0
 10
-16.196
 11
-16.277
 20
28.734
 21
28.686
  0
LINE
  8
0
 10
-16.277
 11
-16.361
 20
28.686
 21
28.643
  0
LINE
  8
0
 10
-16.361
 11
-16.448
 20
28.643
 21
28.605
  0
LINE
  8
0
 10
-16.448
 11
-16.536
 20
28.605
 21
28.573
  0
LINE
  8
0
 10
-16.536
 11
-16.627
 20
28.573
 21
28.547
  0
LINE
  8
0
 10
-16.627
 11
-16.719
 20
28.547
 21
28.527
  0
LINE
  8
0
 10
-16.719
 11
-16.812
 20
28.527
 21
28.512
  0
LINE
  8
0
 10
-16.812
 11
-16.906
 20
28.512
 21
28.503
  0
LINE
  8
0
 10
-16.906
 11
-17
 20
28.503
 21
28.5
  0
LINE
  8
0
 10
-17
 11
-17.094
 20
28.5
 21
28.503
  0
LINE
  8
0
 10
-17.094
 11
-17.188
 20
28.503
 21
28.512
  0
LINE
  8
0
 10
-17.188
 11
-17.281
 20
28.512
 21
28.527
  0
LINE
  8
0
 10
-17.281
 11
-17.373
 20
28.527
 21
28.547
  0
LINE
  8
0
 10
-17.373
 11
-17.464
 20
28.547
 21
28.573
  0
LINE
  8
0
 10
-17.464
 11
-17.552
 20
28.573
 21
28.605
  0
LINE
  8
0
 10
-17.552
 11
-17.639
 20
28.605
 21
28.643
  0
LINE
  8
0
 10
-17.639
 11
-17.723
 20
28.643
 21
28.686
  0
LINE
  8
0
 10
-17.723
 11
-17.804
 20
28.686
 21
28.734
  0
LINE
  8
0
 10
-17.804
 11
-17.882
 20
28.734
 21
28.786
  0
LINE
  8
0
 10
-17.882
 11
-17.956
 20
28.786
 21
28.844
  0
LINE
  8
0
 10
-17.956
 11
-18.027
 20
28.844
 21
28.907
  0
LINE
  8
0
 10
-18.027
 11
-18.093
 20
28.907
 21
28.973
  0
LINE
  8
0
 10
-18.093
 11
-18.156
 20
28.973
 21
29.044
  0
LINE
  8
0
 10
-18.156
 11
-18.214
 20
29.044
 21
29.118
  0
LINE
  8
0
 10
-18.214
 11
-18.266
 20
29.118
 21
29.196
  0
LINE
  8
0
 10
-18.266
 11
-18.314
 20
29.196
 21
29.277
  0
LINE
  8
0
 10
-18.314
 11
-18.357
 20
29.277
 21
29.361
  0
LINE
  8
0
 10
-18.357
 11
-18.395
 20
29.361
 21
29.448
  0
LINE
  8
0
 10
-18.395
 11
-18.427
 20
29.448
 21
29.536
  0
LINE
  8
0
 10
-18.427
 11
-18.453
 20
29.536
 21
29.627
  0
LINE
  8
0
 10
-18.453
 11
-18.473
 20
29.627
 21
29.719
  0
LINE
  8
0
 10
-18.473
 11
-18.488
 20
29.719
 21
29.812
  0
LINE
  8
0
 10
-18.488
 11
-18.497
 20
29.812
 21
29.906
  0
LINE
  8
0
 10
-18.497
 11
-18.5
 20
29.906
 21
30
  0
LINE
  8
0
 10
15.5
 11
15.503
 20
-30
 21
-29.906
  0
LINE
  8
0
 10
15.503
 11
15.512
 20
-29.906
 21
-29.812
  0
LINE
  8
0
 10
15.512
 11
15.527
 20
-29.812
 21
-29.719
  0
LINE
  8
0
 10
15.527
 11
15.547
 20
-29.719
 21
-29.627
  0
LINE
  8
0
 10
15.547
 11
15.573
 20
-29.627
 21
-29.536
  0
LINE
  8
0
 10
15.573
 11
15.605
 20
-29.536
 21
-29.448
  0
LINE
  8
0
 10
15.605
 11
15.643
 20
-29.448
 21
-29.361
  0
LINE
  8
0
 10
15.643
 11
15.686
 20
-29.361
 21
-29.277
  0
LINE
  8
0
 10
15.686
 11
15.734
 20
-29.277
 21
-29.196
  0
LINE
  8
0
 10
15.734
 11
15.786
 20
-29.196
 21
-29.118
  0
LINE
  8
0
 10
15.786
 11
15.844
 20
-29.118
 21
-29.044
  0
LINE
  8
0
 10
15.844
 11
15.907
 20
-29.044
 21
-28.973
  0
LINE
  8
0
 10
15.907
 11
15.973
 20
-28.973
 21
-28.907
  0
LINE
  8
0
 10
15.973
 11
16.044
 20
-28.907
 21
-28.844
  0
LINE
  8
0
 10
16.044
 11
16.118
 20
-28.844
 21
-28.786
  0
LINE
  8
0
 10
16.118
 11
16.196
 20
-28.786
 21
-28.734
  0
LINE
  8
0
 10
16.196
 11
16.277
 20
-28.734
 21
-28.686
  0
LINE
  8
0
 10
16.277
 11
16.361
 20
-28.686
 21
-28.643
  0
LINE
  8
0
 10
16.361
 11
16.448
 20
-28.643
 21
-28.605
  0
LINE
  8
0
 10
16.448
 11
16.536
 20
-28.605
 21
-28.573
  0
LINE
  8
0
 10
16.536
 11
16.627
 20
-28.573
 21
-28.547
  0
LINE
  8
0
 10
16.627
 11
16.719
 20
-28.547
 21
-28.527
  0
LINE
  8
0
 10
16.719
 11
16.812
 20
-28.527
 21
-28.512
  0
LINE
  8
0
 10
16.812
 11
16.906
 20
-28.512
 21
-28.503
  0
LINE
  8
0
 10
16.906
 11
17
 20
-28.503
 21
-28.5
  0
LINE
  8
0
 10
17
 11
17.094
 20
-28.5
 21
-28.503
  0
LINE
  8
0
 10
17.094
 11
17.188
 20
-28.503
 21
-28.512
  0
LINE
  8
0
 10
17.188
 11
17.281
 20
-28.512
 21
-28.527
  0
LINE
  8
0
 10
17.281
 11
17.373
 20
-28.527
 21
-28.547
  0
LINE
  8
0
 10
17.373
 11
17.464
 20
-28.547
 21
-28.573
  0
LINE
  8
0
 10
17.464
 11
17.552
 20
-28.573
 21
-28.605
  0
LINE
  8
0
 10
17.552
 11
17.639
 20
-28.605
 21
-28.643
  0
LINE
  8
0
 10
17.639
 11
17.723
 20
-28.643
 21
-28.686
  0
LINE
  8
0
 10
17.723
 11
17.804
 20
-28.686
 21
-28.734
  0
LINE
  8
0
 10
17.804
 11
17.882
 20
-28.734
 21
-28.786
  0
LINE
  8
0
 10
17.882
 11
17.956
 20
-28.786
 21
-28.844
  0
LINE
  8
0
 10
17.956
 11
18.027
 20
-28.844
 21
-28.907
  0
LINE
  8
0
 10
18.027
 11
18.093
 20
-28.907
 21
-28.973
  0
LINE
  8
0
 10
18.093
 11
18.156
 20
-28.973
 21
-29.044
  0
LINE
  8
0
 10
18.156
 11
18.214
 20
-29.044
 21
-29.118
  0
LINE
  8
0
 10
18.214
 11
18.266
 20
-29.118
 21
-29.196
  0
LINE
  8
0
 10
18.266
 11
18.314
 20
-29.196
 21
-29.277
  0
LINE
  8
0
 10
18.314
 11
18.357
 20
-29.277
 21
-29.361
  0
LINE
  8
0
 10
18.357
 11
18.395
 20
-29.361
 21
-29.448
  0
LINE
  8
0
 10
18.395
 11
18.427
 20
-29.448
 21
-29.536
  0
LINE
  8
0
 10
18.427
 11
18.453
 20
-29.536
 21
-29.627
  0
LINE
  8
0
 10
18.453
 11
18.473
 20
-29.627
 21
-29.719
  0
LINE
  8
0
 10
18.473
 11
18.488
 20
-29.719
 21
-29.812
  0
LINE
  8
0
 10
18.488
 11
18.497
 20
-29.812
 21
-29.906
  0
LINE
  8
0
 10
18.497
 11
18.5
 20
-29.906
 21
-30
  0
LINE
  8
0
 10
18.5
 11
18.497
 20
-30
 21
-30.094
  0
LINE
  8
0
 10
18.497
 11
18.488
 20
-30.094
 21
-30.188
  0
LINE
  8
0
 10
18.488
 11
18.473
 20
-30.188
 21
-30.281
  0
LINE
  8
0
 10
18.473
 11
18.453
 20
-30.281
 21
-30.373
  0
LINE
  8
0
 10
18.453
 11
18.427
 20
-30.373
 21
-30.464
  0
LINE
  8
0
 10
18.427
 11
18.395
 20
-30.464
 21
-30.552
  0
LINE
  8
0
 10
18.395
 11
18.357
 20
-30.552
 21
-30.639
  0
LINE
  8
0
 10
18.357
 11
18.314
 20
-30.639
 21
-30.723
  0
LINE
  8
0
 10
18.314
 11
18.266
 20
-30.723
 21
-30.804
  0
LINE
  8
0
 10
18.266
 11
18.214
 20
-30.804
 21
-30.882
  0
LINE
  8
0
 10
18.214
 11
18.156
 20
-30.882
 21
-30.956
  0
LINE
  8
0
 10
18.156
 11
18.093
 20
-30.956
 21
-31.027
  0
LINE
  8
0
 10
18.093
 11
18.027
 20
-31.027
 21
-31.093
  0
LINE
  8
0
 10
18.027
 11
17.956
 20
-31.093
 21
-31.156
  0
LINE
  8
0
 10
17.956
 11
17.882
 20
-31.156
 21
-31.214
  0
LINE
  8
0
 10
17.882
 11
17.804
 20
-31.214
 21
-31.266
  0
LINE
  8
0
 10
17.804
 11
17.723
 20
-31.266
 21
-31.314
  0
LINE
  8
0
 10
17.723
 11
17.639
 20
-31.314
 21
-31.357
  0
LINE
  8
0
 10
17.639
 11
17.552
 20
-31.357
 21
-31.395
  0
LINE
  8
0
 10
17.552
 11
17.464
 20
-31.395
 21
-31.427
  0
LINE
  8
0
 10
17.464
 11
17.373
 20
-31.427
 21
-31.453
  0
LINE
  8
0
 10
17.373
 11
17.281
 20
-31.453
 21
-31.473
  0
LINE
  8
0
 10
17.281
 11
17.188
 20
-31.473
 21
-31.488
  0
LINE
  8
0
 10
17.188
 11
17.094
 20
-31.488
 21
-31.497
  0
LINE
  8
0
 10
17.094
 11
17
 20
-31.497
 21
-31.5
  0
LINE
  8
0
 10
17
 11
16.906
 20
-31.5
 21
-31.497
  0
LINE
  8
0
 10
16.906
 11
16.812
 20
-31.497
 21
-31.488
  0
LINE
  8
0
 10
16.812
 11
16.719
 20
-31.488
 21
-31.473
  0
LINE
  8
0
 10
16.719
 11
16.627
 20
-31.473
 21
-31.453
  0
LINE
  8
0
 10
16.627
 11
16.536
 20
-31.453
 21
-31.427
  0
LINE
  8
0
 10
16.536
 11
16.448
 20
-31.427
 21
-31.395
  0
LINE
  8
0
 10
16.448
 11
16.361
 20
-31.395
 21
-31.357
  0
LINE
  8
0
 10
16.361
 11
16.277
 20
-31.357
 21
-31.314
  0
LINE
  8
0
 10
16.277
 11
16.196
 20
-31.314
 21
-31.266
  0
LINE
  8
0
 10
16.196
 11
16.118
 20
-31.266
 21
-31.214
  0
LINE
  8
0
 10
16.118
 11
16.044
 20
-31.214
 21
-31.156
  0
LINE
  8
0
 10
16.044
 11
15.973
 20
-31.156
 21
-31.093
  0
LINE
  8
0
 10
15.973
 11
15.907
 20
-31.093
 21
-31.027
  0
LINE
  8
0
 10
15.907
 11
15.844
 20
-31.027
 21
-30.956
  0
LINE
  8
0
 10
15.844
 11
15.786
 20
-30.956
 21
-30.882
  0
LINE
  8
0
 10
15.786
 11
15.734
 20
-30.882
 21
-30.804
  0
LINE
  8
0
 10
15.734
 11
15.686
 20
-30.804
 21
-30.723
  0
LINE
  8
0
 10
15.686
 11
15.643
 20
-30.723
 21
-30.639
  0
LINE
  8
0
 10
15.643
 11
15.605
 20
-30.639
 21
-30.552
  0
LINE
  8
0
 10
15.605
 11
15.573
 20
-30.552
 21
-30.464
  0
LINE
  8
0
 10
15.573
 11
15.547
 20
-30.464
 21
-30.373
  0
LINE
  8
0
 10
15.547
 11
15.527
 20
-30.373
 21
-30.281
  0
LINE
  8
0
 10
15.527
 11
15.512
 20
-30.281
 21
-30.188
  0
LINE
  8
0
 10
15.512
 11
15.503
 20
-30.188
 21
-30.094
  0
LINE
  8
0
 10
15.503
 11
15.5
 20
-30.094
 21
-30
  0
LINE
  8
0
 10
15.5
 11
15.503
 20
30
 21
30.094
  0
LINE
  8
0
 10
15.503
 11
15.512
 20
30.094
 21
30.188
  0
LINE
  8
0
 10
15.512
 11
15.527
 20
30.188
 21
30.281
  0
LINE
  8
0
 10
15.527
 11
15.547
 20
30.281
 21
30.373
  0
LINE
  8
0
 10
15.547
 11
15.573
 20
30.373
 21
30.464
  0
LINE
  8
0
 10
15.573
 11
15.605
 20
30.464
 21
30.552
  0
LINE
  8
0
 10
15.605
 11
15.643
 20
30.552
 21
30.639
  0
LINE
  8
0
 10
15.643
 11
15.686
 20
30.639
 21
30.723
  0
LINE
  8
0
 10
15.686
 11
15.734
 20
30.723
 21
30.804
  0
LINE
  8
0
 10
15.734
 11
15.786
 20
30.804
 21
30.882
  0
LINE
  8
0
 10
15.786
 11
15.844
 20
30.882
 21
30.956
  0
LINE
  8
0
 10
15.844
 11
15.907
 20
30.956
 21
31.027
  0
LINE
  8
0
 10
15.907
 11
15.973
 20
31.027
 21
31.093
  0
LINE
  8
0
 10
15.973
 11
16.044
 20
31.093
 21
31.156
  0
LINE
  8
0
 10
16.044
 11
16.118
 20
31.156
 21
31.214
  0
LINE
  8
0
 10
16.118
 11
16.196
 20
31.214
 21
31.266
  0
LINE
  8
0
 10
16.196
 11
16.277
 20
31.266
 21
31.314
  0
LINE
  8
0
 10
16.277
 11
16.361
 20
31.314
 21
31.357
  0
LINE
  8
0
 10
16.361
 11
16.448
 20
31.357
 21
31.395
  0
LINE
  8
0
 10
16.448
 11
16.536
 20
31.395
 21
31.427
  0
LINE
  8
0
 10
16.536
 11
16.627
 20
31.427
 21
31.453
  0
LINE
  8
0
 10
16.627
 11
16.719
 20
31.453
 21
31.473
  0
LINE
  8
0
 10
16.719
 11
16.812
 20
31.473
 21
31.488
  0
LINE
  8
0
 10
16.812
 11
16.906
 20
31.488
 21
31.497
  0
LINE
  8
0
 10
16.906
 11
17
 20
31.497
 21
31.5
  0
LINE
  8
0
 10
17
 11
17.094
 20
31.5
 21
31.497
  0
LINE
  8
0
 10
17.094
 11
17.188
 20
31.497
 21
31.488
  0
LINE
  8
0
 10
17.188
 11
17.281
 20
31.488
 21
31.473
  0
LINE
  8
0
 10
17.281
 11
17.373
 20
31.473
 21
31.453
  0
LINE
  8
0
 10
17.373
 11
17.464
 20
31.453
 21
31.427
  0
LINE
  8
0
 10
17.464
 11
17.552
 20
31.427
 21
31.395
  0
LINE
  8
0
 10
17.552
 11
17.639
 20
31.395
 21
31.357
  0
LINE
  8
0
 10
17.639
 11
17.723
 20
31.357
 21
31.314
  0
LINE
  8
0
 10
17.723
 11
17.804
 20
31.314
 21
31.266
  0
LINE
  8
0
 10
17.804
 11
17.882
 20
31.266
 21
31.214
  0
LINE
  8
0
 10
17.882
 11
17.956
 20
31.214
 21
31.156
  0
LINE
  8
0
 10
17.956
 11
18.027
 20
31.156
 21
31.093
  0
LINE
  8
0
 10
18.027
 11
18.093
 20
31.093
 21
31.027
  0
LINE
  8
0
 10
18.093
 11
18.156
 20
31.027
 21
30.956
  0
LINE
  8
0
 10
18.156
 11
18.214
 20
30.956
 21
30.882
  0
LINE
  8
0
 10
18.214
 11
18.266
 20
30.882
 21
30.804
  0
LINE
  8
0
 10
18.266
 11
18.314
 20
30.804
 21
30.723
  0
LINE
  8
0
 10
18.314
 11
18.357
 20
30.723
 21
30.639
  0
LINE
  8
0
 10
18.357
 11
18.395
 20
30.639
 21
30.552
  0
LINE
  8
0
 10
18.395
 11
18.427
 20
30.552
 21
30.464
  0
LINE
  8
0
 10
18.427
 11
18.453
 20
30.464
 21
30.373
  0
LINE
  8
0
 10
18.453
 11
18.473
 20
30.373
 21
30.281
  0
LINE
  8
0
 10
18.473
 11
18.488
 20
30.281
 21
30.188
  0
LINE
  8
0
 10
18.488
 11
18.497
 20
30.188
 21
30.094
  0
LINE
  8
0
 10
18.497
 11
18.5
 20
30.094
 21
30
  0
LINE
  8
0
 10
18.5
 11
18.497
 20
30
 21
29.906
  0
LINE
  8
0
 10
18.497
 11
18.488
 20
29.906
 21
29.812
  0
LINE
  8
0
 10
18.488
 11
18.473
 20
29.812
 21
29.719
  0
LINE
  8
0
 10
18.473
 11
18.453
 20
29.719
 21
29.627
  0
LINE
  8
0
 10
18.453
 11
18.427
 20
29.627
 21
29.536
  0
LINE
  8
0
 10
18.427
 11
18.395
 20
29.536
 21
29.448
  0
LINE
  8
0
 10
18.395
 11
18.357
 20
29.448
 21
29.361
  0
LINE
  8
0
 10
18.357
 11
18.314
 20
29.361
 21
29.277
  0
LINE
  8
0
 10
18.314
 11
18.266
 20
29.277
 21
29.196
  0
LINE
  8
0
 10
18.266
 11
18.214
 20
29.196
 21
29.118
  0
LINE
  8
0
 10
18.214
 11
18.156
 20
29.118
 21
29.044
  0
LINE
  8
0
 10
18.156
 11
18.093
 20
29.044
 21
28.973
  0
LINE
  8
0
 10
18.093
 11
18.027
 20
28.973
 21
28.907
  0
LINE
  8
0
 10
18.027
 11
17.956
 20
28.907
 21
28.844
  0
LINE
  8
0
 10
17.956
 11
17.882
 20
28.844
 21
28.786
  0
LINE
  8
0
 10
17.882
 11
17.804
 20
28.786
 21
28.734
  0
LINE
  8
0
 10
17.804
 11
17.723
 20
28.734
 21
28.686
  0
LINE
  8
0
 10
17.723
 11
17.639
 20
28.686
 21
28.643
  0
LINE
  8
0
 10
17.639
 11
17.552
 20
28.643
 21
28.605
  0
LINE
  8
0
 10
17.552
 11
17.464
 20
28.605
 21
28.573
  0
LINE
  8
0
 10
17.464
 11
17.373
 20
28.573
 21
28.547
  0
LINE
  8
0
 10
17.373
 11
17.281
 20
28.547
 21
28.527
  0
LINE
  8
0
 10
17.281
 11
17.188
 20
28.527
 21
28.512
  0
LINE
  8
0
 10
17.188
 11
17.094
 20
28.512
 21
28.503
  0
LINE
  8
0
 10
17.094
 11
17
 20
28.503
 21
28.5
  0
LINE
  8
0
 10
17
 11
16.906
 20
28.5
 21
28.503
  0
LINE
  8
0
 10
16.906
 11
16.812
 20
28.503
 21
28.512
  0
LINE
  8
0
 10
16.812
 11
16.719
 20
28.512
 21
28.527
  0
LINE
  8
0
 10
16.719
 11
16.627
 20
28.527
 21
28.547
  0
LINE
  8
0
 10
16.627
 11
16.536
 20
28.547
 21
28.573
  0
LINE
  8
0
 10
16.536
 11
16.448
 20
28.573
 21
28.605
  0
LINE
  8
0
 10
16.448
 11
16.361
 20
28.605
 21
28.643
  0
LINE
  8
0
 10
16.361
 11
16.277
 20
28.643
 21
28.686
  0
LINE
  8
0
 10
16.277
 11
16.196
 20
28.686
 21
28.734
  0
LINE
  8
0
 10
16.196
 11
16.118
 20
28.734
 21
28.786
  0
LINE
  8
0
 10
16.118
 11
16.044
 20
28.786
 21
28.844
  0
LINE
  8
0
 10
16.044
 11
15.973
 20
28.844
 21
28.907
  0
LINE
  8
0
 10
15.973
 11
15.907
 20
28.907
 21
28.973
  0
LINE
  8
0
 10
15.907
 11
15.844
 20
28.973
 21
29.044
  0
LINE
  8
0
 10
15.844
 11
15.786
 20
29.044
 21
29.118
  0
LINE
  8
0
 10
15.786
 11
15.734
 20
29.118
 21
29.196
  0
LINE
  8
0
 10
15.734
 11
15.686
 20
29.196
 21
29.277
  0
LINE
  8
0
 10
15.686
 11
15.643
 20
29.277
 21
29.361
  0
LINE
  8
0
 10
15.643
 11
15.605
 20
29.361
 21
29.448
  0
LINE
  8
0
 10
15.605
 11
15.573
 20
29.448
 21
29.536
  0
LINE
  8
0
 10
15.573
 11
15.547
 20
29.536
 21
29.627
  0
LINE
  8
0
 10
15.547
 11
15.527
 20
29.627
 21
29.719
  0
LINE
  8
0
 10
15.527
 11
15.512
 20
29.719
 21
29.812
  0
LINE
  8
0
 10
15.512
 11
15.503
 20
29.812
 21
29.906
  0
LINE
  8
0
 10
15.503
 11
15.5
 20
29.906
 21
30
  0
ENDSEC
  0
SECTION
  2
OBJECTS
  0
DICTIONARY
  0
ENDSEC
  0
EOF
