<svg xmlns="http://www.w3.org/2000/svg" version="1.1" width="530.7mm" height="302.7mm" viewBox = " 0 0 1880.4346170000001 1072.559937" >
<!-- Front--> 
<g transform="translate(22.5000185, 22.5000185) " > 
<polygon style="stroke:#000000; fill:none; stroke-width:0.90000074" points="0, 0 61.1220975, 0 61.1220975, 17.716549999999998 122.244195, 17.716549999999998 122.244195, 0 157.67729500000002, 0 157.67729500000002, 17.716549999999998 193.11039499999998, 17.716549999999998 193.11039499999998, 0 228.543495, 0 228.543495, 17.716549999999998 263.976595, 17.716549999999998 263.976595, 0 299.409695, 0 299.409695, 17.716549999999998 334.84279499999997, 17.716549999999998 334.84279499999997, 0 370.275895, 0 370.275895, 17.716549999999998 405.70899499999996, 17.716549999999998 405.70899499999996, 0 441.1420949999999, 0 441.1420949999999, 17.716549999999998 476.57519499999995, 17.716549999999998 476.57519499999995, 0 512.008295, 0 512.008295, 17.716549999999998 573.1303925, 17.716549999999998 573.1303925, 0 634.25249, 0 634.25249, 53.14965 616.53594, 53.14965 616.53594, 106.2993 634.25249, 106.2993 634.25249, 141.73239999999998 616.53594, 141.73239999999998 616.53594, 177.1655 634.25249, 177.1655 634.25249, 212.59859999999998 616.53594, 212.59859999999998 616.53594, 248.0317 634.25249, 248.0317 634.25249, 283.46479999999997 616.53594, 283.46479999999997 616.53594, 318.8979 634.25249, 318.8979 634.25249, 354.33099999999996 616.53594, 354.33099999999996 616.53594, 407.48064999999997 634.25249, 407.48064999999997 634.25249, 460.6303 573.1303925, 460.6303 573.1303925, 442.91375 512.008295, 442.91375 512.008295, 460.6303 476.57519499999995, 460.6303 476.57519499999995, 442.91375 441.1420949999999, 442.91375 441.1420949999999, 460.6303 405.70899499999996, 460.6303 405.70899499999996, 442.91375 370.275895, 442.91375 370.275895, 460.6303 334.84279499999997, 460.6303 334.84279499999997, 442.91375 299.409695, 442.91375 299.409695, 460.6303 263.976595, 460.6303 263.976595, 442.91375 228.543495, 442.91375 228.543495, 460.6303 193.11039499999998, 460.6303 193.11039499999998, 442.91375 157.67729500000002, 442.91375 157.67729500000002, 460.6303 122.244195, 460.6303 122.244195, 442.91375 61.1220975, 442.91375 61.1220975, 460.6303 0, 460.6303 0, 407.48064999999997 17.716549999999998, 407.48064999999997 17.716549999999998, 354.33099999999996 0, 354.33099999999996 0, 318.8979 17.716549999999998, 318.8979 17.716549999999998, 283.46479999999997 0, 283.46479999999997 0, 248.0317 17.716549999999998, 248.0317 17.716549999999998, 212.59859999999998 0, 212.59859999999998 0, 177.1655 17.716549999999998, 177.1655 17.716549999999998, 141.73239999999998 0, 141.73239999999998 0, 106.2993 17.716549999999998, 106.2993 17.716549999999998, 53.14965 0, 53.14965 "/> 
 <rect x="92.12606" y="212.5986" width="28.34648" height="77.95282" rx="11.8700885" ry="11.8700885" style="stroke:#000000;stroke-width:0.90000074;fill:none" /> 
 <rect x="513.77995" y="212.5986" width="28.34648" height="77.95282" rx="11.8700885" ry="11.8700885" style="stroke:#000000;stroke-width:0.90000074;fill:none" /> 
 <rect x="299.409695" y="205.51198" width="35.433099999999996" height="85.03944" rx="8.3267785" ry="8.3267785" style="stroke:#000000;stroke-width:0.90000074;fill:none" /> 
</g>
<!-- Back--> 
<g transform="translate(656.7525085, 22.5000185) " > 
<polygon style="stroke:#000000; fill:none; stroke-width:0.90000074" points="0, 0 61.1220975, 0 61.1220975, 17.716549999999998 122.244195, 17.716549999999998 122.244195, 0 157.67729500000002, 0 157.67729500000002, 17.716549999999998 193.11039499999998, 17.716549999999998 193.11039499999998, 0 228.543495, 0 228.543495, 17.716549999999998 263.976595, 17.716549999999998 263.976595, 0 299.409695, 0 299.409695, 17.716549999999998 334.84279499999997, 17.716549999999998 334.84279499999997, 0 370.275895, 0 370.275895, 17.716549999999998 405.70899499999996, 17.716549999999998 405.70899499999996, 0 441.1420949999999, 0 441.1420949999999, 17.716549999999998 476.57519499999995, 17.716549999999998 476.57519499999995, 0 512.008295, 0 512.008295, 17.716549999999998 573.1303925, 17.716549999999998 573.1303925, 0 634.25249, 0 634.25249, 53.14965 616.53594, 53.14965 616.53594, 106.2993 634.25249, 106.2993 634.25249, 141.73239999999998 616.53594, 141.73239999999998 616.53594, 177.1655 634.25249, 177.1655 634.25249, 212.59859999999998 616.53594, 212.59859999999998 616.53594, 248.0317 634.25249, 248.0317 634.25249, 283.46479999999997 616.53594, 283.46479999999997 616.53594, 318.8979 634.25249, 318.8979 634.25249, 354.33099999999996 616.53594, 354.33099999999996 616.53594, 407.48064999999997 634.25249, 407.48064999999997 634.25249, 460.6303 573.1303925, 460.6303 573.1303925, 442.91375 512.008295, 442.91375 512.008295, 460.6303 476.57519499999995, 460.6303 476.57519499999995, 442.91375 441.1420949999999, 442.91375 441.1420949999999, 460.6303 405.70899499999996, 460.6303 405.70899499999996, 442.91375 370.275895, 442.91375 370.275895, 460.6303 334.84279499999997, 460.6303 334.84279499999997, 442.91375 299.409695, 442.91375 299.409695, 460.6303 263.976595, 460.6303 263.976595, 442.91375 228.543495, 442.91375 228.543495, 460.6303 193.11039499999998, 460.6303 193.11039499999998, 442.91375 157.67729500000002, 442.91375 157.67729500000002, 460.6303 122.244195, 460.6303 122.244195, 442.91375 61.1220975, 442.91375 61.1220975, 460.6303 0, 460.6303 0, 407.48064999999997 17.716549999999998, 407.48064999999997 17.716549999999998, 354.33099999999996 0, 354.33099999999996 0, 318.8979 17.716549999999998, 318.8979 17.716549999999998, 283.46479999999997 0, 283.46479999999997 0, 248.0317 17.716549999999998, 248.0317 17.716549999999998, 212.59859999999998 0, 212.59859999999998 0, 177.1655 17.716549999999998, 177.1655 17.716549999999998, 141.73239999999998 0, 141.73239999999998 0, 106.2993 17.716549999999998, 106.2993 17.716549999999998, 53.14965 0, 53.14965 "/> 
</g>
<!-- Left--> 
<g transform="translate(1291.0049985, 22.5000185) " > 
<polygon style="stroke:#000000; fill:none; stroke-width:0.90000074" points="17.716549999999998, 0 44.291375, 0 44.291375, 17.716549999999998 88.58275, 17.716549999999998 88.58275, 0 124.01585, 0 124.01585, 17.716549999999998 159.44895, 17.716549999999998 159.44895, 0 194.88205, 0 194.88205, 17.716549999999998 230.31515, 17.716549999999998 230.31515, 0 265.74825, 0 265.74825, 17.716549999999998 301.18134999999995, 17.716549999999998 301.18134999999995, 0 336.61445, 0 336.61445, 17.716549999999998 372.04755, 17.716549999999998 372.04755, 0 407.48064999999997, 0 407.48064999999997, 17.716549999999998 442.91374999999994, 17.716549999999998 442.91374999999994, 0 478.34685, 0 478.34685, 17.716549999999998 522.6382249999999, 17.716549999999998 522.6382249999999, 0 549.21305, 0 549.21305, 53.14965 566.9295999999999, 53.14965 566.9295999999999, 106.2993 549.21305, 106.2993 549.21305, 141.73239999999998 566.9295999999999, 141.73239999999998 566.9295999999999, 177.1655 549.21305, 177.1655 549.21305, 212.59859999999998 566.9295999999999, 212.59859999999998 566.9295999999999, 248.0317 549.21305, 248.0317 549.21305, 283.46479999999997 566.9295999999999, 283.46479999999997 566.9295999999999, 318.8979 549.21305, 318.8979 549.21305, 354.33099999999996 566.9295999999999, 354.33099999999996 566.9295999999999, 407.48064999999997 549.21305, 407.48064999999997 549.21305, 460.6303 522.6382249999999, 460.6303 522.6382249999999, 442.91375 478.34685, 442.91375 478.34685, 460.6303 442.91374999999994, 460.6303 442.91374999999994, 442.91375 407.48064999999997, 442.91375 407.48064999999997, 460.6303 372.04755, 460.6303 372.04755, 442.91375 336.61445, 442.91375 336.61445, 460.6303 301.18134999999995, 460.6303 301.18134999999995, 442.91375 265.74825, 442.91375 265.74825, 460.6303 230.31515, 460.6303 230.31515, 442.91375 194.88205, 442.91375 194.88205, 460.6303 159.44895, 460.6303 159.44895, 442.91375 124.01585, 442.91375 124.01585, 460.6303 88.58275, 460.6303 88.58275, 442.91375 44.291375, 442.91375 44.291375, 460.6303 17.716549999999998, 460.6303 17.716549999999998, 407.48064999999997 0, 407.48064999999997 0, 354.33099999999996 17.716549999999998, 354.33099999999996 17.716549999999998, 318.8979 0, 318.8979 0, 283.46479999999997 17.716549999999998, 283.46479999999997 17.716549999999998, 248.0317 0, 248.0317 0, 212.59859999999998 17.716549999999998, 212.59859999999998 17.716549999999998, 177.1655 0, 177.1655 0, 141.73239999999998 17.716549999999998, 141.73239999999998 17.716549999999998, 106.2993 0, 106.2993 0, 53.14965 17.716549999999998, 53.14965 "/> 
 <rect x="269.29156" y="212.5986" width="28.34648" height="77.95282" rx="11.8700885" ry="11.8700885" style="stroke:#000000;stroke-width:0.90000074;fill:none" /> 
</g>
<!-- Right--> 
<g transform="translate(1291.0049985, 483.1303185) " > 
<polygon style="stroke:#000000; fill:none; stroke-width:0.90000074" points="17.716549999999998, 0 44.291375, 0 44.291375, 17.716549999999998 88.58275, 17.716549999999998 88.58275, 0 124.01585, 0 124.01585, 17.716549999999998 159.44895, 17.716549999999998 159.44895, 0 194.88205, 0 194.88205, 17.716549999999998 230.31515, 17.716549999999998 230.31515, 0 265.74825, 0 265.74825, 17.716549999999998 301.18134999999995, 17.716549999999998 301.18134999999995, 0 336.61445, 0 336.61445, 17.716549999999998 372.04755, 17.716549999999998 372.04755, 0 407.48064999999997, 0 407.48064999999997, 17.716549999999998 442.91374999999994, 17.716549999999998 442.91374999999994, 0 478.34685, 0 478.34685, 17.716549999999998 522.6382249999999, 17.716549999999998 522.6382249999999, 0 549.21305, 0 549.21305, 53.14965 566.9295999999999, 53.14965 566.9295999999999, 106.2993 549.21305, 106.2993 549.21305, 141.73239999999998 566.9295999999999, 141.73239999999998 566.9295999999999, 177.1655 549.21305, 177.1655 549.21305, 212.59859999999998 566.9295999999999, 212.59859999999998 566.9295999999999, 248.0317 549.21305, 248.0317 549.21305, 283.46479999999997 566.9295999999999, 283.46479999999997 566.9295999999999, 318.8979 549.21305, 318.8979 549.21305, 354.33099999999996 566.9295999999999, 354.33099999999996 566.9295999999999, 407.48064999999997 549.21305, 407.48064999999997 549.21305, 460.6303 522.6382249999999, 460.6303 522.6382249999999, 442.91375 478.34685, 442.91375 478.34685, 460.6303 442.91374999999994, 460.6303 442.91374999999994, 442.91375 407.48064999999997, 442.91375 407.48064999999997, 460.6303 372.04755, 460.6303 372.04755, 442.91375 336.61445, 442.91375 336.61445, 460.6303 301.18134999999995, 460.6303 301.18134999999995, 442.91375 265.74825, 442.91375 265.74825, 460.6303 230.31515, 460.6303 230.31515, 442.91375 194.88205, 442.91375 194.88205, 460.6303 159.44895, 460.6303 159.44895, 442.91375 124.01585, 442.91375 124.01585, 460.6303 88.58275, 460.6303 88.58275, 442.91375 44.291375, 442.91375 44.291375, 460.6303 17.716549999999998, 460.6303 17.716549999999998, 407.48064999999997 0, 407.48064999999997 0, 354.33099999999996 17.716549999999998, 354.33099999999996 17.716549999999998, 318.8979 0, 318.8979 0, 283.46479999999997 17.716549999999998, 283.46479999999997 17.716549999999998, 248.0317 0, 248.0317 0, 212.59859999999998 17.716549999999998, 212.59859999999998 17.716549999999998, 177.1655 0, 177.1655 0, 141.73239999999998 17.716549999999998, 141.73239999999998 17.716549999999998, 106.2993 0, 106.2993 0, 53.14965 17.716549999999998, 53.14965 "/> 
 <rect x="269.29156" y="212.5986" width="28.34648" height="77.95282" rx="11.8700885" ry="11.8700885" style="stroke:#000000;stroke-width:0.90000074;fill:none" /> 
</g>
<!-- Top--> 
<g transform="translate(22.5000185, 483.1303185) " > 
<polygon style="stroke:#000000; fill:none; stroke-width:0.90000074" points="17.716549999999998, 17.716549999999998 61.1220975, 17.716549999999998 61.1220975, 0 122.244195, 0 122.244195, 17.716549999999998 157.67729500000002, 17.716549999999998 157.67729500000002, 0 193.11039499999998, 0 193.11039499999998, 17.716549999999998 228.543495, 17.716549999999998 228.543495, 0 263.976595, 0 263.976595, 17.716549999999998 299.409695, 17.716549999999998 299.409695, 0 334.84279499999997, 0 334.84279499999997, 17.716549999999998 370.275895, 17.716549999999998 370.275895, 0 405.70899499999996, 0 405.70899499999996, 17.716549999999998 441.1420949999999, 17.716549999999998 441.1420949999999, 0 476.57519499999995, 0 476.57519499999995, 17.716549999999998 512.008295, 17.716549999999998 512.008295, 0 573.1303925, 0 573.1303925, 17.716549999999998 616.53594, 17.716549999999998 616.53594, 44.291375 634.25249, 44.291375 634.25249, 88.58275 616.53594, 88.58275 616.53594, 124.01585 634.25249, 124.01585 634.25249, 159.44895 616.53594, 159.44895 616.53594, 194.88205 634.25249, 194.88205 634.25249, 230.31515 616.53594, 230.31515 616.53594, 265.74825 634.25249, 265.74825 634.25249, 301.18134999999995 616.53594, 301.18134999999995 616.53594, 336.61445 634.25249, 336.61445 634.25249, 372.04755 616.53594, 372.04755 616.53594, 407.48064999999997 634.25249, 407.48064999999997 634.25249, 442.91374999999994 616.53594, 442.91374999999994 616.53594, 478.34685 634.25249, 478.34685 634.25249, 522.6382249999999 616.53594, 522.6382249999999 616.53594, 549.21305 573.1303925, 549.21305 573.1303925, 566.9295999999999 512.008295, 566.9295999999999 512.008295, 549.21305 476.57519499999995, 549.21305 476.57519499999995, 566.9295999999999 441.1420949999999, 566.9295999999999 441.1420949999999, 549.21305 405.70899499999996, 549.21305 405.70899499999996, 566.9295999999999 370.275895, 566.9295999999999 370.275895, 549.21305 334.84279499999997, 549.21305 334.84279499999997, 566.9295999999999 299.409695, 566.9295999999999 299.409695, 549.21305 263.976595, 549.21305 263.976595, 566.9295999999999 228.543495, 566.9295999999999 228.543495, 549.21305 193.11039499999998, 549.21305 193.11039499999998, 566.9295999999999 157.67729500000002, 566.9295999999999 157.67729500000002, 549.21305 122.244195, 549.21305 122.244195, 566.9295999999999 61.1220975, 566.9295999999999 61.1220975, 549.21305 17.716549999999998, 549.21305 17.716549999999998, 522.6382249999999 0, 522.6382249999999 0, 478.34685 17.716549999999998, 478.34685 17.716549999999998, 442.91374999999994 0, 442.91374999999994 0, 407.48064999999997 17.716549999999998, 407.48064999999997 17.716549999999998, 372.04755 0, 372.04755 0, 336.61445 17.716549999999998, 336.61445 17.716549999999998, 301.18134999999995 0, 301.18134999999995 0, 265.74825 17.716549999999998, 265.74825 17.716549999999998, 230.31515 0, 230.31515 0, 194.88205 17.716549999999998, 194.88205 17.716549999999998, 159.44895 0, 159.44895 0, 124.01585 17.716549999999998, 124.01585 17.716549999999998, 88.58275 0, 88.58275 0, 44.291375 17.716549999999998, 44.291375 "/> 
</g>
<!-- Bottom--> 
<g transform="translate(656.7525085, 483.1303185) " > 
<polygon style="stroke:#000000; fill:none; stroke-width:0.90000074" points="17.716549999999998, 17.716549999999998 61.1220975, 17.716549999999998 61.1220975, 0 122.244195, 0 122.244195, 17.716549999999998 157.67729500000002, 17.716549999999998 157.67729500000002, 0 193.11039499999998, 0 193.11039499999998, 17.716549999999998 228.543495, 17.716549999999998 228.543495, 0 263.976595, 0 263.976595, 17.716549999999998 299.409695, 17.716549999999998 299.409695, 0 334.84279499999997, 0 334.84279499999997, 17.716549999999998 370.275895, 17.716549999999998 370.275895, 0 405.70899499999996, 0 405.70899499999996, 17.716549999999998 441.1420949999999, 17.716549999999998 441.1420949999999, 0 476.57519499999995, 0 476.57519499999995, 17.716549999999998 512.008295, 17.716549999999998 512.008295, 0 573.1303925, 0 573.1303925, 17.716549999999998 616.53594, 17.716549999999998 616.53594, 44.291375 634.25249, 44.291375 634.25249, 88.58275 616.53594, 88.58275 616.53594, 124.01585 634.25249, 124.01585 634.25249, 159.44895 616.53594, 159.44895 616.53594, 194.88205 634.25249, 194.88205 634.25249, 230.31515 616.53594, 230.31515 616.53594, 265.74825 634.25249, 265.74825 634.25249, 301.18134999999995 616.53594, 301.18134999999995 616.53594, 336.61445 634.25249, 336.61445 634.25249, 372.04755 616.53594, 372.04755 616.53594, 407.48064999999997 634.25249, 407.48064999999997 634.25249, 442.91374999999994 616.53594, 442.91374999999994 616.53594, 478.34685 634.25249, 478.34685 634.25249, 522.6382249999999 616.53594, 522.6382249999999 616.53594, 549.21305 573.1303925, 549.21305 573.1303925, 566.9295999999999 512.008295, 566.9295999999999 512.008295, 549.21305 476.57519499999995, 549.21305 476.57519499999995, 566.9295999999999 441.1420949999999, 566.9295999999999 441.1420949999999, 549.21305 405.70899499999996, 549.21305 405.70899499999996, 566.9295999999999 370.275895, 566.9295999999999 370.275895, 549.21305 334.84279499999997, 549.21305 334.84279499999997, 566.9295999999999 299.409695, 566.9295999999999 299.409695, 549.21305 263.976595, 549.21305 263.976595, 566.9295999999999 228.543495, 566.9295999999999 228.543495, 549.21305 193.11039499999998, 549.21305 193.11039499999998, 566.9295999999999 157.67729500000002, 566.9295999999999 157.67729500000002, 549.21305 122.244195, 549.21305 122.244195, 566.9295999999999 61.1220975, 566.9295999999999 61.1220975, 549.21305 17.716549999999998, 549.21305 17.716549999999998, 522.6382249999999 0, 522.6382249999999 0, 478.34685 17.716549999999998, 478.34685 17.716549999999998, 442.91374999999994 0, 442.91374999999994 0, 407.48064999999997 17.716549999999998, 407.48064999999997 17.716549999999998, 372.04755 0, 372.04755 0, 336.61445 17.716549999999998, 336.61445 17.716549999999998, 301.18134999999995 0, 301.18134999999995 0, 265.74825 17.716549999999998, 265.74825 17.716549999999998, 230.31515 0, 230.31515 0, 194.88205 17.716549999999998, 194.88205 17.716549999999998, 159.44895 0, 159.44895 0, 124.01585 17.716549999999998, 124.01585 17.716549999999998, 88.58275 0, 88.58275 0, 44.291375 17.716549999999998, 44.291375 "/> 
 <circle cx="306.496315" cy="35.433099999999996" r="5.314965" style="stroke:#000000;stroke-width:0.90000074;fill:none" /> 
 <circle cx="327.756175" cy="35.433099999999996" r="5.314965" style="stroke:#000000;stroke-width:0.90000074;fill:none" /> 
 <circle cx="327.756175" cy="106.2993" r="5.314965" style="stroke:#000000;stroke-width:0.90000074;fill:none" /> 
 <circle cx="306.496315" cy="106.2993" r="5.314965" style="stroke:#000000;stroke-width:0.90000074;fill:none" /> 
 <circle cx="306.496315" cy="85.03944" r="10.62993" style="stroke:#000000;stroke-width:0.90000074;fill:none" /> 
 <circle cx="306.496315" cy="56.69296" r="10.62993" style="stroke:#000000;stroke-width:0.90000074;fill:none" /> 
 <circle cx="327.756175" cy="56.69296" r="10.62993" style="stroke:#000000;stroke-width:0.90000074;fill:none" /> 
 <circle cx="327.756175" cy="85.03944" r="10.62993" style="stroke:#000000;stroke-width:0.90000074;fill:none" /> 
 <circle cx="584.64615" cy="70.86619999999999" r="19.488205" style="stroke:#000000;stroke-width:0.90000074;fill:none" /> 
</g></svg>